<svg xmlns="http://www.w3.org/2000/svg" width="24" height="24" fill="none" viewBox="0 0 24 24">
  <path stroke="#1B1C1B" stroke-width="1.5" d="M6.25 10.5a4.25 4.25 0 1 0 0-8.5 4.25 4.25 0 0 0 0 8.5ZM17.75 22a4.25 4.25 0 1 0 0-8.5 4.25 4.25 0 0 0 0 8.5Zm-11.5 0a4.25 4.25 0 1 0 0-8.5 4.25 4.25 0 0 0 0 8.5Z"/>
  <path stroke="#1B1C1B" stroke-linecap="round" stroke-linejoin="round" stroke-width="1.5" d="m20.868 2.439.692.692a1.5 1.5 0 0 1 0 2.122l-3.627 3.695a2 2 0 0 1-1.047.552l-2.248.488a.5.5 0 0 1-.595-.593l.478-2.236a2 2 0 0 1 .552-1.047l3.674-3.673a1.5 1.5 0 0 1 2.12 0Z"/>
</svg>
