<svg xmlns="http://www.w3.org/2000/svg" width="24" height="24" fill="none" viewBox="0 0 24 24">
  <path stroke="#1B1C1B" stroke-width="1.5" d="M2 6c0-1.886 0-2.828.586-3.414C3.172 2 4.114 2 6 2c1.886 0 2.828 0 3.414.586C10 3.172 10 4.114 10 6v2c0 1.886 0 2.828-.586 3.414C8.828 12 7.886 12 6 12c-1.886 0-2.828 0-3.414-.586C2 10.828 2 9.886 2 8V6Zm0 13c0-.932 0-1.398.152-1.765a2 2 0 0 1 1.083-1.083C3.602 16 4.068 16 5 16h2c.932 0 1.398 0 1.765.152a2 2 0 0 1 1.083 1.083C10 17.602 10 18.068 10 19c0 .932 0 1.398-.152 1.765a2 2 0 0 1-1.083 1.083C8.398 22 7.932 22 7 22H5c-.932 0-1.398 0-1.765-.152a2 2 0 0 1-1.083-1.083C2 20.398 2 19.932 2 19Zm12-3c0-1.886 0-2.828.586-3.414C15.172 12 16.114 12 18 12c1.886 0 2.828 0 3.414.586C22 13.172 22 14.114 22 16v2c0 1.886 0 2.828-.586 3.414C20.828 22 19.886 22 18 22c-1.886 0-2.828 0-3.414-.586C14 20.828 14 19.886 14 18v-2Zm0-11c0-.932 0-1.398.152-1.765a2 2 0 0 1 1.083-1.083C15.602 2 16.068 2 17 2h2c.932 0 1.398 0 1.765.152a2 2 0 0 1 1.083 1.083C22 3.602 22 4.068 22 5c0 .932 0 1.398-.152 1.765a2 2 0 0 1-1.083 1.083C20.398 8 19.932 8 19 8h-2c-.932 0-1.398 0-1.765-.152a2 2 0 0 1-1.083-1.083C14 6.398 14 5.932 14 5Z"/>
</svg>
