<svg xmlns="http://www.w3.org/2000/svg" width="24" height="24" fill="none" viewBox="0 0 24 24">
  <path stroke="#1B1C1B" stroke-width="1.5" d="M22 12c0-5.523-4.477-10-10-10S2 6.477 2 12s4.477 10 10 10 10-4.477 10-10Z"/>
  <path stroke="#1B1C1B" stroke-linecap="round" stroke-linejoin="round" stroke-width="1.5" d="m12.401 8.298 2.92-.973c.886-.296 1.33-.443 1.564-.21.233.234.086.677-.21 1.564l-.973 2.92c-.503 1.51-.755 2.265-1.297 2.806-.541.542-1.296.794-2.806 1.297l-2.92.973c-.887.296-1.33.444-1.564.21-.233-.234-.086-.678.21-1.564l.973-2.92c.503-1.51.755-2.265 1.297-2.806.541-.542 1.296-.794 2.806-1.297Z"/>
  <path stroke="#1B1C1B" stroke-linecap="round" stroke-linejoin="round" stroke-width="2" d="m12 12-.006.006"/>
</svg>
