<svg xmlns="http://www.w3.org/2000/svg" width="24" height="24" fill="none" viewBox="0 0 24 24">
  <path stroke="#1B1C1B" stroke-linecap="round" stroke-linejoin="round" stroke-width="1.5" d="M15 16.5c.492-.506 1.8-2.5 2.5-2.5m0 0c.7 0 2.009 1.994 2.5 2.5M17.5 14v8M18 2v2M6 2v2"/>
  <path stroke="#1B1C1B" stroke-linecap="round" stroke-linejoin="round" stroke-width="1.5" d="M12.5 22h-1.45c-4.03 0-6.046 0-7.298-1.354C2.5 19.293 2.5 17.114 2.5 12.756v-.513c0-4.357 0-6.536 1.252-7.89C5.004 3 7.02 3 11.05 3h1.9c4.03 0 6.046 0 7.298 1.354 1.179 1.274 1.248 3.28 1.252 7.146M3 8h18"/>
</svg>
