<svg xmlns="http://www.w3.org/2000/svg" width="24" height="24" fill="none" viewBox="0 0 24 24">
  <path stroke="#1B1C1B" stroke-linecap="round" stroke-linejoin="round" stroke-width="1.5" d="M18 2v2M6 2v2M3 8h18M2.5 12.243c0-4.357 0-6.536 1.252-7.89C5.004 3 7.02 3 11.05 3h1.9c4.03 0 6.046 0 7.298 1.354C21.5 5.707 21.5 7.886 21.5 12.244v.513c0 4.357 0 6.536-1.252 7.89C18.996 22 16.98 22 12.95 22h-1.9c-4.03 0-6.046 0-7.298-1.354C2.5 19.293 2.5 17.114 2.5 12.756v-.513Z"/>
  <path stroke="#1B1C1B" stroke-linecap="round" stroke-width="1.5" d="M12 17.5v1m0-1a2.497 2.497 0 0 1-2.08-1.113M12 17.5c.868 0 1.632-.442 2.08-1.113m-4.16 0L9 17m.92-.613A2.488 2.488 0 0 1 9.5 15c0-.513.155-.99.42-1.387m4.16 2.774L15 17m-.92-.613c.265-.397.42-.874.42-1.387s-.155-.99-.42-1.387M12 12.5c.868 0 1.632.442 2.08 1.113M12 12.5c-.868 0-1.632.442-2.08 1.113M12 12.5v-1m2.08 2.113L15 13m-5.08.613L9 13"/>
</svg>
