<svg xmlns="http://www.w3.org/2000/svg" width="24" height="24" fill="none" viewBox="0 0 24 24">
  <path stroke="#1B1C1B" stroke-linecap="round" stroke-linejoin="round" stroke-width="1.5" d="M5 16H3a1 1 0 0 0-1 1v.5a1 1 0 0 0 1 1h1a1 1 0 0 1 1 1v.5a1 1 0 0 1-1 1H2m6.5-5h1a1 1 0 0 1 1 1v3a1 1 0 0 1-1 1h-1a1 1 0 0 1-1-1v-3a1 1 0 0 1 1-1Zm5.5 0h1a1 1 0 0 1 1 1v3a1 1 0 0 1-1 1h-1a1 1 0 0 1-1-1v-3a1 1 0 0 1 1-1Zm8 0v5l-3.5-5v5"/>
  <path stroke="#1B1C1B" stroke-linecap="round" stroke-width="1.5" d="M17 8A5 5 0 1 0 7 8a5 5 0 0 0 10 0Z"/>
  <path stroke="#1B1C1B" stroke-linecap="round" stroke-linejoin="round" stroke-width="1.5" d="M13.5 8.5 12 8V5.5"/>
</svg>
