<svg xmlns="http://www.w3.org/2000/svg" width="24" height="24" fill="none" viewBox="0 0 24 24">
  <path stroke="#1B1C1B" stroke-width="1.5" d="M6 12c0-2.828 0-4.243.879-5.121C7.757 6 9.172 6 12 6c2.828 0 4.243 0 5.121.879C18 7.757 18 9.172 18 12c0 2.828 0 4.243-.879 5.121C16.243 18 14.828 18 12 18c-2.828 0-4.243 0-5.121-.879C6 16.243 6 14.828 6 12Zm10-6-.272-1.09c-.335-1.338-.502-2.007-.978-2.42a1.995 1.995 0 0 0-.165-.129C14.07 2 13.38 2 12 2s-2.069 0-2.585.361c-.057.04-.112.083-.165.129-.476.413-.643 1.082-.978 2.42L8 6m0 12 .272 1.09c.335 1.338.502 2.007.978 2.42.053.046.108.089.165.129C9.93 22 10.62 22 12 22s2.069 0 2.585-.361c.057-.04.112-.083.165-.129.476-.413.643-1.082.978-2.42L16 18"/>
  <path stroke="#1B1C1B" stroke-linecap="round" stroke-linejoin="round" stroke-width="1.5" d="M12 10v2.005L13 13"/>
</svg>
