<svg xmlns="http://www.w3.org/2000/svg" width="24" height="24" fill="none" viewBox="0 0 24 24">
  <path fill="#1B1C1B" d="M17.39 21H8.812c-2.309 0-3.463 0-4.286-.66-.823-.66-1.072-1.788-1.572-4.042l-.94-4.391a.445.445 0 0 1-.005-.025l.005.025c.185.761 2.316.761 6.533.761h3.215c1.523 0 1.935 1.057 1.932 2.076-.002.637.476 1.256 1.145 1.256.615 0 .97-.654 1.107-1.177.299-1.147.448-1.721.684-1.918.413-.346 1.132-.236 1.625-.236 1.921 0 2.882 0 3.456-.945a1.86 1.86 0 0 0 .277-.716l-.617 6.385c-.17 1.714-.254 2.571-.825 3.089-.572.518-1.433.518-3.156.518ZM10.001 7.5a2.5 2.5 0 1 0 5 0 2.5 2.5 0 0 0-5 0Z" opacity=".4"/>
  <path stroke="#1B1C1B" stroke-linecap="round" stroke-linejoin="round" stroke-width="1.5" d="M3.501 17h7.5m7.5 0h2.5m-8.5-12a2.5 2.5 0 1 1 0 5 2.5 2.5 0 0 1 0-5Zm0 0c.167-.5.9-1.6 2.5-2"/>
  <path stroke="#1B1C1B" stroke-linecap="round" stroke-width="1.5" d="m2.001 12 .953 4.298c.5 2.254.749 3.381 1.572 4.042.823.66 1.977.66 4.286.66h8.578c1.722 0 2.584 0 3.155-.518.572-.518.656-1.375.825-3.09L22.002 11"/>
  <path stroke="#1B1C1B" stroke-linecap="round" stroke-linejoin="round" stroke-width="1.5" d="M10.022 8.015c-5.95 2.248-8.35 3.286-7.985 4.031 1.979.935 5.615.695 9.335.555 1.024-.038 2.034.469 2.266 1.476.164.712.208 1.332.531 1.726.185.226.5.303.782.23.76-.2 1.075-1.05 1.45-2.54.073-.291.177-.604.459-.701 1.26-.438 5.139.527 5.139-1.25-.063-1.85-.736-3.003-2.899-4.717a3.51 3.51 0 0 0-2.456-.754c-.926.074-1.357.194-1.632.432"/>
</svg>
