<svg xmlns="http://www.w3.org/2000/svg" width="24" height="24" fill="none" viewBox="0 0 24 24">
  <path stroke="#1B1C1B" stroke-width="1.5" d="m16.2 14.689-6.889-6.89c-.462-.462-.693-.693-.978-.766a1.073 1.073 0 0 0-.322-.032c-.294.016-.566.197-1.11.56l-.139.093c-1.103.735-1.654 1.102-1.741 1.538-.047.234-.014.477.092.69.2.398.828.607 2.085 1.027.404.134.606.202.76.33.087.07.161.155.221.25.108.169.15.377.233.795l.27 1.35c.136.68.204 1.02.434 1.25.23.23.57.298 1.25.434l1.35.27c.418.083.626.125.796.233.094.06.178.134.25.22.127.155.195.357.33.761.418 1.257.628 1.886 1.025 2.085.214.106.457.139.69.092.436-.087.804-.638 1.54-1.741l.092-.14c.363-.543.544-.816.56-1.11a1.07 1.07 0 0 0-.032-.32c-.073-.286-.304-.517-.766-.98Z"/>
  <path stroke="#1B1C1B" stroke-width="1.5" d="m13.5 18-1.774 1.856C10.296 21.286 9.58 22 8.693 22c-.888 0-1.603-.715-3.032-2.144l-1.517-1.517C2.714 16.91 2 16.195 2 15.307c0-.888.715-1.603 2.144-3.033L6 10.5m3-2.792 3.646-3.646C14.02 2.687 14.708 2 15.563 2c.854 0 1.541.687 2.916 2.062l1.459 1.459C21.313 6.896 22 7.583 22 8.437c0 .855-.688 1.542-2.062 2.917L16.292 15"/>
  <path stroke="#1B1C1B" stroke-linejoin="round" stroke-width="1.5" d="m19.6 4.4-7.2 7.2M12 4l8 8"/>
</svg>
