<svg xmlns="http://www.w3.org/2000/svg" width="24" height="24" fill="none" viewBox="0 0 24 24">
  <path stroke="#1B1C1B" stroke-linecap="round" stroke-linejoin="round" stroke-width="1.5" d="M5.566 10.023c-.278-2.2.424-2.277.772-2.006 5.864 3.467 9.012 3.293 10.354 3.687 1.073.315.785 1.243.436 1.605l-5.47 6.48c-.906 1.074-2.1 2.796-3.277 2.029-.504-.328-.788-1.032-.883-1.575-.553-2.493-1.654-8.02-1.932-10.22Z"/>
  <path stroke="#1B1C1B" stroke-linecap="round" stroke-linejoin="round" stroke-width="1.5" d="m16.021 11.57 2.416-3.88c.272-.666-.332-1.727-2.416-1.09l-2.537 3.97m2.308-3.854V5.325c0-.36-.07-.73-.296-1.01-.35-.436-.94-.7-2.237.461m-.17 5.545v-7.1c-.333-.548-1.2-1.54-1.999-1.123-.8.417-.72 1.123-.72 1.444v1.26m0 0v2.19m0-2.19c-.416-.451-1.622-1.26-2.343-.63-.611.533-.349 2.82-.349 4.153"/>
  <path stroke="#1B1C1B" stroke-linecap="round" stroke-width="1.5" d="M7.467 18.03a2.527 2.527 0 0 0 2.522-2.532 2.527 2.527 0 0 0-2.522-2.53c-.434 0-.841.109-1.197.302"/>
</svg>
