<svg xmlns="http://www.w3.org/2000/svg" width="24" height="24" fill="none" viewBox="0 0 24 24">
  <path stroke="#1B1C1B" stroke-linecap="round" stroke-linejoin="round" stroke-width="1.5" d="M19 10.98c.536-.584 1.5-1.382 2.463-2.633.648-.842.7-2.032.206-2.976-.91-1.737-3.194-1.863-4.508-.436a28.71 28.71 0 0 1-.987 1.018m-9.24 12.471c-.728.22-1.448.4-2.157.543-.986.198-1.947-.347-2.442-1.29-.91-1.738.134-3.981 1.912-4.523.429-.131.86-.275 1.293-.433m11.466-7.7c-.127-.6-.647-1.68-1.734-1.897-1.525-.306-2.18-.113-4.01 1.417C9.8 5.765 6.689 7.167 5.317 7.715c-1.273.509-2.72 1.848-2.236 3.436.488 1.598 1.394 1.615 1.748 1.775"/>
  <path stroke="#1B1C1B" stroke-linecap="round" stroke-linejoin="round" stroke-width="1.5" d="M19.274 11.159c1.087.218 1.607 1.298 1.734 1.897.16 1.172-.921 2.285-1.482 2.694-.927.652-3.525 2.47-6.021 3.822-2.563 1.389-4.068 1.516-4.675 1.389-.354-.16-1.26-.176-1.748-1.775-.484-1.588.963-2.927 2.236-3.436 1.372-.548 4.483-1.95 5.947-3.174 1.83-1.53 2.484-1.723 4.009-1.417Zm-10.93.631c.243-.286.435-.849.58-1.491.122-.533.809-.421 1.474-.17.235.089.505.01.637-.204l1.06-1.709a.438.438 0 0 1 .51-.199c.488.163 1.117.437 1.468.26"/>
</svg>
