<svg xmlns="http://www.w3.org/2000/svg" width="24" height="24" fill="none" viewBox="0 0 24 24">
  <path stroke="#1B1C1B" stroke-linecap="round" stroke-linejoin="round" stroke-width="1.5" d="M8.897 6.084c-2.254.706-4.931 2.542-6.033 4.558-.63.946-1.375 3.134-.38 6.526.181.785.542 2.485.324 3.018.53-.22 2.22.143 3 .326 3.372 1 5.547.251 6.488-.382 2.004-1.109 3.829-3.802 4.53-6.07"/>
  <path stroke="#1B1C1B" stroke-linecap="round" stroke-width="1.5" d="M22.001 4.914c-.647-.447-2.44-1.033-4.301.434m-1.895-1.26c-2.66-1.426-4.793-1.202-5.964-.717-.19.078-.361.199-.481.366-.93 1.288.25 3.232 2.536 6.018a9.4 9.4 0 0 0 1.26 1.271c2.704 2.252 4.805 3.566 6.099 2.6.141-.105.248-.25.322-.411.64-1.39.522-3.684-.78-6.127a7.327 7.327 0 0 0-2.992-3Z"/>
</svg>
