<svg xmlns="http://www.w3.org/2000/svg" width="24" height="24" fill="none" viewBox="0 0 24 24">
  <path stroke="#1B1C1B" stroke-width="1.5" d="m5.003 12.001 1.035 5.015c.462 2.237.693 3.356 1.522 4.015 1.576 1.252 7.3 1.256 8.881 0 .83-.66 1.06-1.778 1.521-4.015l1.035-5.015m-3.993.014-1 9.984"/>
  <path stroke="#1B1C1B" stroke-linecap="round" stroke-linejoin="round" stroke-width="1.5" d="M11.094 2.312c.397.184.737.537.93.717.194-.18.485-.533.882-.717 1.571-.727 3.704-.14 4.577 1.352.355.605.632 1.44.565 2.324 1.21 0 2.884.905 2.949 2.85.059 1.762-.846 2.56-1.59 2.938-.372.19-.796.237-1.214.237H5.807c-.418 0-.842-.048-1.214-.237-.744-.378-1.649-1.176-1.59-2.938.065-1.945 1.796-2.806 3.005-2.806-.067-.884.154-1.763.509-2.368.873-1.492 3.006-2.08 4.577-1.352Z"/>
</svg>
