<svg xmlns="http://www.w3.org/2000/svg" width="24" height="24" fill="none" viewBox="0 0 24 24">
  <path stroke="#1B1C1B" stroke-linecap="round" stroke-linejoin="round" stroke-width="1.5" d="M12 5.667V7.5M22 3l-2 2.5 2 .7M2 3l2 2.5-2 .7m13-.975L15.5 7M9 5.225 8.5 7m3.5 4c2.502 0 4.863-.729 6.942-2.018 1.102-.684 1.36-2.368.693-3.622-.734-1.378-2.29-1.68-3.543-1.036A8.912 8.912 0 0 1 12 5.326a8.912 8.912 0 0 1-4.092-1.002c-1.253-.644-2.81-.342-3.543 1.036-.668 1.254-.41 2.938.693 3.622C7.137 10.272 9.498 11 12 11Zm0 4.667v1.6m0-1.6c1.04 0 2.046-.154 3-.442m-3 .442c-1.04 0-2.046-.154-3-.442m6 0a10.41 10.41 0 0 0 1.326-.5c1.325-.605 2.97-.321 3.745.974M15 15.225l.5 1.508M9 15.225a10.456 10.456 0 0 1-1.326-.5c-1.325-.605-2.97-.321-3.745.974m5.07-.474L8.5 16.733M3.929 15.7c-.706 1.179-.433 2.761.732 3.404a15.135 15.135 0 0 0 14.678 0c1.165-.643 1.438-2.225.732-3.404m-16.142 0L2 13m1.929 2.7L2 16.2m18.071-.5 1.929.5m-1.929-.533L22 13"/>
</svg>
