<svg xmlns="http://www.w3.org/2000/svg" width="24" height="24" fill="none" viewBox="0 0 24 24">
  <path stroke="#1B1C1B" stroke-linecap="round" stroke-linejoin="round" stroke-width="2" d="M14.5 9.5h.009"/>
  <path stroke="#1B1C1B" stroke-width="1.5" d="M14.5 6C16.394 6 18 7.613 18 9.57c0 1.989-1.632 3.384-3.14 4.333a.718.718 0 0 1-.72 0C12.634 12.945 11 11.565 11 9.57 11 7.613 12.606 6 14.5 6Z"/>
  <path stroke="#1B1C1B" stroke-width="1.5" d="M22 12c0 5.523-4.477 10-10 10S2 17.523 2 12 6.477 2 12 2s10 4.477 10 10Z"/>
  <path stroke="#1B1C1B" stroke-linecap="round" stroke-width="1.5" d="m9 15-4 4m10 2L3 9"/>
</svg>
