<svg xmlns="http://www.w3.org/2000/svg" width="24" height="24" fill="none" viewBox="0 0 24 24">
  <path stroke="#1B1C1B" stroke-linecap="round" stroke-linejoin="round" stroke-width="1.5" d="M18.5 15.082h-2m-3.5 0h-2m-3.5 0h-2"/>
  <path stroke="#1B1C1B" stroke-width="1.5" d="M16 5.933c0 2.674-2.957 4.615-3.786 5.091a.426.426 0 0 1-.428 0C10.956 10.548 8 8.607 8 5.933c0-2.051 1.79-3.851 4-3.851s4 1.8 4 3.85Z"/>
  <path stroke="#1B1C1B" stroke-linecap="round" stroke-linejoin="round" stroke-width="2" d="M12 6.082h.009"/>
  <path stroke="#1B1C1B" stroke-linecap="round" stroke-linejoin="round" stroke-width="1.5" d="M19 8.082c.774.15 1.359.4 1.828.818C22 9.94 22 11.617 22 14.97s0 5.029-1.172 6.07c-1.171 1.042-3.057 1.042-6.828 1.042h-4c-3.771 0-5.657 0-6.828-1.041C2 19.998 2 18.323 2 14.97c0-3.353 0-5.029 1.172-6.07.47-.418 1.054-.668 1.828-.818"/>
</svg>
