<svg xmlns="http://www.w3.org/2000/svg" width="24" height="24" fill="none" viewBox="0 0 24 24">
  <path stroke="#1B1C1B" stroke-width="1.5" d="M18.718 10.715a1.044 1.044 0 0 1-1.436 0c-1.765-1.683-4.13-3.564-2.977-6.294C14.929 2.945 16.425 2 18 2c1.575 0 3.072.945 3.695 2.42 1.152 2.728-1.207 4.617-2.977 6.295Z"/>
  <path stroke="#1B1C1B" stroke-linecap="round" stroke-linejoin="round" stroke-width="2" d="M18 6h.009"/>
  <path stroke="#1B1C1B" stroke-linecap="round" stroke-linejoin="round" stroke-width="1.5" d="M5 22a3 3 0 1 0 0-6 3 3 0 0 0 0 6Zm6-15H9.5C7.567 7 6 8.343 6 10s1.567 3 3.5 3h3c1.933 0 3.5 1.343 3.5 3s-1.567 3-3.5 3H11"/>
</svg>
