<svg xmlns="http://www.w3.org/2000/svg" width="24" height="24" fill="none" viewBox="0 0 24 24">
  <path stroke="#1B1C1B" stroke-linecap="round" stroke-linejoin="round" stroke-width="1.5" d="M12 2c5.524 0 10 4.478 10 10s-4.476 10-10 10m-3-.5a11.064 11.064 0 0 1-3.277-1.754m0-15.492A11.329 11.329 0 0 1 9 2.5m-7 7.746a9.624 9.624 0 0 1 1.296-3.305M2 13.754a9.624 9.624 0 0 0 1.296 3.305"/>
  <path stroke="#1B1C1B" stroke-width="1.5" d="M12.719 16.215a1.044 1.044 0 0 1-1.437 0c-1.765-1.683-4.13-3.564-2.977-6.294C8.929 8.445 10.425 7.5 12 7.5c1.575 0 3.072.945 3.695 2.42 1.152 2.728-1.207 4.617-2.976 6.295Z"/>
  <path stroke="#1B1C1B" stroke-linecap="round" stroke-linejoin="round" stroke-width="2" d="M11.996 11.5h.006"/>
</svg>
