<svg width="24" height="24" viewBox="0 0 24 24" fill="none" xmlns="http://www.w3.org/2000/svg">
<g id="course">
<path id="Vector" d="M6.51379 2C5.20952 2.12853 4.33158 2.41902 3.6763 3.07554C2.50098 4.25309 2.50098 6.14832 2.50098 9.93879V13.9592C2.50098 17.7497 2.50098 19.6449 3.6763 20.8225C4.85163 22 6.74328 22 10.5266 22H12.533C16.3163 22 18.208 22 19.3833 20.8225C20.45 19.7538 20.5486 18.1056 20.5577 14.9766" stroke="#1B1C1B" stroke-width="1.5" stroke-linecap="round" stroke-linejoin="round"/>
<path id="Vector_2" d="M10.5261 6.99989L11.5293 10.4999C12.0895 11.6099 12.7924 11.9003 14.5387 11.9999C15.9279 11.9655 16.7344 11.8019 17.4215 11.2039C17.8906 10.7956 18.1031 10.181 18.2055 9.56865L18.5514 7.49989M21.0592 5.49989V10.4999M8.60078 4.93235C10.1876 3.61617 11.6021 2.90912 14.5348 2.13097C14.8651 2.04332 15.2145 2.04497 15.544 2.13561C18.1405 2.84984 19.5418 3.48352 21.42 4.89342C21.5005 4.95385 21.524 5.06532 21.4676 5.14854C20.8555 6.05096 19.4857 6.78129 16.1282 8.08375C15.4302 8.35453 14.6524 8.34826 13.9566 8.07186C10.3807 6.65131 8.73723 5.89247 8.53769 5.10288C8.52161 5.03924 8.55017 4.97433 8.60078 4.93235Z" stroke="#1B1C1B" stroke-width="1.5" stroke-linecap="round" stroke-linejoin="round"/>
</g>
</svg>
