<svg width="24" height="24" viewBox="0 0 24 24" fill="none" xmlns="http://www.w3.org/2000/svg">
<g id="file-shredder">
<path id="Vector" d="M22 12H2" stroke="#1B1C1B" stroke-width="1.5" stroke-linecap="round" stroke-linejoin="round"/>
<path id="Vector_2" d="M3.5 12.1818C3.5 9.21864 3.5 7.73706 3.96894 6.55375C4.72281 4.65142 6.31714 3.15088 8.33836 2.44135C9.59563 2 11.1698 2 14.3182 2C16.1173 2 17.0168 2 17.7352 2.2522C18.8902 2.65764 19.8012 3.51509 20.232 4.60214C20.5 5.27832 20.5 6.12494 20.5 7.81818V12" stroke="#1B1C1B" stroke-width="1.5" stroke-linejoin="round"/>
<path id="Vector_3" d="M3.5 12C3.5 10.1591 4.99238 8.66667 6.83333 8.66667C7.49912 8.66667 8.28404 8.78333 8.93137 8.60988C9.50652 8.45576 9.95576 8.00652 10.1099 7.43136C10.2833 6.78404 10.1667 5.99912 10.1667 5.33333C10.1667 3.49238 11.6591 2 13.5 2" stroke="#1B1C1B" stroke-width="1.5" stroke-linecap="round" stroke-linejoin="round"/>
<path id="Vector_4" d="M6 15V17M10 15V22M14 15V18M18 15V20" stroke="#1B1C1B" stroke-width="1.5" stroke-linecap="round" stroke-linejoin="round"/>
</g>
</svg>
