<svg width="24" height="24" viewBox="0 0 24 24" fill="none" xmlns="http://www.w3.org/2000/svg">
<g id="hdr-01">
<path id="Vector" d="M3.5 22V19M3.5 19V16M3.5 19H6.79576M6.79576 19V16M6.79576 19V22M16.5449 22V19.6M16.5449 19.6V17.2C16.5449 16.321 16.6209 16 17.5337 16H19.0168C19.836 16 20.5 16.8059 20.5 17.8C20.5 18.7941 19.836 19.6 19.0168 19.6M16.5449 19.6H19.0168M19.0168 19.6L20.0416 22M13.6997 19C13.6997 20.6569 12.4352 22 10.8754 22C10.5235 22 10.3475 22 10.2164 21.9196C9.90259 21.7272 9.93398 21.3376 9.93398 21V17C9.93398 16.6624 9.90259 16.2728 10.2164 16.0804C10.3475 16 10.5235 16 10.8754 16C12.4352 16 13.6997 17.3431 13.6997 19Z" stroke="#1B1C1B" stroke-width="1.5" stroke-linecap="round"/>
<path id="Vector_2" d="M3.5 13V12.1963C3.5 9.22889 3.5 7.7452 3.96894 6.56021C4.72281 4.65518 6.31714 3.15252 8.33836 2.44198C9.59563 2 11.1698 2 14.3182 2C16.1173 2 17.0168 2 17.7352 2.25256C18.8902 2.65858 19.8012 3.51725 20.232 4.60584C20.5 5.28297 20.5 6.13079 20.5 7.82643V12.0142V13" stroke="#1B1C1B" stroke-width="1.5" stroke-linecap="round" stroke-linejoin="round"/>
<path id="Vector_3" d="M3.5 12C3.5 10.1591 4.99238 8.66667 6.83333 8.66667C7.49912 8.66667 8.28404 8.78333 8.93137 8.60988C9.50652 8.45576 9.95576 8.00652 10.1099 7.43136C10.2833 6.78404 10.1667 5.99912 10.1667 5.33333C10.1667 3.49238 11.6591 2 13.5 2" stroke="#1B1C1B" stroke-width="1.5" stroke-linecap="round" stroke-linejoin="round"/>
</g>
</svg>
