<svg width="24" height="24" viewBox="0 0 24 24" fill="none" xmlns="http://www.w3.org/2000/svg">
<g id="license-no">
<path id="Vector" d="M2 2L22 22" stroke="#1B1C1B" stroke-width="1.5" stroke-linecap="round"/>
<path id="Vector_2" d="M11.5 7H16" stroke="#1B1C1B" stroke-width="1.5" stroke-linecap="round"/>
<path id="Vector_3" d="M16 12H15.5" stroke="#1B1C1B" stroke-width="1.5" stroke-linecap="round"/>
<path id="Vector_4" d="M8 12H12" stroke="#1B1C1B" stroke-width="1.5" stroke-linecap="round"/>
<path id="Vector_5" d="M8 17H12" stroke="#1B1C1B" stroke-width="1.5" stroke-linecap="round"/>
<path id="Vector_6" d="M3.78651 4C3 5.1805 3 6.99964 3 10.1885V14.1257C3 17.8377 3 19.6937 4.24049 20.8468C5.48098 22 7.47751 22 11.4706 22H12.5294C16.5225 22 18.519 22 19.7595 20.8468C19.8455 20.7669 19.9255 20.6836 20 20.5965" stroke="#1B1C1B" stroke-width="1.5" stroke-linecap="round"/>
<path id="Vector_7" d="M20.9804 16.5C21 15.7729 21 14.9458 21 14V10C21 6.22876 21 4.34315 19.7595 3.17157C18.519 2 16.5225 2 12.5294 2H11.4706C9.28206 2 7.69327 2 6.5 2.19289" stroke="#1B1C1B" stroke-width="1.5" stroke-linecap="round"/>
</g>
</svg>
