<svg width="24" height="24" viewBox="0 0 24 24" fill="none" xmlns="http://www.w3.org/2000/svg">
<g id="txt-01">
<path id="Vector" d="M3.5 13V12.1963C3.5 9.22889 3.5 7.7452 3.96894 6.56021C4.72281 4.65518 6.31714 3.15252 8.33836 2.44198C9.59563 2 11.1698 2 14.3182 2C16.1173 2 17.0168 2 17.7352 2.25256C18.8902 2.65858 19.8012 3.51725 20.232 4.60584C20.5 5.28297 20.5 6.13079 20.5 7.82643V12.0142V13" stroke="#1B1C1B" stroke-width="1.5" stroke-linecap="round" stroke-linejoin="round"/>
<path id="Vector_2" d="M3.5 12C3.5 10.1591 4.99238 8.66667 6.83333 8.66667C7.49912 8.66667 8.28404 8.78333 8.93137 8.60988C9.50652 8.45576 9.95576 8.00652 10.1099 7.43136C10.2833 6.78404 10.1667 5.99912 10.1667 5.33333C10.1667 3.49238 11.6591 2 13.5 2" stroke="#1B1C1B" stroke-width="1.5" stroke-linecap="round" stroke-linejoin="round"/>
<path id="Vector_3" d="M10.1172 16L11.9995 19M11.9995 19L13.8819 22M11.9995 19L13.8819 16M11.9995 19L10.1172 22M16.7353 16H18.6176M18.6176 16H20.5M18.6176 16V22M3.5 16H5.38235M5.38235 16H7.26471M5.38235 16V22" stroke="#1B1C1B" stroke-width="1.5" stroke-linecap="round"/>
</g>
</svg>
