<svg xmlns="http://www.w3.org/2000/svg" width="24" height="24" fill="none" viewBox="0 0 24 24">
  <path fill="#1B1C1B" d="M10.855 8.891C11.383 8.297 11.648 8 12 8s.617.297 1.145.891l1.3 1.461c.704.79 1.055 1.185 1.055 1.648 0 .463-.351.858-1.055 1.648l-1.3 1.46c-.528.595-.793.892-1.145.892s-.617-.297-1.145-.891l-1.3-1.461C8.85 12.858 8.5 12.463 8.5 12c0-.463.351-.858 1.055-1.648l1.3-1.46Z" opacity=".4"/>
  <path stroke="#1B1C1B" stroke-width="1.5" d="M10.855 8.891C11.383 8.297 11.648 8 12 8s.617.297 1.145.891l1.3 1.461c.704.79 1.055 1.185 1.055 1.648 0 .463-.351.858-1.055 1.648l-1.3 1.46c-.528.595-.793.892-1.145.892s-.617-.297-1.145-.891l-1.3-1.461C8.85 12.858 8.5 12.463 8.5 12c0-.463.351-.858 1.055-1.648l1.3-1.46Z"/>
  <path stroke="#1B1C1B" stroke-linecap="round" stroke-linejoin="round" stroke-width="1.5" d="M12 19v3m0-20v3"/>
</svg>
