<svg xmlns="http://www.w3.org/2000/svg" width="25" height="24" fill="none" viewBox="0 0 25 24">
  <path stroke="#1B1C1B" stroke-linecap="round" stroke-width="1.5" d="M3.75 5h5.43a2 2 0 0 0 1.664-.89l.812-1.22A2 2 0 0 1 13.32 2h4.488a2 2 0 0 1 1.898 1.368L20.25 5m1.5 0h-13"/>
  <path stroke="#1B1C1B" stroke-linecap="round" stroke-width="1.5" d="m20.25 5-.5 6.5M5.25 5l.605 10.536c.154 2.57.232 3.856.874 4.78.317.458.726.843 1.2 1.133.582.356 1.284.496 2.321.551"/>
  <path stroke="#1B1C1B" stroke-linecap="round" stroke-linejoin="round" stroke-width="1.5" d="m11.75 15.498 1.136 1.466a4 4 0 0 1 7.364-.901m1.5 4.435-1.136-1.464a4 4 0 0 1-7.328.965"/>
</svg>
