<svg xmlns="http://www.w3.org/2000/svg" width="24" height="24" fill="none" viewBox="0 0 24 24">
  <path stroke="#1B1C1B" stroke-linejoin="round" stroke-width="1.5" d="M12.12 18c-2 0-3.62-1.58-3.62-3.53 0-1.727 1.273-3.165 2.954-3.47a3.444 3.444 0 0 0-.24 1.264c0 1.95 1.621 3.53 3.62 3.53.228 0 .45-.02.666-.06C14.979 17.06 13.662 18 12.12 18Z"/>
  <path stroke="#1B1C1B" stroke-linecap="round" stroke-width="1.5" d="M7 6.001c-1.22.004-1.896.033-2.451.266a3.465 3.465 0 0 0-1.78 1.695c-.303.625-.352 1.426-.451 3.029l-.155 2.51c-.246 3.985-.368 5.977.8 7.238C4.134 22 6.104 22 10.043 22h3.916c3.94 0 5.91 0 7.078-1.26 1.17-1.262 1.047-3.254.8-7.239l-.154-2.51c-.099-1.603-.148-2.404-.45-3.029a3.473 3.473 0 0 0-1.78-1.695C18.895 6.034 18.22 6.005 17 6"/>
  <path stroke="#1B1C1B" stroke-linecap="round" stroke-linejoin="round" stroke-width="1.5" d="m17 7-.886-2.215c-.382-.955-.715-2.039-1.697-2.525C13.892 2 13.262 2 12 2c-1.262 0-1.892 0-2.417.26-.982.486-1.315 1.57-1.697 2.525L7 7"/>
  <path stroke="#1B1C1B" stroke-linecap="round" stroke-linejoin="round" stroke-width="2" d="M12 6h.009"/>
</svg>
