<svg xmlns="http://www.w3.org/2000/svg" width="24" height="24" fill="none" viewBox="0 0 24 24">
  <path fill="#1B1C1B" d="M22 6.75a.75.75 0 0 0 0-1.5v1.5Zm-8-1.5a.75.75 0 0 0 0 1.5v-1.5ZM18.75 2a.75.75 0 0 0-1.5 0h1.5Zm-1.5 8a.75.75 0 0 0 1.5 0h-1.5ZM22 5.25h-4v1.5h4v-1.5Zm-4 0h-4v1.5h4v-1.5ZM17.25 2v4h1.5V2h-1.5Zm0 4v4h1.5V6h-1.5Z"/>
  <path stroke="#1B1C1B" stroke-linecap="round" stroke-width="1.5" d="M11.5 3C7.022 3 4.782 3 3.391 4.391S2 8.021 2 12.5c0 4.478 0 6.718 1.391 8.109S7.021 22 11.5 22c4.478 0 6.718 0 8.109-1.391C21 19.217 21 16.979 21 12.5V12"/>
  <path stroke="#1B1C1B" stroke-linejoin="round" stroke-width="1.5" d="M2 14.135c.619-.09 1.245-.134 1.872-.132 2.652-.056 5.239.77 7.3 2.331 1.91 1.448 3.253 3.44 3.828 5.666"/>
  <path stroke="#1B1C1B" stroke-linejoin="round" stroke-width="1.5" d="M21 16.896c-1.175-.595-2.391-.897-3.614-.896-1.851-.007-3.684.673-5.386 2"/>
</svg>
