<svg xmlns="http://www.w3.org/2000/svg" width="24" height="24" fill="none" viewBox="0 0 24 24">
  <path stroke="#1B1C1B" stroke-width="1.5" d="M16.5 9a1.5 1.5 0 1 0 0-3 1.5 1.5 0 0 0 0 3Z"/>
  <path stroke="#1B1C1B" stroke-linejoin="round" stroke-width="1.5" d="M2 14.135c.667-.09 1.34-.134 2.016-.132 2.856-.056 5.642.77 7.86 2.331 2.06 1.448 3.505 3.44 4.124 5.666"/>
  <path stroke="#1B1C1B" stroke-linecap="round" stroke-linejoin="round" stroke-width="1.5" d="M13.5 17.5c1-1 1.677-1.223 2.5-1.5"/>
  <path stroke="#1B1C1B" stroke-width="1.5" d="M20 20.213C18.601 21.5 16.363 21.5 12 21.5c-4.478 0-6.718 0-8.109-1.391S2.5 16.479 2.5 12c0-4.363 0-6.601 1.287-8"/>
  <path stroke="#1B1C1B" stroke-linecap="round" stroke-linejoin="round" stroke-width="1.5" d="M20 16c.543 0 1.048.294 1.397.564.103-1.195.103-2.681.103-4.564 0-4.478 0-6.718-1.391-8.109C18.717 2.5 16.479 2.5 12 2.5c-2.41 0-4.17 0-5.5.217M2 2l20 20"/>
</svg>
