<svg xmlns="http://www.w3.org/2000/svg" width="24" height="24" fill="none" viewBox="0 0 24 24">
  <path stroke="#1B1C1B" stroke-width="1.5" d="M5 21c4.21-4.751 8.941-11.053 16-6.327"/>
  <path stroke="#1B1C1B" stroke-linecap="round" stroke-linejoin="round" stroke-width="1.5" d="M17 4.5c.491-.506 1.8-2.5 2.5-2.5m0 0c.7 0 2.009 1.994 2.5 2.5M19.5 2v8"/>
  <path stroke="#1B1C1B" stroke-linecap="round" stroke-width="1.5" d="M21 13c-.002 4.147-.053 6.27-1.391 7.609C18.217 22 15.979 22 11.5 22c-4.478 0-6.718 0-8.109-1.391C2 19.217 2 16.979 2 12.5c0-4.478 0-6.718 1.391-8.109S7.021 3 11.5 3H14"/>
</svg>
