<svg xmlns="http://www.w3.org/2000/svg" width="24" height="24" fill="none" viewBox="0 0 24 24">
  <path stroke="#1B1C1B" stroke-linecap="round" stroke-width="1.5" d="M21 12.5c0 4.478 0 6.718-1.391 8.109C18.217 22 15.979 22 11.5 22c-4.478 0-6.718 0-8.109-1.391C2 19.217 2 16.979 2 12.5c0-4.478 0-6.718 1.391-8.109S7.021 3 11.5 3"/>
  <path stroke="#1B1C1B" stroke-linejoin="round" stroke-width="1.5" d="M2 14.135c.619-.09 1.245-.134 1.872-.132 2.652-.056 5.239.77 7.3 2.331 1.91 1.448 3.253 3.44 3.828 5.666"/>
  <path stroke="#1B1C1B" stroke-linejoin="round" stroke-width="1.5" d="M21 16.896c-1.175-.595-2.391-.897-3.614-.896-1.851-.007-3.684.673-5.386 2"/>
  <path stroke="#1B1C1B" stroke-linecap="round" stroke-width="1.5" d="m22 9-3.5-3.5m0 0L15 2m3.5 3.5L22 2m-3.5 3.5L15 9"/>
</svg>
