<svg xmlns="http://www.w3.org/2000/svg" width="24" height="24" fill="none" viewBox="0 0 24 24">
  <path stroke="#1B1C1B" stroke-linecap="round" stroke-width="1.5" d="M21.5 12.5v-1.45c0-4.03 0-6.046-1.252-7.298C18.996 2.5 16.98 2.5 12.95 2.5h-1.9c-4.03 0-6.046 0-7.298 1.252C2.5 5.004 2.5 7.02 2.5 11.05v1.9c0 4.03 0 6.046 1.252 7.298C5.004 21.5 7.02 21.5 11.05 21.5h1.45"/>
  <path stroke="#1B1C1B" stroke-linecap="round" stroke-width="1.5" d="M15.451 15.859c1.006-.594 1.884-.355 2.411.027.216.156.324.234.388.234s.172-.078.388-.234c.527-.382 1.405-.621 2.41-.027 1.32.78 1.619 3.351-1.425 5.521-.58.413-.87.62-1.373.62s-.793-.207-1.373-.62c-3.044-2.17-2.745-4.741-1.425-5.521Z"/>
  <path stroke="#1B1C1B" stroke-linejoin="round" stroke-width="1.5" d="M14.96 11.782c-.125.448-.722.764-1.915 1.397-1.154.611-1.73.917-2.195.794a1.182 1.182 0 0 1-.508-.28C10 13.37 10 12.748 10 11.5c0-1.248 0-1.871.341-2.193a1.18 1.18 0 0 1 .509-.28c.465-.123 1.041.183 2.195.794 1.193.633 1.79.95 1.916 1.397.052.185.052.38 0 .564Z"/>
</svg>
