<svg xmlns="http://www.w3.org/2000/svg" width="24" height="24" fill="none" viewBox="0 0 24 24">
  <path stroke="#1B1C1B" stroke-linejoin="round" stroke-width="1.5" d="M14.953 12.395c-.151.627-.867 1.07-2.3 1.955-1.383.856-2.075 1.285-2.633 1.113a1.376 1.376 0 0 1-.61-.393C9 14.62 9 13.746 9 12c0-1.746 0-2.62.41-3.07.17-.186.38-.321.61-.392.558-.173 1.25.256 2.634 1.112 1.432.886 2.148 1.329 2.3 1.955a1.7 1.7 0 0 1 0 .79Z"/>
  <path stroke="#1B1C1B" stroke-width="1.5" d="M2.5 12c0-4.478 0-6.718 1.391-8.109S7.521 2.5 12 2.5c4.478 0 6.718 0 8.109 1.391S21.5 7.521 21.5 12c0 4.478 0 6.718-1.391 8.109C18.717 21.5 16.479 21.5 12 21.5c-4.478 0-6.718 0-8.109-1.391C2.5 18.717 2.5 16.479 2.5 12Z"/>
</svg>
