<svg xmlns="http://www.w3.org/2000/svg" width="24" height="24" fill="none" viewBox="0 0 24 24">
  <path stroke="#1B1C1B" stroke-linecap="round" stroke-width="1.5" d="M15.001 9.99a2.996 2.996 0 0 1-2.997 2.995A2.996 2.996 0 1 1 15 9.989Z"/>
  <path stroke="#1B1C1B" stroke-linecap="round" stroke-linejoin="round" stroke-width="2" d="M11.994 16.977h.01"/>
  <path stroke="#1B1C1B" stroke-linecap="round" stroke-width="1.5" d="M20.495 2.002c-.166.899-.999 2.756-2.997 2.995M3.512 2.002c.166.899.999 2.756 2.997 2.995"/>
  <path stroke="#1B1C1B" stroke-linecap="round" stroke-linejoin="round" stroke-width="1.5" d="M8.84 3.694c-3.254 1.448-4.396 4.93-4.32 6.772-1.122-.076-2.498.05-2.519 1.485-.02 1.436 1.464 1.69 2.52 1.518v6.407c.017.53.065 1.225.614 1.468 1.276.566 2.351-1.151 3.52-1.072.908.061 2.222 1.82 3.378 1.723 1.338-.111 2.369-1.718 3.393-1.718 1.213 0 1.426 1 2.888 1.16 1.09.12 1.2-.92 1.2-1.48v-6.476c1.89.234 2.639-.603 2.458-1.782-.213-1.391-1.847-1.292-2.497-1.203.101-1.034-.365-2.34-.566-2.852-.297-.91-1.517-3.064-4.137-4.132-2.62-1.068-5.059-.278-5.932.182Z"/>
</svg>
