<svg xmlns="http://www.w3.org/2000/svg" width="24" height="24" fill="none" viewBox="0 0 24 24">
  <path stroke="#1B1C1B" stroke-linecap="round" stroke-linejoin="round" stroke-width="1.5" d="M12 17a7 7 0 1 0 0-14 7 7 0 0 0 0 14Z"/>
  <path stroke="#1B1C1B" stroke-linecap="round" stroke-linejoin="round" stroke-width="1.5" d="M12 13c2.21 0 4-1.343 4-3s-1.79-3-4-3-4 1.343-4 3 1.79 3 4 3Zm-7 0a3 3 0 0 1-3-3c0-1.657 0-3 3-3m14 6a3 3 0 0 0 3-3c0-1.657 0-3-3-3"/>
  <path stroke="#1B1C1B" stroke-linecap="round" stroke-width="1.5" d="M20.5 7V3"/>
  <path stroke="#1B1C1B" stroke-linecap="round" stroke-linejoin="round" stroke-width="1.5" d="M18 21a1 1 0 0 0 1-1 3 3 0 0 0-3-3H8a3 3 0 0 0-3 3 1 1 0 0 0 1 1h12Z"/>
</svg>
