<svg xmlns="http://www.w3.org/2000/svg" width="24" height="24" fill="none" viewBox="0 0 24 24">
  <path stroke="#1B1C1B" stroke-linecap="round" stroke-linejoin="round" stroke-width="1.5" d="M20.5 5a1.5 1.5 0 1 0 0-3 1.5 1.5 0 0 0 0 3Zm-17 17a1.5 1.5 0 1 0 0-3 1.5 1.5 0 0 0 0 3Zm17.538-8.938c.57-.135.962-.569.962-1.062 0-.493-.392-.927-.962-1.062l-4.517-1.076a5 5 0 0 0-9.042 0l-4.517 1.076C2.392 11.073 2 11.507 2 12c0 .493.392.927.962 1.062l4.517 1.076a5 5 0 0 0 9.042 0l4.517-1.076Z"/>
  <path stroke="#1B1C1B" stroke-linecap="round" stroke-linejoin="round" stroke-width="1.5" d="M12 14a2 2 0 1 0 0-4 2 2 0 0 0 0 4Zm3-11.542A9.996 9.996 0 0 0 12 2a9.985 9.985 0 0 0-8 4m5 15.542A9.997 9.997 0 0 0 12 22a9.985 9.985 0 0 0 8-3.999"/>
</svg>
