<svg xmlns="http://www.w3.org/2000/svg" width="24" height="24" fill="none" viewBox="0 0 24 24">
  <path stroke="#1B1C1B" stroke-linecap="round" stroke-linejoin="round" stroke-width="1.5" d="M16.201 7.799a4.1 4.1 0 0 0 5.799 0L16.201 2a4.1 4.1 0 0 0 0 5.799ZM16 8l-1.5 1.5m.332 3.501c.602-.602.903-.903.903-1.277 0-.374-.3-.675-.903-1.278L13.555 9.17c-.602-.602-.903-.903-1.278-.903-.374 0-.675.3-1.277.903l-4.206 4.206a2.71 2.71 0 1 0 3.832 3.832l4.206-4.206Zm.637 3.856 1.387-1.388c.654-.654.981-.98 1.388-.98.406 0 .733.326 1.387.98l1.388 1.388c.654.654.981.981.981 1.387 0 .407-.327.734-.981 1.388l-1.387 1.387c-.655.655-.982.982-1.388.982-.407 0-.733-.327-1.388-.982l-1.387-1.387c-.654-.654-.981-.981-.981-1.388 0-.406.327-.733.98-1.387ZM2.981 4.369 4.37 2.98c.653-.653.979-.98 1.386-.98.407 0 .734.327 1.388.981L8.53 4.37c.654.654.981.98.981 1.387 0 .407-.327.734-.98 1.388L7.143 8.53c-.654.654-.981.981-1.388.981-.406 0-.733-.327-1.387-.98L2.98 7.143C2.327 6.49 2 6.163 2 5.756c0-.406.327-.733.981-1.387ZM16 16l-2-2m-4-4L8 8"/>
</svg>
