<svg xmlns="http://www.w3.org/2000/svg" width="24" height="24" fill="none" viewBox="0 0 24 24">
  <path fill="#1B1C1B" d="M18 12H6c-1.886 0-2.828 0-3.414.586C2 13.172 2 14.114 2 16v1.493h20V16c0-1.886 0-2.828-.586-3.414C20.828 12 19.886 12 18 12Zm-6-9c-2.9 0-5.587.8-7.794 2.163-.548.338-.822.507-1.014.834C3 6.323 3 6.669 3 7.36V12h3v-1.787c0-.38.057-.508.35-.658C6.96 9.243 7.701 9 8.5 9c.799 0 1.54.243 2.15.555.293.15.35.278.35.658V12h2v-1.787c0-.38.057-.508.35-.658C13.96 9.243 14.701 9 15.5 9c.799 0 1.54.243 2.15.555.293.15.35.278.35.658V12h3V7.36c0-.691 0-1.037-.192-1.363-.192-.327-.466-.496-1.014-.834C17.587 3.8 14.9 3 12 3Z" opacity=".4"/>
  <path stroke="#1B1C1B" stroke-linecap="round" stroke-linejoin="round" stroke-width="1.5" d="M22 21v-3.507m0 0V16c0-1.886 0-2.828-.586-3.414C20.828 12 19.886 12 18 12H6c-1.886 0-2.828 0-3.414.586C2 13.172 2 14.114 2 16v1.493m20 0H2M2 21v-3.507"/>
  <path stroke="#1B1C1B" stroke-linecap="round" stroke-width="1.5" d="M12 3c-2.9 0-5.587.8-7.794 2.163-.548.338-.822.507-1.014.834C3 6.323 3 6.669 3 7.36V12h18V7.36c0-.691 0-1.037-.192-1.363-.192-.327-.466-.496-1.014-.834C17.587 3.8 14.9 3 12 3Z"/>
  <path stroke="#1B1C1B" stroke-linecap="round" stroke-width="1.5" d="M11 12v-1.787c0-.38-.057-.508-.35-.658C10.04 9.243 9.299 9 8.5 9c-.799 0-1.54.243-2.15.555-.293.15-.35.278-.35.658V12m12 0v-1.787c0-.38-.057-.508-.35-.658C17.04 9.243 16.299 9 15.5 9c-.799 0-1.54.243-2.15.555-.293.15-.35.278-.35.658V12"/>
</svg>
