<svg xmlns="http://www.w3.org/2000/svg" width="24" height="24" fill="none" viewBox="0 0 24 24">
  <path fill="#1B1C1B" d="M2 17.5h20V16c0-1.886 0-2.828-.586-3.414C20.828 12 19.886 12 18 12H6c-1.886 0-2.828 0-3.414.586C2 13.172 2 14.114 2 16v1.5Z" opacity=".4"/>
  <path stroke="#1B1C1B" stroke-linecap="round" stroke-width="1.5" d="M12 3c-2.577 0-4.966.8-6.928 2.163-.487.338-.73.507-.901.834C4 6.323 4 6.669 4 7.36V12h16V7.36c0-.691 0-1.037-.17-1.363-.172-.327-.415-.496-.902-.834A12.105 12.105 0 0 0 12 3Z"/>
  <path fill="#1B1C1B" d="M5.072 5.163A12.104 12.104 0 0 1 12 3c2.577 0 4.966.8 6.928 2.163.487.338.73.507.901.834.171.326.171.672.171 1.364V12h-4v-1.382c0-.508-.091-.677-.56-.877C14.463 9.324 13.278 9 12 9s-2.463.324-3.44.74c-.468.2-.56.37-.56.878V12H4V7.36c0-.691 0-1.037.17-1.363.172-.327.415-.496.902-.834Z" opacity=".4"/>
  <path stroke="#1B1C1B" stroke-linecap="round" stroke-linejoin="round" stroke-width="1.5" d="M2 21v-3.469m0 0V16c0-1.886 0-2.828.586-3.414C3.172 12 4.114 12 6 12h12c1.886 0 2.828 0 3.414.586C22 13.172 22 14.114 22 16v1.469M2 17.53v-.03h20v-.031M22 21v-3.531"/>
  <path stroke="#1B1C1B" stroke-linecap="round" stroke-width="1.5" d="M12 9c-1.278 0-2.463.324-3.44.74-.468.2-.56.37-.56.878V12h8v-1.382c0-.508-.091-.677-.56-.877C14.463 9.324 13.278 9 12 9Z"/>
</svg>
