<svg xmlns="http://www.w3.org/2000/svg" width="24" height="24" fill="none" viewBox="0 0 24 24">
  <path fill="#1B1C1B" d="M18 12H6c-1.886 0-2.828 0-3.414.586C2 13.172 2 14.114 2 16v1.5h20V16c0-1.886 0-2.828-.586-3.414C20.828 12 19.886 12 18 12ZM7.313 5.426C8.269 3.972 10.225 3 12 3c1.775 0 3.73.972 4.687 2.426.2.303.3.454.41.514.184.1.445.084.68.07.078-.005.154-.01.223-.01 1.414 0 2.121 0 2.56.44C21 6.878 21 7.585 21 9v3h-5v-1.382c0-.508-.091-.677-.56-.877C14.463 9.324 13.278 9 12 9s-2.463.324-3.44.74c-.468.2-.56.37-.56.878V12H3V9c0-1.414 0-2.121.44-2.56C3.878 6 4.585 6 6 6c.07 0 .145.005.224.01.234.014.495.03.679-.07.11-.06.21-.211.41-.514Z" opacity=".4"/>
  <path stroke="#1B1C1B" stroke-linecap="round" stroke-linejoin="round" stroke-width="1.5" d="M22 21v-3.5m0 0V16c0-1.886 0-2.828-.586-3.414C20.828 12 19.886 12 18 12H6c-1.886 0-2.828 0-3.414.586C2 13.172 2 14.114 2 16v1.5m20 0H2M2 21v-3.5"/>
  <path stroke="#1B1C1B" stroke-width="1.5" d="M12 3c-1.775 0-3.73.972-4.687 2.426-.2.303-.3.454-.41.514C6.657 6.073 6.275 6 6 6c-1.414 0-2.121 0-2.56.44C3 6.878 3 7.585 3 9v3h18V9c0-1.414 0-2.121-.44-2.56C20.122 6 19.415 6 18 6c-.275 0-.657.073-.903-.06-.11-.06-.21-.211-.41-.514C15.731 3.972 13.775 3 12 3Z"/>
  <path stroke="#1B1C1B" stroke-linecap="round" stroke-width="1.5" d="M16 12v-1.382c0-.508-.091-.677-.56-.877C14.463 9.324 13.278 9 12 9s-2.463.324-3.44.74c-.468.2-.56.37-.56.878V12"/>
</svg>
