<svg xmlns="http://www.w3.org/2000/svg" width="24" height="24" fill="none" viewBox="0 0 24 24">
  <path stroke="#1B1C1B" stroke-linecap="round" stroke-linejoin="round" stroke-width="1.5" d="M19 16c.5.333 1.3 1.4.5 3s0 2.667.5 3m-1-6H5m14 0v-3M5 16c-.5.333-1.3 1.4-.5 3s0 2.667-.5 3m1-6v-3m14 0h1m-1 0H5m0 0H4"/>
  <path stroke="#1B1C1B" stroke-width="1.5" d="M7 7.5c0 3.038 2.239 5.5 5 5.5s5-2.462 5-5.5S14.761 2 12 2 7 4.462 7 7.5Z"/>
  <path stroke="#1B1C1B" stroke-linecap="round" stroke-linejoin="round" stroke-width="1.5" d="m11 7 1.5-1.5m-1 4L13 8"/>
</svg>
