<svg xmlns="http://www.w3.org/2000/svg" width="24" height="24" fill="none" viewBox="0 0 24 24">
  <path stroke="#1B1C1B" stroke-linecap="round" stroke-linejoin="round" stroke-width="1.5" d="m8 18-1 4m9-4 1 4m1-13c-1.703 0-2 2-2 2-.237.947-.34 3.144-1.165 3.788-.272.212-.647.212-1.397.212h-2.876c-.75 0-1.125 0-1.397-.212C8.34 14.144 8.237 11.947 8 11c0 0-.297-2-2-2a2 2 0 0 0-1 3.732l.382 2.014c.296 1.557.444 2.335.999 2.795C6.935 18 7.728 18 9.312 18h5.376c1.584 0 2.376 0 2.931-.46.555-.46.703-1.237.999-2.794L19 12.732A2 2 0 0 0 18 9Z"/>
  <path stroke="#1B1C1B" stroke-linecap="round" stroke-width="1.5" d="M8.5 12.5c.933-.622 2.158-1 3.5-1s2.567.378 3.5 1"/>
  <path stroke="#1B1C1B" stroke-linecap="round" stroke-linejoin="round" stroke-width="1.5" d="m7.016 9-.184-1.293c-.378-2.655-.567-3.983.178-4.845C7.755 2 9.092 2 11.766 2h.468c2.674 0 4.01 0 4.756.862.745.862.556 2.19.178 4.845L16.984 9"/>
</svg>
