<svg xmlns="http://www.w3.org/2000/svg" width="24" height="24" fill="none" viewBox="0 0 24 24">
  <path stroke="#1B1C1B" stroke-linecap="round" stroke-linejoin="round" stroke-width="1.5" d="M3.999 14.003V22m0-3.698 3.96 1.546c2.517.982 3.776 1.473 4.672.922.897-.552.897-1.818.897-4.35V8.006m.023-5.007V2"/>
  <path stroke="#1B1C1B" stroke-linecap="round" stroke-linejoin="round" stroke-width="1.5" d="M7.078 8.006h12.924M9.349 6.21c-.648.606-.776.7-.954.866a.95.95 0 0 0-.253.939l2.054 7.797c.134.51.555.894 1.076.982a13.26 13.26 0 0 0 4.514-.002c.494-.087.893-.45 1.025-.933l2.156-7.871c.085-.311.025-.653-.2-.885-.182-.19-.31-.259-.989-.893-.752-.702-1.473-1.97-1.777-2.355-.304-.385-.538-.574-.924-.662a6.865 6.865 0 0 0-3.027 0c-.386.088-.585.23-.924.662-.34.431-1.025 1.653-1.777 2.355Z"/>
</svg>
