<svg xmlns="http://www.w3.org/2000/svg" width="24" height="24" fill="none" viewBox="0 0 24 24">
  <path stroke="#1B1C1B" stroke-linecap="round" stroke-linejoin="round" stroke-width="1.5" d="M2 6c0-3.31.69-4 4-4h12c3.31 0 4 .69 4 4v12c0 3.31-.69 4-4 4H6c-3.31 0-4-.69-4-4V6Z"/>
  <path stroke="#1B1C1B" stroke-linecap="round" stroke-width="1.5" d="M6 19h4"/>
  <path stroke="#1B1C1B" stroke-linecap="round" stroke-linejoin="round" stroke-width="2" d="M18 19.009V19"/>
  <path stroke="#1B1C1B" stroke-linecap="round" stroke-linejoin="round" stroke-width="1.5" d="M12 14a4 4 0 1 0 0-8 4 4 0 0 0 0 8Z"/>
  <path stroke="#1B1C1B" stroke-linecap="round" stroke-width="1.5" d="M15.5 10H17m-5 3.5V15m-3.5-5H7m5-3.5V5"/>
</svg>
