<svg xmlns="http://www.w3.org/2000/svg" width="24" height="24" fill="none" viewBox="0 0 24 24">
  <path stroke="#1B1C1B" stroke-linecap="round" stroke-linejoin="round" stroke-width="1.5" d="m6.417 21.826-4.243-4.24a.6.6 0 0 1 .075-.913 3.603 3.603 0 0 1 4.641.384l.056.055a3.599 3.599 0 0 1 .384 4.639.6.6 0 0 1-.913.075ZM7 17.002l4.002-4"/>
  <path stroke="#1B1C1B" stroke-linecap="round" stroke-linejoin="round" stroke-width="2" d="M14.498 9.502h.009"/>
  <path stroke="#1B1C1B" stroke-linecap="round" stroke-linejoin="round" stroke-width="1.5" d="M13.863 5.68c3.429-1.75 3.262-3 4.2-3.664.293-.127 1.209.452 2.114 1.274 1.026.932 1.993 2.213 1.8 2.706-.623.696-1.89.987-3.272 3.532-1.769 2.965-4.23 3.864-5.645 4.38l-.036.014c-.313.114-.669.08-.924-.134-.427-.359-.756-.741-1.048-1.024-1.058-.964-1.058-1.234-1.058-1.489.061-1.029 2.123-4.526 3.87-5.595Z"/>
</svg>
