<svg xmlns="http://www.w3.org/2000/svg" width="24" height="24" fill="none" viewBox="0 0 24 24">
  <path stroke="#1B1C1B" stroke-linecap="round" stroke-width="1.5" d="M6 5h4"/>
  <path stroke="#1B1C1B" stroke-linecap="round" stroke-linejoin="round" stroke-width="2" d="M18 5.009V5"/>
  <path stroke="#1B1C1B" stroke-linecap="round" stroke-width="1.5" d="M3 8h18M2 22h20"/>
  <path stroke="#1B1C1B" stroke-linecap="round" stroke-linejoin="round" stroke-width="1.5" d="M3 22V5c0-2.482.518-3 3-3h12c2.482 0 3 .518 3 3v17"/>
  <path stroke="#1B1C1B" stroke-linecap="round" stroke-linejoin="round" stroke-width="1.5" d="M6 17v-4c0-.943 0-1.414.293-1.707C6.586 11 7.057 11 8 11h8c.943 0 1.414 0 1.707.293.293.293.293.764.293 1.707v4c0 .943 0 1.414-.293 1.707C17.414 19 16.943 19 16 19H8c-.943 0-1.414 0-1.707-.293C6 18.414 6 17.943 6 17Z"/>
</svg>
