<svg xmlns="http://www.w3.org/2000/svg" width="24" height="24" fill="none" viewBox="0 0 24 24">
  <path stroke="#1B1C1B" stroke-linecap="round" stroke-width="1.5" d="M19 15v3.889C19 21.114 18.264 22 15.889 22H8.11C5.886 22 5 21.264 5 18.889V15a7 7 0 1 1 14 0Z"/>
  <path stroke="#1B1C1B" stroke-linecap="round" stroke-width="1.5" d="M16 15a4 4 0 0 0-8 0m4 2 1-2m3.312-10H7.688c-.884 0-1.326 0-1.715-.152a2.16 2.16 0 0 1-.368-.187c-.35-.22-.595-.568-1.085-1.263-.382-.541-.573-.812-.507-1.033a.492.492 0 0 1 .107-.19C4.28 2 4.623 2 5.313 2h13.376c.689 0 1.033 0 1.192.175.05.055.086.12.107.19.066.221-.125.492-.507 1.033-.49.695-.735 1.042-1.085 1.263a2.16 2.16 0 0 1-.368.187C17.637 5 17.196 5 16.312 5ZM14 8V5m-4 3V5"/>
</svg>
