<svg xmlns="http://www.w3.org/2000/svg" width="24" height="24" fill="none" viewBox="0 0 24 24">
  <path stroke="#1B1C1B" stroke-linecap="round" stroke-linejoin="round" stroke-width="1.5" d="M17.5 19v3m-11-3v3"/>
  <path stroke="#1B1C1B" stroke-linejoin="round" stroke-width="1.5" d="M4 10c0-3.771 0-5.657 1.172-6.828C6.343 2 8.229 2 12 2c3.771 0 5.657 0 6.828 1.172C20 4.343 20 6.229 20 10v3c0 2.828 0 4.243-.879 5.121C18.243 19 16.828 19 14 19h-4c-2.828 0-4.243 0-5.121-.879C4 17.243 4 15.828 4 13v-3Z"/>
  <path stroke="#1B1C1B" stroke-linecap="round" stroke-linejoin="round" stroke-width="1.5" d="M4 12c1.857.575 4.81 1 8 1 3.19 0 6.143-.425 8-1m2-1h-.528a2 2 0 0 0-.894.211L20 11.5m-16 0-.578-.289A2 2 0 0 0 2.528 11H2m2.5 5H6m12 0h1.5"/>
  <path stroke="#1B1C1B" stroke-linecap="round" stroke-width="1.5" d="M10 16h4"/>
</svg>
