<svg xmlns="http://www.w3.org/2000/svg" width="24" height="24" fill="none" viewBox="0 0 24 24">
  <path stroke="#1B1C1B" stroke-linecap="round" stroke-linejoin="round" stroke-width="1.5" d="M2.066 11.913c.115-.63.623-1.273 1.442-1.83 1.476-1 3.16-.996 4.848-1.058.56-.02 2.062-.028 3.644-.024 1.582-.004 3.085.003 3.644.024 1.687.062 3.372.058 4.848 1.059.82.556 1.327 1.2 1.442 1.83.1.54.084 2.394-.03 3.703-.06.69-.122 1.026-.213 1.167-.277.426-1.074.785-2.248 1.01-1.101.21-.937.206-7.443.206-6.506 0-6.342.005-7.443-.207-1.174-.224-1.971-.583-2.248-1.009-.091-.14-.153-.477-.213-1.167-.114-1.309-.13-3.163-.03-3.704Z"/>
  <path stroke="#1B1C1B" stroke-linecap="round" stroke-linejoin="round" stroke-width="1.5" d="m4.5 9 1.313-4.51c.12-.3.355-.55.686-.663 3.243-1.103 7.76-1.103 11.002 0 .33.113.565.363.686.663L19.5 9m-17 3 1.5.5m17.5-.5-1.5.5m-12 5 .246-.614c.365-.913.548-1.37.929-1.628.38-.258.872-.258 1.856-.258h1.938c.984 0 1.476 0 1.856.258.381.258.564.715.93 1.628L16 17.5"/>
  <path stroke="#1B1C1B" stroke-linecap="round" stroke-width="1.5" d="M7.002 18.562v.802c0 .875-.039 1.039-.303 1.294a1.67 1.67 0 0 1-.348.239c-.201.1-.268.103-1.823.103-1.59 0-1.619-.002-1.864-.112a1.27 1.27 0 0 1-.383-.275c-.262-.315-.275-.408-.277-2.067V15m14.994 3.562v.802c0 .875.039 1.039.303 1.294.077.075.234.182.349.239.2.1.267.103 1.822.103 1.59 0 1.619-.002 1.864-.112.137-.062.31-.186.384-.275.261-.315.274-.408.276-2.067V15"/>
  <path stroke="#1B1C1B" stroke-linecap="round" stroke-linejoin="round" stroke-width="1.5" d="m20 9 1.5-.5M4 9l-1.5-.5"/>
</svg>
