<svg xmlns="http://www.w3.org/2000/svg" width="24" height="24" fill="none" viewBox="0 0 24 24">
  <path stroke="#1B1C1B" stroke-linecap="round" stroke-linejoin="round" stroke-width="1.5" d="m6 19-2 2m14-2 2 2"/>
  <path stroke="#1B1C1B" stroke-linecap="round" stroke-linejoin="round" stroke-width="2" d="M9 15h.009m5.982 0H15"/>
  <path stroke="#1B1C1B" stroke-linejoin="round" stroke-width="1.5" d="M5 9c4 4 10.5 4 14 0"/>
  <path stroke="#1B1C1B" stroke-linejoin="round" stroke-width="1.5" d="M5.273 7.894C6.094 3.716 7.23 3 11.454 3h1.091c4.225 0 5.36.716 6.182 4.894l.553 2.816c.755 3.84 1.132 5.76.032 7.025C18.212 19 16.142 19 12 19c-4.141 0-6.212 0-7.312-1.265-1.1-1.264-.723-3.185.032-7.025l.553-2.816Z"/>
</svg>
