<svg xmlns="http://www.w3.org/2000/svg" width="24" height="24" fill="none" viewBox="0 0 24 24">
  <path stroke="#1B1C1B" stroke-linecap="round" stroke-linejoin="round" stroke-width="1.5" d="M19 17.5c1.424 0 2.063 0 2.515-.487.02-.021.038-.043.057-.065.43-.513.43-1.32.43-2.936 0-1.225 0-1.837-.24-2.354-.251-.54-.703-.877-1.654-1.565-.945-.684-1.616-1.452-2.256-2.51-.912-1.51-1.369-2.265-2.053-2.674-.684-.409-1.491-.409-3.105-.409h-.7m-3.002 13h6.005"/>
  <path stroke="#1B1C1B" stroke-linecap="round" stroke-linejoin="round" stroke-width="1.5" d="m13.996 4.5.746 3.48c.43 2.003.5 3.52 2.788 3.52h3.972m.5 3h-1m-9.007-10v13"/>
  <path stroke="#1B1C1B" stroke-width="1.5" d="M16.999 19.5A2 2 0 1 0 17 15.499a2 2 0 0 0 0 4.001Zm-10.007 0a2 2 0 1 0 .001-4.001 2 2 0 0 0-.001 4.001Z"/>
  <path stroke="#1B1C1B" stroke-linecap="round" stroke-linejoin="round" stroke-width="1.5" d="M11.99 11.502H1.998v4.71c0 .375.693.816 1.315 1.11.217.103.455.15.695.156l.981.028"/>
</svg>
