<svg xmlns="http://www.w3.org/2000/svg" width="24" height="24" fill="none" viewBox="0 0 24 24">
  <path stroke="#1B1C1B" stroke-linecap="round" stroke-linejoin="round" stroke-width="1.5" d="M2 21.998V11.996m20 10.002V11.996M12 21.998v-1m0-3v-1"/>
  <path stroke="#1B1C1B" stroke-linecap="round" stroke-width="1.5" d="m5.725 5.654.83.76m0 0c.16-.269.435-.739.527-1.033.799-2.57.87-3.278 2.103-3.38h5.627c1.234.102 1.304.81 2.103 3.38.091.294.318.764.477 1.032m-10.837 0C5.951 7.433 5.15 8.1 5.03 8.98c-.02.145 0 1.752 0 2.918 0 .876.844.85 1.666.918.523.043 1.046.138 1.57.143 2.906.03 4.828.033 7.702.002.556-.006 1.116-.11 1.67-.158.625-.053 1.28-.123 1.33-.905.077-1.165.02-2.773 0-2.918-.12-.88-.97-1.547-1.575-2.567m-10.837 0h10.837m0 0 .972-.759M5.204 8.43l1.208.92m4.146 1.162h2.939m4.123-1.185 1.335-.425M7.082 12.855 7.004 14.5m9.978-1.623V14.5"/>
</svg>
