<svg xmlns="http://www.w3.org/2000/svg" width="24" height="24" fill="none" viewBox="0 0 24 24">
  <path stroke="#1B1C1B" stroke-linecap="round" stroke-linejoin="round" stroke-width="1.5" d="M7 20a2 2 0 1 0 0-4 2 2 0 0 0 0 4Zm10 0a2 2 0 1 0 0-4 2 2 0 0 0 0 4ZM2 4h11M6 8h2m7 4.5h.5"/>
  <path stroke="#1B1C1B" stroke-linecap="round" stroke-linejoin="round" stroke-width="1.5" d="M3 4v12c0 .465 0 .698.051.888a1.5 1.5 0 0 0 1.06 1.06C4.304 18 4.536 18 5 18m7 0V4M9 18h6m-3-8h4.86c1.364 0 1.694.27 1.962 1.608.097.486.015.858.52.898.84.068 1.432.633 1.749 1.373C21.546 14.94 22 15.832 22 17c0 .471 0 .707-.146.854C21.707 18 21.47 18 21 18h-2m-3-8V7m0 0h-1m1 0h1"/>
</svg>
