<svg xmlns="http://www.w3.org/2000/svg" width="24" height="24" fill="none" viewBox="0 0 24 24">
  <path stroke="#1B1C1B" stroke-linejoin="round" stroke-width="1.5" d="M4 11v-1c0-3.771 0-5.657 1.172-6.828C6.343 2 8.229 2 12 2c3.771 0 5.657 0 6.828 1.172C20 4.343 20 6.229 20 10v1c0 3.771 0 5.657-1.172 6.828C17.657 19 15.771 19 12 19c-3.771 0-5.657 0-6.828-1.172C4 16.657 4 14.771 4 11Z"/>
  <path stroke="#1B1C1B" stroke-linejoin="round" stroke-width="1.5" d="M4 12s3.733 1 8 1c4.267 0 8-1 8-1"/>
  <path stroke="#1B1C1B" stroke-linecap="round" stroke-linejoin="round" stroke-width="1.5" d="m7 19-2 3m12-3 2 3"/>
  <path stroke="#1B1C1B" stroke-linecap="round" stroke-width="1.5" d="M4.5 16h2m11 0h2M5 5h14"/>
</svg>
