<svg xmlns="http://www.w3.org/2000/svg" width="24" height="24" fill="none" viewBox="0 0 24 24">
  <path fill="#1B1C1B" d="M5.003 13.31C4.334 12.704 4 12.402 4 12s.334-.705 1.003-1.31l1.643-1.485C7.536 8.402 7.98 8 8.5 8s.965.402 1.854 1.205l1.644 1.486C12.665 11.295 13 11.597 13 12c0 .403-.334.705-1.002 1.31l-1.644 1.485C9.464 15.598 9.02 16 8.5 16s-.965-.402-1.854-1.205l-1.643-1.486Z" opacity=".4"/>
  <path stroke="#1B1C1B" stroke-width="1.5" d="M5.003 13.31C4.334 12.704 4 12.402 4 12s.334-.705 1.003-1.31l1.643-1.485C7.536 8.402 7.98 8 8.5 8s.965.402 1.854 1.205l1.644 1.486C12.665 11.295 13 11.597 13 12c0 .403-.334.705-1.002 1.31l-1.644 1.485C9.464 15.598 9.02 16 8.5 16s-.965-.402-1.854-1.205l-1.643-1.486Z"/>
  <path stroke="#1B1C1B" stroke-linecap="round" stroke-linejoin="round" stroke-width="1.5" d="M16 12h4m0 9V3"/>
</svg>
