<svg xmlns="http://www.w3.org/2000/svg" width="24" height="24" fill="none" viewBox="0 0 24 24">
  <path fill="#1B1C1B" d="M17.47 7.814C15.898 7.299 14.019 7 12 7c-1.894 0-3.665.263-5.175.72L6.24 6.588c-.579-1.12-.868-1.68-.686-2.176.182-.495.743-.673 1.865-1.027l3.97-1.255c.272-.086.407-.129.546-.129.14 0 .275.043.546.129l4.238 1.34c1.01.319 1.516.478 1.708.927.193.448-.014.983-.428 2.051l-.53 1.367Zm-2.838 10.382.506-.443c.421-.367.632-.551.892-.603.261-.053.526.036 1.056.213l.648.215c.998.333 1.497.5 1.94.757a5 5 0 0 1 1.167.936C21.188 19.647 22 20 22 22H2c0-2 .812-2.354 1.16-2.73a5 5 0 0 1 1.166-.936c.443-.257.942-.424 1.94-.757l.648-.215c.53-.177.796-.266 1.056-.213.261.052.472.236.892.603l.507.443c1.254 1.095 1.88 1.642 2.631 1.642.75 0 1.378-.547 2.632-1.642Z" opacity=".4"/>
  <path stroke="#1B1C1B" stroke-linecap="round" stroke-width="1.5" d="M18 8c-1.671-.628-3.749-1-6-1s-4.329.372-6 1"/>
  <path stroke="#1B1C1B" stroke-linecap="round" stroke-width="1.5" d="m6.97 8-.73-1.413c-.579-1.12-.868-1.68-.686-2.176.182-.495.743-.673 1.865-1.027l3.97-1.255c.272-.086.407-.129.546-.129.14 0 .275.043.546.129l4.238 1.34c1.01.319 1.516.478 1.708.927.193.448-.014.983-.428 2.051L17.398 8M7 8v1.725c0 1.793.921 3.455 2.428 4.378l.514.315a3.93 3.93 0 0 0 4.116 0l.514-.315A5.128 5.128 0 0 0 17 9.725V8"/>
  <path stroke="#1B1C1B" stroke-linecap="round" stroke-linejoin="round" stroke-width="1.5" d="m15 14 1 3m0 0-1.369 1.195c-1.254 1.096-1.88 1.643-2.631 1.643-.75 0-1.377-.547-2.631-1.643L8 17m8 0 1.734.578c.998.333 1.497.5 1.94.756a5 5 0 0 1 1.167.936C21.188 19.647 22 21 22 22M8 17l1-3m-1 3-1.734.578c-.998.333-1.497.5-1.94.756a5 5 0 0 0-1.167.936C2.812 19.647 2 21 2 22"/>
</svg>
