<svg xmlns="http://www.w3.org/2000/svg" width="24" height="24" fill="none" viewBox="0 0 24 24">
  <path stroke="#1B1C1B" stroke-linecap="round" stroke-linejoin="round" stroke-width="1.5" d="M2 8c3.476 5.333 16.524 5.333 20 0"/>
  <path stroke="#1B1C1B" stroke-linecap="round" stroke-linejoin="round" stroke-width="1.5" d="m5 10 2.125-7.008c.644-2.122 2.15-.273 3.472.348a3.338 3.338 0 0 0 2.806 0c1.322-.621 2.828-2.47 3.472-.348L19 10m0 1c0 2.808-.303 5.46-2.569 7.012C14.587 19.275 10.857 19.338 10 22"/>
  <path stroke="#1B1C1B" stroke-linecap="round" stroke-linejoin="round" stroke-width="1.5" d="M5 11c0 2.808.303 5.46 2.569 7.012C9.413 19.275 13.143 19.338 14 22"/>
</svg>
