<svg xmlns="http://www.w3.org/2000/svg" width="24" height="24" fill="none" viewBox="0 0 24 24">
  <path stroke="#1B1C1B" stroke-linecap="round" stroke-linejoin="round" stroke-width="1.5" d="M19.4 19.4 22 22m-1.3-7.15a5.85 5.85 0 1 0-11.7 0 5.85 5.85 0 0 0 11.7 0Z"/>
  <path stroke="#1B1C1B" stroke-linecap="round" stroke-width="1.5" d="M2 6c.13-1.335.426-2.234 1.096-2.904C3.766 2.426 4.665 2.13 6 2m0 20c-1.335-.13-2.234-.426-2.904-1.096C2.426 20.234 2.13 19.335 2 18M22 6c-.13-1.335-.426-2.234-1.096-2.904C20.234 2.426 19.335 2.13 18 2M2 10v4M14 2h-4"/>
</svg>
