<svg xmlns="http://www.w3.org/2000/svg" width="24" height="24" fill="none" viewBox="0 0 24 24">
  <path stroke="#1B1C1B" stroke-linecap="round" stroke-linejoin="round" stroke-width="1.5" d="M3 3v18M21 3v18m1-15H2"/>
  <path stroke="#1B1C1B" stroke-linejoin="round" stroke-width="1.5" d="M15.5 10c1.105 0 2 .97 2 2.165 0 .283-.05.554-.142.802-.294.798-3.489.617-3.716 0a2.316 2.316 0 0 1-.142-.802c0-1.196.895-2.165 2-2.165Zm-7 0c1.105 0 2 .97 2 2.165 0 .283-.05.554-.142.802-.294.798-3.489.617-3.716 0a2.316 2.316 0 0 1-.142-.802c0-1.196.895-2.165 2-2.165Z"/>
  <path stroke="#1B1C1B" stroke-linecap="round" stroke-linejoin="round" stroke-width="1.5" d="M8.5 10V6m7 4V6"/>
</svg>
