<svg xmlns="http://www.w3.org/2000/svg" width="24" height="24" fill="none" viewBox="0 0 24 24">
  <path stroke="#1B1C1B" stroke-linecap="round" stroke-linejoin="round" stroke-width="1.5" d="M10 3h4c3.771 0 5.657 0 6.828 1.172C22 5.343 22 7.229 22 11c0 3.771 0 5.657-1.172 6.828C19.657 19 17.771 19 14 19h-4c-3.771 0-5.657 0-6.828-1.172C2 16.657 2 14.771 2 11c0-3.771 0-5.657 1.172-6.828C4.343 3 6.229 3 10 3ZM5.5 7h3m-3 3h3m7-3h3m-3 3h3m1.5 9v2M4 19v2m8-18v16"/>
  <path stroke="#1B1C1B" stroke-linecap="round" stroke-linejoin="round" stroke-width="2" d="M17.992 14H18m-9.5 0h.009"/>
</svg>
