<svg xmlns="http://www.w3.org/2000/svg" width="24" height="24" fill="none" viewBox="0 0 24 24">
  <path stroke="#1B1C1B" stroke-linecap="round" stroke-linejoin="round" stroke-width="1.5" d="M3.5 10V8.5c0-1.886 0-2.828.586-3.414C4.672 4.5 5.614 4.5 7.5 4.5m13 5.5V8.5c0-1.886 0-2.828-.586-3.414C19.328 4.5 18.386 4.5 16.5 4.5M22 10h-3M5 10H2m7.368-6.492h5.264c.537 0 1.269-.096 1.645.38.223.282.223.7.223 1.536 0 .516-.098.688-.587.889l-1.08.443c-.41.168-.615.252-.829.243-.732-.03-1.259-.806-2.004-.806-.745 0-1.271.775-2.004.806-.214.01-.42-.075-.83-.243l-1.079-.443c-.489-.2-.587-.373-.587-.89 0-.835 0-1.253.223-1.536.376-.475 1.108-.38 1.645-.38Zm0 10.492h5.264c.537 0 1.269-.096 1.645.38.223.282.223.7.223 1.536 0 .516-.098.689-.587.89l-1.08.442c-.41.168-.615.253-.829.243-.732-.03-1.259-.805-2.004-.805-.745 0-1.271.774-2.004.805-.214.01-.42-.075-.83-.243l-1.079-.443c-.489-.2-.587-.373-.587-.89 0-.835 0-1.253.223-1.535.376-.476 1.108-.38 1.645-.38Z"/>
  <path stroke="#1B1C1B" stroke-linecap="round" stroke-linejoin="round" stroke-width="1.5" d="M3.414 20.414v-1.5c0-1.886 0-2.828.586-3.414.586-.586 1.529-.586 3.414-.586m13 5.5v-1.5c0-1.886 0-2.828-.586-3.414-.585-.586-1.528-.586-3.414-.586M22 20.5h-3m-14 0H2"/>
</svg>
