<svg xmlns="http://www.w3.org/2000/svg" width="24" height="24" fill="none" viewBox="0 0 24 24">
  <path stroke="#1B1C1B" stroke-width="1.5" d="M17 4.5a1.5 1.5 0 1 1-3 0 1.5 1.5 0 0 1 3 0Z"/>
  <path stroke="#1B1C1B" stroke-linecap="round" stroke-linejoin="round" stroke-width="1.5" d="m15 21-.664-2.616a4.906 4.906 0 0 0-1.315-2.288L11.5 14.6m0 0c-1.008-.794-1.512-1.191-1.707-1.722a2 2 0 0 1-.122-.738c.013-.566.362-1.104 1.06-2.18L12 8m-.5 6.599L15 9.276m-9 1.877C7 9.182 8.538 8.04 12 8m0 0c.219-.002.544-.003.87-.003.505 0 .757 0 .958.094.201.094.408.34.82.834.118.14.24.267.352.351m0 0c1.155.866 2.963 1.215 5-1.078M4 17.73l.678.162C6.407 18.302 8.203 17.516 9 16"/>
</svg>
