<svg xmlns="http://www.w3.org/2000/svg" width="24" height="24" fill="none" viewBox="0 0 24 24">
  <path stroke="#1B1C1B" stroke-linecap="round" stroke-linejoin="round" stroke-width="1.5" d="M7.033 13.653 9 15.373V6.5a1.5 1.5 0 0 1 3.001-.002l.004 4.764 2.636.427c1.702.26 2.553.389 3.152.753.99.601 1.707 1.557 1.707 2.823 0 .918-.224 1.534-.768 3.19-.345 1.05-.518 1.575-.8 1.99a3.532 3.532 0 0 1-1.934 1.414c-.478.14-1.023.14-2.115.14h-.926c-1.452 0-2.177 0-2.824-.27a3.486 3.486 0 0 1-.339-.164c-.614-.338-1.072-.91-1.987-2.052l-2.963-3.698a1.573 1.573 0 0 1-.008-1.954 1.52 1.52 0 0 1 2.197-.21Z"/>
  <path stroke="#1B1C1B" stroke-linecap="round" stroke-width="1.5" d="M12.438 9.5a4 4 0 1 0-3.876 0"/>
  <path stroke="#1B1C1B" stroke-linecap="round" stroke-linejoin="round" stroke-width="1.5" d="m17.517 3.996 1.743 1.44c.255.273.298.478.172.78a.787.787 0 0 1-.212.279l-1.703 1.51m-2.92-2.024h3.736"/>
</svg>
