<svg xmlns="http://www.w3.org/2000/svg" width="24" height="24" fill="none" viewBox="0 0 24 24">
  <path stroke="#1B1C1B" stroke-linecap="round" stroke-linejoin="round" stroke-width="1.5" d="M10.515 10.755H7.511m0 0H4.005A1.503 1.503 0 0 1 2.5 9.253c0-.829.674-1.501 1.505-1.501h5.464m-1.958 3.003.027 1.055c.018.71.406 1.327.978 1.667m.953-5.725h4.563m-4.563 0 2.76-2.594c1.867-1.572 3.229-.746 3.985-.166l2.438 1.615C20.719 7.832 21.5 9.25 21.5 10.442v4.88c0 2.266-2.382 4.38-4.566 4.38l-5.2.047a2.002 2.002 0 0 1-2.004-1.732l-.19-1.54m-1.024-3c.3.18.65.282 1.025.282h1.004m-2.03-.282.055 1.336a2.002 2.002 0 0 0 2.003 1.95h1.004"/>
</svg>
