<svg xmlns="http://www.w3.org/2000/svg" width="24" height="24" fill="none" viewBox="0 0 24 24">
  <path stroke="#1B1C1B" stroke-linecap="round" stroke-linejoin="round" stroke-width="1.5" d="m14.106 10.319.803-4.671c.133-.774-.37-1.512-1.125-1.649-.754-.136-1.474.38-1.607 1.155l-1.605 9.341-.133.724-1.797-1.91a1.51 1.51 0 0 0-2.302.132 1.653 1.653 0 0 0-.03 1.966l2.755 3.811c.625.865.938 1.298 1.314 1.634.574.513 1.262.87 2.002 1.038.485.111 1.006.111 2.048.111h1.817a5.002 5.002 0 0 0 4.907-4.046l.746-3.818.08-.468c.133-.774-.37-1.511-1.125-1.648-.754-.136-1.473.38-1.606 1.154l-.08.467m-5.062-3.323-.24 1.4m.24-1.4c.133-.774.852-1.291 1.607-1.155.754.137 1.258.875 1.124 1.649l-.16.934m0 0-.08.467m.08-.467c.133-.774.852-1.29 1.606-1.154.755.136 1.258.874 1.125 1.648l-.08.467M9.875 4.619s.245-2.224 0-2.466m0 0c-.319-.314-2.54-.05-2.54-.05m2.54.05L6.902 5.099M2.11 7.352s-.246 2.224 0 2.466m0 0c.318.314 2.54.05 2.54.05m-2.54-.05 2.97-2.946"/>
</svg>
