<svg xmlns="http://www.w3.org/2000/svg" width="24" height="24" fill="none" viewBox="0 0 24 24">
  <path stroke="#1B1C1B" stroke-linecap="round" stroke-linejoin="round" stroke-width="1.5" d="M2.017 4.5H8.01m-5.992 0c0-.7 1.992-2.008 2.497-2.499M2.017 4.5c0 .7 1.992 2.007 2.497 2.498M22 10.826h-.949a2.995 2.995 0 0 1-1.792-.595l-4.902-3.66c-.566-.422-1.268-.76-1.915-.48-1.049.45-1.73 1.723-.158 3.281l1.71 1.598H3.57c-2.044.057-2.145 3.347 0 3.488h5.94c-.192 1.48.852 8.457 5.272 7.44l.633-.143c.92-.206 2.557-.814 3.514-1.485.997-.698 1.99-.452 3.07-.452"/>
</svg>
