<svg xmlns="http://www.w3.org/2000/svg" width="24" height="24" fill="none" viewBox="0 0 24 24">
  <path stroke="#1B1C1B" stroke-linecap="round" stroke-linejoin="round" stroke-width="1.5" d="M22.003 4.501h-5.997m5.997 0c0-.7-1.993-2.008-2.499-2.5m2.499 2.5c0 .7-1.993 2.008-2.499 2.5M1.998 10.826h.948c.645 0 1.273-.208 1.791-.595l4.9-3.66c.565-.422 1.266-.76 1.913-.48 1.048.45 1.729 1.723.158 3.281L10 10.97h10.416c2.042.057 2.143 3.347 0 3.488H14.48c.19 1.48-.852 8.457-5.27 7.44l-.632-.143c-.919-.206-2.555-.814-3.512-1.485-.996-.698-1.988-.452-3.068-.452"/>
</svg>
