<svg xmlns="http://www.w3.org/2000/svg" width="24" height="24" fill="none" viewBox="0 0 24 24">
  <path stroke="#1B1C1B" stroke-linecap="round" stroke-linejoin="round" stroke-width="1.5" d="M7.284 11.061 3.574 8.48a1.353 1.353 0 0 1-.324-1.894 1.372 1.372 0 0 1 1.9-.346l7.419 5.163.581.394-.03-2.539c0-.91.792-1.618 1.698-1.517a1.529 1.529 0 0 1 1.346 1.301l.642 4.487c.146 1.018.219 1.527.182 2.016a4.506 4.506 0 0 1-.7 2.095c-.264.413-.629.777-1.357 1.504l-1.536 1.532a4.528 4.528 0 0 1-5.695.57l-3.294-2.179-.37-.258a1.353 1.353 0 0 1-.325-1.894 1.372 1.372 0 0 1 1.901-.345l.371.258m1.3-5.768 1.112.775m-1.112-.775a1.372 1.372 0 0 0-1.902.345 1.353 1.353 0 0 0 .325 1.894l.741.516m0 0 .371.258m-.37-.258a1.372 1.372 0 0 0-1.902.345 1.353 1.353 0 0 0 .324 1.894l.371.258M9.363 4.966c.397.395 2.124.281 2.76.202m-2.76-.202c-.397-.396-.408-2.328-.328-2.963m.328 2.963c1.021-1.769 5.081-4.59 9.11-1.769 1.946 1.363 2.22 2.222 2.529 2.798"/>
</svg>
