<svg xmlns="http://www.w3.org/2000/svg" width="24" height="24" fill="none" viewBox="0 0 24 24">
  <path stroke="#1B1C1B" stroke-linecap="round" stroke-linejoin="round" stroke-width="1.5" d="M6.51 10.267a1.236 1.236 0 0 1-.31-1.736 1.276 1.276 0 0 1 1.761-.306l5.527 3.814.923.672-.03-2.411c0-.838.74-1.49 1.585-1.398.647.07 1.163.564 1.255 1.199l.599 4.133c.136.938.204 1.407.17 1.857a4.116 4.116 0 0 1-.653 1.93c-.247.38-.587.715-1.266 1.385l-1.395 1.376a4.263 4.263 0 0 1-5.364.49l-4.047-2.73-1.727-1.193a1.236 1.236 0 0 1-.31-1.736 1.276 1.276 0 0 1 1.761-.306m1.52-5.04-1.38-.953a1.277 1.277 0 0 0-1.763.306c-.4.564-.261 1.342.311 1.737l1.382.953m1.45-2.043 3.11 2.146m-4.63 2.893-1.381-.953a1.236 1.236 0 0 1-.311-1.737c.4-.564 1.19-.7 1.762-.306m-.07 2.996 1.727 1.192M5.06 12.31l3.108 2.146m1.195-9.49c.397.395 2.124.281 2.76.202m-2.76-.202c-.397-.396-.408-2.328-.328-2.963m.328 2.963c1.021-1.769 5.081-4.59 9.11-1.769 1.946 1.363 2.22 2.222 2.529 2.798"/>
</svg>
