<svg xmlns="http://www.w3.org/2000/svg" width="24" height="24" fill="none" viewBox="0 0 24 24">
  <path stroke="#1B1C1B" stroke-linecap="round" stroke-linejoin="round" stroke-width="1.5" d="M17.49 10.267a1.236 1.236 0 0 0 .31-1.736 1.277 1.277 0 0 0-1.761-.306l-5.527 3.814-.923.672.03-2.411c0-.838-.74-1.49-1.585-1.398A1.418 1.418 0 0 0 6.78 10.1l-.599 4.133c-.136.938-.204 1.407-.17 1.857.052.687.276 1.35.653 1.93.247.38.587.715 1.266 1.385l1.395 1.376a4.263 4.263 0 0 0 5.364.49l4.047-2.73 1.727-1.193a1.236 1.236 0 0 0 .31-1.736 1.277 1.277 0 0 0-1.761-.306m-1.52-5.04 1.38-.953a1.277 1.277 0 0 1 1.763.306c.4.564.261 1.342-.311 1.737l-1.382.953m-1.45-2.043-3.11 2.146m4.63 2.893 1.381-.953a1.236 1.236 0 0 0 .311-1.737 1.277 1.277 0 0 0-1.762-.306m.07 2.996-1.727 1.192m1.657-4.188-3.108 2.146m-1.197-9.489c-.397.395-2.124.281-2.76.202m2.76-.202c.396-.396.408-2.328.328-2.963m-.328 2.963c-1.021-1.769-5.081-4.59-9.11-1.769C3.582 4.56 3.308 5.42 2.999 5.995"/>
</svg>
