<svg xmlns="http://www.w3.org/2000/svg" width="24" height="24" fill="none" viewBox="0 0 24 24">
  <path stroke="#1B1C1B" stroke-linecap="round" stroke-linejoin="round" stroke-width="1.5" d="m16.716 11.061 3.71-2.581c.615-.428.76-1.276.324-1.894a1.372 1.372 0 0 0-1.901-.345l-7.419 5.163-.581.394.03-2.539c0-.91-.792-1.618-1.698-1.517a1.529 1.529 0 0 0-1.346 1.301l-.642 4.487c-.146 1.018-.219 1.527-.182 2.016.056.745.296 1.465.7 2.095.264.413.629.777 1.357 1.504l1.536 1.532a4.528 4.528 0 0 0 5.695.57l3.294-2.179.37-.258c.615-.428.76-1.276.325-1.894a1.372 1.372 0 0 0-1.901-.345l-.371.258m-1.3-5.768-1.112.775m1.113-.775a1.372 1.372 0 0 1 1.9.345 1.353 1.353 0 0 1-.323 1.894l-.742.516m0 0-.371.258m.37-.258a1.372 1.372 0 0 1 1.902.345c.435.618.29 1.466-.324 1.894l-.371.258M14.637 4.966c-.397.395-2.124.281-2.76.202m2.76-.202c.396-.396.408-2.328.328-2.963m-.328 2.963c-1.021-1.769-5.081-4.59-9.11-1.769C3.582 4.56 3.308 5.42 2.999 5.995"/>
</svg>
