<svg xmlns="http://www.w3.org/2000/svg" width="24" height="24" fill="none" viewBox="0 0 24 24">
  <path stroke="#1B1C1B" stroke-linecap="round" stroke-linejoin="round" stroke-width="1.5" d="m3.97 14.812.65-.393a2.999 2.999 0 0 0 1.258-1.41l2.426-5.615a1.55 1.55 0 0 1 .352-.51c.642-.615 1.75-.355 2.289.351.994 1.303-.342 2.536-.06 3.623l7.755-4.355c1.804-.972 3.361 1.611 1.569 2.804l-4.59 2.55c.883 1.153 3.125 6.746.252 8.452a2.425 2.425 0 0 1-.525.217l-.35.109c-.902.28-2.606.634-3.775.532-1.216-.106-1.978.542-2.917 1.082M14.648 4.72c-.398.397-2.126.283-2.764.203m2.764-.202c.397-.397.408-2.333.328-2.969m-.329 2.969C13.627 2.949 9.563.123 5.53 2.949 3.58 4.315 3.306 5.175 2.998 5.752"/>
</svg>
