<svg xmlns="http://www.w3.org/2000/svg" width="24" height="24" fill="none" viewBox="0 0 24 24">
  <path stroke="#1B1C1B" stroke-linecap="round" stroke-linejoin="round" stroke-width="1.5" d="M18.501 8.008v-5.99m0 5.99c-.7 0-2.008-1.99-2.499-2.496m2.499 2.496c.7 0 2.008-1.99 2.5-2.496"/>
  <path stroke="#1B1C1B" stroke-linecap="round" stroke-width="1.5" d="M6.513 13.515V3.485a1.489 1.489 0 0 1 2.979 0v5.203m0 0v2.323m0-2.323c.805-1.119 2.607-.746 2.99.993.007.029.012.058.017.087m0 0c.01.078.015.157.015.237v1.002m-.015-1.239c.493-1.35 3.004-.842 3.004 1.093m0 0v1.146m0-1.146c.404-1.49 3.056-.449 2.998 1.293v3.179c-.003 1.726-.29 2.978-1.317 4.007-.948 1.132-.725 1.765-.749 2.662M6.513 8.99c-1.32 1.193-2.816 2.825-3.007 3.211-.89 1.352-.573 2.413.69 4.216.941 1.34 2.203 2.835 2.269 2.91.672.762.54 1.368.54 2.663"/>
</svg>
