<svg xmlns="http://www.w3.org/2000/svg" width="24" height="24" fill="none" viewBox="0 0 24 24">
  <path stroke="#1B1C1B" stroke-linecap="round" stroke-linejoin="round" stroke-width="1.5" d="M20.998 4.495h-5.99m5.99 0c0-.7-1.99-2.006-2.496-2.497m2.496 2.497c0 .7-1.99 2.007-2.496 2.498"/>
  <path stroke="#1B1C1B" stroke-linecap="round" stroke-width="1.5" d="M6.537 14.445v-4.47m0 0V4.454c0-.82.685-1.482 1.506-1.482s1.469.661 1.469 1.482v4.001M6.537 9.976c-1.316 1.192-2.733 2.698-2.924 3.084-.888 1.351-.795 2.005.194 3.658a41.318 41.318 0 0 0 2.037 3.036c.672.76.538.76 1.511 1.475.87.602 2.672 1.023 6.899.602 3.443-.531 4.268-3.534 4.25-4.97v-3.544c.214-2.947-1.018-3.08-3.255-3.37M9.512 8.455v2.527m0-2.527c.558-.91 2.586-.542 2.981 1.176m0 0a1.53 1.53 0 0 1 .02.11m-.02-.11c.004.035.01.072.02.11m-.02-.11c-.14-1.197 2.896-.905 3.02 1.201v1.145m-2.984-.999V9.976c0-.08-.004-.159-.015-.237"/>
</svg>
