<svg xmlns="http://www.w3.org/2000/svg" width="24" height="24" fill="none" viewBox="0 0 24 24">
  <path stroke="#1B1C1B" stroke-linecap="round" stroke-linejoin="round" stroke-width="1.5" d="M15.008 4.496H21m-5.992 0c0-.7 1.992-2.006 2.497-2.497m-2.497 2.497c0 .7 1.992 2.006 2.497 2.497"/>
  <path stroke="#1B1C1B" stroke-linecap="round" stroke-width="1.5" d="M6.536 14.446v-4.47m0 0v-5.52c0-.821.685-1.482 1.506-1.482.822 0 1.469.661 1.469 1.482v4M6.536 9.978c-1.317 1.192-2.734 2.698-2.925 3.084-.888 1.35-.795 2.005.195 3.657a41.303 41.303 0 0 0 2.037 3.036c.671.76.538.76 1.511 1.475.87.602 2.673 1.023 6.9.602 3.444-.531 4.27-3.534 4.251-4.97v-3.544c.215-2.945-1.018-3.078-3.256-3.368M9.511 8.456v2.527m0-2.527c.558-.91 2.587-.542 2.982 1.176m0 0 .005.021.016.088m-.02-.11a.64.64 0 0 0 .02.11m-.02-.11c-.141-1.197 2.896-.905 3.02 1.201v1.145m-2.985-.998V9.976c0-.08-.004-.158-.015-.236"/>
</svg>
