<svg xmlns="http://www.w3.org/2000/svg" width="24" height="24" fill="none" viewBox="0 0 24 24">
  <path stroke="#1B1C1B" stroke-linecap="round" stroke-linejoin="round" stroke-width="1.5" d="M19.503 7.987V2m0 5.987c-.7 0-2.005-1.99-2.496-2.495m2.496 2.495c.699 0 2.005-1.99 2.496-2.495"/>
  <path stroke="#1B1C1B" stroke-linecap="round" stroke-width="1.5" d="M5.537 14.453V9.988m0 0V4.47c0-.82.684-1.48 1.505-1.48.821 0 1.469.66 1.469 1.48v3.997m-2.974 1.52c-1.317 1.191-2.734 2.696-2.925 3.082-.888 1.349-.795 2.002.194 3.653a41.31 41.31 0 0 0 2.037 3.033c.672.76.538.76 1.512 1.473.869.602 2.672 1.022 6.898.602 3.443-.53 4.268-3.53 4.25-4.965v-3.54c.215-2.944-1.018-3.077-3.255-3.366M8.51 8.468v2.525m0-2.525c.558-.909 2.586-.541 2.981 1.175m0 0 .005.022c.006.029.012.058.016.087m-.02-.109c.003.035.01.071.02.109m-.02-.109c-.141-1.196 2.896-.905 3.02 1.2v1.143m-2.985-.997V9.988a1.69 1.69 0 0 0-.015-.236"/>
</svg>
