<svg xmlns="http://www.w3.org/2000/svg" width="24" height="24" fill="none" viewBox="0 0 24 24">
  <path stroke="#1B1C1B" stroke-linecap="round" stroke-linejoin="round" stroke-width="1.5" d="M19.504 1.999v5.993m0-5.993c-.7 0-2.006 1.992-2.497 2.497M19.504 2c.7 0 2.006 1.992 2.497 2.497"/>
  <path stroke="#1B1C1B" stroke-linecap="round" stroke-width="1.5" d="M5.536 14.446V9.977m0 0V4.455c0-.821.685-1.482 1.506-1.482.822 0 1.47.661 1.47 1.482v4M5.535 9.978C4.218 11.17 2.8 12.677 2.609 13.063c-.888 1.35-.795 2.004.195 3.656a41.315 41.315 0 0 0 2.037 3.036c.672.76.539.761 1.512 1.475.87.603 2.674 1.023 6.902.603 3.445-.532 4.27-3.535 4.252-4.97v-3.544c.215-2.946-1.018-3.08-3.257-3.37M8.51 8.457v2.527m0-2.527c.56-.91 2.588-.542 2.983 1.176m0 0a1.528 1.528 0 0 1 .02.109m-.02-.11a.914.914 0 0 0 .02.11m-.02-.11c-.14-1.197 2.898-.905 3.022 1.201v1.145m-2.986-.998V9.977a1.69 1.69 0 0 0-.015-.236"/>
</svg>
