<svg xmlns="http://www.w3.org/2000/svg" width="24" height="24" fill="none" viewBox="0 0 24 24">
  <path stroke="#1B1C1B" stroke-linecap="round" stroke-linejoin="round" stroke-width="1.5" d="M13 6a4 4 0 0 0-8 0"/>
  <path stroke="#1B1C1B" stroke-linecap="round" stroke-linejoin="round" stroke-width="1.5" d="M10.318 8.92V6.365a1.364 1.364 0 0 0-2.727 0v7.892L6.118 12.8a1.547 1.547 0 0 0-2.282.125 1.499 1.499 0 0 0-.03 1.854l2.732 3.595c.62.816.93 1.224 1.302 1.541.57.484 1.25.82 1.984.98.48.104.997.104 2.03.104 1.97 0 2.955 0 3.739-.297a4.503 4.503 0 0 0 2.606-2.573c.301-.775.301-1.747.301-3.691v-2.213a1.8 1.8 0 0 0-1.52-1.765l-.31-.05a.766.766 0 0 0-.897.747M10.318 8.92l.525-.258c.253-.125.535-.205.81-.14a1.796 1.796 0 0 1 1.393 1.74M10.318 8.92v2.237m5.455 0c0-.989-.814-1.79-1.819-1.79-.502 0-.909.4-.909.895m2.728.895v.895m-2.727-1.79v.895"/>
</svg>
