<svg xmlns="http://www.w3.org/2000/svg" width="24" height="24" fill="none" viewBox="0 0 24 24">
  <path stroke="#1B1C1B" stroke-linecap="round" stroke-linejoin="round" stroke-width="1.5" d="M21 13.053v.173m0 0a1.8 1.8 0 0 0-1.52-1.765l-1.207-.198v.895M21 13.226v2.213c0 1.944 0 2.916-.301 3.69a4.503 4.503 0 0 1-2.606 2.574c-.784.297-1.77.297-3.739.297-1.033 0-1.55 0-2.03-.104a4.553 4.553 0 0 1-1.984-.98c-.373-.317-.683-.725-1.302-1.54L6.307 15.78a1.499 1.499 0 0 1 .029-1.854 1.547 1.547 0 0 1 2.282-.125L10 15.256V6.5a1.5 1.5 0 0 1 3 0v2.974m5.273 2.684c0-.988-.814-1.79-1.819-1.79h-.909v.895m2.728.895v.895M13 9.473h.727c1.004 0 1.819.802 1.819 1.79M13 9.473v2.685m2.546-.895v.895"/>
  <path stroke="#1B1C1B" stroke-linecap="round" stroke-linejoin="round" stroke-width="1.5" d="M7 8h-.824C4.68 8 3.93 8 3.466 7.56 3 7.122 3 6.415 3 5c0-1.414 0-2.121.465-2.56C3.93 2 4.68 2 6.176 2h11.647c1.498 0 2.247 0 2.712.44C21 2.878 21 3.585 21 5c0 1.414 0 2.121-.465 2.56C20.07 8 19.32 8 17.823 8H16.5"/>
</svg>
