<svg xmlns="http://www.w3.org/2000/svg" width="24" height="24" fill="none" viewBox="0 0 24 24">
  <path fill="#1B1C1B" d="m8.5 14-.543.517A.75.75 0 0 0 9.25 14H8.5Zm-2.217-2.329.544-.517a.733.733 0 0 0-.047-.045l-.497.562ZM3.877 14.09l.599-.453-.01-.011-.589.464ZM7.603 22a.75.75 0 0 0 1.5 0h-1.5ZM12 9.5h-.75a.75.75 0 0 0 .783.75L12 9.5Zm6 2.56a.75.75 0 0 0 1-1.12l-1 1.12Zm-8.957 1.423-2.216-2.329-1.087 1.034 2.217 2.33 1.086-1.035ZM3.28 14.54l3.282 4.335 1.196-.905-3.281-4.335-1.197.905Zm-.002-3.095a2.532 2.532 0 0 0 .011 3.107l1.179-.928a1.032 1.032 0 0 1-.005-1.26l-1.185-.92Zm3.503-.337a2.402 2.402 0 0 0-3.503.337l1.185.919a.902.902 0 0 1 1.325-.132l.993-1.124ZM9.102 22c0-.913.008-1.526-.173-2.107l-1.432.445c.097.314.105.658.105 1.662h1.5ZM6.56 18.876c.599.792.796 1.066.906 1.373l1.413-.503c-.205-.575-.58-1.056-1.123-1.775l-1.196.905Zm2.368 1.017a3.8 3.8 0 0 0-.05-.147l-1.412.503.03.09 1.432-.446ZM7.75 3.75V14h1.5V3.75h-1.5Zm3.5 0V9.5h1.5V3.75h-1.5Zm-2 0a1 1 0 0 1 1-1v-1.5a2.5 2.5 0 0 0-2.5 2.5h1.5Zm1-1a1 1 0 0 1 1 1h1.5a2.5 2.5 0 0 0-2.5-2.5v1.5Zm1.783 7.5c1.563-.07 4.089.13 5.967 1.81l1-1.12c-2.324-2.076-5.348-2.264-7.033-2.19l.066 1.5Z"/>
  <path stroke="#1B1C1B" stroke-width="1.5" d="M14.5 19.5c0-.935 0-1.402.201-1.75a1.5 1.5 0 0 1 .549-.549C15.598 17 16.065 17 17 17h1c.935 0 1.402 0 1.75.201a1.5 1.5 0 0 1 .549.549c.201.348.201.815.201 1.75s0 1.402-.201 1.75a1.5 1.5 0 0 1-.549.549C19.402 22 18.935 22 18 22h-1c-.935 0-1.402 0-1.75-.201a1.5 1.5 0 0 1-.549-.549c-.201-.348-.201-.815-.201-1.75Zm1.5-4a1.5 1.5 0 0 1 3 0V17h-3v-1.5Z"/>
</svg>
