<svg xmlns="http://www.w3.org/2000/svg" width="24" height="24" fill="none" viewBox="0 0 24 24">
  <path stroke="#1B1C1B" stroke-linecap="round" stroke-linejoin="round" stroke-width="1.5" d="M11.227 7.79V3.578c0-.872-.692-1.579-1.545-1.579-.854 0-1.546.707-1.546 1.579v10.487l-1.669-1.711a1.71 1.71 0 0 0-2.586.146 1.816 1.816 0 0 0-.033 2.182l3.095 4.23c.702.96 1.053 1.439 1.476 1.812.645.57 1.417.965 2.248 1.152.545.123 1.13.123 2.301.123 2.232 0 3.348 0 4.237-.35a5.201 5.201 0 0 0 2.954-3.027c.341-.91.341-2.055.341-4.342v-2.603c0-1.029-.728-1.907-1.722-2.076l-.353-.06a.879.879 0 0 0-1.016.88m-6.182-2.633.595-.304c.287-.146.607-.24.918-.164a2.097 2.097 0 0 1 1.578 2.047m-3.09-1.579v2.632m6.181 0c0-1.163-.922-2.105-2.06-2.105-.57 0-1.03.471-1.03 1.052m3.09 1.053v1.053m-3.09-2.106v1.053"/>
</svg>
