<svg xmlns="http://www.w3.org/2000/svg" width="24" height="24" fill="none" viewBox="0 0 24 24">
  <path stroke="#1B1C1B" stroke-linecap="round" stroke-linejoin="round" stroke-width="1.5" d="M7.708 14.021V9.47m0 0 .039-3.363c0-.96.63-1.592 1.402-1.625.94-.04 1.605.565 1.605 1.526l.022 4.457-.022-6.395c0-.96.645-1.571 1.494-1.571.85 0 1.5.562 1.5 1.523v2.942l.012 3.545v-1c0-.062-.003-.124-.009-.185m-6.043.146-1.84 1.84c-.494.567-1.078 1.24-1.263 1.576-.39.71-.448 1.335-.217 2.072.26.663.496 1.14.972 1.76.348.455.686 1.101 1.038 1.553.507.65.784 1.062 1.09 1.462.034.043.066.082.097.118.434.504 1.041.83 1.625 1.15l.224.121c.763.248 1.83.46 3.572.348 1.28.001 2.747.136 3.717-.397.042-.023.085-.045.13-.063l.3-.125c1.414-.706 2.4-2.21 2.548-3.78.068-.714.041-1.495.042-2.282v-3.237c-.162-1.224-.796-2.013-3.233-2.06m-2.759-.202a1.48 1.48 0 0 0-.006-.052m.006.052c.006.029-.01-.08-.006-.052m2.765.255c-.712-1.246-2.765-1.445-2.765-.255m2.765.255c.137.24.224.52.237.835v1.144"/>
</svg>
