<svg xmlns="http://www.w3.org/2000/svg" width="24" height="24" fill="none" viewBox="0 0 24 24">
  <path stroke="#1B1C1B" stroke-linecap="round" stroke-linejoin="round" stroke-width="1.5" d="M7 4.5a3 3 0 0 0-2.567 4.553 3.001 3.001 0 0 0 0 5.893M7 4.5a2.5 2.5 0 0 1 5 0v15a2.5 2.5 0 0 1-5 0 3 3 0 0 1-2.567-4.553M7 4.5c0 .818.393 1.544 1 2m-3.567 8.447A3.01 3.01 0 0 1 6 13.67m11 5.83a3 3 0 0 0 2.567-4.553 3.001 3.001 0 0 0 0-5.893M17 19.5a2.5 2.5 0 0 1-5 0v-15a2.5 2.5 0 0 1 5 0 3 3 0 0 1 2.567 4.553M17 19.5c0-.818-.393-1.544-1-2m3.567-8.447A3.01 3.01 0 0 1 18 10.33"/>
</svg>
