<svg xmlns="http://www.w3.org/2000/svg" width="24" height="24" fill="none" viewBox="0 0 24 24">
  <path stroke="#1B1C1B" stroke-linecap="round" stroke-linejoin="round" stroke-width="1.5" d="M12 4.5a2.5 2.5 0 0 0-5 0 3 3 0 0 0-2.567 4.553 3.001 3.001 0 0 0 0 5.893A3 3 0 0 0 7 19.5a2.5 2.5 0 0 0 5 .001m0-.001a2.5 2.5 0 0 0 5 0 3 3 0 0 0 2.567-4.553 3.001 3.001 0 0 0 0-5.893A3 3 0 0 0 17 4.5a2.5 2.5 0 0 0-5-.001"/>
  <path stroke="#1B1C1B" stroke-linecap="round" stroke-width="1.5" d="M10.487 7.001V8.98M7 10.501h2.052m5.971 0h2.052m-2.052 2.974h2.052M7 13.475h2.052m1.435 1.545V17m3.025-1.98V17m-.01-10v1.98m-3.45 5.989h3.971a1 1 0 0 0 1-1V9.98a1 1 0 0 0-1-1h-3.971a1 1 0 0 0-1 1v3.989a1 1 0 0 0 1 1Z"/>
</svg>
