<svg xmlns="http://www.w3.org/2000/svg" width="24" height="24" fill="none" viewBox="0 0 24 24">
  <path stroke="#1B1C1B" stroke-linecap="round" stroke-width="1.5" d="M7 6h9.75c2.107 0 3.16 0 3.917.506a3 3 0 0 1 .827.827C22 8.09 22 9.143 22 11.25c0 3.511 0 5.267-.843 6.528a4.92 4.92 0 0 1-.622.758m-17.07 0C2 17.07 2 14.713 2 10V6.944c0-1.816 0-2.724.38-3.406A3 3 0 0 1 3.538 2.38C4.22 2 5.128 2 6.944 2 8.108 2 8.69 2 9.2 2.191c1.163.436 1.643 1.493 2.168 2.542L12 6"/>
  <path stroke="#1B1C1B" stroke-linecap="round" stroke-linejoin="round" stroke-width="1.5" d="M18.25 21.25 16 19v-3m2.25 4.5a.75.75 0 1 0 0 1.5.75.75 0 0 0 0-1.5Zm-12.5.75L8 19v-3m-2.25 4.5a.75.75 0 1 1 0 1.5.75.75 0 0 1 0-1.5Zm6.25.75V16m0 4.5a.75.75 0 1 0 0 1.5.75.75 0 0 0 0-1.5Z"/>
</svg>
