<svg xmlns="http://www.w3.org/2000/svg" width="24" height="24" fill="none" viewBox="0 0 24 24">
  <path stroke="#1B1C1B" stroke-linecap="round" stroke-linejoin="round" stroke-width="1.5" d="M20.25 6.75 18 9h-2m3.5-2.25a.75.75 0 1 0 1.5 0 .75.75 0 0 0-1.5 0Zm.75 10.5L18 15h-2m3.5 2.25a.75.75 0 1 1 1.5 0 .75.75 0 0 1-1.5 0Zm.75-5.25H12m7.5 0a.75.75 0 1 0 1.5 0 .75.75 0 0 0-1.5 0Z"/>
  <path stroke="#1B1C1B" stroke-linecap="round" stroke-linejoin="round" stroke-width="2" d="M9.5 19h.009"/>
  <path stroke="#1B1C1B" stroke-linecap="round" stroke-width="1.5" d="M16 6c-.08-1.42-.302-2.323-.909-2.975C14.136 2 12.598 2 9.523 2 6.448 2 4.911 2 3.955 3.025 3 4.05 3 5.7 3 9v6c0 3.3 0 4.95.955 5.975C4.911 22 6.448 22 9.523 22c3.075 0 4.613 0 5.568-1.025.607-.652.828-1.556.909-2.975"/>
</svg>
