<svg xmlns="http://www.w3.org/2000/svg" width="24" height="24" fill="none" viewBox="0 0 24 24">
  <path stroke="#1B1C1B" stroke-linecap="round" stroke-width="1.5" d="M12.998 2c-.717 0-1.586 0-1.856.189s-.383.519-.61 1.18c-.258.745-.441 1.52-1.158 1.965l-.348.194c-.883.44-1.782.066-2.662-.174a5.313 5.313 0 0 0-1.17-.174.459.459 0 0 0-.41.229L3.14 8.14a.457.457 0 0 0-.011.466c.125.218.342.555.633.87.694.751 1.51 1.418 1.51 2.528s-.815 1.776-1.51 2.529a4.938 4.938 0 0 0-.633.869.457.457 0 0 0 .011.465L4.785 18.6c.087.145.24.235.409.229.27-.01.712-.048 1.17-.174.88-.24 1.78-.614 2.662-.175l.348.195c.717.445.9 1.22 1.158 1.966.227.66.34.99.61 1.179.27.189 1.139.181 1.856.181"/>
  <path stroke="#1B1C1B" stroke-linecap="round" stroke-width="1.5" d="M12.998 15.5a3.5 3.5 0 0 1 0-7"/>
  <path stroke="#1B1C1B" stroke-linecap="round" stroke-linejoin="round" stroke-width="1.5" d="M20.248 4.75 17.998 7h-2m3.5-2.25a.75.75 0 1 0 1.5 0 .75.75 0 0 0-1.5 0Zm.75 14.5L17.998 17h-2m3.5 2.25a.75.75 0 1 1 1.5 0 .75.75 0 0 1-1.5 0Zm.75-7.25h-4.25m3.5 0a.75.75 0 1 0 1.5 0 .75.75 0 0 0-1.5 0Z"/>
</svg>
