<svg xmlns="http://www.w3.org/2000/svg" width="24" height="24" fill="none" viewBox="0 0 24 24">
  <path stroke="#1B1C1B" stroke-linecap="round" stroke-linejoin="round" stroke-width="1.5" d="M17.5 5a1.5 1.5 0 1 1 0 3 1.5 1.5 0 0 1 0-3Z"/>
  <path stroke="#1B1C1B" stroke-width="1.5" d="M2.774 11.144c-1.003 1.12-1.024 2.81-.104 4a34.008 34.008 0 0 0 6.186 6.186c1.19.92 2.88.899 4-.104a92.344 92.344 0 0 0 8.516-8.698 1.95 1.95 0 0 0 .47-1.094c.164-1.796.503-6.97-.902-8.374-1.405-1.405-6.578-1.066-8.374-.901a1.952 1.952 0 0 0-1.094.47 92.35 92.35 0 0 0-8.698 8.515Z"/>
  <path stroke="#1B1C1B" stroke-linecap="round" stroke-linejoin="round" stroke-width="1.5" d="m7 14 3 3"/>
</svg>
