<svg xmlns="http://www.w3.org/2000/svg" width="24" height="24" fill="none" viewBox="0 0 24 24">
  <path stroke="#1B1C1B" stroke-width="1.5" d="M22 12c0-5.523-4.477-10-10-10S2 6.477 2 12s4.477 10 10 10 10-4.477 10-10Z"/>
  <path stroke="#1B1C1B" stroke-linecap="round" stroke-linejoin="round" stroke-width="1.5" d="m13.152 15.214-.177-.557c-.146-.456-.218-.684-.162-.864a.638.638 0 0 1 .28-.354c.167-.102.42-.102.926-.102h.27c1.713 0 2.57 0 2.974-.492.047-.057.088-.116.123-.18.312-.548-.042-1.288-.75-2.767-.65-1.357-.974-2.036-1.577-2.435a2.741 2.741 0 0 0-.18-.11C14.244 7 13.457 7 11.884 7h-.34c-1.907 0-2.86 0-3.452.557C7.5 8.114 7.5 9.01 7.5 10.802v.63c0 .942 0 1.413.172 1.844.172.431.502.786 1.162 1.495l2.727 2.931c.069.073.103.11.133.136a.704.704 0 0 0 .962-.06c.027-.028.055-.07.113-.15.09-.128.135-.191.175-.254a2.405 2.405 0 0 0 .296-1.87 5.231 5.231 0 0 0-.088-.29Z"/>
</svg>
