<svg xmlns="http://www.w3.org/2000/svg" width="24" height="24" fill="none" viewBox="0 0 24 24">
  <path stroke="#1B1C1B" stroke-linecap="round" stroke-linejoin="round" stroke-width="1.5" d="M3 7h3M3 17h6m9 0h3M15 7h6"/>
  <path stroke="#1B1C1B" stroke-width="1.5" d="M6 7c0-.932 0-1.398.152-1.765a2 2 0 0 1 1.083-1.083C7.602 4 8.068 4 9 4c.932 0 1.398 0 1.765.152a2 2 0 0 1 1.083 1.083C12 5.602 12 6.068 12 7c0 .932 0 1.398-.152 1.765a2 2 0 0 1-1.083 1.083C10.398 10 9.932 10 9 10c-.932 0-1.398 0-1.765-.152a2 2 0 0 1-1.083-1.083C6 8.398 6 7.932 6 7Zm6 10c0-.932 0-1.398.152-1.765a2 2 0 0 1 1.083-1.083C13.602 14 14.068 14 15 14c.932 0 1.398 0 1.765.152a2 2 0 0 1 1.083 1.083C18 15.602 18 16.068 18 17c0 .932 0 1.398-.152 1.765a2 2 0 0 1-1.083 1.083C16.398 20 15.932 20 15 20c-.932 0-1.398 0-1.765-.152a2 2 0 0 1-1.083-1.083C12 18.398 12 17.932 12 17Z"/>
</svg>
