<svg xmlns="http://www.w3.org/2000/svg" width="24" height="24" fill="none" viewBox="0 0 24 24">
  <path stroke="#1B1C1B" stroke-linecap="round" stroke-linejoin="round" stroke-width="1.5" d="M14.006 2.191A10.493 10.493 0 0 0 12.005 2C6.48 2 2 6.284 2 11.567c0 2.538 1.034 4.845 2.72 6.556.372.377.62.892.52 1.422a5.29 5.29 0 0 1-1.088 2.348 6.505 6.505 0 0 0 4.226-.657c.455-.241.682-.362.842-.386.16-.025.39.018.85.104.638.12 1.285.18 1.935.18 5.373 0 9.758-4.052 9.995-9.134"/>
  <path stroke="#1B1C1B" stroke-linecap="round" stroke-linejoin="round" stroke-width="1.5" d="M16 7.5c.491.506 1.8 2.5 2.5 2.5m0 0c.7 0 2.009-1.994 2.5-2.5M18.5 10V2"/>
  <path stroke="#1B1C1B" stroke-linecap="round" stroke-linejoin="round" stroke-width="2" d="M11.995 12h.01M8 12h.009"/>
</svg>
