<svg xmlns="http://www.w3.org/2000/svg" width="24" height="24" fill="none" viewBox="0 0 24 24">
  <path stroke="#1B1C1B" stroke-linecap="round" stroke-linejoin="round" stroke-width="1.5" d="M13 2.047A10.57 10.57 0 0 0 12 2C6.478 2 2 6.284 2 11.567c0 2.538 1.033 4.845 2.719 6.556.371.377.619.892.519 1.422a5.292 5.292 0 0 1-1.087 2.348 6.5 6.5 0 0 0 4.224-.657c.454-.241.681-.362.842-.386.16-.025.39.018.848.104.638.12 1.286.18 1.935.18 4.83 0 9.065-3.277 10-7.634"/>
  <path stroke="#1B1C1B" stroke-linecap="round" stroke-width="1.5" d="M16.531 5.36V3.952A1.96 1.96 0 0 1 18.5 2c.489 0 .936.177 1.28.469M17.844 11h1.312c1.022 0 1.532 0 1.919-.205.305-.162.555-.41.718-.712C22 9.699 22 9.193 22 8.18s0-1.52-.207-1.903a1.743 1.743 0 0 0-.718-.712c-.387-.205-.897-.205-1.919-.205h-1.312c-1.022 0-1.532 0-1.919.205-.305.162-.555.41-.718.712C15 6.661 15 7.167 15 8.18s0 1.52.207 1.903c.163.302.413.55.718.712.387.205.897.205 1.919.205Z"/>
  <path stroke="#1B1C1B" stroke-linecap="round" stroke-linejoin="round" stroke-width="2" d="M11.995 12h.01M8 12h.009"/>
</svg>
