<svg xmlns="http://www.w3.org/2000/svg" width="24" height="24" fill="none" viewBox="0 0 24 24">
  <path stroke="#1B1C1B" stroke-linecap="round" stroke-linejoin="round" stroke-width="1.5" d="M11.942 20.165c-1.653.979-3.003 1.451-4.37 1.736-2.024.422-4.001-.543-5.263-2.14-.533-.676-.35-1.45.343-1.85l1.567-.901c1.242-.715 1.862-1.072 2.52-1.001.659.07 1.195.553 2.267 1.516l2.936 2.64Zm0 0a22.578 22.578 0 0 0 4.558-3.601m3.665-4.617c.979-1.653 1.451-3.004 1.736-4.373.422-2.025-.543-4.002-2.14-5.264-.676-.534-1.45-.352-1.85.343L17.01 4.22c-.715 1.242-1.072 1.864-1.001 2.522.07.659.553 1.195 1.516 2.268l2.64 2.938Zm0 0a21.54 21.54 0 0 1-1.779 2.553"/>
  <path stroke="#1B1C1B" stroke-linecap="round" stroke-width="1.5" d="m2 2 20 20"/>
</svg>
