<svg xmlns="http://www.w3.org/2000/svg" width="24" height="24" fill="none" viewBox="0 0 24 24">
  <path stroke="#1B1C1B" stroke-linecap="round" stroke-linejoin="round" stroke-width="1.5" d="M14 6h8m-4-4v8"/>
  <path stroke="#1B1C1B" stroke-linecap="round" stroke-width="1.5" d="M6.099 19.5c-1.3-.128-2.274-.518-2.927-1.172C2 17.157 2 15.271 2 11.5V11c0-3.771 0-5.657 1.172-6.828C4.343 3 6.229 3 10 3h1.5m-5 15c-.205 1.002-1.122 3.166-.184 3.865.49.357 1.271-.024 2.834-.786 1.096-.535 2.206-1.148 3.405-1.424.438-.1.885-.143 1.445-.155 3.771 0 5.657 0 6.828-1.172C21.947 17.21 21.998 15.44 22 12"/>
  <path stroke="#1B1C1B" stroke-linecap="round" stroke-linejoin="round" stroke-width="1.5" d="M8 14h6M8 9h3"/>
</svg>
