<svg xmlns="http://www.w3.org/2000/svg" width="24" height="24" fill="none" viewBox="0 0 24 24">
  <path stroke="#1B1C1B" stroke-width="1.5" d="M2 4c0 .943 0 1.414.293 1.707C2.586 6 3.057 6 4 6c.943 0 1.414 0 1.707-.293C6 5.414 6 4.943 6 4c0-.943 0-1.414-.293-1.707C5.414 2 4.943 2 4 2c-.943 0-1.414 0-1.707.293C2 2.586 2 3.057 2 4Zm0 8c0 .943 0 1.414.293 1.707C2.586 14 3.057 14 4 14c.943 0 1.414 0 1.707-.293C6 13.414 6 12.943 6 12c0-.943 0-1.414-.293-1.707C5.414 10 4.943 10 4 10c-.943 0-1.414 0-1.707.293C2 10.586 2 11.057 2 12Zm8-8c0 .943 0 1.414.293 1.707C10.586 6 11.057 6 12 6c.943 0 1.414 0 1.707-.293C14 5.414 14 4.943 14 4c0-.943 0-1.414-.293-1.707C13.414 2 12.943 2 12 2c-.943 0-1.414 0-1.707.293C10 2.586 10 3.057 10 4Zm0 8c0 .943 0 1.414.293 1.707.293.293.764.293 1.707.293.943 0 1.414 0 1.707-.293C14 13.414 14 12.943 14 12c0-.943 0-1.414-.293-1.707C13.414 10 12.943 10 12 10c-.943 0-1.414 0-1.707.293C10 10.586 10 11.057 10 12Zm0 8c0 .943 0 1.414.293 1.707.293.293.764.293 1.707.293.943 0 1.414 0 1.707-.293C14 21.414 14 20.943 14 20c0-.943 0-1.414-.293-1.707C13.414 18 12.943 18 12 18c-.943 0-1.414 0-1.707.293C10 18.586 10 19.057 10 20Zm8-16c0 .943 0 1.414.293 1.707C18.586 6 19.057 6 20 6c.943 0 1.414 0 1.707-.293C22 5.414 22 4.943 22 4c0-.943 0-1.414-.293-1.707C21.414 2 20.943 2 20 2c-.943 0-1.414 0-1.707.293C18 2.586 18 3.057 18 4Zm0 8c0 .943 0 1.414.293 1.707.293.293.764.293 1.707.293.943 0 1.414 0 1.707-.293C22 13.414 22 12.943 22 12c0-.943 0-1.414-.293-1.707C21.414 10 20.943 10 20 10c-.943 0-1.414 0-1.707.293C18 10.586 18 11.057 18 12Z"/>
</svg>
