<svg xmlns="http://www.w3.org/2000/svg" width="24" height="24" fill="none" viewBox="0 0 24 24">
  <path stroke="#1B1C1B" stroke-linecap="round" stroke-linejoin="round" stroke-width="1.5" d="M6.5 2.5c-1.142.188-1.966.538-2.609 1.188C2.5 5.095 2.5 7.36 2.5 11.89c0 4.53 0 6.795 1.391 8.203C5.282 21.5 7.521 21.5 12 21.5c4.478 0 6.718 0 8.109-1.407C21.5 18.685 21.5 16.42 21.5 11.89c0-4.53 0-6.795-1.391-8.202-.643-.65-1.467-1-2.609-1.188"/>
  <path stroke="#1B1C1B" stroke-linecap="round" stroke-linejoin="round" stroke-width="1.5" d="M9.5 5c.492-.506 1.8-2.5 2.5-2.5m0 0c.7 0 2.008 1.994 2.5 2.5M12 2.5v8"/>
  <path stroke="#1B1C1B" stroke-linejoin="round" stroke-width="1.5" d="M21.5 13.5h-4.926c-.842 0-1.503.704-1.875 1.447-.403.808-1.21 1.553-2.699 1.553-1.489 0-2.296-.745-2.7-1.553-.37-.743-1.032-1.447-1.874-1.447H2.5"/>
</svg>
