<svg xmlns="http://www.w3.org/2000/svg" width="24" height="24" fill="none" viewBox="0 0 24 24">
  <path stroke="#1B1C1B" stroke-linecap="round" stroke-linejoin="round" stroke-width="1.5" d="M11.5 20.499c-.799-.004-1.598-.015-2.401-.036-3.149-.079-4.723-.118-5.854-1.254-1.131-1.135-1.164-2.668-1.23-5.733a69.066 69.066 0 0 1 0-2.952c.066-3.065.099-4.598 1.23-5.733C4.376 3.655 5.95 3.616 9.099 3.537a115.11 115.11 0 0 1 5.802 0c3.149.079 4.723.118 5.854 1.254 1.131 1.135 1.164 2.668 1.23 5.733.017.827.02 1.65.008 2.476"/>
  <path stroke="#1B1C1B" stroke-linecap="round" stroke-linejoin="round" stroke-width="1.5" d="m7 8.5 2.942 1.74c1.715 1.014 2.4 1.014 4.116 0L17 8.5m-3 9h8"/>
</svg>
