<svg xmlns="http://www.w3.org/2000/svg" width="24" height="24" fill="none" viewBox="0 0 24 24">
  <path stroke="#1B1C1B" stroke-linejoin="round" stroke-width="1.5" d="m2 5 6.913 3.925c2.526 1.433 3.648 1.433 6.174 0L22 5"/>
  <path stroke="#1B1C1B" stroke-linecap="round" stroke-linejoin="round" stroke-width="1.5" d="M11 19.5s-.93-.012-1.901-.037c-3.149-.079-4.723-.118-5.854-1.254-1.131-1.135-1.164-2.668-1.23-5.733a69.067 69.067 0 0 1 0-2.952c.066-3.065.099-4.598 1.23-5.733C4.376 2.655 5.95 2.616 9.099 2.537a115.11 115.11 0 0 1 5.802 0c3.149.079 4.723.118 5.854 1.254 1.131 1.135 1.164 2.668 1.23 5.733.01.493.015.985.015 1.476"/>
  <path stroke="#1B1C1B" stroke-linecap="round" stroke-linejoin="round" stroke-width="1.5" d="M18 13.5c-1.267 0-2.088.808-3.06 1.102-.394.12-.592.18-.672.264-.08.084-.103.207-.15.454-.5 2.638.594 5.078 3.204 6.027.28.102.42.153.679.153.257 0 .398-.051.678-.153 2.61-.95 3.704-3.389 3.203-6.027-.047-.247-.07-.37-.15-.454-.08-.085-.278-.144-.673-.264-.971-.294-1.793-1.102-3.06-1.102Z"/>
</svg>
