<svg xmlns="http://www.w3.org/2000/svg" width="24" height="24" fill="none" viewBox="0 0 24 24">
  <path stroke="#1B1C1B" stroke-linecap="round" stroke-linejoin="round" stroke-width="1.5" d="M22 11.026c0-.493-.005-.986-.016-1.48-.065-3.075-.098-4.612-1.229-5.751-1.131-1.14-2.705-1.179-5.854-1.258-1.94-.05-3.862-.05-5.802 0-3.149.079-4.723.119-5.854 1.258-1.131 1.139-1.164 2.676-1.23 5.75a69.492 69.492 0 0 0 0 2.961c.066 3.075.099 4.613 1.23 5.752C4.302 19.322 5.746 19.425 8.5 19.5"/>
  <path stroke="#1B1C1B" stroke-linejoin="round" stroke-width="1.5" d="m2 5 6.913 3.925c2.526 1.433 3.648 1.433 6.174 0L22 5"/>
  <path stroke="#1B1C1B" stroke-linecap="round" stroke-linejoin="round" stroke-width="1.5" d="M13.5 18.5c-.506-.491-2.5-1.8-2.5-2.5s1.994-2.008 2.5-2.5m8.5 8c-.116-2.524-.013-3.443-1.656-4.62-.808-.58-2.432-.961-4.626-.755m1.734-2.532-2.297 2.153a.502.502 0 0 0-.003.706l2.3 2.188"/>
</svg>
