<svg xmlns="http://www.w3.org/2000/svg" width="24" height="24" fill="none" viewBox="0 0 24 24">
  <path stroke="#1B1C1B" stroke-linecap="round" stroke-linejoin="round" stroke-width="1.5" d="M21.993 11.5c.012-.826.009-.649-.009-1.476-.065-3.065-.098-4.598-1.229-5.733-1.131-1.136-2.705-1.175-5.854-1.254a115.11 115.11 0 0 0-5.802 0c-3.149.079-4.723.118-5.854 1.254-1.131 1.135-1.164 2.668-1.23 5.733a69.066 69.066 0 0 0 0 2.952c.066 3.065.099 4.598 1.23 5.733 1.131 1.136 2.705 1.175 5.854 1.254.97.025 1.935.037 2.901.037"/>
  <path stroke="#1B1C1B" stroke-linejoin="round" stroke-width="1.5" d="m2 5.5 6.913 3.925c2.526 1.433 3.648 1.433 6.174 0L22 5.5"/>
  <path stroke="#1B1C1B" stroke-width="1.5" d="M16.05 15A3.5 3.5 0 1 0 21 19.95M16.05 15A3.5 3.5 0 0 1 21 19.95M16.05 15 21 19.95"/>
</svg>
