<svg xmlns="http://www.w3.org/2000/svg" width="24" height="24" fill="none" viewBox="0 0 24 24">
  <path stroke="#1B1C1B" stroke-linejoin="round" stroke-width="1.5" d="m2 5 6.913 3.925c2.526 1.433 3.648 1.433 6.174 0L22 5"/>
  <path stroke="#1B1C1B" stroke-linecap="round" stroke-linejoin="round" stroke-width="1.5" d="M21.996 10.502a78.919 78.919 0 0 0-.012-.976c-.065-3.066-.098-4.6-1.229-5.735-1.131-1.136-2.705-1.175-5.854-1.254-1.94-.05-3.862-.05-5.802 0-3.149.079-4.723.118-5.854 1.254C2.114 4.927 2.08 6.46 2.015 9.526a69.109 69.109 0 0 0 0 2.953c.066 3.066.099 4.6 1.23 5.735C4.376 19.35 5.95 19.39 9.099 19.47c.608.015 1.397.025 1.901.031"/>
  <path stroke="#1B1C1B" stroke-width="1.5" d="M15.586 18.648c-.629.369-2.277 1.121-1.273 2.063.49.46 1.037.789 1.723.789h3.92c.686 0 1.233-.329 1.723-.789 1.005-.942-.644-1.694-1.273-2.063a4.804 4.804 0 0 0-4.82 0ZM19.996 14a2 2 0 1 1-4 0 2 2 0 0 1 4 0Z"/>
</svg>
