<svg xmlns="http://www.w3.org/2000/svg" width="24" height="24" fill="none" viewBox="0 0 24 24">
  <path stroke="#1B1C1B" stroke-linejoin="round" stroke-width="1.5" d="m2 5 6.913 3.917c2.549 1.444 3.625 1.444 6.174 0L22 5"/>
  <path stroke="#1B1C1B" stroke-linecap="round" stroke-linejoin="round" stroke-width="1.5" d="M11.994 19.495c-.965 0-1.93-.012-2.9-.036-3.146-.08-4.72-.119-5.85-1.254s-1.163-2.667-1.228-5.732a69.062 69.062 0 0 1 0-2.95c.065-3.065.098-4.598 1.228-5.733 1.13-1.135 2.704-1.174 5.85-1.253a115 115 0 0 1 5.8 0c3.146.079 4.72.118 5.85 1.253 1.13 1.135 1.163 2.668 1.229 5.733.01.492.015.484.015.975"/>
  <path stroke="#1B1C1B" stroke-linecap="round" stroke-linejoin="round" stroke-width="1.5" d="M16.74 15.677v-1.39c0-.206.008-.414.082-.605.195-.51.715-1.18 1.66-1.18.944 0 1.484.67 1.68 1.18.073.191.082.4.082.605v1.39M16.809 21.5h3.386c.997 0 1.805-.807 1.805-1.802v-2c0-.996-.808-1.803-1.805-1.803h-3.386c-.997 0-1.805.807-1.805 1.802v2.001c0 .995.808 1.802 1.805 1.802Z"/>
</svg>
