<svg xmlns="http://www.w3.org/2000/svg" width="24" height="24" fill="none" viewBox="0 0 24 24">
  <path stroke="#1B1C1B" stroke-linecap="round" stroke-linejoin="round" stroke-width="1.5" d="M21.96 10.97c.053.83.053 1.69 0 2.52-.274 4.243-3.606 7.623-7.79 7.9a33.168 33.168 0 0 1-4.34 0 4.874 4.874 0 0 1-1.486-.339c-.512-.21-.768-.316-.899-.3-.13.016-.319.155-.696.434-.666.49-1.505.844-2.75.813-.629-.015-.943-.023-1.084-.263-.141-.24.034-.572.385-1.237.487-.922.795-1.978.328-2.823-.805-1.208-1.488-2.639-1.588-4.184a19.99 19.99 0 0 1 0-2.52c.274-4.243 3.606-7.622 7.79-7.9 1.202-.08 1.451-.092 2.67-.037M8.5 15h7m-7-5H12"/>
  <path stroke="#1B1C1B" stroke-width="1.5" d="M22 5.5a3.5 3.5 0 1 1-7 0 3.5 3.5 0 0 1 7 0Z"/>
</svg>
