<svg xmlns="http://www.w3.org/2000/svg" width="24" height="24" fill="none" viewBox="0 0 24 24">
  <path stroke="#1B1C1B" stroke-linecap="round" stroke-linejoin="round" stroke-width="2" d="M11.995 12.5h.01M8 12.5h.009"/>
  <path stroke="#1B1C1B" stroke-linecap="round" stroke-linejoin="round" stroke-width="1.5" d="M11.5 3.004a31.57 31.57 0 0 0-1.67.067c-4.184.278-7.516 3.658-7.79 7.9a19.99 19.99 0 0 0 0 2.52c.1 1.545.783 2.976 1.588 4.184.467.845.159 1.901-.328 2.823-.35.665-.526.997-.385 1.237.14.24.455.248 1.084.263 1.245.03 2.084-.322 2.75-.813.377-.279.566-.418.696-.434.13-.016.387.09.899.3.46.19.995.307 1.485.34 1.425.094 2.914.095 4.342 0 4.183-.278 7.515-3.658 7.789-7.9.02-.327.034-.658.038-.99"/>
  <path stroke="#1B1C1B" stroke-linecap="round" stroke-width="1.5" d="m18 6 1-1m3 1a4 4 0 1 1-8 0 4 4 0 0 1 8 0Z"/>
</svg>
