<svg xmlns="http://www.w3.org/2000/svg" width="24" height="24" fill="none" viewBox="0 0 24 24">
  <path stroke="#1B1C1B" stroke-linecap="round" stroke-linejoin="round" stroke-width="1.5" d="M21.999 11.992c.005.5-.008 1.001-.04 1.492-.273 4.246-3.605 7.628-7.788 7.906a33.168 33.168 0 0 1-4.342 0 4.871 4.871 0 0 1-1.485-.34c-.512-.21-.768-.316-.899-.3-.13.016-.319.155-.696.434-.666.491-1.505.845-2.75.814-.629-.015-.943-.023-1.084-.263-.141-.24.034-.573.385-1.238.487-.923.795-1.98.328-2.826-.805-1.209-1.488-2.64-1.588-4.187a19.78 19.78 0 0 1 0-2.522c.274-4.246 3.606-7.628 7.79-7.906A32.12 32.12 0 0 1 11 3"/>
  <path stroke="#1B1C1B" stroke-linecap="round" stroke-linejoin="round" stroke-width="1.5" d="M18 2c-1.267 0-2.088.808-3.06 1.102-.394.12-.592.18-.672.264-.08.084-.103.208-.15.454-.5 2.638.594 5.078 3.204 6.027.28.102.42.153.679.153.257 0 .398-.051.678-.153 2.61-.95 3.704-3.389 3.203-6.027-.047-.247-.07-.37-.15-.454-.08-.085-.278-.144-.673-.264C20.088 2.808 19.266 2 18 2Z"/>
  <path stroke="#1B1C1B" stroke-linecap="round" stroke-linejoin="round" stroke-width="2" d="M11.995 12.5h.01m3.986 0H16m-8 0h.009"/>
</svg>
