<svg xmlns="http://www.w3.org/2000/svg" width="24" height="24" fill="none" viewBox="0 0 24 24">
  <path stroke="#1B1C1B" stroke-linecap="round" stroke-linejoin="round" stroke-width="1.5" d="M18 19.654a8.245 8.245 0 0 1-3.83 1.236 33.168 33.168 0 0 1-4.34 0 4.874 4.874 0 0 1-1.486-.339c-.512-.21-.768-.316-.899-.3-.13.016-.319.155-.696.434-.666.49-1.505.844-2.75.813-.629-.015-.943-.023-1.084-.263-.141-.24.034-.572.385-1.237.487-.922.795-1.978.328-2.823-.805-1.208-1.488-2.639-1.588-4.184a19.99 19.99 0 0 1 0-2.52C2.161 8.599 2.878 6.844 4 5.5m2.5-1.981a8.24 8.24 0 0 1 3.33-.948 33.182 33.182 0 0 1 4.34 0c4.184.278 7.516 3.657 7.79 7.9.053.83.053 1.69 0 2.52a8.518 8.518 0 0 1-1.638 4.509"/>
  <path stroke="#1B1C1B" stroke-linecap="round" stroke-width="1.5" d="m2 3 20 20"/>
</svg>
