<svg xmlns="http://www.w3.org/2000/svg" width="24" height="24" fill="none" viewBox="0 0 24 24">
  <path stroke="#1B1C1B" stroke-linecap="round" stroke-linejoin="round" stroke-width="1.5" d="M22 13.49c-.275 4.243-3.613 7.623-7.805 7.9-1.43.095-2.923.095-4.35 0a4.892 4.892 0 0 1-1.488-.339c-.513-.21-.77-.316-.9-.3-.131.016-.32.155-.699.434-.667.49-1.508.844-2.755.813-.63-.015-.945-.023-1.086-.263-.141-.24.034-.572.386-1.237.487-.922.796-1.978.328-2.823-.806-1.208-1.49-2.639-1.59-4.184a19.71 19.71 0 0 1 0-2.52c.274-4.243 3.613-7.622 7.804-7.9a33.44 33.44 0 0 1 2.676-.067"/>
  <path fill="#1B1C1B" d="M16 5.375a.75.75 0 0 0 1.5 0H16Zm3.5 0a.75.75 0 0 0 1.5 0h-1.5Zm-1.875.75h1.75v-1.5h-1.75v1.5Zm1.75 4.125h-1.75v1.5h1.75v-1.5Zm-1.75 0c-.419 0-.692 0-.903-.016-.202-.015-.288-.04-.338-.062l-.608 1.37c.272.122.551.167.837.188.277.02.615.02 1.012.02v-1.5ZM14.25 8.187c0 .428 0 .783.018 1.074.02.297.06.578.166.852l1.399-.54c-.028-.072-.053-.18-.068-.407a17.247 17.247 0 0 1-.015-.979h-1.5Zm2.134 1.985a1.068 1.068 0 0 1-.551-.6l-1.4.541a2.567 2.567 0 0 0 1.343 1.43l.608-1.371Zm4.866-1.985c0 .447 0 .747-.015.979-.014.226-.04.335-.068.406l1.4.541c.105-.274.146-.555.165-.852.018-.29.018-.646.018-1.073h-1.5Zm-1.875 3.563c.397 0 .735 0 1.012-.02.286-.02.565-.066.837-.187l-.608-1.371c-.05.022-.136.047-.338.062-.21.015-.484.016-.903.016v1.5Zm1.792-2.178c-.11.285-.314.494-.552.6l.609 1.37a2.567 2.567 0 0 0 1.342-1.429l-1.399-.54Zm-1.792-3.447c.419 0 .692 0 .903.016.202.015.288.04.338.062l.608-1.37a2.458 2.458 0 0 0-.837-.188c-.277-.02-.615-.02-1.012-.02v1.5Zm3.375 2.063c0-.428 0-.783-.018-1.074a2.814 2.814 0 0 0-.166-.852l-1.399.54c.028.072.053.18.068.407.015.232.015.532.015.979h1.5Zm-2.134-1.985c.237.106.441.315.551.6l1.4-.541a2.567 2.567 0 0 0-1.343-1.43l-.608 1.371Zm-2.991-1.578c-.397 0-.735 0-1.012.02-.286.02-.565.066-.837.187l.608 1.371c.05-.022.136-.047.338-.062.21-.016.484-.016.903-.016v-1.5ZM15.75 8.188c0-.447 0-.747.015-.979.014-.226.04-.335.068-.406l-1.4-.541a2.814 2.814 0 0 0-.165.852c-.018.29-.018.646-.018 1.074h1.5Zm.026-3.356a2.567 2.567 0 0 0-1.342 1.43l1.399.54a1.07 1.07 0 0 1 .551-.599l-.608-1.37Zm1.724.543V3.687H16v1.688h1.5Zm2-1.688v1.688H21V3.687h-1.5Zm-1-.937c.578 0 1 .445 1 .938H21c0-1.372-1.145-2.438-2.5-2.438v1.5Zm-1 .938c0-.493.422-.938 1-.938v-1.5c-1.355 0-2.5 1.066-2.5 2.438h1.5Z"/>
  <path stroke="#1B1C1B" stroke-linecap="round" stroke-linejoin="round" stroke-width="2" d="M11.995 12.5h.01M8 12.5h.009"/>
</svg>
