<svg xmlns="http://www.w3.org/2000/svg" width="24" height="24" fill="none" viewBox="0 0 24 24">
  <path stroke="#1B1C1B" stroke-width="1.5" d="M2.5 12c0-4.478 0-6.718 1.391-8.109S7.521 2.5 12 2.5c4.478 0 6.718 0 8.109 1.391S21.5 7.521 21.5 12c0 4.478 0 6.718-1.391 8.109C18.717 21.5 16.479 21.5 12 21.5c-4.478 0-6.718 0-8.109-1.391C2.5 18.717 2.5 16.479 2.5 12Z"/>
  <path stroke="#1B1C1B" stroke-linecap="round" stroke-linejoin="round" stroke-width="1.5" d="M11.595 12V8.612c0-.943 0-1.415.294-1.57.295-.154.67.12 1.421.668l.845.618c.563.41.845.616.845.901 0 .286-.282.491-.845.902L11.595 12Zm0 0v3.388c0 .943 0 1.414.294 1.57.295.154.67-.12 1.421-.668l.845-.617c.563-.412.845-.617.845-.902 0-.286-.282-.491-.845-.902L11.595 12Zm0 0L9 9.778M11.595 12 9 14.222"/>
</svg>
