<svg xmlns="http://www.w3.org/2000/svg" width="24" height="24" fill="none" viewBox="0 0 24 24">
  <path stroke="#1B1C1B" stroke-linecap="round" stroke-width="1.5" d="M11.003 2h-.997c-3.282 0-4.922 0-6.086.814a4.5 4.5 0 0 0-1.106 1.105C2 5.08 2 6.72 2 10c0 3.28 0 4.919.814 6.081.302.43.676.804 1.106 1.105C5.084 18 6.724 18 10.006 18h4.003c3.282 0 4.923 0 6.086-.814.43-.3.805-.675 1.106-1.105.615-.877.765-1.987.799-3.081"/>
  <path stroke="#1B1C1B" stroke-linecap="round" stroke-width="1.5" d="M18 9.714V11m0-1.286a3.364 3.364 0 0 1-2.774-1.43M18 9.713a3.364 3.364 0 0 0 2.774-1.43m-5.548 0L14 9.07m1.226-.788a3.119 3.119 0 0 1 0-3.566m5.548 3.566L22 9.071m-1.226-.788a3.119 3.119 0 0 0 0-3.566M18 3.286c1.157 0 2.176.568 2.774 1.43M18 3.287a3.364 3.364 0 0 0-2.774 1.43M18 3.287V2m2.774 2.717L22 3.929m-6.774.788L14 3.929"/>
  <path stroke="#1B1C1B" stroke-linecap="round" stroke-linejoin="round" stroke-width="1.5" d="M11 15h2"/>
  <path stroke="#1B1C1B" stroke-width="1.5" d="M12 18v4"/>
  <path stroke="#1B1C1B" stroke-linecap="round" stroke-width="1.5" d="M8 22h8"/>
</svg>
