<svg xmlns="http://www.w3.org/2000/svg" width="24" height="24" fill="none" viewBox="0 0 24 24">
  <path stroke="#1B1C1B" stroke-linejoin="round" stroke-width="1.5" d="M4 12c0-3.771 0-5.657 1.172-6.828C6.343 4 8.229 4 12 4c3.771 0 5.657 0 6.828 1.172C20 6.343 20 8.229 20 12c0 3.771 0 5.657-1.172 6.828C17.657 20 15.771 20 12 20c-3.771 0-5.657 0-6.828-1.172C4 17.657 4 15.771 4 12Z"/>
  <path stroke="#1B1C1B" stroke-linecap="round" stroke-linejoin="round" stroke-width="1.5" d="M9.5 2v2m5-2v2m-5 16v2m5-2v2M13 9l-4 4m6 0-2 2m9-.5h-2m-16-5H2m2 5H2m20-5h-2"/>
</svg>
