<svg xmlns="http://www.w3.org/2000/svg" width="24" height="24" fill="none" viewBox="0 0 24 24">
  <path stroke="#1B1C1B" stroke-linecap="round" stroke-linejoin="round" stroke-width="1.5" d="M9 2v3m6-3v3m-3 13v4m.694-13.5-2.091 2.175c-.224.233-.064.568.302.63l2.19.372c.39.066.538.438.266.664L10.767 14.5"/>
  <path stroke="#1B1C1B" stroke-width="1.5" d="M14.307 5H9.693c-2.138 0-3.207 0-3.798.698-.59.697-.428 1.768-.103 3.91l.524 3.45C6.836 16.484 8.286 18 12 18c3.714 0 5.164-1.516 5.684-4.942l.524-3.45c.325-2.142.487-3.213-.103-3.91C17.515 5 16.445 5 14.307 5Z"/>
</svg>
