<svg xmlns="http://www.w3.org/2000/svg" width="24" height="24" fill="none" viewBox="0 0 24 24">
  <path stroke="#1B1C1B" stroke-linecap="round" stroke-width="1.5" d="M12 2c3.771 0 5.657 0 6.828 1.172C20 4.343 20 6.229 20 10v4c0 3.771 0 5.657-1.172 6.828C17.657 22 15.771 22 12 22c-3.771 0-5.657 0-6.828-1.172C4 19.657 4 17.771 4 14v-4c0-3.771 0-5.657 1.172-6.828C6.343 2 8.229 2 12 2Zm-8 8h16"/>
  <path stroke="#1B1C1B" stroke-linecap="round" stroke-linejoin="round" stroke-width="2" d="M8 6h.009"/>
  <path stroke="#1B1C1B" stroke-linecap="round" stroke-width="1.5" d="M8 17v-3"/>
</svg>
