<svg xmlns="http://www.w3.org/2000/svg" width="24" height="24" fill="none" viewBox="0 0 24 24">
  <path stroke="#1B1C1B" stroke-linecap="round" stroke-width="1.5" d="M2 10c0-3.771 0-5.657 1.172-6.828C4.343 2 6.229 2 10 2h4c3.771 0 5.657 0 6.828 1.172C22 4.343 22 6.229 22 10c0 3.771 0 5.657-1.172 6.828C19.657 18 17.771 18 14 18h-4c-3.771 0-5.657 0-6.828-1.172C2 15.657 2 13.771 2 10Zm14 12a8.397 8.397 0 0 0-4-1 8.397 8.397 0 0 0-4 1"/>
  <path stroke="#1B1C1B" stroke-linecap="round" stroke-linejoin="round" stroke-width="2" d="M12 14h.009"/>
  <path stroke="#1B1C1B" stroke-linecap="round" stroke-linejoin="round" stroke-width="1.5" d="M12 11V7"/>
</svg>
