<svg xmlns="http://www.w3.org/2000/svg" width="24" height="24" fill="none" viewBox="0 0 24 24">
  <path stroke="#1B1C1B" stroke-linecap="round" stroke-linejoin="round" stroke-width="1.5" d="m17.214 7.982 1.402-1.401a1.982 1.982 0 0 1 2.803 2.803l-1.401 1.402m-2.804-2.804L8.98 16.216c-1.045 1.046-1.568 1.568-1.924 2.205-.356.637-.527 1.356-.87 2.794L6 22l.785-.187c1.438-.342 2.157-.514 2.794-.87.637-.355 1.16-.878 2.205-1.923l8.234-8.234m-2.804-2.804 2.804 2.804"/>
  <path fill="#1B1C1B" d="M2 4.25a.75.75 0 0 0 0 1.5v-1.5Zm6.712.987a.75.75 0 1 0-1.424-.474l1.424.474ZM5.5 7.25a.75.75 0 0 0 0 1.5v-1.5Zm.288-2.013a.75.75 0 1 0 1.424-.474l-1.424.474ZM4 1.25a.75.75 0 0 0 0 1.5v-1.5Zm6 3H2v1.5h8v-1.5Zm-2.712.513-.544 1.632 1.423.475.545-1.633-1.424-.474ZM5.558 7.25H5.5v1.5h.058v-1.5Zm1.186-.855a7.374 7.374 0 0 1-.248.687.639.639 0 0 1-.07.12l.876 1.218a1.73 1.73 0 0 0 .554-.705c.11-.236.207-.532.311-.845l-1.423-.475ZM5.558 8.75c.331 0 .642.001.901-.028a1.73 1.73 0 0 0 .843-.302l-.877-1.217c-.001 0-.005.003-.013.005a.64.64 0 0 1-.123.023 7.372 7.372 0 0 1-.73.019v1.5Zm1.654-3.987L6.667 3.13l-1.423.475.544 1.632 1.424-.474ZM4.058 1.25H4v1.5h.058v-1.5Zm2.61 1.88c-.105-.313-.202-.609-.312-.845a1.73 1.73 0 0 0-.554-.705l-.877 1.217.001.001.009.01c.01.015.031.046.06.11.066.14.134.34.25.687l1.422-.475Zm-2.61-.38c.366 0 .576.001.73.019a.64.64 0 0 1 .137.028l.877-1.217a1.73 1.73 0 0 0-.843-.302c-.259-.03-.57-.028-.9-.028v1.5Zm6.942 2a.25.25 0 0 1 .25.25h1.5A1.75 1.75 0 0 0 11 3.25v1.5Zm.25.25a.25.25 0 0 1-.25.25v1.5A1.75 1.75 0 0 0 12.75 5h-1.5Zm-.25.25a.25.25 0 0 1-.25-.25h-1.5c0 .967.784 1.75 1.75 1.75v-1.5ZM10.75 5a.25.25 0 0 1 .25-.25v-1.5A1.75 1.75 0 0 0 9.25 5h1.5Z"/>
</svg>
