<svg xmlns="http://www.w3.org/2000/svg" width="24" height="24" fill="none" viewBox="0 0 24 24">
  <path fill="#1B1C1B" d="M3.413 17.547C4.17 18 5.231 18 7.354 18L8.5 16H16L8 8h-.646c-1.772 0-2.659 0-3.346.354a3.077 3.077 0 0 0-1.121.977c-.434.624-.522 1.473-.698 3.171-.212 2.035-.317 3.053.076 3.822.257.503.655.927 1.148 1.223Z" opacity=".4"/>
  <path stroke="#1B1C1B" stroke-linecap="round" stroke-linejoin="round" stroke-width="1.5" d="m2 2 20 20M7.354 18c-2.123 0-3.185 0-3.94-.453a3.043 3.043 0 0 1-1.15-1.223c-.392-.77-.287-1.787-.075-3.822.176-1.698.264-2.547.698-3.171.285-.41.67-.745 1.121-.977C4.695 8 5.582 8 7.354 8H8m13.252 9c.192-.205.355-.435.483-.685.393-.769.287-1.785.076-3.818-.177-1.696-.265-2.545-.698-3.168a3.075 3.075 0 0 0-1.121-.976C19.304 8 18.418 8 16.646 8H12.5M17 8V6.01c0-1.878 0-2.816-.585-3.4-.586-.583-1.528-.583-3.414-.583h-2c-1.047 0-2.728-.236-3.501.677"/>
  <path stroke="#1B1C1B" stroke-linejoin="round" stroke-width="1.5" d="M13.989 16H10.01c-.685 0-1.028 0-1.32.109a1.874 1.874 0 0 0-.945.8c-.168.281-.251.642-.417 1.363-.26 1.128-.39 1.691-.301 2.143.117.602.484 1.112.995 1.382.382.203.918.203 1.988.203h3.978c1.07 0 1.606 0 1.988-.203.51-.27.878-.78.995-1.382.089-.452-.041-1.015-.3-2.143-.167-.72-.25-1.082-.418-1.362a1.874 1.874 0 0 0-.946-.801C15.017 16 14.674 16 13.988 16Z"/>
  <path stroke="#1B1C1B" stroke-linecap="round" stroke-linejoin="round" stroke-width="2" d="M18 12h.009"/>
</svg>
