<svg xmlns="http://www.w3.org/2000/svg" width="24" height="24" fill="none" viewBox="0 0 24 24">
  <path stroke="#1B1C1B" stroke-linecap="round" stroke-linejoin="round" stroke-width="1.5" d="M17.5 22h-11c-1.875 0-2.812 0-3.47-.53a2.656 2.656 0 0 1-.553-.615C2 20.125 2 19.083 2 17s0-3.125.477-3.855c.155-.236.341-.443.554-.614C3.688 12 4.625 12 6.5 12h11c1.875 0 2.812 0 3.47.53.212.172.398.38.553.615C22 13.875 22 14.917 22 17s0 3.125-.477 3.855a2.667 2.667 0 0 1-.553.614C20.312 22 19.375 22 17.5 22Z"/>
  <path stroke="#1B1C1B" stroke-linecap="round" stroke-width="1.5" d="M12.5 9h.009M17 3.952C15.848 2.746 14.257 2 12.5 2c-1.757 0-3.348.746-4.5 1.952m2.25 2.356a3.102 3.102 0 0 1 2.25-.976c.879 0 1.674.373 2.25.976"/>
  <path stroke="#1B1C1B" stroke-linecap="round" stroke-linejoin="round" stroke-width="2" d="M18 17h.009M14 17h.009"/>
  <path stroke="#1B1C1B" stroke-linecap="round" stroke-linejoin="round" stroke-width="1.5" d="M6 17h4"/>
</svg>
