<svg xmlns="http://www.w3.org/2000/svg" width="24" height="24" fill="none" viewBox="0 0 24 24">
  <path fill="#1B1C1B" d="M4.276 7.975c-.586.586-.586 1.529-.586 3.415v5.5c0 .929 0 1.394.077 1.78a4 4 0 0 0 3.143 3.143c.386.077.851.077 1.78.077.93 0 1.394 0 1.78-.077.195-.039.384-.091.567-.157a1.707 1.707 0 0 1-.614-.33 2.18 2.18 0 0 1-.701-1.175c-.181-.824.422-1.836 1.63-3.859 1.056-1.772 1.65-2.768 2.338-3.163v-1.74c0-1.885 0-2.828-.585-3.414-.586-.585-1.529-.585-3.415-.585h-2c-1.885 0-2.828 0-3.414.585Z" opacity=".4"/>
  <path stroke="#1B1C1B" stroke-linecap="round" stroke-linejoin="round" stroke-width="1.5" d="M13.686 10.391c-.018-1.24-.11-1.944-.581-2.415-.586-.586-1.529-.586-3.415-.586h-2c-1.885 0-2.828 0-3.414.586-.586.586-.586 1.529-.586 3.416v5.502c0 .93 0 1.395.077 1.781A4 4 0 0 0 6.91 21.82c.214.042.452.061.78.07m4.5-14.5v-2c0-1.405 0-2.107-.337-2.611a2 2 0 0 0-.551-.552c-.505-.337-1.207-.337-2.612-.337-1.404 0-2.106 0-2.61.337a2 2 0 0 0-.553.552c-.337.504-.337 1.206-.337 2.61v2m3-2.999h1"/>
  <path stroke="#1B1C1B" stroke-linecap="round" stroke-width="1.5" d="M14.66 16.23v1.292m-.008 2.107h.02m-2.978 2.25h5.884c1.568 0 2.653-1.729 1.82-3.061l-1.439-2.553-1.505-2.38a2.093 2.093 0 0 0-3.552 0c-.347.556-.948 1.449-1.493 2.38-.3.512-.586 1.026-.82 1.456-.398.728-.944 1.456-.89 2.283.065.99.873 1.875 1.995 1.875Z"/>
</svg>
