<svg xmlns="http://www.w3.org/2000/svg" width="24" height="24" fill="none" viewBox="0 0 24 24">
  <path fill="#1B1C1B" fill-rule="evenodd" d="m9.976 6.6-5.938 5.939a5.25 5.25 0 0 0 7.423 7.423l5.94-5.938c1.4-1.4 2.099-2.1 2.099-2.97 0-.87-.7-1.57-2.1-2.97L15.916 6.6c-1.4-1.4-2.1-2.1-2.97-2.1-.87 0-1.57.7-2.97 2.1ZM7 15.5a1.5 1.5 0 1 1 0 3 1.5 1.5 0 0 1 0-3Z" clip-rule="evenodd" opacity=".4"/>
  <path stroke="#1B1C1B" stroke-linecap="round" stroke-linejoin="round" stroke-width="1.5" d="m4.038 12.539 5.938-5.94c1.4-1.4 2.1-2.099 2.97-2.099.87 0 1.57.7 2.97 2.1L17.4 8.085c1.4 1.4 2.1 2.1 2.1 2.969 0 .87-.7 1.57-2.1 2.97l-5.939 5.938a5.25 5.25 0 0 1-7.423-7.423Z"/>
  <path stroke="#1B1C1B" stroke-width="1.5" d="M8.5 17a1.5 1.5 0 1 0-3 0 1.5 1.5 0 0 0 3 0Z"/>
  <path stroke="#1B1C1B" stroke-linejoin="round" stroke-width="1.5" d="m14.5 5.35 1.383-1.383C16.861 2.99 17.35 2.5 17.958 2.5c.608 0 1.097.489 2.075 1.467.978.978 1.467 1.467 1.467 2.075 0 .608-.489 1.097-1.467 2.075L18.65 9.5"/>
</svg>
