<svg xmlns="http://www.w3.org/2000/svg" width="24" height="24" fill="none" viewBox="0 0 24 24">
  <path stroke="#1B1C1B" stroke-linecap="round" stroke-width="1.5" d="M13 3h-2C6.757 3 4.636 3 3.318 4.318 2 5.636 2 7.758 2 12c0 4.243 0 6.364 1.318 7.682C4.636 21 6.758 21 11 21h2c4.243 0 6.364 0 7.682-1.318C22 18.364 22 16.242 22 12c0-4.243 0-6.364-1.318-7.682C19.364 3 17.242 3 13 3Z"/>
  <path stroke="#1B1C1B" stroke-linecap="round" stroke-linejoin="round" stroke-width="1.5" d="m11 10-1.755 3.912C8.92 14.637 8.758 15 8.5 15s-.42-.363-.745-1.088L6 10m8 5v-2m0 0v-2c0-.471 0-.707.146-.854C14.293 10 14.53 10 15 10h1.5a1.5 1.5 0 0 1 0 3M14 13h2.5m0 0 1 2"/>
</svg>
