<svg xmlns="http://www.w3.org/2000/svg" width="24" height="24" fill="none" viewBox="0 0 24 24">
  <path stroke="#1B1C1B" stroke-linejoin="round" stroke-width="1.5" d="M12 2H6c-2.482 0-3 .518-3 3v17h12V5c0-2.482-.518-3-3-3Zm6 6h-3v14h6V11c0-2.482-.518-3-3-3Z"/>
  <path stroke="#1B1C1B" stroke-linecap="round" stroke-linejoin="round" stroke-width="1.5" d="M8 6h2M8 9h2m-2 3h2"/>
  <path stroke="#1B1C1B" stroke-linejoin="round" stroke-width="1.5" d="M11.5 22v-4c0-.943 0-1.414-.293-1.707C10.914 16 10.443 16 9.5 16h-1c-.943 0-1.414 0-1.707.293-.293.293-.293.764-.293 1.707v4"/>
</svg>
