<svg xmlns="http://www.w3.org/2000/svg" width="24" height="24" fill="none" viewBox="0 0 24 24">
  <path stroke="#1B1C1B" stroke-linecap="round" stroke-linejoin="round" stroke-width="1.5" d="M2 22h20"/>
  <path stroke="#1B1C1B" stroke-linejoin="round" stroke-width="1.5" d="M14 4h-4c-1.655 0-2 .345-2 2v16h8V6c0-1.655-.345-2-2-2Zm-6 9H5c-1.655 0-2 .345-2 2v7h5v-9Zm11 0h-3v9h5v-7c0-1.655-.345-2-2-2Z"/>
  <path stroke="#1B1C1B" stroke-linecap="round" stroke-linejoin="round" stroke-width="1.5" d="M12 4V2m0 20v-2m-1-5h2m-2-3.5h2M11 8h2"/>
</svg>
