<svg xmlns="http://www.w3.org/2000/svg" width="24" height="24" fill="none" viewBox="0 0 24 24">
  <path stroke="#1B1C1B" stroke-linecap="round" stroke-linejoin="round" stroke-width="1.5" d="M12.5 2 10 6h4l-2.5 4M17 6c.943 0 1.414 0 1.707.293C19 6.586 19 7.057 19 8v2.5M7 6c-.943 0-1.414 0-1.707.293C5 6.586 5 7.057 5 8v2.5M20 13h-2c-.943 0-1.414 0-1.707.293C16 13.586 16 14.057 16 15v5c0 .943 0 1.414.293 1.707.293.293.764.293 1.707.293h2c.943 0 1.414 0 1.707-.293C22 21.414 22 20.943 22 20v-5c0-.943 0-1.414-.293-1.707C21.414 13 20.943 13 20 13Zm-4 6h6m-6-3h6M6 13H4c-.943 0-1.414 0-1.707.293C2 13.586 2 14.057 2 15v5c0 .943 0 1.414.293 1.707C2.586 22 3.057 22 4 22h2c.943 0 1.414 0 1.707-.293C8 21.414 8 20.943 8 20v-5c0-.943 0-1.414-.293-1.707C7.414 13 6.943 13 6 13Zm-4 6h6m-6-3h6"/>
</svg>
