<svg xmlns="http://www.w3.org/2000/svg" width="24" height="24" fill="none" viewBox="0 0 24 24">
  <path stroke="#1B1C1B" stroke-width="1.5" d="M12 6c4.418 0 8-.895 8-2s-3.582-2-8-2-8 .895-8 2 3.582 2 8 2Z"/>
  <path stroke="#1B1C1B" stroke-linecap="round" stroke-linejoin="round" stroke-width="1.5" d="M12 12.5a1.5 1.5 0 0 0 1.5-1.5c0-1-1.5-2.5-1.5-2.5S10.5 10 10.5 11a1.5 1.5 0 0 0 1.5 1.5Z"/>
  <path stroke="#1B1C1B" stroke-linecap="round" stroke-linejoin="round" stroke-width="1.5" d="M19 5v5.546c.637.431 1 .927 1 1.454 0 1.657-3.582 3-8 3s-8-1.343-8-3c0-.527.363-1.023 1-1.454V5"/>
  <path stroke="#1B1C1B" stroke-linecap="round" stroke-linejoin="round" stroke-width="1.5" d="M19 13.5v4.047c.637.43 1 .926 1 1.453 0 1.657-3.582 3-8 3s-8-1.343-8-3c0-.527.363-1.023 1-1.453V13.5"/>
</svg>
