<svg xmlns="http://www.w3.org/2000/svg" width="24" height="24" fill="none" viewBox="0 0 24 24">
  <path stroke="#1B1C1B" stroke-linecap="round" stroke-linejoin="round" stroke-width="1.5" d="M12.5 8 10 12h4l-2.5 4"/>
  <path stroke="#1B1C1B" stroke-linecap="round" stroke-width="1.5" d="M21.011 14.14c.522-.145.783-.216.886-.354.103-.137.103-.358.103-.8v-1.972c0-.442 0-.663-.103-.8-.103-.138-.364-.21-.886-.353-1.95-.537-3.171-2.617-2.668-4.594.139-.544.208-.816.142-.975-.066-.16-.256-.27-.635-.49l-1.725-.998c-.372-.216-.558-.324-.725-.3-.167.022-.356.214-.733.598a3.748 3.748 0 0 1-5.333 0c-.377-.384-.565-.576-.732-.599-.167-.023-.353.085-.725.3l-1.725 1c-.38.22-.57.33-.635.489-.066.16.003.431.141.975.503 1.977-.718 4.057-2.669 4.594-.522.144-.783.215-.886.353-.103.137-.103.358-.103.8v1.973c0 .441 0 .662.103.8.103.137.364.208.886.352 1.95.537 3.171 2.617 2.668 4.594-.139.544-.208.816-.142.975.066.16.256.27.635.49l1.725.998c.372.216.558.324.725.301.167-.023.356-.215.733-.599a3.75 3.75 0 0 1 5.336 0c.377.384.565.576.732.599.167.023.353-.085.726-.3l1.724-1c.38-.22.57-.33.635-.489.066-.16-.003-.431-.141-.975-.504-1.977.716-4.057 2.666-4.594Z"/>
</svg>
