<svg xmlns="http://www.w3.org/2000/svg" width="24" height="24" fill="none" viewBox="0 0 24 24">
  <path stroke="#1B1C1B" stroke-linecap="round" stroke-linejoin="round" stroke-width="1.5" d="M17.003 2.556 14.502 2C14.002 3 13 3.5 12 3.5 11 3.5 9.999 3 9.498 2l-2.501.556m10.006 0 .431.095c1.008.224 1.914.822 2.28 1.787.661 1.75 1.205 4.546 1.282 8.561.01.467.014.701-.133.851-.147.15-.384.15-.858.15h-2.039m-.963-11.444c0 2.31.216 6.315.963 11.444M6.996 2.556l-.43.095c-1.008.224-1.914.822-2.28 1.787-.661 1.75-1.204 4.546-1.282 8.561-.01.467-.014.701.133.851.147.15.384.15.858.15h2.039m.963-11.444c0 2.31-.216 6.315-.963 11.444m11.932 0c.144.988.428 2.618.662 3.93.177.99.266 1.485-.07 2.101-.335.617-.674.759-1.352 1.043-1.129.474-2.829.926-5.206.926-2.377 0-4.077-.452-5.206-.926-.678-.284-1.017-.426-1.352-1.043-.336-.616-.247-1.111-.07-2.101.234-1.312.518-2.942.662-3.93"/>
  <path stroke="#1B1C1B" stroke-linecap="round" stroke-linejoin="round" stroke-width="1.5" d="M14.031 3c-.147 3.478.088 10.748 3.969 12M9.97 3c.146 3.478-.09 10.748-3.97 12"/>
</svg>
