<svg xmlns="http://www.w3.org/2000/svg" width="24" height="24" fill="none" viewBox="0 0 24 24">
  <path stroke="#1B1C1B" stroke-linecap="round" stroke-linejoin="round" stroke-width="1.5" d="M10.964 5.996c.373 1.843-.837 4.502-4.008 3.916m.877-2.844c.893-1.05 3.061-1.48 5.634-.6 1.113.305 3.514 1.495 4.617 2.373 1.345.895 3.261 2.794 3.761 4.768.546 1.818-.3 4.56-2.957 6.358-2.54 1.72-6.1 1.764-9.556-3.597-.128 0-4.102-6.465-1.499-9.302Z"/>
  <path stroke="#1B1C1B" stroke-linecap="round" stroke-linejoin="round" stroke-width="1.5" d="M2 14.081c2.059-.414 4.4.844 3.998 3.914m10.94-10.189c0-.19-.411-1.147-.817-1.647-1.828-2.631-4.54-3.578-6.444-2.99-1.976.495-3.866 2.335-4.765 3.678-1.063 1.292-2.12 3.507-2.428 4.619-.888 2.57-.474 4.793.572 5.689.685.638 2.865 1.531 6.102 0"/>
  <path stroke="#1B1C1B" stroke-linecap="round" stroke-linejoin="round" stroke-width="1.5" d="M11.002 13.02s0 1.225 1.217 1.224c1.218 0 1.218 1.223 1.218 1.223m.575-5.47s0 1.224 1.217 1.223c1.218 0 1.218 1.224 1.218 1.224m-.88 2.107s0 1.223 1.218 1.223 1.217 1.223 1.217 1.223"/>
</svg>
