<svg xmlns="http://www.w3.org/2000/svg" width="24" height="24" fill="none" viewBox="0 0 24 24">
  <path stroke="#1B1C1B" stroke-linecap="round" stroke-linejoin="round" stroke-width="1.5" d="M13.582 10.898V9m0 1.898v1.083m0-1.083c0 .457 0 .813.014 1.102m-.014-.02V12c0 .423 0 .75-.012 1.015m.012-1.034.014.019m0 0c.018.36.057.617.145.839.171.431.47.777.84.977.344.184.787.184 1.671.184h.787c.085 0 .128 0 .156-.002.636-.05 1.007-.855.69-1.496a4.125 4.125 0 0 0-.086-.153l-.019-.033a4.357 4.357 0 0 0-.048-.083c-.428-.71-1.203-1.02-1.917-.764l-.081.031m-2.164 1.515c-.015.32-.047.55-.119.75-.175.49-.51.88-.931 1.083C12.203 15 11.802 15 11 15m2.57-1.985L11.43 10.5M9 9v4a2 2 0 0 1-2 2"/>
  <path stroke="#1B1C1B" stroke-width="1.5" d="M9.78 3.352c.563-.603.845-.905 1.146-1.073a2.205 2.205 0 0 1 2.148 0c.301.168.583.47 1.147 1.073.254.272.38.408.522.517a2.2 2.2 0 0 0 1.067.442c.177.022.363.016.734.004.826-.028 1.238-.042 1.57.052a2.21 2.21 0 0 1 1.52 1.52c.093.33.08.743.051 1.568-.012.372-.018.558.004.735.05.389.203.757.442 1.067.11.141.245.268.517.522.603.564.905.846 1.073 1.147.372.668.372 1.48 0 2.148-.168.301-.47.583-1.073 1.147-.272.254-.408.38-.517.522a2.2 2.2 0 0 0-.442 1.067c-.022.177-.016.363-.004.734.028.826.042 1.238-.052 1.57a2.205 2.205 0 0 1-1.52 1.52c-.33.093-.743.08-1.569.051-.371-.012-.557-.018-.734.004-.389.05-.757.203-1.067.442-.141.11-.268.245-.522.517-.564.603-.846.905-1.147 1.073a2.205 2.205 0 0 1-2.148 0c-.301-.168-.583-.47-1.147-1.073-.254-.272-.38-.408-.522-.517a2.204 2.204 0 0 0-1.067-.442c-.177-.022-.363-.016-.735-.004-.825.028-1.237.042-1.569-.052a2.205 2.205 0 0 1-1.52-1.52c-.093-.33-.08-.743-.051-1.569.012-.371.018-.557-.004-.734a2.205 2.205 0 0 0-.442-1.067c-.11-.141-.245-.268-.517-.522-.603-.564-.905-.846-1.073-1.147a2.205 2.205 0 0 1 0-2.148c.168-.301.47-.583 1.073-1.147.272-.254.408-.38.517-.522a2.2 2.2 0 0 0 .442-1.067c.022-.177.016-.363.004-.735-.028-.825-.042-1.237.052-1.569a2.205 2.205 0 0 1 1.52-1.52c.33-.093.743-.08 1.568-.051.372.012.558.018.735-.004.389-.05.757-.203 1.067-.442.141-.11.268-.245.522-.517Z"/>
</svg>
