<svg xmlns="http://www.w3.org/2000/svg" width="24" height="24" fill="none" viewBox="0 0 24 24">
  <path stroke="#1B1C1B" stroke-linecap="round" stroke-width="1.5" d="m15.5 9.058.421-2.155C16.416 4.366 14.523 2 12 2 9.477 2 7.584 4.366 8.079 6.903l.42 2.155C8.834 10.768 10.3 12 12 12c1.702 0 3.167-1.231 3.5-2.942Z"/>
  <path fill="#1B1C1B" d="M10.75 11.5a.75.75 0 0 0-1.5 0h1.5Zm4 0a.75.75 0 0 0-1.5 0h1.5Zm-5.5 0v1.282h1.5V11.5h-1.5Zm4 0v1.282h1.5V11.5h-1.5Zm-1.189 3.749L12 15.25v1.5c.04 0 .08 0 .12-.002l-.059-1.5Zm-.18 1.499.119.002v-1.5l-.061-.001-.058 1.499Zm1.369-3.966c0 .515-.006.765-.074.994-.059.2-.185.438-.555.822l1.082 1.04c.468-.487.76-.928.911-1.435.142-.477.136-.96.136-1.421h-1.5Zm-1.13 3.966c.038-.002.174-.004.332-.06a1.34 1.34 0 0 0 .375-.21c.196-.15.462-.41.876-.84l-1.082-1.04c-.424.442-.616.62-.707.69-.04.03-.019.006.045-.016.074-.025.142-.025.102-.023l.058 1.499Zm-2.87-3.966c0 .46-.006.944.136 1.42.15.508.443.95.912 1.436l1.08-1.04c-.37-.384-.495-.623-.554-.822-.068-.229-.074-.479-.074-.994h-1.5Zm2.689 2.467c-.04-.002.028-.002.102.023.064.022.085.046.045.016-.091-.07-.283-.248-.707-.69l-1.082 1.04c.414.43.68.69.876.84.104.08.226.16.375.21.159.056.294.058.333.06l.058-1.5Z"/>
  <path stroke="#1B1C1B" stroke-linecap="round" stroke-width="1.5" d="M10 14c-3.244.927-4.865 1.39-5.854 2.584a5.01 5.01 0 0 0-.271.36C3.117 18.048 3.014 19.458 3 22m11-8c3.244.927 4.865 1.39 5.854 2.584.096.116.186.236.271.36.759 1.105.861 2.515.875 5.056m-9-6v4"/>
  <path stroke="#1B1C1B" stroke-linecap="round" stroke-linejoin="round" stroke-width="1.5" d="M8 6h8"/>
</svg>
