<svg xmlns="http://www.w3.org/2000/svg" width="24" height="24" fill="none" viewBox="0 0 24 24">
  <path fill="#1B1C1B" d="M12.105 20.93v-5.358h8.805v5.357c0 .506 0 .758-.161.915-.161.157-.42.157-.94.157h-6.603c-.519 0-.778 0-.94-.157-.16-.157-.16-.41-.16-.915Zm3.783-13.225c-.361.346-.795.697-1.248 1.063-1.985 1.608-4.318 3.496-2.322 6.4A6.975 6.975 0 0 1 9.004 16 7.002 7.002 0 0 1 2 9c0-3.866 3.136-7 7.004-7a7.005 7.005 0 0 1 6.884 5.705Z" opacity=".4"/>
  <path stroke="#1B1C1B" stroke-linecap="round" stroke-width="1.5" d="M15.007 5c-1.266-1.813-3.623-3-6.003-3A7.002 7.002 0 0 0 2 9c0 3.698 2.869 6.744 6.503 7"/>
  <path stroke="#1B1C1B" stroke-linecap="round" stroke-linejoin="round" stroke-width="1.5" d="M9.003 7v2.5l-1.5 1m5.107 5.046c-1.362-1.656-1.594-3.319.354-5.338C15.011 8.383 16.19 7.519 16.504 7c.314.52 1.512 1.383 3.56 3.208 1.854 1.654 1.738 3.682.376 5.338m-7.83 0h-.523m.523 0h7.83m0 0h.46m-8.813 0h-1.071m1.071 0v5.545c.04.668 0 .98 1.212.892h3.186m4.415-6.437H22m-1.1 0v5.646c.117.907-.605.748-1.067.79h-3.348m0 0 .036-2.134"/>
</svg>
