<svg width="24" height="24" viewBox="0 0 24 24" fill="none" xmlns="http://www.w3.org/2000/svg">
<g id="bend-tool">
<path id="Vector" d="M19 6C20.1046 6 21 5.10457 21 4C21 2.89543 20.1046 2 19 2C17.8954 2 17 2.89543 17 4C17 5.10457 17.8954 6 19 6Z" stroke="#1B1C1B" stroke-width="1.5" stroke-linecap="round"/>
<path id="Vector_2" d="M5 22C6.10457 22 7 21.1046 7 20C7 18.8954 6.10457 18 5 18C3.89543 18 3 18.8954 3 20C3 21.1046 3.89543 22 5 22Z" stroke="#1B1C1B" stroke-width="1.5" stroke-linecap="round"/>
<path id="Vector_3" d="M5 18C5 10 10 4 17 4" stroke="#1B1C1B" stroke-width="1.5" stroke-linecap="round"/>
</g>
</svg>
