<svg width="24" height="24" viewBox="0 0 24 24" fill="none" xmlns="http://www.w3.org/2000/svg">
<g id="column-delete">
<path id="Vector" d="M5.5 3C6.90446 3 7.60669 3 8.11114 3.3792C8.32952 3.54335 8.51702 3.75429 8.66294 3.99997C9 4.56747 9 5.35748 9 6.9375V17.0625C9 18.6426 9 19.4326 8.66294 20.0001C8.51702 20.2458 8.32952 20.4567 8.11114 20.6209C7.60669 21 6.90446 21 5.5 21C4.09554 21 3.39331 21 2.88886 20.6209C2.67048 20.4567 2.48298 20.2458 2.33706 20.0001C2 19.4326 2 18.6426 2 17.0625V6.9375C2 5.35748 2 4.56747 2.33706 3.99997C2.48298 3.75429 2.67048 3.54335 2.88886 3.3792C3.39331 3 4.09554 3 5.5 3Z" stroke="#1B1C1B" stroke-width="1.5"/>
<path id="Vector_2" d="M20 11.9375V17.0625C20 18.6425 20 19.4325 19.6629 20C19.517 20.2457 19.3295 20.4566 19.1111 20.6208C18.6067 21 17.9045 21 16.5 21C15.0955 21 14.3933 21 13.8889 20.6208C13.6705 20.4566 13.483 20.2457 13.3371 20C13 19.4325 13 18.6425 13 17.0625V6.93753C13 5.35751 13 4.5675 13.3371 4" stroke="#1B1C1B" stroke-width="1.5" stroke-linecap="round"/>
<path id="Vector_3" d="M22 8.99936L16 3M22 3.00064L16 9" stroke="#1B1C1B" stroke-width="1.5" stroke-linecap="round" stroke-linejoin="round"/>
</g>
</svg>
