<svg width="24" height="24" viewBox="0 0 24 24" fill="none" xmlns="http://www.w3.org/2000/svg">
<g id="drag-04">
<path id="Vector" d="M12.1015 8.41938L12.3128 11.1053L19.0709 4.49715C19.7408 3.8421 20.827 3.8421 21.4968 4.49715C22.1668 5.1522 22.1668 6.21426 21.4968 6.8693L17.8579 10.4276L19.5979 12.7763C20.7341 14.2795 21.3023 15.0311 21.491 15.7673C21.8029 16.9832 21.6665 18.2183 20.6452 19.2171C19.9337 19.9127 19.2806 20.2075 17.5707 21.0434C16.4858 21.5738 15.9433 21.8391 15.4001 21.9377C14.5058 22.1002 13.5814 21.9535 12.7855 21.5228C12.3021 21.2613 11.8733 20.842 11.0155 20.0032L10.2885 19.2923C9.14814 18.1773 8.57798 17.6198 8.27962 16.9189C8.22612 16.7932 8.1795 16.6648 8.13996 16.5342C7.91949 15.8063 8.00247 15.022 8.16841 13.4535L8.70562 8.3757C8.78817 7.59541 9.41589 6.97695 10.2132 6.89032C11.1716 6.7862 12.0275 7.47929 12.1015 8.41938Z" stroke="#1B1C1B" stroke-width="1.5" stroke-linecap="round" stroke-linejoin="round"/>
<path id="Vector_2" d="M9.06854 3.52615C9.06854 4.3701 9.72762 5.05426 10.5406 5.05426C11.3536 5.05426 12.0127 4.3701 12.0127 3.52615C12.0127 2.6822 11.3536 1.99805 10.5406 1.99805C9.72762 1.99805 9.06854 2.6822 9.06854 3.52615ZM9.06854 3.52615H8.4171L7.63742 3.59909M3.50971 9.0061C4.35654 8.99223 5.00125 9.65386 5.01466 10.4731C5.02807 11.2923 4.3979 11.9973 3.55107 12.0111C2.70425 12.025 2.0141 11.3337 2.00068 10.5145C1.98727 9.6953 2.66289 9.01997 3.50971 9.0061ZM3.50971 9.0061L3.60041 7.66037M5.31559 4.67383L4.98394 4.98366L4.69088 5.29936" stroke="#1B1C1B" stroke-width="1.5" stroke-linecap="round" stroke-linejoin="round"/>
</g>
</svg>
