<svg width="24" height="24" viewBox="0 0 24 24" fill="none" xmlns="http://www.w3.org/2000/svg">
<g id="drag-left-01">
<path id="Vector" d="M10.6821 8.48828C9.6671 7.87684 8.98828 6.76429 8.98828 5.49324C8.98828 3.56343 10.553 1.99902 12.4833 1.99902C14.4135 1.99902 15.9783 3.56343 15.9783 5.49324C15.9783 6.76429 15.2994 7.87684 14.2845 8.48828" stroke="#1B1C1B" stroke-width="1.5"/>
<path id="Vector_2" d="M10.553 21.9348L10.5784 21.3044C10.6032 20.6882 10.4414 20.0752 10.0986 19.56C8.75005 17.5329 7.71953 16.3786 6.30717 14.4013C6.19531 14.2447 6.09068 14.0789 6.0466 13.8919C5.70602 12.447 7.46581 10.5666 9.09583 12.7323L10.6871 14.3646V6.32391C10.8981 4.6763 13.4908 4.34948 13.928 6.32389V10.0659C15.5452 9.91869 22.0819 11.044 20.8482 15.5308C20.7904 15.7411 20.7351 15.9558 20.678 16.1663C20.4702 16.9329 19.962 18.0522 19.4727 19.0063C18.9286 20.0672 19.0718 21.5659 18.9796 22.001" stroke="#1B1C1B" stroke-width="1.5" stroke-linecap="round" stroke-linejoin="round"/>
<path id="Vector_3" d="M8.71865 4.98853H2.99805M2.99805 4.98853C3.1371 5.4239 3.5156 5.6878 3.83946 5.98427L5.02718 6.98996M2.99805 4.98853C3.11123 4.54576 3.52373 4.25932 3.83946 3.95999L5.02718 2.94141" stroke="#1B1C1B" stroke-width="1.5" stroke-linecap="round" stroke-linejoin="round"/>
</g>
</svg>
