<svg width="24" height="24" viewBox="0 0 24 24" fill="none" xmlns="http://www.w3.org/2000/svg">
<g id="hand-pointing-down-03">
<path id="Vector" d="M11.5004 16.0001H12.5004C13.605 16.0001 14.5004 15.1047 14.5004 14.0001M14.5004 14.0001V13.0001M14.5004 14.0001C14.5004 14.5524 14.9481 15.0001 15.5004 15.0001C16.605 15.0001 17.5004 14.1047 17.5004 13.0001M17.5004 13.0001V12.0001M17.5004 13.0001C17.5004 13.5236 17.9705 13.9218 18.4868 13.8357L18.8292 13.7787C19.7936 13.6179 20.5004 12.7836 20.5004 11.8059L20.5 10.3333C20.5 8.16 20.5 7.0733 20.1689 6.20816C19.9769 5.7063 19.4703 5.06628 19.0652 4.60378C18.7148 4.20375 18.5 3.69634 18.5 3.16457V2M11.5002 14.0001V20.5001C11.5002 21.3286 10.8286 22.0001 10.0002 22.0001C9.17178 22.0001 8.50021 21.3286 8.50021 20.5001L8.5 10.5377L6.8797 12.1631C6.16877 12.8763 4.99772 12.8112 4.36965 12.0236C3.88907 11.421 3.8758 10.5686 4.33738 9.95125L7.93707 5.35304C8.62579 4.47328 9 3.11728 9 2" stroke="#1B1C1B" stroke-width="1.5" stroke-linecap="round" stroke-linejoin="round"/>
</g>
</svg>
