<svg width="24" height="24" viewBox="0 0 24 24" fill="none" xmlns="http://www.w3.org/2000/svg">
<g id="maximize-02">
<path id="Vector" d="M7.86292 12.6594L9.99786 14.4906L12.6639 4.26341C12.8615 3.50544 13.5456 2.97656 14.3283 2.97656C15.4379 2.97656 16.2572 4.0122 16.0026 5.09289L14.801 10.1933L16.489 10.4634C18.4186 10.753 19.3835 10.8978 20.063 11.3053C21.1856 11.9782 21.9988 12.9888 21.9988 14.4642C21.9988 15.4919 21.745 16.1813 21.128 18.0337C20.7365 19.2091 20.5407 19.7968 20.2215 20.262C19.6959 21.0279 18.9205 21.5871 18.0283 21.8439C17.4863 21.9998 16.8673 21.9998 15.6292 21.9998H14.5798C12.9337 21.9998 12.1107 21.9998 11.3781 21.6975C11.2467 21.6433 11.1182 21.5822 10.9934 21.5143C10.2969 21.1358 9.77798 20.4966 8.74003 19.2183L5.37984 15.0797C4.86348 14.4438 4.86004 13.5336 5.37157 12.8937C5.98639 12.1247 7.11568 12.0184 7.86292 12.6594Z" stroke="#1B1C1B" stroke-width="1.5" stroke-linecap="round" stroke-linejoin="round"/>
<path id="Vector_2" d="M9.87145 4.6155C9.87145 4.6155 10.117 2.39481 9.87145 2.15272M9.87145 2.15272C9.5529 1.83875 7.33253 2.10304 7.33253 2.10304M9.87145 2.15272L6.90104 5.09476M2.1106 7.34501C2.1106 7.34501 1.86505 9.56571 2.1106 9.80779M2.1106 9.80779C2.42915 10.1218 4.64952 9.85747 4.64952 9.85747M2.1106 9.80779L5.08102 6.86575" stroke="#1B1C1B" stroke-width="1.5" stroke-linecap="round" stroke-linejoin="round"/>
</g>
</svg>
