<svg width="24" height="24" viewBox="0 0 24 24" fill="none" xmlns="http://www.w3.org/2000/svg">
<g id="maximize-04">
<path id="Vector" d="M14.106 10.3186L14.9087 5.64774C15.0417 4.87384 14.5381 4.13586 13.7839 3.9994C13.0296 3.86293 12.3103 4.37968 12.1773 5.15358L10.5719 14.4953L10.4388 15.2194L8.64163 13.309C7.9896 12.6325 6.91556 12.6942 6.33952 13.4413C5.89875 14.0129 5.88658 14.8214 6.30992 15.4071L9.06506 19.2184C9.69033 20.0834 10.003 20.5159 10.3792 20.8521C10.9532 21.3648 11.641 21.7217 12.3808 21.8904C12.8657 22.001 13.3868 22.001 14.4289 22.001H16.2461C18.6376 22.001 20.6943 20.3053 21.1532 17.9552L21.8989 14.1366L21.9792 13.6695C22.1122 12.8955 21.6086 12.1576 20.8543 12.0211C20.1 11.8846 19.3808 12.4014 19.2478 13.1753L19.1675 13.6424M14.106 10.3186L13.8652 11.7199M14.106 10.3186C14.239 9.5447 14.9583 9.02796 15.7126 9.16442C16.4668 9.30088 16.9705 10.0389 16.8375 10.8128L16.6769 11.747M16.6769 11.747L16.5966 12.2141M16.6769 11.747C16.8099 10.9731 17.5292 10.4563 18.2834 10.5928C19.0377 10.7292 19.5413 11.4672 19.4083 12.2411L19.3281 12.7082" stroke="#1B1C1B" stroke-width="1.5" stroke-linecap="round" stroke-linejoin="round"/>
<path id="Vector_2" d="M9.87479 4.61889C9.87479 4.61889 10.1205 2.39532 9.87479 2.15292M9.87479 2.15292C9.55602 1.83854 7.33416 2.10318 7.33416 2.10318M9.87479 2.15292L6.90237 5.09878M2.10872 7.35195C2.10872 7.35195 1.86301 9.57553 2.10872 9.81793M2.10872 9.81793C2.42748 10.1323 4.64934 9.86767 4.64934 9.86767M2.10872 9.81793L5.08113 6.87207" stroke="#1B1C1B" stroke-width="1.5" stroke-linecap="round" stroke-linejoin="round"/>
</g>
</svg>
