<svg width="24" height="24" viewBox="0 0 24 24" fill="none" xmlns="http://www.w3.org/2000/svg">
<g id="minimize-01">
<path id="Vector" d="M19.9264 22.2513V20.6923C19.9264 20.2897 20.0525 19.8987 20.2639 19.5555C21.7583 17.1293 22.2279 14.5269 21.9002 13.5133C20.857 11.3523 17.3758 10.502 15.76 10.2993L16.7966 5.13961C16.9705 4.32137 16.3513 3.49769 15.4135 3.29987C14.4758 3.10204 13.5746 3.60499 13.4007 4.42323L11.3462 14.0892L8.77462 12.4518C8.77462 12.4518 7.47969 11.4164 6.44041 12.4518C5.40114 13.4872 6.44041 14.7772 6.44041 14.7772L10.3488 19.7797C10.6003 20.1015 10.7468 20.4923 10.7688 20.8995L10.8401 22.2174" stroke="#1B1C1B" stroke-width="1.5" stroke-linecap="round" stroke-linejoin="round"/>
<path id="Vector_2" d="M6.95693 2.23917C6.95693 2.23917 6.7053 4.51034 6.95693 4.75792M6.95693 4.75792C7.28338 5.07903 9.55878 4.80873 9.55878 4.80873M6.95693 4.75792L10.001 1.74902M5.04502 9.25096C5.04502 9.25096 5.29665 6.9798 5.04502 6.73221M5.04502 6.73221C4.71857 6.4111 2.44317 6.6814 2.44317 6.6814M5.04502 6.73221L2.00098 9.74111" stroke="#1B1C1B" stroke-width="1.5" stroke-linecap="round" stroke-linejoin="round"/>
</g>
</svg>
