<svg width="24" height="24" viewBox="0 0 24 24" fill="none" xmlns="http://www.w3.org/2000/svg">
<g id="move-02">
<path id="Vector" d="M4.8749 13.1578L7.01079 14.9891V5.22682C7.01079 4.2591 7.79502 3.47461 8.76243 3.47461C9.72982 3.47461 10.514 4.2591 10.514 5.22682V10.4834L13.5047 10.9616C15.4351 11.2513 16.4004 11.3961 17.0802 11.8035C18.2033 12.4765 19.0169 13.4872 19.0169 14.9627C19.0169 15.9904 18.7629 16.6799 18.1456 18.5323C17.754 19.7078 17.5581 20.2954 17.2388 20.7607C16.713 21.5267 15.9373 22.0859 15.0446 22.3426C14.5024 22.4986 13.8832 22.4986 12.6445 22.4986H11.5946C9.9479 22.4986 9.12455 22.4986 8.39156 22.1963C8.26011 22.1422 8.13164 22.081 8.0067 22.0131C7.30998 21.6346 6.79078 20.9954 5.75239 19.717L2.39075 15.5782C1.87417 14.9422 1.87073 14.032 2.38247 13.3921C2.99756 12.623 4.12733 12.5168 4.8749 13.1578Z" stroke="#1B1C1B" stroke-width="1.5" stroke-linecap="round" stroke-linejoin="round"/>
<path id="Vector_2" d="M16.9186 2.36831L17.724 1.61079C17.8006 1.53875 17.8985 1.50242 17.9966 1.50196M17.9966 1.50196C18.0937 1.50151 18.191 1.53621 18.268 1.60624L19.1058 2.36831M17.9966 1.50196V9.4765M19.1058 8.61122L18.3004 9.36874C18.2157 9.44842 18.1049 9.48442 17.9966 9.4765M17.9966 9.4765C17.9101 9.47017 17.8251 9.43581 17.7564 9.37329L16.9186 8.61122M21.1332 4.39544L21.8902 5.20133C21.9622 5.27796 21.9985 5.37595 21.999 5.47414M21.999 5.47414C21.9994 5.57133 21.9648 5.66872 21.8948 5.74575L21.1332 6.5841M21.999 5.47414H14.0299M14.8946 6.58408L14.1376 5.77819C14.0579 5.69343 14.022 5.58253 14.0299 5.47414M14.0299 5.47414C14.0362 5.38754 14.0705 5.30255 14.133 5.23377L14.8946 4.39542" stroke="#1B1C1B" stroke-width="1.5" stroke-linecap="round" stroke-linejoin="round"/>
</g>
</svg>
