<svg width="24" height="24" viewBox="0 0 24 24" fill="none" xmlns="http://www.w3.org/2000/svg">
<g id="pointing-right-06">
<path id="Vector" d="M21.9995 4.5H15.9995M21.9995 4.5C21.9995 3.79977 20.0052 2.49153 19.4995 2M21.9995 4.5C21.9995 5.20023 20.0052 6.50847 19.4995 7" stroke="#1B1C1B" stroke-width="1.5" stroke-linecap="round" stroke-linejoin="round"/>
<path id="Vector_2" d="M12.9255 13.0052H16.028M16.028 13.0052H20.496C21.3267 13.0052 22.0001 12.3328 22.0001 11.5034C22.0001 10.674 21.3267 10.0016 20.496 10.0016H15.0332M16.028 13.0052L16.0012 14.0596C15.9831 14.7706 15.5949 15.3872 15.0235 15.7275M15.0332 10.0016H10.4717M15.0332 10.0016L12.2743 7.40816C10.4073 5.8357 9.04627 6.66202 8.29008 7.24227L4.31748 10.1227C3.97623 10.3701 3.56554 10.5034 3.14407 10.5034H2.01131M15.0235 15.7275C14.7234 15.9062 14.3728 16.0087 13.9987 16.0087H12.9949M15.0235 15.7275L14.9688 17.0631C14.9516 17.7373 14.6017 18.3266 14.0783 18.676M14.0783 18.676C13.7599 18.8885 13.3773 19.0123 12.9664 19.0123H11.9626M14.0783 18.676L13.8095 20.2669C13.6745 21.2662 12.8156 22.0089 11.8058 21.9995H8.25759C7.65385 21.9995 7.04743 21.951 6.47391 21.7623C5.99628 21.6052 5.47047 21.3849 5.12706 21.115C4.38618 20.5327 4.12365 20.1257 3.48862 20.0198C2.98059 19.9351 2.34338 19.9232 1.99951 19.9232" stroke="#1B1C1B" stroke-width="1.5" stroke-linecap="round" stroke-linejoin="round"/>
</g>
</svg>
