<svg width="24" height="24" viewBox="0 0 24 24" fill="none" xmlns="http://www.w3.org/2000/svg">
<g id="pointing-left-01">
<path id="Vector" d="M2.01709 4.49967H8.00914M2.01709 4.49967C2.01709 3.79981 4.00875 2.49225 4.51378 2.00098M2.01709 4.49967C2.01709 5.19953 4.00875 6.50709 4.51378 6.99836" stroke="#1B1C1B" stroke-width="1.5" stroke-linecap="round" stroke-linejoin="round"/>
<path id="Vector_2" d="M21.9999 10.8264H21.0513C20.4058 10.8264 19.7774 10.6176 19.2594 10.2309L14.3566 6.57074C13.7911 6.14861 13.0895 5.81146 12.4419 6.09015C11.3935 6.54131 10.7124 7.81412 12.2842 9.37203L13.9936 10.9704H3.57057C1.52742 11.0266 1.42614 14.3169 3.57057 14.4576H9.51058C9.31944 15.9386 10.3629 22.9154 14.7831 21.8984C14.9931 21.8501 15.2062 21.8019 15.4165 21.7548C16.3353 21.549 17.9727 20.9408 18.93 20.27C19.9265 19.5717 20.9191 19.8181 21.9999 19.8181" stroke="#1B1C1B" stroke-width="1.5" stroke-linecap="round" stroke-linejoin="round"/>
</g>
</svg>
