<svg width="24" height="24" viewBox="0 0 24 24" fill="none" xmlns="http://www.w3.org/2000/svg">
<g id="pointing-left-06">
<path id="Vector" d="M2 4.5H7.99817M2 4.5C2 3.79977 3.99369 2.49153 4.49924 2M2 4.5C2 5.20023 3.99369 6.50847 4.49924 7" stroke="#1B1C1B" stroke-width="1.5" stroke-linecap="round" stroke-linejoin="round"/>
<path id="Vector_2" d="M11.0747 13.0052H7.97211M7.97211 13.0052H3.5041C2.67341 13.0052 2 12.3328 2 11.5034C2 10.674 2.67341 10.0016 3.5041 10.0016H8.96687M7.97211 13.0052L7.99896 14.0596C8.01707 14.7706 8.40523 15.3872 8.97664 15.7275M8.96687 10.0016H13.5284M8.96687 10.0016L11.7258 7.40816C13.5928 5.8357 14.9538 6.66202 15.71 7.24227L19.6826 10.1227C20.0239 10.3701 20.4346 10.5034 20.8561 10.5034H21.9888M8.97664 15.7275C9.27671 15.9062 9.62732 16.0087 10.0014 16.0087H11.0052M8.97664 15.7275L9.03132 17.0631C9.04849 17.7373 9.39841 18.3266 9.92178 18.676M9.92178 18.676C10.2402 18.8885 10.6228 19.0123 11.0338 19.0123H12.0375M9.92178 18.676L10.1907 20.2669C10.3256 21.2662 11.1845 22.0089 12.1943 21.9995H15.7425C16.3463 21.9995 16.9527 21.951 17.5262 21.7623C18.0038 21.6052 18.5297 21.3849 18.8731 21.115C19.6139 20.5327 19.8765 20.1257 20.5115 20.0198C21.0195 19.9351 21.6567 19.9232 22.0006 19.9232" stroke="#1B1C1B" stroke-width="1.5" stroke-linecap="round" stroke-linejoin="round"/>
</g>
</svg>
