<svg width="24" height="24" viewBox="0 0 24 24" fill="none" xmlns="http://www.w3.org/2000/svg">
<g id="pointing-left-02">
<path id="Vector" d="M22 19.8917H20.382C19.4564 19.8917 18.488 20.6158 17.6892 20.9983C16.2125 21.7055 13.3226 22.6731 11.9618 21.3209C9.81667 19.1893 9.42404 16.2081 9.5 14.4999H3.75C2.7835 14.4999 2 13.7164 2 12.7499C2 11.7834 2.7835 10.9999 3.75 10.9999H10.0001M10.0001 10.9999H14M10.0001 10.9999C10.0177 10.9765 12.1753 8.12164 13.6086 7.62367C14.8916 7.17793 16.0336 8.03229 17.0914 8.67457C17.9105 9.1719 19.9316 11 21.0049 11H22" stroke="#1B1C1B" stroke-width="1.5" stroke-linecap="round" stroke-linejoin="round"/>
<path id="Vector_2" d="M2 4.5H8M2 4.5C2 3.79977 3.9943 2.49153 4.5 2M2 4.5C2 5.20023 3.9943 6.50847 4.5 7" stroke="#1B1C1B" stroke-width="1.5" stroke-linecap="round" stroke-linejoin="round"/>
</g>
</svg>
