<svg width="24" height="24" viewBox="0 0 24 24" fill="none" xmlns="http://www.w3.org/2000/svg">
<g id="rotate-right-02">
<path id="Vector" d="M10.3601 8.72881L9.86318 11.352L17.9784 6.72291C18.7828 6.26404 19.8114 6.53635 20.2759 7.33113C20.7403 8.12592 20.4647 9.14221 19.6603 9.60108L15.2906 12.0937L16.3289 14.7774C17.0149 16.5008 17.3579 17.3624 17.3456 18.1142C17.3253 19.356 16.8757 20.5036 15.6492 21.2032C14.7949 21.6906 14.0999 21.8089 12.2636 22.1801C11.0985 22.4157 10.5159 22.5335 9.97581 22.4917C9.08668 22.4229 8.24941 22.0508 7.6074 21.4392C7.21745 21.0677 6.92013 20.5589 6.32548 19.5413L5.82141 18.6787C5.03084 17.3258 4.63555 16.6494 4.5349 15.9039C4.51685 15.7702 4.50602 15.6356 4.50245 15.5008C4.48258 14.7489 4.76469 14.0193 5.3289 12.5599L7.15544 7.83562C7.43612 7.10964 8.1911 6.67521 8.96871 6.79222C9.90335 6.93286 10.5341 7.81068 10.3601 8.72881Z" stroke="#1B1C1B" stroke-width="1.5" stroke-linecap="round" stroke-linejoin="round"/>
<path id="Vector_2" d="M15.1366 4.46563C14.7397 4.86127 13.0131 4.74713 12.3762 4.66769M15.1366 4.46563C15.5335 4.06999 15.5449 2.13795 15.4652 1.50306M15.1366 4.46563C14.1156 2.6974 10.056 -0.123149 6.02763 2.6974C4.08097 4.0604 3.80628 4.91935 3.49844 5.49478" stroke="#1B1C1B" stroke-width="1.5" stroke-linecap="round" stroke-linejoin="round"/>
</g>
</svg>
