<svg width="24" height="24" viewBox="0 0 24 24" fill="none" xmlns="http://www.w3.org/2000/svg">
<g id="rotate-right-03">
<path id="Vector" d="M16.3756 10.4608L16.8195 11.2259C17.3099 12.071 17.0189 13.1515 16.1696 13.6394M16.1696 13.6394L15.4008 14.0812M16.1696 13.6394C16.5943 13.3955 17.1372 13.5403 17.3824 13.9628C17.8727 14.8079 17.5817 15.8885 16.7325 16.3764M16.7325 16.3764L15.9636 16.8181M16.7325 16.3764C17.1349 16.1451 17.6498 16.3289 17.8128 16.7619L17.9209 17.0491C18.2254 17.8579 17.8977 18.7672 17.146 19.1991L16.0136 19.8492C14.3426 20.8092 13.507 21.2892 12.6949 21.4181C12.2238 21.4928 11.5068 21.3879 10.9714 21.2823C10.5083 21.1909 10.0228 21.2507 9.61393 21.4856L8.71854 22M14.8378 11.3441L19.8354 8.47296C20.4724 8.10703 20.6906 7.29659 20.3229 6.66279C19.9551 6.02899 19.1407 5.81183 18.5037 6.17776L10.8439 10.5781L11.3743 8.62052C11.6071 7.7616 11.0372 6.89441 10.1529 6.76177C9.4762 6.66028 8.81491 7.02665 8.54513 7.65249L6.60766 12.4376C6.23697 13.3531 5.36049 14.2384 4.50146 14.7319" stroke="#1B1C1B" stroke-width="1.5" stroke-linecap="round" stroke-linejoin="round"/>
<path id="Vector_2" d="M15.1366 4.96563C14.7397 5.36127 13.0131 5.24713 12.3762 5.16769M15.1366 4.96563C15.5335 4.56999 15.5449 2.63795 15.4652 2.00306M15.1366 4.96563C14.1156 3.1974 10.056 0.376851 6.0276 3.1974C4.08094 4.5604 3.80625 5.41935 3.49841 5.99478" stroke="#1B1C1B" stroke-width="1.5" stroke-linecap="round" stroke-linejoin="round"/>
</g>
</svg>
