<svg width="24" height="24" viewBox="0 0 24 24" fill="none" xmlns="http://www.w3.org/2000/svg">
<g id="rotate-left-03">
<path id="Vector" d="M7.62439 10.4608L7.18049 11.2259C6.69017 12.071 6.98115 13.1515 7.83041 13.6394M7.83041 13.6394L8.59927 14.0812M7.83041 13.6394C7.40578 13.3955 6.8628 13.5403 6.61764 13.9628C6.12732 14.8079 6.4183 15.8885 7.26756 16.3764M7.26756 16.3764L8.03642 16.8181M7.26756 16.3764C6.86508 16.1451 6.35028 16.3289 6.18724 16.7619L6.07912 17.0491C5.77461 17.8579 6.10237 18.7672 6.85407 19.1991L7.98647 19.8492C9.65746 20.8092 10.493 21.2892 11.3051 21.4181C11.7762 21.4928 12.4932 21.3879 13.0286 21.2823C13.4917 21.1909 13.9772 21.2507 14.386 21.4856L15.2814 22M9.16221 11.3441L4.16461 8.47296C3.52766 8.10703 3.30943 7.29659 3.67717 6.66279C4.04491 6.02899 4.85937 5.81183 5.49631 6.17776L13.1561 10.5781L12.6257 8.62052C12.3929 7.7616 12.9628 6.89441 13.8471 6.76177C14.5238 6.66028 15.1851 7.02665 15.4548 7.65249L17.3923 12.4376C17.763 13.3531 18.6395 14.2384 19.4985 14.7319" stroke="#1B1C1B" stroke-width="1.5" stroke-linecap="round" stroke-linejoin="round"/>
<path id="Vector_2" d="M8.86336 4.96563C9.26026 5.36127 10.9869 5.24713 11.6238 5.16769M8.86336 4.96563C8.46647 4.56999 8.45511 2.63795 8.5348 2.00306M8.86336 4.96563C9.88443 3.1974 13.944 0.376851 17.9724 3.1974C19.919 4.5604 20.1937 5.41935 20.5016 5.99478" stroke="#1B1C1B" stroke-width="1.5" stroke-linecap="round" stroke-linejoin="round"/>
</g>
</svg>
