<svg width="24" height="24" viewBox="0 0 24 24" fill="none" xmlns="http://www.w3.org/2000/svg">
<g id="swipe-left-08">
<path id="Vector" d="M15.0083 4.496H20.9999M15.0083 4.496C15.0083 3.79662 16.9998 2.48995 17.5048 1.99902M15.0083 4.496C15.0083 5.19539 16.9998 6.50205 17.5048 6.99299" stroke="#1B1C1B" stroke-width="1.5" stroke-linecap="round" stroke-linejoin="round"/>
<path id="Vector_2" d="M6.53624 14.4461V9.97685M6.53624 9.97685V4.45468C6.53624 3.63404 7.22077 2.97266 8.04222 2.97266C8.86367 2.97266 9.51096 3.63404 9.51096 4.45468V8.45574M6.53624 9.97685C5.21914 11.1692 3.80181 12.6754 3.61094 13.0613C2.72287 14.4118 2.81595 15.0656 3.80565 16.7181C4.64626 18.1217 5.77675 19.6793 5.84275 19.754C6.51441 20.5145 6.38087 20.5146 7.3544 21.2287C8.22374 21.8315 10.027 22.2515 14.2543 21.8315C17.6981 21.3 18.5232 18.2968 18.5053 16.8616V13.3174C18.7198 10.3716 17.4873 10.2387 15.2494 9.94877M9.51096 8.45574V10.9825M9.51096 8.45574C10.0694 7.54589 12.0977 7.91358 12.4931 9.63171M12.4931 9.63171C12.4947 9.63894 12.4964 9.64619 12.498 9.65347C12.5043 9.6823 12.5095 9.71135 12.5137 9.74055M12.4931 9.63171C12.4972 9.66672 12.504 9.703 12.5137 9.74055M12.4931 9.63171C12.3527 8.43418 15.3901 8.7261 15.5138 10.8321V11.9767M12.5288 10.9785V9.97685C12.5288 9.89788 12.5249 9.81867 12.5137 9.74055" stroke="#1B1C1B" stroke-width="1.5" stroke-linecap="round"/>
</g>
</svg>
