<svg width="24" height="24" viewBox="0 0 24 24" fill="none" xmlns="http://www.w3.org/2000/svg">
<g id="swipe-left-06">
<path id="Vector" d="M15.0005 4.5H21.0005M15.0005 4.5C15.0005 3.79977 16.9948 2.49153 17.5005 2M15.0005 4.5C15.0005 5.20023 16.9948 6.50847 17.5005 7" stroke="#1B1C1B" stroke-width="1.5" stroke-linecap="round" stroke-linejoin="round"/>
<path id="Vector_2" d="M6.51233 13.5148V3.48575C6.51233 2.66412 7.17917 1.99805 8.00176 1.99805C8.82435 1.99805 9.49119 2.66412 9.49119 3.48575V8.68784M9.49119 8.68784V11.0115M9.49119 8.68784C10.2961 7.56941 12.0987 7.94193 12.4824 9.6808C12.4887 9.70966 12.4939 9.73874 12.4981 9.76798M12.4981 9.76798C12.5093 9.8462 12.5132 9.92551 12.5132 10.0046V11.0075M12.4981 9.76798C12.9913 8.41762 15.2558 8.93261 15.5024 10.8609M15.5024 10.8609V12.0069M15.5024 10.8609C15.9063 9.37035 18.5581 10.4121 18.5007 12.1545V15.333C18.4977 17.059 18.2096 18.3106 17.1835 19.34C16.2355 20.4718 16.4585 21.1054 16.4349 22.0017M6.51233 8.99051C5.1934 10.1844 3.69642 11.816 3.5053 12.2023C2.61598 13.5545 2.93227 14.6153 4.19609 16.4175C5.13663 17.7587 6.3981 19.2534 6.46418 19.3282C7.13679 20.0896 7.00497 20.6958 7.00497 21.9907" stroke="#1B1C1B" stroke-width="1.5" stroke-linecap="round"/>
</g>
</svg>
