<svg width="24" height="24" viewBox="0 0 24 24" fill="none" xmlns="http://www.w3.org/2000/svg">
<g id="swipe-left-02">
<path id="Vector" d="M14.9995 4.50098H20.9995M14.9995 4.50098C14.9995 3.80075 16.9938 2.49251 17.4995 2.00098M14.9995 4.50098C14.9995 5.20121 16.9938 6.50945 17.4995 7.00098" stroke="#1B1C1B" stroke-width="1.5" stroke-linecap="round" stroke-linejoin="round"/>
<path id="Vector_2" d="M15.3913 21.997C15.3395 20.083 15.4684 19.8525 15.6052 19.4267C15.7419 19.001 16.6982 17.4655 17.0366 16.3685C18.1313 12.8192 17.111 12.0643 15.7507 11.0578C14.2422 9.9416 11.3968 9.37631 9.98573 9.4987V3.74524C9.98573 2.78191 9.20481 2.00098 8.24148 2.00098C7.27816 2.00098 6.49723 2.78191 6.49723 3.74524V9.9651M6.49723 9.9651L4.64647 11.6094C3.40594 12.7822 3.15329 13.4685 3.05591 13.8838C2.86688 14.6963 3.12509 15.575 4.32672 17.3157C5.49529 18.9225 6.43328 20.04 6.49774 20.9844V21.9978M6.49723 9.9651V14.0313" stroke="#1B1C1B" stroke-width="1.5" stroke-linecap="round" stroke-linejoin="round"/>
</g>
</svg>
