<svg width="24" height="24" viewBox="0 0 24 24" fill="none" xmlns="http://www.w3.org/2000/svg">
<g id="swipe-down-06">
<path id="Vector" d="M18.501 8.00838V2.01758M18.501 8.00838C17.8011 8.00838 16.4933 6.01714 16.002 5.51221M18.501 8.00838C19.201 8.00838 20.5088 6.01714 21.0001 5.51221" stroke="#1B1C1B" stroke-width="1.5" stroke-linecap="round" stroke-linejoin="round"/>
<path id="Vector_2" d="M6.51282 13.5148V3.48575C6.51282 2.66412 7.17966 1.99805 8.00225 1.99805C8.82484 1.99805 9.49168 2.66411 9.49168 3.48575V8.68784M9.49168 8.68784V11.0115M9.49168 8.68784C10.2966 7.56941 12.0992 7.94193 12.4829 9.68079C12.4892 9.70966 12.4944 9.73874 12.4986 9.76798M12.4986 9.76798C12.5098 9.84619 12.5137 9.9255 12.5137 10.0046V11.0075M12.4986 9.76798C12.9918 8.41762 15.5028 8.92633 15.5028 10.8609M15.5028 10.8609V12.0069M15.5028 10.8609C15.9068 9.37035 18.5586 10.4121 18.5012 12.1545V15.333C18.4982 17.059 18.2101 18.3106 17.184 19.34C16.236 20.4718 16.459 21.1054 16.4354 22.0017M6.51282 8.9905C5.19389 10.1844 3.69691 11.8159 3.50578 12.2023C2.61647 13.5544 2.93276 14.6153 4.19658 16.4175C5.13711 17.7587 6.39859 19.2534 6.46467 19.3282C7.13727 20.0896 7.00546 20.6958 7.00546 21.9907" stroke="#1B1C1B" stroke-width="1.5" stroke-linecap="round"/>
</g>
</svg>
