<svg width="24" height="24" viewBox="0 0 24 24" fill="none" xmlns="http://www.w3.org/2000/svg">
<g id="tap-08">
<path id="Vector" d="M7.78063 13.9569V9.4933M7.78063 9.4933V3.97818C7.78063 3.15859 8.46371 2.49805 9.2834 2.49805C10.1031 2.49805 10.749 3.15859 10.749 3.97818V7.97413M7.78063 9.4933C6.46635 10.6841 5.05205 12.1885 4.86159 12.5738C3.97541 13.9226 4.0683 14.5756 5.05588 16.226C5.89469 17.6278 7.02277 19.1834 7.08862 19.258C7.75886 20.0175 7.6256 20.0176 8.59705 20.7308C9.46453 21.3328 11.2639 21.7523 15.4822 21.3328C18.9187 20.802 19.742 17.8027 19.7241 16.3693V12.8296C19.9382 9.88762 18.7083 9.75482 16.4752 9.46525M10.749 7.97413V10.4977M10.749 7.97413C11.3063 7.06545 13.3303 7.43267 13.7247 9.1486M13.7247 9.1486C13.7264 9.15582 13.728 9.16306 13.7296 9.17033C13.736 9.19912 13.7412 9.22813 13.7453 9.2573M13.7247 9.1486C13.7288 9.18356 13.7357 9.2198 13.7453 9.2573M13.7247 9.1486C13.5846 7.95259 16.6156 8.24415 16.739 10.3475V11.4906M13.7604 10.4937V9.4933C13.7604 9.41443 13.7565 9.33532 13.7453 9.2573" stroke="#1B1C1B" stroke-width="1.5" stroke-linecap="round"/>
</g>
</svg>
