<svg width="24" height="24" viewBox="0 0 24 24" fill="none" xmlns="http://www.w3.org/2000/svg">
<g id="touch-05">
<path id="Vector" d="M8.99011 22.0008L8.94275 21.2281L8.76846 20.4834C8.21637 18.298 7.44427 18.056 6.21598 16.4897C5.66145 15.7826 4.65999 14.8221 3.71263 13.4686C3.0814 12.5667 3.86739 10.4113 5.7877 11.0363C6.10735 11.1403 6.37606 11.3487 6.61429 11.5776L8.47736 13.4686C8.46211 10.9364 8.49736 4.95306 8.45623 3.37114C8.4151 1.78921 11.2845 1.28017 11.4537 3.44303V9.03714M11.4537 9.03714V9.97486M11.4537 9.03714C12.392 7.84768 14.1675 7.80581 14.4259 9.79709M14.4259 9.79709C14.4679 10.1213 14.4712 10.5 14.4259 10.9372M14.4259 9.79709C14.9001 8.40591 17.0589 8.94966 17.4734 10.5688M17.4734 10.5688C17.5717 10.9526 17.4339 11.4543 17.4734 11.9671M17.4734 10.5688C17.7426 9.78847 20.7656 9.82873 20.4826 12.8434L20.4472 15.5482C20.4472 17.1534 20.2332 17.8976 19.6201 18.6867C19.3936 18.9781 19.0805 19.2696 18.8615 19.5891C18.6907 19.8384 18.5805 20.1284 18.5325 20.4268C18.4657 20.8424 18.4568 21.4177 18.4775 21.9687" stroke="#1B1C1B" stroke-width="1.5" stroke-linecap="round" stroke-linejoin="round"/>
</g>
</svg>
