<svg xmlns="http://www.w3.org/2000/svg" width="24" height="24" fill="none" viewBox="0 0 24 24">
  <path stroke="#1B1C1B" stroke-width="1.5" d="M5.322 9.683c2.413-4.271 3.62-6.406 5.276-6.956a4.445 4.445 0 0 1 2.804 0c1.656.55 2.863 2.685 5.276 6.956 2.414 4.27 3.62 6.406 3.259 8.146-.2.958-.69 1.826-1.402 2.48C19.241 21.5 16.827 21.5 12 21.5s-7.241 0-8.535-1.19a4.658 4.658 0 0 1-1.402-2.48c-.362-1.74.845-3.876 3.259-8.147Z"/>
  <path stroke="#1B1C1B" stroke-linecap="round" stroke-linejoin="round" stroke-width="2" d="M11.992 16H12"/>
  <path stroke="#1B1C1B" stroke-linecap="round" stroke-linejoin="round" stroke-width="1.5" d="M12 13V9"/>
</svg>
