<svg xmlns="http://www.w3.org/2000/svg" width="24" height="24" fill="none" viewBox="0 0 24 24">
  <path stroke="#1B1C1B" stroke-linecap="round" stroke-linejoin="round" stroke-width="1.5" d="M18 18.167c-4.27 1.272-9.607 1.087-13.568-.554-1.164-.482-2.115-1.45-1.902-2.843.13-.857.777-1.57 1.256-2.267.627-.924.689-1.931.69-3.003 0-1.379.373-2.89 1.024-4m2-2.012A7.497 7.497 0 0 1 11.996 2c4.153 0 7.519 3.358 7.519 7.5 0 1.072.062 2.08.689 3.003.478.697 1.124 1.41 1.254 2.267.12.79-.016 1.225-.47 1.73"/>
  <path stroke="#1B1C1B" stroke-linecap="round" stroke-width="1.5" d="M22 22 2 2"/>
  <path stroke="#1B1C1B" stroke-linecap="round" stroke-linejoin="round" stroke-width="1.5" d="M8 19c.458 1.725 2.075 3 4 3 1.925 0 3.541-1.275 4-3"/>
</svg>
