<svg xmlns="http://www.w3.org/2000/svg" width="24" height="24" fill="none" viewBox="0 0 24 24">
  <path stroke="#1B1C1B" stroke-linecap="round" stroke-linejoin="round" stroke-width="1.5" d="M12 5a6.851 6.851 0 0 0-6.842 6.491c-.073 1.396.011 2.882-1.236 3.817A2.305 2.305 0 0 0 3 17.153C3 18.15 3.782 19 4.8 19h14.4c1.018 0 1.8-.85 1.8-1.847 0-.726-.342-1.41-.922-1.845a2.657 2.657 0 0 1-.94-1.308"/>
  <path stroke="#1B1C1B" stroke-linecap="round" stroke-linejoin="round" stroke-width="1.5" d="M16.016 5h3.672c.773 0 1.16 0 1.262.24.103.24-.16.528-.685 1.104l-3.418 3.312c-.526.576-.934.864-.831 1.104.103.24.634.24 1.407.24H21"/>
  <path stroke="#1B1C1B" stroke-width="1.5" d="M10.5 3.125C10.5 3.953 11.172 5 12 5s1.5-1.047 1.5-1.875C13.5 2.297 12.828 2 12 2s-1.5.297-1.5 1.125Z"/>
  <path stroke="#1B1C1B" stroke-linecap="round" stroke-linejoin="round" stroke-width="1.5" d="M15 19a3 3 0 1 1-6 0"/>
</svg>
