<svg xmlns="http://www.w3.org/2000/svg" width="24" height="24" fill="none" viewBox="0 0 24 24">
  <path stroke="#1B1C1B" stroke-linecap="round" stroke-linejoin="round" stroke-width="1.5" d="M5.506 15.992 8.03 9.029c.46-.967 1.162-1.766 1.967.151.743 1.77 1.85 5.01 2.505 6.815m-5.85-2.993h4.669"/>
  <path stroke="#1B1C1B" stroke-linecap="round" stroke-linejoin="round" stroke-width="1.5" d="M3.464 4.318C2 5.636 2 7.758 2 12c0 4.243 0 6.364 1.464 7.682C4.93 21 7.286 21 12 21c4.714 0 7.071 0 8.535-1.318C22 18.364 22 16.242 22 12c0-4.243 0-6.364-1.465-7.682C19.072 3 16.714 3 12 3S4.929 3 3.464 4.318Z"/>
  <path stroke="#1B1C1B" stroke-linecap="round" stroke-linejoin="round" stroke-width="1.5" d="M18.484 8.987v2.995m0 0v3.943m0-3.944h-2.018c-.24 0-.478.045-.702.132-1.693.657-1.693 3.1 0 3.757.225.087.462.131.702.131h2.018"/>
</svg>
