<svg xmlns="http://www.w3.org/2000/svg" width="24" height="24" fill="none" viewBox="0 0 24 24">
  <path stroke="#1B1C1B" stroke-width="1.5" d="M8.5 12a1.5 1.5 0 1 0 0-3 1.5 1.5 0 0 0 0 3Zm6 5a1.5 1.5 0 1 0 0-3 1.5 1.5 0 0 0 0 3Zm4-8a1.5 1.5 0 1 0 0-3 1.5 1.5 0 0 0 0 3Z"/>
  <path stroke="#1B1C1B" stroke-linecap="round" stroke-linejoin="round" stroke-width="1.5" d="M15.434 14.296 18 9m-8.417 2.568 3.62 2.728M3 19l4.59-7.12"/>
  <path stroke="#1B1C1B" stroke-linecap="round" stroke-width="1.5" d="M20 21H9c-3.3 0-4.95 0-5.975-1.025C2 18.95 2 17.3 2 14V3"/>
</svg>
