<svg xmlns="http://www.w3.org/2000/svg" width="24" height="24" fill="none" viewBox="0 0 24 24">
  <path stroke="#1B1C1B" stroke-width="1.5" d="M15.5 13c3.59 0 6.5-.895 6.5-2s-2.91-2-6.5-2S9 9.895 9 11s2.91 2 6.5 2Zm6.5 2.5c0 1.105-2.91 2-6.5 2s-6.5-.895-6.5-2"/>
  <path stroke="#1B1C1B" stroke-width="1.5" d="M22 11v8.8c0 1.215-2.91 2.2-6.5 2.2S9 21.015 9 19.8V11m-.5-5c3.59 0 6.5-.895 6.5-2s-2.91-2-6.5-2S2 2.895 2 4s2.91 2 6.5 2Z"/>
  <path stroke="#1B1C1B" stroke-linecap="round" stroke-width="1.5" d="M6 11c-1.892-.23-3.63-.825-4-2m4 7c-1.892-.23-3.63-.825-4-2"/>
  <path stroke="#1B1C1B" stroke-linecap="round" stroke-width="1.5" d="M6 21c-1.892-.23-3.63-.826-4-2V4m13 2V4"/>
</svg>
