<svg xmlns="http://www.w3.org/2000/svg" width="24" height="24" fill="none" viewBox="0 0 24 24">
  <path stroke="#1B1C1B" stroke-width="1.5" d="M2.5 12c0-4.23 0-6.345 1.198-7.747.17-.2.356-.385.555-.555C5.655 2.5 7.77 2.5 12 2.5s6.345 0 7.747 1.198c.2.17.385.356.555.555C21.5 5.655 21.5 7.77 21.5 12s0 6.345-1.198 7.747c-.17.2-.356.385-.555.555C18.345 21.5 16.23 21.5 12 21.5s-6.345 0-7.747-1.198a4.93 4.93 0 0 1-.555-.555C2.5 18.345 2.5 16.23 2.5 12Z"/>
  <path stroke="#1B1C1B" stroke-linecap="round" stroke-width="1.5" d="M15 14.492c-.478.904-1.349 1.508-2.343 1.508-1.51 0-2.734-1.393-2.734-3.111V11.11c0-1.717 1.224-3.11 2.734-3.11.994 0 1.865.604 2.343 1.508M9 12h3.923"/>
</svg>
