<svg xmlns="http://www.w3.org/2000/svg" width="24" height="24" fill="none" viewBox="0 0 24 24">
  <path stroke="#1B1C1B" stroke-linecap="round" stroke-width="1.5" d="M5.143 14A7.822 7.822 0 0 1 4 9.919C4 5.545 7.582 2 12 2s8 3.545 8 7.919A7.82 7.82 0 0 1 18.857 14"/>
  <path stroke="#1B1C1B" stroke-width="1.5" d="M7.383 17.098c-.092-.276-.138-.415-.133-.527a.6.6 0 0 1 .382-.53c.104-.041.25-.041.54-.041h7.656c.291 0 .436 0 .54.04a.6.6 0 0 1 .382.531c.005.112-.041.25-.133.527-.17.511-.255.767-.386.974a1.993 1.993 0 0 1-1.2.869c-.238.059-.506.059-1.043.059h-3.976c-.537 0-.806 0-1.043-.06a1.993 1.993 0 0 1-1.2-.868c-.131-.207-.216-.463-.386-.974ZM15 19l-.13.647c-.14.707-.211 1.06-.37 1.34a2 2 0 0 1-1.113.912C13.082 22 12.72 22 12 22s-1.082 0-1.387-.1a2 2 0 0 1-1.113-.913c-.159-.28-.23-.633-.37-1.34L9 19"/>
  <path stroke="#1B1C1B" stroke-linecap="round" stroke-linejoin="round" stroke-width="1.5" d="M12 16v-5"/>
</svg>
