<svg xmlns="http://www.w3.org/2000/svg" width="24" height="24" fill="none" viewBox="0 0 24 24">
  <path stroke="#1B1C1B" stroke-width="1.5" d="M4.5 10c0-3.771 0-5.657 1.172-6.828C6.843 2 8.729 2 12.5 2H14c3.771 0 5.657 0 6.828 1.172C22 4.343 22 6.229 22 10v4c0 3.771 0 5.657-1.172 6.828C19.657 22 17.771 22 14 22h-1.5c-3.771 0-5.657 0-6.828-1.172C4.5 19.657 4.5 17.771 4.5 14v-4Z"/>
  <path stroke="#1B1C1B" stroke-linecap="round" stroke-width="1.5" d="M13.25 14.5h.009m0-2.208V9.5M18.25 12a5 5 0 1 1-10 0 5 5 0 0 1 10 0Z"/>
  <path stroke="#1B1C1B" stroke-linecap="round" stroke-linejoin="round" stroke-width="1.5" d="M4.5 6H2m2.5 6H2m2.5 6H2"/>
</svg>
