<svg xmlns="http://www.w3.org/2000/svg" width="24" height="24" fill="none" viewBox="0 0 24 24">
  <path stroke="#1B1C1B" stroke-width="1.5" d="M17 16V8c0-2.357 0-3.536-.732-4.268C15.536 3 14.357 3 12 3H8c-2.357 0-3.536 0-4.268.732C3 4.464 3 5.643 3 8v8c0 2.357 0 3.535.732 4.268C4.464 21 5.643 21 8 21h4c2.357 0 3.536 0 4.268-.732C17 19.535 17 18.357 17 16Z"/>
  <path stroke="#1B1C1B" stroke-width="1.5" d="M11 21h6c1.886 0 2.828 0 3.414-.586C21 19.828 21 18.886 21 17v-7c0-1.886 0-2.828-.586-3.414C19.828 6 18.886 6 17 6"/>
  <path stroke="#1B1C1B" stroke-linecap="round" stroke-width="1.5" d="M13 11v2"/>
</svg>
