<svg xmlns="http://www.w3.org/2000/svg" width="24" height="24" fill="none" viewBox="0 0 24 24">
  <path stroke="#1B1C1B" stroke-linecap="round" stroke-linejoin="round" stroke-width="1.5" d="M22 11c0-3.537 0-5.306-1.053-6.487a4.377 4.377 0 0 0-.555-.522C19.138 3 17.26 3 13.5 3h-3c-3.759 0-5.638 0-6.893.99-.2.16-.386.334-.554.523C2 5.693 2 7.463 2 11s0 5.306 1.053 6.487c.168.189.354.364.554.522C4.862 19 6.741 19 10.5 19H12"/>
  <path stroke="#1B1C1B" stroke-linecap="round" stroke-width="1.5" d="M18.5 21v-7M15 17.5h7"/>
  <path stroke="#1B1C1B" stroke-linecap="round" stroke-linejoin="round" stroke-width="2" d="M5.5 11h-.01"/>
  <path stroke="#1B1C1B" stroke-width="1.5" d="M14.5 11a2.5 2.5 0 1 1-5 0 2.5 2.5 0 0 1 5 0Z"/>
</svg>
