<svg width="24" height="24" viewBox="0 0 24 24" fill="none" xmlns="http://www.w3.org/2000/svg">
<g id="chip-02">
<path id="Vector" d="M12 22C17.5228 22 22 17.5228 22 12C22 6.47715 17.5228 2 12 2C6.47715 2 2 6.47715 2 12C2 17.5228 6.47715 22 12 22Z" stroke="#1B1C1B" stroke-width="1.5"/>
<path id="Vector_2" d="M12 18C15.3137 18 18 15.3137 18 12C18 8.68629 15.3137 6 12 6C8.68629 6 6 8.68629 6 12C6 15.3137 8.68629 18 12 18Z" stroke="#1B1C1B" stroke-width="1.5"/>
<path id="Vector_3" d="M12 12C11.1716 12 10.5 12.5596 10.5 13.25C10.5 13.9404 11.1716 14.5 12 14.5C12.8284 14.5 13.5 13.9404 13.5 13.25C13.5 12.5596 12.8284 12 12 12ZM12 12C12.8284 12 13.5 11.4404 13.5 10.75C13.5 10.0596 12.8284 9.5 12 9.5C11.1716 9.5 10.5 10.0596 10.5 10.75C10.5 11.4404 11.1716 12 12 12Z" stroke="#1B1C1B" stroke-width="1.5"/>
<path id="Vector_4" d="M12 2V6M12 18V22" stroke="#1B1C1B" stroke-width="1.5" stroke-linecap="round" stroke-linejoin="round"/>
<path id="Vector_5" d="M21.9992 12H17.9992M6 12.0005H2" stroke="#1B1C1B" stroke-width="1.5" stroke-linecap="round" stroke-linejoin="round"/>
</g>
</svg>
