<svg width="24" height="24" viewBox="0 0 24 24" fill="none" xmlns="http://www.w3.org/2000/svg">
<g id="domino">
<path id="Vector" d="M19 16C19 18.8284 19 20.2426 17.9749 21.1213C16.9497 22 15.2998 22 12 22C8.70017 22 7.05025 22 6.02513 21.1213C5 20.2426 5 18.8284 5 16V8C5 5.17157 5 3.75736 6.02513 2.87868C7.05026 2 8.70017 2 12 2C15.2998 2 16.9497 2 17.9749 2.87868C19 3.75736 19 5.17157 19 8V16Z" stroke="#1B1C1B" stroke-width="1.5"/>
<path id="Vector_2" d="M14.5 18H14.491M9.50115 16H9.49219" stroke="#1B1C1B" stroke-width="2" stroke-linecap="round" stroke-linejoin="round"/>
<path id="Vector_3" d="M12.0078 7H11.9988" stroke="#1B1C1B" stroke-width="2" stroke-linecap="round" stroke-linejoin="round"/>
<path id="Vector_4" d="M19 12H5" stroke="#1B1C1B" stroke-width="1.5" stroke-linecap="round" stroke-linejoin="round"/>
</g>
</svg>
