<svg width="24" height="24" viewBox="0 0 24 24" fill="none" xmlns="http://www.w3.org/2000/svg">
<g id="swimming-6">
<path id="Vector" d="M1.25 5.46118C1.25 4.13001 2.41464 3.07745 3.7477 3.2736L10.4245 4.25606L16.1704 16.7503H15C13.7463 16.7503 12.9062 16.4021 12.1023 15.9134C11.8055 15.7331 11.5397 15.5536 11.2693 15.3711C10.7849 15.044 10.2861 14.7073 9.56965 14.3383C8.79473 13.9392 7.82776 13.7575 6.93191 13.7072C6.03074 13.6567 5.29303 13.7436 5.01311 13.8157L4.38774 12.4808L7.59015 10.1741L6.87033 8.32794L3.04974 7.63733C1.99869 7.44734 1.25 6.52227 1.25 5.46118Z" fill="#1B1C1B"/>
<path id="Vector_2" d="M15.25 10C15.25 7.92893 16.9289 6.25 19 6.25C21.0711 6.25 22.75 7.92893 22.75 10C22.75 12.0711 21.0711 13.75 19 13.75C16.9289 13.75 15.25 12.0711 15.25 10Z" fill="#1B1C1B"/>
<path id="Vector_3" fill-rule="evenodd" clip-rule="evenodd" d="M3.73248 17.0004C3.29122 17.2145 2.92841 17.5971 2.71861 18.299L1.28143 17.8695C1.59942 16.8056 2.22156 16.0664 3.07746 15.6509C3.90299 15.2502 4.86785 15.1883 5.83152 15.2982C7.74998 15.517 9.96211 16.4541 11.8419 17.4166C13.6967 18.3664 15.4624 19.0884 16.9678 19.2263C17.7083 19.2942 18.3522 19.2169 18.9021 18.9821C19.4443 18.7507 19.942 18.3464 20.3682 17.6801L21.6318 18.4884C21.058 19.3854 20.3347 20.0015 19.4911 20.3617C18.6554 20.7185 17.7489 20.8042 16.8309 20.72C15.0192 20.554 13.0348 19.7127 11.1582 18.7518C9.30644 17.8036 7.29635 16.9749 5.66157 16.7885C4.84862 16.6958 4.20411 16.7714 3.73248 17.0004Z" fill="#1B1C1B"/>
</g>
</svg>
