<svg width="24" height="24" viewBox="0 0 24 24" fill="none" xmlns="http://www.w3.org/2000/svg">
<path d="M13.5061 13.6015C12.905 13.7878 12.2654 13.8882 11.602 13.8882C9.12036 13.8882 6.96846 12.484 5.93046 10.4307C5.48592 9.55137 4.39999 9.19257 3.50496 9.62933C2.60993 10.0661 2.24474 11.133 2.68928 12.0123C4.3146 15.2274 7.69305 17.4438 11.602 17.4438C12.8475 17.4438 14.0394 17.2189 15.138 16.8081" stroke="#1B1C1B" strokeWidth="1.5" stroke-linecap="round"/>
<path d="M18.2384 14.9503C20.013 13.3868 21.2128 11.2055 21.4889 8.75051C21.5986 7.7746 20.8824 6.89607 19.8891 6.78825C18.8958 6.68043 18.0016 7.38415 17.8918 8.36006C17.7555 9.57236 17.2644 10.6796 16.5229 11.5795" stroke="#1B1C1B" strokeWidth="1.5" stroke-linecap="round"/>
<path d="M11.5472 4C12.2326 4 12.8591 4.38045 13.1657 4.98273L19.4988 17.4272C19.9457 18.3054 19.5834 19.3733 18.6896 19.8124C17.7957 20.2515 16.7088 19.8955 16.2619 19.0173L11.5472 9.75303L9.60361 13.5722C8.41009 13.1821 7.37362 12.4519 6.61377 11.4967L9.92878 4.98273C10.2353 4.38045 10.8618 4 11.5472 4Z" stroke="#1B1C1B" strokeWidth="1.5" stroke-linecap="round" strokeLinejoin="round"/>
<path d="M6.8326 19.017C6.38568 19.8952 5.29878 20.2512 4.40494 19.8121C3.5111 19.373 3.1488 18.3051 3.59572 17.4269L4.89047 14.8828C5.78379 15.6859 6.82705 16.3313 7.97447 16.7733L6.8326 19.017Z" stroke="#1B1C1B" strokeWidth="1.5" stroke-linecap="round" strokeLinejoin="round"/>
</svg>
