<svg viewBox="0 0 24 24" fill="none" xmlns="http://www.w3.org/2000/svg">
<path d="M12.75 8C12.75 7.58579 12.4142 7.25 12 7.25C11.5858 7.25 11.25 7.58579 11.25 8H12H12.75ZM12 12H11.25C11.25 12.1989 11.329 12.3897 11.4697 12.5303L12 12ZM13.4697 14.5303C13.7626 14.8232 14.2374 14.8232 14.5303 14.5303C14.8232 14.2374 14.8232 13.7626 14.5303 13.4697L14 14L13.4697 14.5303ZM22 12H21.25C21.25 17.1086 17.1086 21.25 12 21.25V22V22.75C17.9371 22.75 22.75 17.9371 22.75 12H22ZM12 22V21.25C6.89137 21.25 2.75 17.1086 2.75 12H2H1.25C1.25 17.9371 6.06294 22.75 12 22.75V22ZM2 12H2.75C2.75 6.89137 6.89137 2.75 12 2.75V2V1.25C6.06294 1.25 1.25 6.06294 1.25 12H2ZM12 2V2.75C17.1086 2.75 21.25 6.89137 21.25 12H22H22.75C22.75 6.06294 17.9371 1.25 12 1.25V2ZM12 8H11.25V12H12H12.75V8H12ZM12 12L11.4697 12.5303L13.4697 14.5303L14 14L14.5303 13.4697L12.5303 11.4697L12 12Z" fill="currentColor"/>
</svg>