<svg width="24" height="24" viewBox="0 0 24 24" fill="none" xmlns="http://www.w3.org/2000/svg">
<path d="M4.51243 19.4866C7.02486 21.8794 10.0159 20.9223 11.2123 19.9532C11.8313 19.4518 12.1096 19.1277 12.3488 18.8884C13.1863 18.1107 13.1325 17.3331 12.5881 16.711C12.3703 16.462 10.973 15.1198 9.63301 13.7439C8.9391 13.0499 8.46054 12.5595 8.05137 12.1647C7.50342 11.6185 7.02487 10.9922 6.30703 11.0101C5.64901 11.0101 5.17045 11.5904 4.57225 12.1886C3.8841 12.8767 3.37586 13.7439 3.1964 14.5216C2.65802 16.7947 3.4955 18.4098 4.51243 19.4866ZM4.51243 19.4866L2 21.999" stroke="#1B1C1B" stroke-width="1.5" stroke-linecap="round"/>
<path d="M19.4868 4.51557C16.9737 2.12163 13.993 3.09678 12.7963 4.06632C12.1771 4.56797 11.8988 4.89223 11.6594 5.13163C10.8217 5.90965 10.8756 6.68768 11.4201 7.3101C11.4984 7.39966 11.7293 7.6306 12.0551 7.95366M19.4868 4.51557C20.5041 5.59284 21.3529 7.22632 20.8143 9.50056C20.6348 10.2786 20.1265 11.1462 19.4381 11.8347C18.8398 12.4332 18.3611 13.0137 17.7029 13.0137C16.9848 13.0316 16.6122 12.5124 16.0641 11.966M19.4868 4.51557L22 2.00195M12.0551 7.95366C12.6356 8.52916 13.5176 9.39697 14.376 10.2786C15.0701 10.973 15.6548 11.571 16.0641 11.966M12.0551 7.95366L10.5115 9.50694M16.0641 11.966L14.5025 13.4905" stroke="#1B1C1B" stroke-width="1.5" stroke-linecap="round"/>
</svg>
