<svg viewBox="0 0 24 24" fill="none" xmlns="http://www.w3.org/2000/svg">
<path d="M14.0737 3.88545L13.5226 3.37676L13.5226 3.37677L14.0737 3.88545ZM15.5874 2.43893L15.204 1.79432L15.204 1.79433L15.5874 2.43893ZM18.6904 2.39232L19.0545 1.73661L19.0544 1.73659L18.6904 2.39232ZM21.6159 5.38093L20.9537 5.7331L20.9538 5.73321L21.6159 5.38093ZM21.5703 8.5507L20.9187 8.17933L20.9187 8.17935L21.5703 8.5507ZM20.1543 10.097L20.6746 10.6372L20.6746 10.6372L20.1543 10.097ZM10.7506 19.1543L10.2303 18.6141L10.2303 18.6141L10.7506 19.1543ZM7.56806 21.6837L7.29524 20.9851L7.29517 20.9851L7.56806 21.6837ZM3.54536 21.9686L3.56496 21.2189H3.56491L3.54536 21.9686ZM3.26538 21.9613L3.24575 22.711L3.24583 22.711L3.26538 21.9613ZM2.14359 21.73L2.70638 21.2342L2.70625 21.2341L2.14359 21.73ZM2.03608 20.5662L1.28835 20.5079L1.28835 20.5079L2.03608 20.5662ZM2.06308 20.2197L2.81081 20.278L2.81082 20.278L2.06308 20.2197ZM2.62371 16.7182L3.31159 17.0171L3.3116 17.0171L2.62371 16.7182ZM4.78943 13.9445L4.2383 13.4358L4.23829 13.4358L4.78943 13.9445ZM14 21.25C13.5858 21.25 13.25 21.5858 13.25 22C13.25 22.4142 13.5858 22.75 14 22.75V22V21.25ZM22 22.75C22.4142 22.75 22.75 22.4142 22.75 22C22.75 21.5858 22.4142 21.25 22 21.25V22V22.75ZM14.0737 3.88545L14.6248 4.39414C15.4069 3.54678 15.6924 3.24908 15.9708 3.08353L15.5874 2.43893L15.204 1.79433C14.6906 2.09972 14.2309 2.60938 13.5226 3.37676L14.0737 3.88545ZM15.5874 2.43893L15.9708 3.08354C16.6968 2.65173 17.5886 2.63845 18.3264 3.04805L18.6904 2.39232L19.0544 1.73659C17.8496 1.06773 16.3886 1.08979 15.204 1.79432L15.5874 2.43893ZM18.6904 2.39232L18.3263 3.04803C18.6091 3.20503 18.9028 3.49381 19.7091 4.31741L20.245 3.79276L20.781 3.26811C20.051 2.52243 19.5767 2.02657 19.0545 1.73661L18.6904 2.39232ZM20.245 3.79276L19.7091 4.31741C20.5143 5.13999 20.7985 5.44128 20.9537 5.7331L21.6159 5.38093L22.2781 5.02876C21.9959 4.49816 21.5119 4.01481 20.781 3.26811L20.245 3.79276ZM21.6159 5.38093L20.9538 5.73321C21.361 6.49848 21.3475 7.42702 20.9187 8.17933L21.5703 8.5507L22.2219 8.92207C22.9055 7.72256 22.9267 6.24776 22.278 5.02865L21.6159 5.38093ZM21.5703 8.5507L20.9187 8.17935C20.7552 8.46625 20.4626 8.75876 19.634 9.55683L20.1543 10.097L20.6746 10.6372C21.4266 9.9128 21.9244 9.44407 22.2219 8.92205L21.5703 8.5507ZM20.1543 10.097L19.634 9.55681L10.2303 18.6141L10.7506 19.1543L11.2709 19.6945L20.6746 10.6372L20.1543 10.097ZM10.7506 19.1543L10.2303 18.6141C8.68779 20.0999 8.059 20.6868 7.29524 20.9851L7.56806 21.6837L7.84088 22.3823C8.949 21.9496 9.81797 21.0939 11.2709 19.6945L10.7506 19.1543ZM7.56806 21.6837L7.29517 20.9851C6.53305 21.2828 5.68468 21.2743 3.56496 21.2189L3.54536 21.9686L3.52576 22.7183C5.52172 22.7705 6.73119 22.8158 7.84095 22.3823L7.56806 21.6837ZM3.54536 21.9686L3.56491 21.2189L3.28493 21.2116L3.26538 21.9613L3.24583 22.711L3.52581 22.7183L3.54536 21.9686ZM3.26538 21.9613L3.28501 21.2116C3.12549 21.2074 2.99915 21.204 2.89066 21.1983C2.78173 21.1926 2.71034 21.1854 2.6613 21.1772C2.56911 21.1619 2.63803 21.1567 2.70638 21.2342L2.14359 21.73L1.5808 22.2258C1.83123 22.51 2.14781 22.6123 2.41438 22.6568C2.65764 22.6974 2.95475 22.7034 3.24575 22.711L3.26538 21.9613ZM2.14359 21.73L2.70625 21.2341C2.77242 21.3092 2.7575 21.3715 2.75175 21.2682C2.74487 21.1448 2.7573 20.9648 2.78381 20.6245L2.03608 20.5662L1.28835 20.5079C1.26514 20.8057 1.24028 21.1043 1.25407 21.3517C1.26897 21.6191 1.33267 21.9442 1.58094 22.2259L2.14359 21.73ZM2.03608 20.5662L2.78381 20.6245L2.81081 20.278L2.06308 20.2197L1.31535 20.1614L1.28835 20.5079L2.03608 20.5662ZM2.06308 20.2197L2.81082 20.278C2.95467 18.4313 3.02254 17.6824 3.31159 17.0171L2.62371 16.7182L1.93583 16.4193C1.5234 17.3686 1.45135 18.4157 1.31535 20.1614L2.06308 20.2197ZM2.62371 16.7182L3.3116 17.0171C3.60008 16.353 4.09644 15.8012 5.34057 14.4532L4.78943 13.9445L4.23829 13.4358C3.06244 14.7098 2.3488 15.4688 1.93582 16.4193L2.62371 16.7182ZM4.78943 13.9445L5.34056 14.4532L14.6248 4.39413L14.0737 3.88545L13.5226 3.37677L4.2383 13.4358L4.78943 13.9445ZM13 4L12.4697 4.53033L19.4697 11.5303L20 11L20.5303 10.4697L13.5303 3.46967L13 4ZM14 22V22.75H22V22V21.25H14V22Z" fill="currentColor"/>
</svg>