<svg viewBox="0 0 24 24" fill="none" xmlns="http://www.w3.org/2000/svg">
<g clipPath="url(#clip0_93_575)">
<path d="M2.05241 11.822C1.98253 11.6147 1.98253 11.3903 2.05241 11.183C3.43941 7.01 7.37641 4 12.0164 4C16.6544 4 20.5894 7.007 21.9794 11.178C22.0494 11.385 22.0494 11.609 21.9794 11.817C20.5934 15.99 16.6564 19 12.0164 19C7.37841 19 3.44241 15.993 2.05241 11.822Z" stroke="currentColor" strokeWidth="1.5" strokeLinecap="round" strokeLinejoin="round"/>
<path d="M15 12C15 12.7956 14.6839 13.5587 14.1213 14.1213C13.5587 14.6839 12.7957 15 12 15C11.2044 15 10.4413 14.6839 9.87868 14.1213C9.31607 13.5587 9 12.7956 9 12C9 11.2044 9.31607 10.4413 9.87868 9.87868C10.4413 9.31607 11.2044 9 12 9C12.7957 9 13.5587 9.31607 14.1213 9.87868C14.6839 10.4413 15 11.2044 15 12Z" stroke="currentColor" strokeWidth="1.5" strokeLinecap="round" strokeLinejoin="round"/>
</g>
<defs>
<clipPath id="clip0_93_575">
<rect width="24" height="24" fill="currentColor"/>
</clipPath>
</defs>
</svg>