<svg width="24" height="24" viewBox="0 0 24 24" fill="none" xmlns="http://www.w3.org/2000/svg">
<path opacity="0.4" fill-rule="evenodd" clip-rule="evenodd" d="M2.75098 9.75952V14.2123C2.75098 16.8603 4.107 19.1997 6.17955 20.6078C6.69899 21.0341 8.11191 21.8944 9.60812 21.9256C11.5164 22.1915 13.374 21.7491 14.9109 20.8187C14.1939 20.0958 13.751 19.1006 13.751 18.002C13.751 15.7929 15.5419 14.002 17.751 14.002C18.0963 14.002 18.4314 14.0458 18.751 14.128V10.3353C18.751 8.39595 18.3965 7.49344 18.1294 6.8136C18.0751 6.67548 18.0245 6.54655 17.9811 6.41998C15.887 2.12627 10.1505 0.666039 6.17955 3.36396C5.42776 4.03959 3.84094 5.60195 3.50802 6.44639C3.02242 7.45183 2.75098 8.5748 2.75098 9.75952ZM6.75098 10.6565V13.3282C6.75098 14.917 7.42899 16.3206 8.46527 17.1655C8.72498 17.4213 9.43145 17.9374 10.1795 17.9562C12.543 18.3513 14.751 16.1391 14.751 13.3282V11.002C14.751 9.83835 14.5737 9.29685 14.4402 8.88894C14.4131 8.80607 14.3877 8.72871 14.3661 8.65277C13.319 6.07654 10.4508 5.2004 8.46527 6.81915C8.08937 7.22453 7.29596 8.16195 7.1295 8.66862C6.8867 9.27188 6.75098 9.94566 6.75098 10.6565Z" fill="#1B1C1B"/>
<path d="M6.17955 20.6078C4.107 19.1997 2.75098 16.8603 2.75098 14.2123V9.75952C2.75098 8.5748 3.02242 7.45183 3.50802 6.44639M9.60812 21.9256C10.5099 22.0513 11.4004 22.0187 12.251 21.8513M17.9811 6.41998C15.887 2.12627 10.1505 0.666039 6.17955 3.36396M18.751 10.3353V11.502M10.751 6.00195C12.9601 6.00195 14.751 7.88235 14.751 10.202M7.13591 8.40195C6.88909 8.9475 6.75098 9.55779 6.75098 10.202V13.802C6.75098 16.1216 8.54184 18.002 10.751 18.002C10.9203 18.002 11.0872 17.991 11.251 17.9695M10.751 10.502V13.502" stroke="#1B1C1B" strokeWidth="1.5" stroke-linecap="round" strokeLinejoin="round"/>
<path d="M17.751 22.002C19.9601 22.002 21.751 20.2111 21.751 18.002C21.751 15.7928 19.9601 14.002 17.751 14.002C15.5418 14.002 13.751 15.7928 13.751 18.002C13.751 20.2111 15.5418 22.002 17.751 22.002Z" stroke="#1B1C1B" strokeWidth="1.5"/>
<path d="M16.4189 18.4456C16.7189 18.5896 17.0909 18.9616 17.2709 19.2616C17.3309 19.6816 17.6309 18.0616 19.0949 17.1016" stroke="#1B1C1B" strokeWidth="1.5" stroke-linecap="round"/>
</svg>
