<svg viewBox="0 0 24 24" fill="none" xmlns="http://www.w3.org/2000/svg">
<g clipPath="url(#clip0_93_502)">
<path d="M20.774 17.25C20.3598 17.25 20.024 17.5858 20.024 18C20.024 18.4142 20.3598 18.75 20.774 18.75V18V17.25ZM22.6545 16.8691L23.2368 17.3417L23.2368 17.3417L22.6545 16.8691ZM21.2654 13.9126L21.723 13.3184L21.723 13.3184L21.2654 13.9126ZM19.0676 12.253C18.655 12.2157 18.2904 12.5199 18.253 12.9324C18.2157 13.345 18.5199 13.7096 18.9324 13.747L19 13L19.0676 12.253ZM18 10.25C17.5858 10.25 17.25 10.5858 17.25 11C17.25 11.4142 17.5858 11.75 18 11.75V11V10.25ZM18 5.25C17.5858 5.25 17.25 5.58579 17.25 6C17.25 6.41421 17.5858 6.75 18 6.75V6V5.25ZM3.22596 18.75C3.64017 18.75 3.97596 18.4142 3.97596 18C3.97596 17.5858 3.64017 17.25 3.22596 17.25V18V18.75ZM1.34555 16.8691L1.92791 16.3965L1.92788 16.3965L1.34555 16.8691ZM2.73465 13.9126L3.19222 14.5068L3.19225 14.5068L2.73465 13.9126ZM5.06756 13.747C5.48009 13.7096 5.78426 13.345 5.74695 12.9324C5.70964 12.5199 5.34497 12.2157 4.93244 12.253L5 13L5.06756 13.747ZM5.5 11.75C5.91421 11.75 6.25 11.4142 6.25 11C6.25 10.5858 5.91421 10.25 5.5 10.25V11V11.75ZM5.5 6.75C5.91421 6.75 6.25 6.41421 6.25 6C6.25 5.58579 5.91421 5.25 5.5 5.25V6V6.75ZM8.0838 15.1112L7.68936 14.4733H7.68936L8.0838 15.1112ZM6.0147 18.6474L6.54218 18.1142L6.54218 18.1142L6.0147 18.6474ZM17.9853 18.6474L17.4578 18.1142L17.9853 18.6474ZM15.9162 15.1112L15.5218 15.7491L15.5218 15.7491L15.9162 15.1112ZM20.774 18V18.75C21.8731 18.75 22.6619 18.0501 23.2368 17.3417L22.6545 16.8691L22.0722 16.3965C21.5767 17.0069 21.1735 17.25 20.774 17.25V18ZM22.6545 16.8691L23.2368 17.3417C23.6124 16.879 23.7875 16.3714 23.7434 15.8488C23.7012 15.3499 23.4669 14.9349 23.2164 14.6179C22.7419 14.0171 21.9894 13.5235 21.723 13.3184L21.2654 13.9126L20.8078 14.5068C21.2273 14.8299 21.7171 15.1397 22.0394 15.5477C22.1874 15.735 22.2403 15.8758 22.2487 15.9752C22.2551 16.051 22.2443 16.1844 22.0722 16.3965L22.6545 16.8691ZM21.2654 13.9126L21.723 13.3184C20.9186 12.699 20.0061 12.3379 19.0676 12.253L19 13L18.9324 13.747C19.5727 13.8049 20.2174 14.0522 20.8078 14.5068L21.2654 13.9126ZM18 11V11.75C19.7949 11.75 21.25 10.2949 21.25 8.5H20.5H19.75C19.75 9.46649 18.9665 10.25 18 10.25V11ZM20.5 8.5H21.25C21.25 6.70507 19.7949 5.25 18 5.25V6V6.75C18.9665 6.75 19.75 7.53351 19.75 8.5H20.5ZM3.22596 18V17.25C2.82645 17.25 2.42327 17.0069 1.92791 16.3965L1.34555 16.8691L0.763185 17.3417C1.33807 18.0501 2.12687 18.75 3.22596 18.75V18ZM1.34555 16.8691L1.92788 16.3965C1.75571 16.1843 1.74491 16.051 1.75132 15.9752C1.75972 15.8758 1.8126 15.735 1.96057 15.5477C2.28289 15.1397 2.7727 14.8299 3.19222 14.5068L2.73465 13.9126L2.27708 13.3184C2.01062 13.5235 1.25815 14.0171 0.783542 14.6179C0.533058 14.9349 0.298818 15.3499 0.256646 15.8489C0.21248 16.3714 0.387658 16.879 0.763215 17.3417L1.34555 16.8691ZM2.73465 13.9126L3.19225 14.5068C3.7826 14.0522 4.42726 13.8049 5.06756 13.747L5 13L4.93244 12.253C3.9939 12.3379 3.08133 12.699 2.27704 13.3184L2.73465 13.9126ZM5.5 11V10.25C4.5335 10.25 3.75 9.4665 3.75 8.5H3H2.25C2.25 10.2949 3.70507 11.75 5.5 11.75V11ZM3 8.5H3.75C3.75 7.5335 4.5335 6.75 5.5 6.75V6V5.25C3.70507 5.25 2.25 6.70508 2.25 8.5H3ZM8.0838 15.1112L7.68936 14.4733C7.25959 14.739 6.19706 15.2962 5.51955 15.9849C5.17103 16.3391 4.82343 16.8221 4.76005 17.4242C4.69225 18.0683 4.96565 18.6646 5.48722 19.1806L6.0147 18.6474L6.54218 18.1142C6.24789 17.8231 6.24428 17.6527 6.25181 17.5812C6.26376 17.4676 6.34384 17.2859 6.58883 17.0368C7.09836 16.5189 7.88624 16.1152 8.47824 15.7491L8.0838 15.1112ZM6.0147 18.6474L5.48721 19.1806C6.34883 20.033 7.41616 20.75 8.81563 20.75V20V19.25C7.98288 19.25 7.27473 18.839 6.54218 18.1142L6.0147 18.6474ZM8.81563 20V20.75H15.1844V20V19.25H8.81563V20ZM15.1844 20V20.75C16.5839 20.75 17.6512 20.033 18.5128 19.1806L17.9853 18.6474L17.4578 18.1142C16.7252 18.839 16.0171 19.25 15.1844 19.25V20ZM17.9853 18.6474L18.5128 19.1806C19.0343 18.6646 19.3077 18.0683 19.2399 17.4242C19.1766 16.8221 18.829 16.3391 18.4805 15.9849C17.8029 15.2962 16.7404 14.739 16.3106 14.4733L15.9162 15.1112L15.5218 15.7491C16.1138 16.1152 16.9016 16.5189 17.4112 17.0368C17.6562 17.2859 17.7362 17.4676 17.7482 17.5812C17.7557 17.6527 17.7521 17.8231 17.4578 18.1142L17.9853 18.6474ZM15.9162 15.1112L16.3106 14.4733C13.6728 12.8422 10.3272 12.8422 7.68936 14.4733L8.0838 15.1112L8.47824 15.7491C10.6326 14.417 13.3674 14.417 15.5218 15.7491L15.9162 15.1112ZM15.5 7.5H14.75C14.75 9.01879 13.5188 10.25 12 10.25V11V11.75C14.3472 11.75 16.25 9.84721 16.25 7.5H15.5ZM12 11V10.25C10.4812 10.25 9.25 9.01879 9.25 7.5H8.5H7.75C7.75 9.84721 9.65278 11.75 12 11.75V11ZM8.5 7.5H9.25C9.25 5.98121 10.4812 4.75 12 4.75V4V3.25C9.65278 3.25 7.75 5.15279 7.75 7.5H8.5ZM12 4V4.75C13.5188 4.75 14.75 5.98121 14.75 7.5H15.5H16.25C16.25 5.15279 14.3472 3.25 12 3.25V4Z" fill="currentColor"/>
</g>
<defs>
<clipPath id="clip0_93_502">
<rect width="24" height="24" fill="currentColor"/>
</clipPath>
</defs>
</svg>