<svg width="24" height="24" viewBox="0 0 24 24" fill="none" xmlns="http://www.w3.org/2000/svg">
<path d="M16.5 17L17.4989 18M17.4989 18L18.5 19M17.4989 18L18.5 17M17.4989 18L16.5 19M21.5 18C21.5 20.2091 19.7091 22 17.5 22C15.2909 22 13.5 20.2091 13.5 18C13.5 15.7909 15.2909 14 17.5 14C19.7091 14 21.5 15.7909 21.5 18Z" stroke="#1B1C1B" strokeWidth="1.5" stroke-linecap="round"/>
<path d="M6.95309 17.4869C6.66965 17.7889 6.68474 18.2636 6.98679 18.547C7.28884 18.8305 7.76348 18.8154 8.04691 18.5133L6.95309 17.4869ZM10.5791 17.2459C10.991 17.2022 11.2895 16.8329 11.2458 16.421C11.2021 16.0091 10.8328 15.7106 10.4209 15.7543L10.5791 17.2459ZM8.50279 4.75122C8.91701 4.74968 9.25154 4.41265 9.24999 3.99843C9.24845 3.58421 8.91142 3.24969 8.49721 3.25122L8.50279 4.75122ZM13.5028 3.25122C13.0886 3.24969 12.7515 3.58421 12.75 3.99843C12.7485 4.41265 13.083 4.74968 13.4972 4.75122L13.5028 3.25122ZM18.75 12.0001C18.75 12.4143 19.0858 12.7501 19.5 12.7501C19.9142 12.7501 20.25 12.4143 20.25 12.0001H18.75ZM10.5 22.7501C10.9142 22.7501 11.25 22.4143 11.25 22.0001C11.25 21.5859 10.9142 21.2501 10.5 21.2501V22.7501ZM12.25 12.0001C12.25 12.7017 11.6933 13.2501 11.0315 13.2501V14.7501C12.5441 14.7501 13.75 13.5076 13.75 12.0001H12.25ZM11.0315 13.2501C10.3698 13.2501 9.81307 12.7017 9.81307 12.0001H8.31307C8.31307 13.5076 9.51898 14.7501 11.0315 14.7501V13.2501ZM9.81307 12.0001C9.81307 11.2985 10.3698 10.7501 11.0315 10.7501V9.25006C9.51898 9.25006 8.31307 10.4926 8.31307 12.0001H9.81307ZM11.0315 10.7501C11.6933 10.7501 12.25 11.2985 12.25 12.0001H13.75C13.75 10.4926 12.5441 9.25006 11.0315 9.25006V10.7501ZM8.04691 18.5133C8.72491 17.7908 9.62319 17.3473 10.5791 17.2459L10.4209 15.7543C9.10487 15.8939 7.87535 16.5041 6.95309 17.4869L8.04691 18.5133ZM3.25 15.3685V10.6317H1.75V15.3685H3.25ZM9.5 21.2501C7.82998 21.2501 6.64898 21.2487 5.75431 21.1347C4.87725 21.023 4.38967 20.8148 4.04093 20.4845L3.00932 21.5734C3.68571 22.2142 4.53565 22.4916 5.56479 22.6227C6.57633 22.7515 7.8702 22.7501 9.5 22.7501V21.2501ZM1.75 15.3685C1.75 16.9092 1.74823 18.1444 1.88558 19.1122C2.02661 20.106 2.32721 20.9272 3.00932 21.5734L4.04093 20.4845C3.69792 20.1595 3.48595 19.7136 3.3707 18.9014C3.25177 18.0634 3.25 16.9539 3.25 15.3685H1.75ZM20.25 10.6317C20.25 9.0909 20.2518 7.85576 20.1144 6.88792C19.9734 5.89416 19.6728 5.07297 18.9907 4.42676L17.9591 5.51569C18.3021 5.84064 18.514 6.28657 18.6293 7.09868C18.7482 7.93671 18.75 9.04621 18.75 10.6317H20.25ZM3.25 10.6317C3.25 9.04621 3.25177 7.93671 3.3707 7.09868C3.48595 6.28657 3.69792 5.84064 4.04093 5.51569L3.00932 4.42676C2.32721 5.07297 2.02661 5.89416 1.88558 6.88792C1.74823 7.85576 1.75 9.0909 1.75 10.6317H3.25ZM8.49721 3.25122C7.18295 3.25612 6.10891 3.28044 5.24135 3.4247C4.35533 3.57203 3.61291 3.85494 3.00932 4.42676L4.04093 5.51569C4.35322 5.21984 4.77604 5.02266 5.48739 4.90438C6.2172 4.78302 7.17265 4.75618 8.50279 4.75122L8.49721 3.25122ZM13.4972 4.75122C14.8273 4.75618 15.7828 4.78302 16.5126 4.90438C17.224 5.02266 17.6468 5.21984 17.9591 5.51569L18.9907 4.42676C18.3871 3.85494 17.6447 3.57203 16.7587 3.4247C15.8911 3.28044 14.817 3.25612 13.5028 3.25122L13.4972 4.75122ZM18.75 10.6317V12.0001H20.25V10.6317H18.75ZM10.5 21.2501H9.5V22.7501H10.5V21.2501ZM12.4971 3.80071L12.5804 4.16084L14.0418 3.82281L13.9586 3.46269L12.4971 3.80071ZM11.4981 5.25006H10.5019V6.75006H11.4981V5.25006ZM9.41957 4.16084L9.50286 3.80071L8.04145 3.46269L7.95815 3.82281L9.41957 4.16084ZM10.5019 5.25006C10.071 5.25006 9.7969 5.24939 9.59356 5.23157C9.49716 5.22312 9.43739 5.21227 9.4 5.20247C9.38224 5.19781 9.37137 5.19386 9.3655 5.19146C9.36256 5.19026 9.36069 5.18936 9.35969 5.18886C9.35918 5.1886 9.35855 5.18825 9.35835 5.18814L8.57968 6.4702C8.86483 6.64338 9.17387 6.70053 9.46262 6.72584C9.74679 6.75074 10.0984 6.75006 10.5019 6.75006V5.25006ZM7.95815 3.82281C7.87686 4.17424 7.80134 4.49621 7.76888 4.76487C7.73518 5.04381 7.73287 5.36611 7.87896 5.68814L9.24497 5.06845C9.2627 5.10753 9.23876 5.10444 9.25805 4.9448C9.27858 4.77488 9.33069 4.54509 9.41957 4.16084L7.95815 3.82281ZM9.35835 5.18814C9.29699 5.15087 9.26197 5.10592 9.24497 5.06845L7.87896 5.68814C8.02824 6.01722 8.27656 6.28609 8.57968 6.4702L9.35835 5.18814ZM12.5804 4.16084C12.6693 4.54509 12.7214 4.77488 12.742 4.9448C12.7612 5.10444 12.7373 5.10753 12.755 5.06845L14.121 5.68814C14.2671 5.36611 14.2648 5.04381 14.2311 4.76487C14.1987 4.49621 14.1231 4.17424 14.0418 3.82281L12.5804 4.16084ZM11.4981 6.75006C11.9016 6.75006 12.2532 6.75074 12.5374 6.72584C12.8261 6.70053 13.1352 6.64338 13.4203 6.4702L12.6417 5.18814C12.6415 5.18825 12.6408 5.1886 12.6403 5.18886C12.6393 5.18936 12.6374 5.19026 12.6345 5.19146C12.6286 5.19386 12.6178 5.19781 12.6 5.20247C12.5626 5.21227 12.5028 5.22312 12.4064 5.23157C12.2031 5.24939 11.929 5.25006 11.4981 5.25006V6.75006ZM12.755 5.06845C12.738 5.10592 12.703 5.15087 12.6417 5.18814L13.4203 6.4702C13.7234 6.2861 13.9718 6.01722 14.121 5.68814L12.755 5.06845ZM11 2.75007C11.5097 2.75007 11.6409 2.75477 11.7403 2.77766L12.0768 1.31587C11.7704 1.24537 11.4312 1.25007 11 1.25007V2.75007ZM13.9586 3.46269C13.8729 3.09251 13.8035 2.76271 13.6506 2.48172L12.333 3.19849C12.3644 3.25626 12.3909 3.34126 12.4971 3.80071L13.9586 3.46269ZM11.7403 2.77766C12.0225 2.84259 12.2298 3.00893 12.333 3.19849L13.6506 2.48172C13.3245 1.88212 12.74 1.4685 12.0768 1.31587L11.7403 2.77766ZM11 1.25007C10.5688 1.25007 10.2296 1.24537 9.92323 1.31587L10.2597 2.77766C10.3591 2.75477 10.4903 2.75007 11 2.75007V1.25007ZM9.50286 3.80071C9.60914 3.34126 9.63562 3.25626 9.66705 3.19849L8.34938 2.48172C8.19653 2.76271 8.12707 3.09251 8.04145 3.46269L9.50286 3.80071ZM9.92323 1.31587C9.26005 1.4685 8.67555 1.88212 8.34938 2.48172L9.66705 3.19849C9.77016 3.00893 9.97753 2.84259 10.2597 2.77766L9.92323 1.31587Z" fill="#1B1C1B"/>
<path d="M7.5 18C8.41684 17.0229 9.72299 16.5115 11.0315 16.5002M13 12C13 13.1046 12.1187 14 11.0315 14C9.94438 14 9.06307 13.1046 9.06307 12C9.06307 10.8954 9.94438 10 11.0315 10C12.1187 10 13 10.8954 13 12Z" stroke="#1B1C1B" strokeWidth="1.5" stroke-linecap="round"/>
<path d="M8.5 4.00195C5.85561 4.01181 4.44101 4.10427 3.52513 4.97195C2.5 5.94312 2.5 7.5062 2.5 10.6324V15.3692C2.5 18.4954 2.5 20.0584 3.52513 21.0296C4.55025 22.0008 6.20017 22.0008 9.5 22.0008H11.5M13.5 4.00195C16.1444 4.01181 17.559 4.10427 18.4749 4.97195C19.5 5.94312 19.5 7.5062 19.5 10.6324V11.5008" stroke="#1B1C1B" strokeWidth="1.5" stroke-linecap="round" strokeLinejoin="round"/>
<path d="M8.77216 3.63163C8.8681 3.21682 8.91608 3.00942 9.00821 2.84004C9.22285 2.44546 9.61879 2.15548 10.0914 2.0467C10.2943 2 10.5296 2 11 2C11.4704 2 11.7057 2 11.9086 2.0467C12.3812 2.15548 12.7771 2.44545 12.9918 2.84004C13.0839 3.00942 13.1319 3.21682 13.2278 3.63163L13.3111 3.99176C13.4813 4.72744 13.5664 5.09528 13.438 5.37824C13.3549 5.5615 13.2132 5.71842 13.031 5.82911C12.7496 6 12.3324 6 11.4981 6H10.5019C9.66755 6 9.25038 6 8.96901 5.82911C8.78677 5.71842 8.6451 5.5615 8.56197 5.37824C8.43361 5.09528 8.51869 4.72744 8.68886 3.99176L8.77216 3.63163Z" stroke="#1B1C1B" strokeWidth="1.5"/>
</svg>
