<svg viewBox="0 0 24 24" fill="none" xmlns="http://www.w3.org/2000/svg">
<g clip-path="url(#clip0_93_478)">
<path d="M7.08752 3.24488C7.49891 3.19654 7.79321 2.82386 7.74488 2.41248C7.69654 2.00109 7.32386 1.70679 6.91248 1.75512L7 2.5L7.08752 3.24488ZM3.89124 3.75363L3.35885 3.22536L3.35885 3.22537L3.89124 3.75363ZM3.89124 20.0979L3.35885 20.6262L3.35885 20.6262L3.89124 20.0979ZM20.1088 20.0979L20.6412 20.6262L20.6412 20.6262L20.1088 20.0979ZM20.1088 3.75363L20.6412 3.22538L20.6412 3.22534L20.1088 3.75363ZM17.0875 1.75512C16.6761 1.70679 16.3035 2.00109 16.2551 2.41248C16.2068 2.82386 16.5011 3.19654 16.9125 3.24488L17 2.5L17.0875 1.75512ZM10.0378 7.47726C9.74911 7.18023 9.27428 7.17349 8.97726 7.46219C8.68023 7.75089 8.67349 8.22572 8.96219 8.52274L9.5 8L10.0378 7.47726ZM15.0378 8.52273C15.3265 8.22569 15.3198 7.75087 15.0227 7.46217C14.7257 7.17348 14.2509 7.18024 13.9622 7.47727L14.5 8L15.0378 8.52273ZM12.75 2.5C12.75 2.08579 12.4142 1.75 12 1.75C11.5858 1.75 11.25 2.08579 11.25 2.5H12H12.75ZM14.6995 14.9472L15.3706 15.2821L15.3706 15.2821L14.6995 14.9472ZM9.30054 14.9472L9.97161 14.6123L9.97161 14.6123L9.30054 14.9472ZM7 2.5L6.91248 1.75512C5.42841 1.9295 4.26333 2.31383 3.35885 3.22536L3.89124 3.75363L4.42363 4.28189C4.98521 3.71593 5.75697 3.40122 7.08752 3.24488L7 2.5ZM3.89124 3.75363L3.35885 3.22537C2.50169 4.08923 2.11535 5.18811 1.93049 6.57382C1.74843 7.93855 1.75 9.69015 1.75 11.9258H2.5H3.25C3.25 9.64807 3.25157 8.01464 3.41732 6.77217C3.58027 5.55067 3.88955 4.82015 4.42363 4.28189L3.89124 3.75363ZM2.5 11.9258H1.75C1.75 14.1614 1.74843 15.913 1.93049 17.2777C2.11535 18.6634 2.50169 19.7623 3.35885 20.6262L3.89124 20.0979L4.42363 19.5696C3.88955 19.0314 3.58027 18.3009 3.41732 17.0794C3.25157 15.8369 3.25 14.2035 3.25 11.9258H2.5ZM3.89124 20.0979L3.35885 20.6262C4.21682 21.4908 5.30953 21.8813 6.68726 22.0679C8.04281 22.2516 9.78219 22.25 12 22.25V21.5V20.75C9.73947 20.75 8.1201 20.7484 6.88866 20.5815C5.67941 20.4177 4.95691 20.1071 4.42363 19.5696L3.89124 20.0979ZM12 21.5V22.25C14.2178 22.25 15.9572 22.2516 17.3127 22.0679C18.6905 21.8813 19.7832 21.4908 20.6412 20.6262L20.1088 20.0979L19.5764 19.5696C19.0431 20.1071 18.3206 20.4177 17.1113 20.5815C15.8799 20.7484 14.2605 20.75 12 20.75V21.5ZM20.1088 20.0979L20.6412 20.6262C21.4983 19.7623 21.8847 18.6634 22.0695 17.2777C22.2516 15.913 22.25 14.1614 22.25 11.9258H21.5H20.75C20.75 14.2035 20.7484 15.8369 20.5827 17.0794C20.4197 18.3009 20.1105 19.0314 19.5764 19.5696L20.1088 20.0979ZM21.5 11.9258H22.25C22.25 9.69015 22.2516 7.93855 22.0695 6.57382C21.8847 5.18811 21.4983 4.08924 20.6412 3.22538L20.1088 3.75363L19.5764 4.28188C20.1105 4.82014 20.4197 5.55066 20.5827 6.77216C20.7484 8.01464 20.75 9.64807 20.75 11.9258H21.5ZM20.1088 3.75363L20.6412 3.22534C19.7366 2.31384 18.5716 1.92951 17.0875 1.75512L17 2.5L16.9125 3.24488C18.243 3.40121 19.0148 3.71592 19.5764 4.28192L20.1088 3.75363ZM9.5 8L8.96219 8.52274C9.05089 8.614 9.19652 8.79582 9.40971 9.06724C9.60953 9.32164 9.85057 9.63067 10.0995 9.92449C10.3458 10.2151 10.6213 10.5168 10.8968 10.7515C11.0348 10.869 11.1904 10.985 11.3578 11.0746C11.5193 11.161 11.7417 11.25 12 11.25V10.5V9.75C12.0832 9.75 12.1116 9.7767 12.0656 9.75206C12.0255 9.7306 11.9602 9.68681 11.8694 9.60952C11.6873 9.4544 11.4738 9.22601 11.2439 8.95478C11.0169 8.68682 10.7949 8.40245 10.5893 8.14069C10.3971 7.89596 10.1949 7.63885 10.0378 7.47726L9.5 8ZM14.5 8L13.9622 7.47727C13.8051 7.63886 13.6029 7.89596 13.4107 8.14069C13.2051 8.40245 12.9831 8.68682 12.7561 8.95478C12.5262 9.22601 12.3127 9.4544 12.1306 9.60951C12.0399 9.68681 11.9745 9.73059 11.9344 9.75205C11.8884 9.7767 11.9168 9.75 12 9.75V10.5V11.25C12.2583 11.25 12.4807 11.161 12.6422 11.0746C12.8096 10.985 12.9652 10.869 13.1032 10.7515C13.3787 10.5168 13.6543 10.2151 13.9005 9.9245C14.1494 9.63067 14.3905 9.32164 14.5903 9.06724C14.8035 8.79581 14.9491 8.61399 15.0378 8.52273L14.5 8ZM12 10.5H12.75V2.5H12H11.25V10.5H12ZM21.5 13.5V12.75H16.5743V13.5V14.25H21.5V13.5ZM16.5743 13.5V12.75C15.2941 12.75 14.4389 13.7898 14.0284 14.6123L14.6995 14.9472L15.3706 15.2821C15.7023 14.6174 16.1703 14.25 16.5743 14.25V13.5ZM14.6995 14.9472L14.0284 14.6123C13.7382 15.1938 13.1746 15.75 12 15.75V16.5V17.25C13.8032 17.25 14.8544 16.3164 15.3706 15.2821L14.6995 14.9472ZM12 16.5V15.75C10.8254 15.75 10.2618 15.1938 9.97161 14.6123L9.30054 14.9472L8.62947 15.2821C9.14562 16.3164 10.1968 17.25 12 17.25V16.5ZM9.30054 14.9472L9.97161 14.6123C9.56112 13.7898 8.70584 12.75 7.42566 12.75V13.5V14.25C7.8297 14.25 8.29772 14.6174 8.62947 15.2821L9.30054 14.9472ZM7.42566 13.5V12.75H2.5V13.5V14.25H7.42566V13.5Z" fill="currentColor"/>
</g>
<defs>
<clipPath id="clip0_93_478">
<rect width="24" height="24" fill="currentColor"/>
</clipPath>
</defs>
</svg>