<svg viewBox="0 0 24 24" fill="none" xmlns="http://www.w3.org/2000/svg">
<path d="M22 12H21.25C21.25 17.1086 17.1086 21.25 12 21.25V22V22.75C17.9371 22.75 22.75 17.9371 22.75 12H22ZM12 22V21.25C6.89137 21.25 2.75 17.1086 2.75 12H2H1.25C1.25 17.9371 6.06294 22.75 12 22.75V22ZM2 12H2.75C2.75 6.89137 6.89137 2.75 12 2.75V2V1.25C6.06294 1.25 1.25 6.06294 1.25 12H2ZM12 2V2.75C17.1086 2.75 21.25 6.89137 21.25 12H22H22.75C22.75 6.06294 17.9371 1.25 12 1.25V2ZM2 12V12.75H22V12V11.25H2V12ZM16 12H15.25C15.25 14.6904 14.8124 17.0916 14.1321 18.7925C13.791 19.645 13.4037 20.2846 13.012 20.6988C12.6218 21.1114 12.2796 21.25 12 21.25V22V22.75C12.825 22.75 13.535 22.3289 14.1019 21.7295C14.6673 21.1316 15.1419 20.3067 15.5248 19.3496C16.2921 17.4312 16.75 14.8324 16.75 12H16ZM12 22V21.25C11.7204 21.25 11.3781 21.1114 10.9879 20.6988C10.5962 20.2846 10.2089 19.645 9.86793 18.7925C9.18757 17.0916 8.75 14.6904 8.75 12H8H7.25C7.25 14.8324 7.70786 17.4312 8.47521 19.3496C8.85806 20.3067 9.33269 21.1316 9.8981 21.7295C10.465 22.3289 11.175 22.75 12 22.75V22ZM8 12H8.75C8.75 9.30956 9.18757 6.90837 9.86793 5.20747C10.2089 4.35495 10.5962 3.71536 10.9879 3.30118C11.3781 2.88858 11.7204 2.75 12 2.75V2V1.25C11.175 1.25 10.465 1.67106 9.8981 2.27052C9.33269 2.86839 8.85806 3.69327 8.47521 4.65039C7.70786 6.56878 7.25 9.16759 7.25 12H8ZM12 2V2.75C12.2796 2.75 12.6218 2.88858 13.012 3.30118C13.4037 3.71536 13.791 4.35495 14.1321 5.20748C14.8124 6.90837 15.25 9.30957 15.25 12H16H16.75C16.75 9.16758 16.2921 6.56878 15.5248 4.65039C15.1419 3.69327 14.6673 2.86839 14.1019 2.27052C13.535 1.67107 12.825 1.25 12 1.25V2Z" fill="currentColor"/>
</svg>