<svg viewBox="0 0 24 24" fill="none" xmlns="http://www.w3.org/2000/svg">
<g clipPath="url(#clip0_93_506)">
<path d="M22.0099 5.88105C22.031 6.86675 22.0152 13.3709 21.9941 14.3566C21.9288 17.4222 21.8961 18.9549 20.765 20.0904C19.6338 21.2258 18.0596 21.2653 14.9111 21.3444C12.9706 21.3932 11.0492 21.3932 9.10876 21.3444C5.96026 21.2653 4.38601 21.2258 3.25489 20.0904C2.12376 18.9549 2.09107 17.4222 2.0257 14.3566C2.00468 13.3709 1.9889 7.36675 2.00992 6.38105M2.00993 6.88104L8.92295 10.798C11.4715 12.242 12.5483 12.242 15.0969 10.798L22.0099 6.88104L22.0099 5.73578C22.0099 5.52331 21.8756 5.33404 21.6751 5.26385L12.6706 2.11228C12.2429 1.96257 11.777 1.96257 11.3492 2.11228L2.34475 5.26385C2.14421 5.33404 2.00992 5.52331 2.00992 5.73578L2.00993 6.88104Z" stroke="currentColor" strokeWidth="1.5"/>
</g>
<defs>
<clipPath id="clip0_93_506">
<rect width="24" height="24" fill="currentColor"/>
</clipPath>
</defs>
</svg>