<svg viewBox="0 0 24 24" fill="none" xmlns="http://www.w3.org/2000/svg">
<path d="M15.2965 13.9026C15.5188 13.7388 15.5663 13.4258 15.4025 13.2035C15.2753 13.0308 15.1481 12.8666 15.0365 12.7236C14.8138 12.4382 14.5072 12.0559 14.174 11.6722C13.843 11.291 13.4759 10.8968 13.1333 10.5941C12.9625 10.4432 12.786 10.3044 12.6139 10.2007C12.4556 10.1052 12.238 10 11.9999 10C11.7619 10 11.5442 10.1052 11.3859 10.2007C11.2138 10.3044 11.0373 10.4432 10.8666 10.5941C10.524 10.8968 10.1569 11.291 9.82591 11.6722C9.49274 12.0559 9.18608 12.4382 8.96332 12.7236C8.85173 12.8666 8.72451 13.0308 8.59731 13.2035C8.43356 13.4258 8.48105 13.7388 8.7034 13.9026C8.79278 13.9684 8.89681 14.0001 8.99991 14H11.9999H15C15.1031 14.0001 15.2071 13.9684 15.2965 13.9026Z" fill="currentColor"/>
</svg>