<svg viewBox="0 0 24 24" fill="none" xmlns="http://www.w3.org/2000/svg">
<path d="M19.8234 4.9228L12.3234 2.6728C12.1555 2.62238 11.9781 2.61193 11.8053 2.64228C11.6326 2.67262 11.4694 2.74293 11.3287 2.84758C11.1879 2.95223 11.0736 3.08833 10.9949 3.24501C10.9161 3.40169 10.8751 3.57462 10.875 3.74999V13.1456C9.96267 12.5626 8.88221 12.2999 7.80405 12.399C6.72589 12.498 5.71138 12.9532 4.92053 13.6926C4.12967 14.4321 3.60748 15.4137 3.43631 16.4828C3.26515 17.5519 3.45474 18.6476 3.9752 19.597C4.49566 20.5464 5.31736 21.2955 6.31071 21.7262C7.30405 22.1569 8.41251 22.2447 9.46126 21.9757C10.51 21.7067 11.4394 21.0962 12.1027 20.2405C12.7661 19.3848 13.1258 18.3327 13.125 17.25V5.26218L19.1766 7.07718C19.3181 7.11965 19.4667 7.13382 19.6138 7.11888C19.7608 7.10394 19.9035 7.06019 20.0337 6.99011C20.1638 6.92003 20.2789 6.825 20.3723 6.71045C20.4657 6.5959 20.5357 6.46407 20.5781 6.32249C20.6206 6.18091 20.6348 6.03235 20.6198 5.88529C20.6049 5.73823 20.5611 5.59555 20.4911 5.46541C20.421 5.33526 20.326 5.22019 20.2114 5.12677C20.0969 5.03335 19.965 4.9634 19.8234 4.92093V4.9228ZM8.25001 19.875C7.73083 19.875 7.22331 19.721 6.79163 19.4326C6.35995 19.1442 6.0235 18.7342 5.82482 18.2545C5.62614 17.7749 5.57416 17.2471 5.67544 16.7379C5.77673 16.2287 6.02674 15.7609 6.39385 15.3938C6.76096 15.0267 7.22869 14.7767 7.73789 14.6754C8.24709 14.5741 8.77489 14.6261 9.25455 14.8248C9.73421 15.0235 10.1442 15.3599 10.4326 15.7916C10.7211 16.2233 10.875 16.7308 10.875 17.25C10.875 17.9462 10.5984 18.6139 10.1062 19.1061C9.61388 19.5984 8.9462 19.875 8.25001 19.875Z" fill="currentColor"/>
</svg>