<svg width="24" height="24" viewBox="0 0 24 24" fill="none" xmlns="http://www.w3.org/2000/svg">
<path d="M22 11.0374C21.191 11.8597 19.4261 13.0868 17.066 14.0397M17.066 14.0397C16.5256 14.2579 15.9514 14.4601 15.3467 14.6373C14.5936 14.9007 13.03 15.8093 13.0875 17.8143L13.0221 20.9638C13.022 21.3098 13.4374 21.8612 14.2334 21.9745C15.2152 22.1142 16.6684 21.6968 17.3353 20.8451C18.3306 19.574 18.2778 16.5774 17.066 14.0397ZM2 11.0058C2.80901 11.828 4.52622 13.0868 6.88627 14.0397M6.88627 14.0397C7.42672 14.2579 8.00089 14.4601 8.60558 14.6373C9.95196 15.0319 10.9358 16.197 10.9897 17.6967C11.0436 19.1963 11.1109 20.0521 10.8648 20.4548C10.6186 20.8574 10.0401 21.0242 9.3936 21.0587C8.74709 21.0932 7.37332 20.7427 6.70646 19.8911C5.71115 18.6199 5.67453 16.5774 6.88627 14.0397ZM9.9755 10.5C9.9755 11.3284 9.30153 12 8.47015 12C7.63877 12 6.96481 11.3284 6.96481 10.5C6.96481 9.67157 7.63877 9 8.47015 9C9.30153 9 9.9755 9.67157 9.9755 10.5ZM17.0004 10.5C17.0004 11.3284 16.3265 12 15.4951 12C14.6637 12 13.9897 11.3284 13.9897 10.5C13.9897 9.67157 14.6637 9 15.4951 9C16.3265 9 17.0004 9.67157 17.0004 10.5Z" stroke="#1B1C1B" stroke-width="1.5" stroke-linecap="round" stroke-linejoin="round"/>
<path d="M20.0092 9C20 5.8857 19.9013 4.23467 18.8344 3.17157C17.6586 2 15.7663 2 11.9817 2C8.197 2 6.30467 2 5.12891 3.17157C4.06204 4.23467 3.96325 5.8857 3.9541 9" stroke="#1B1C1B" stroke-width="1.5" stroke-linecap="round" stroke-linejoin="round"/>
</svg>
