<svg width="24" height="24" viewBox="0 0 24 24" fill="none" xmlns="http://www.w3.org/2000/svg">
<path d="M16 17H10" stroke="#1B1C1B" strokeWidth="1.5" stroke-linecap="round"/>
<path d="M8 4V8M5 2V10M2 5V7M11 5V7" stroke="#1B1C1B" strokeWidth="1.5" stroke-linecap="round"/>
<path d="M4 13C4.00166 17.1517 4.0475 19.2749 5.31796 20.6124C6.63598 22 8.7573 22 12.9999 22H13.4499C17.2567 22 19.16 22 20.4224 20.8649C20.6017 20.7038 20.7686 20.528 20.9217 20.3393C21.9999 19.0103 21.9999 17.0065 21.9999 12.9989C21.9999 8.99125 21.9999 6.98744 20.9217 5.65845C20.7686 5.46974 20.6017 5.29398 20.4224 5.1328C19.319 4.14066 17.7258 4.01573 14.7999 4H13.9999" stroke="#1B1C1B" strokeWidth="1.5" stroke-linecap="round"/>
</svg>
