<svg viewBox="0 0 24 24" fill="none" xmlns="http://www.w3.org/2000/svg">
<path d="M5.17157 3.17157L4.64124 2.64124L4.64124 2.64124L5.17157 3.17157ZM18.8284 3.17157L18.2981 3.70188L18.2981 3.7019L18.8284 3.17157ZM18.8284 17.8284L18.2981 17.298L18.298 17.2981L18.8284 17.8284ZM5.17157 17.8284L5.7019 17.2981L5.70188 17.2981L5.17157 17.8284ZM7.62404 19.416C7.8538 19.0714 7.76067 18.6057 7.41603 18.376C7.07138 18.1462 6.60573 18.2393 6.37596 18.584L7 19L7.62404 19.416ZM4.37596 21.584C4.1462 21.9286 4.23933 22.3943 4.58397 22.624C4.92862 22.8538 5.39427 22.7607 5.62404 22.416L5 22L4.37596 21.584ZM17.624 18.584C17.3943 18.2393 16.9286 18.1462 16.584 18.376C16.2393 18.6057 16.1462 19.0714 16.376 19.416L17 19L17.624 18.584ZM18.376 22.416C18.6057 22.7607 19.0714 22.8538 19.416 22.624C19.7607 22.3943 19.8538 21.9286 19.624 21.584L19 22L18.376 22.416ZM4.5 15.25C4.08579 15.25 3.75 15.5858 3.75 16C3.75 16.4142 4.08579 16.75 4.5 16.75V16V15.25ZM6.5 16.75C6.91421 16.75 7.25 16.4142 7.25 16C7.25 15.5858 6.91421 15.25 6.5 15.25V16V16.75ZM17.5 15.25C17.0858 15.25 16.75 15.5858 16.75 16C16.75 16.4142 17.0858 16.75 17.5 16.75V16V15.25ZM19.5 16.75C19.9142 16.75 20.25 16.4142 20.25 16C20.25 15.5858 19.9142 15.25 19.5 15.25V16V16.75ZM5 4.25C4.58579 4.25 4.25 4.58579 4.25 5C4.25 5.41421 4.58579 5.75 5 5.75V5V4.25ZM19 5.75C19.4142 5.75 19.75 5.41421 19.75 5C19.75 4.58579 19.4142 4.25 19 4.25V5V5.75ZM4 11H4.75V10H4H3.25V11H4ZM4 10H4.75C4.75 8.09318 4.75159 6.73851 4.88976 5.71085C5.02502 4.70476 5.27869 4.12511 5.7019 3.7019L5.17157 3.17157L4.64124 2.64124C3.89288 3.38961 3.56076 4.33856 3.40313 5.51098C3.24841 6.66182 3.25 8.13558 3.25 10H4ZM5.17157 3.17157L5.7019 3.7019C6.12511 3.27869 6.70476 3.02502 7.71085 2.88976C8.73851 2.75159 10.0932 2.75 12 2.75V2V1.25C10.1356 1.25 8.66182 1.24841 7.51098 1.40313C6.33856 1.56076 5.38961 1.89288 4.64124 2.64124L5.17157 3.17157ZM12 2V2.75C13.9068 2.75 15.2615 2.75159 16.2892 2.88976C17.2953 3.02502 17.8749 3.27869 18.2981 3.70188L18.8284 3.17157L19.3587 2.64126C18.6104 1.89288 17.6614 1.56076 16.489 1.40313C15.3382 1.24841 13.8644 1.25 12 1.25V2ZM18.8284 3.17157L18.2981 3.7019C18.7213 4.12512 18.975 4.70477 19.1102 5.71085C19.2484 6.73851 19.25 8.09318 19.25 10H20H20.75C20.75 8.13558 20.7516 6.66182 20.5969 5.51097C20.4392 4.33855 20.1071 3.3896 19.3587 2.64124L18.8284 3.17157ZM20 10H19.25V11H20H20.75V10H20ZM20 11H19.25C19.25 12.9068 19.2484 14.2615 19.1102 15.2892C18.975 16.2952 18.7213 16.8749 18.2981 17.298L18.8284 17.8284L19.3587 18.3588C20.1071 17.6104 20.4392 16.6614 20.5969 15.489C20.7516 14.3382 20.75 12.8644 20.75 11H20ZM18.8284 17.8284L18.298 17.2981C17.8749 17.7213 17.2952 17.975 16.2892 18.1102C15.2615 18.2484 13.9068 18.25 12 18.25V19V19.75C13.8644 19.75 15.3382 19.7516 16.489 19.5969C17.6614 19.4392 18.6104 19.1071 19.3588 18.3587L18.8284 17.8284ZM12 19V18.25C10.0932 18.25 8.73851 18.2484 7.71085 18.1102C6.70477 17.975 6.12512 17.7213 5.7019 17.2981L5.17157 17.8284L4.64124 18.3587C5.3896 19.1071 6.33855 19.4392 7.51097 19.5969C8.66182 19.7516 10.1356 19.75 12 19.75V19ZM5.17157 17.8284L5.70188 17.2981C5.27869 16.8749 5.02502 16.2953 4.88976 15.2892C4.75159 14.2615 4.75 12.9068 4.75 11H4H3.25C3.25 12.8644 3.24841 14.3382 3.40313 15.489C3.56076 16.6614 3.89288 17.6104 4.64126 18.3587L5.17157 17.8284ZM4 12C3.80595 12.7245 3.80606 12.7245 3.80619 12.7245C3.80625 12.7245 3.8064 12.7246 3.80652 12.7246C3.80677 12.7247 3.80708 12.7248 3.80744 12.7249C3.80817 12.7251 3.80912 12.7253 3.8103 12.7256C3.81266 12.7262 3.81592 12.7271 3.82007 12.7282C3.82838 12.7304 3.84025 12.7335 3.85559 12.7374C3.88626 12.7454 3.93082 12.7567 3.98846 12.771C4.10375 12.7995 4.27148 12.8398 4.48537 12.888C4.913 12.9842 5.52598 13.1118 6.27398 13.2393C7.76734 13.4939 9.81159 13.75 12 13.75V13V12.25C9.92174 12.25 7.96599 12.0061 6.52602 11.7607C5.80735 11.6382 5.22033 11.5158 4.81463 11.4245C4.61186 11.3789 4.45458 11.3411 4.34904 11.315C4.29627 11.3019 4.25645 11.2917 4.23035 11.285C4.21731 11.2816 4.20769 11.2791 4.20161 11.2775C4.19857 11.2767 4.19641 11.2762 4.19515 11.2758C4.19451 11.2757 4.19411 11.2756 4.19392 11.2755C4.19383 11.2755 4.1938 11.2755 4.19382 11.2755C4.19383 11.2755 4.19389 11.2755 4.19389 11.2755C4.19397 11.2755 4.19405 11.2755 4 12ZM12 13V13.75C14.1884 13.75 16.2327 13.4939 17.726 13.2393C18.474 13.1118 19.087 12.9842 19.5146 12.888C19.7285 12.8398 19.8963 12.7995 20.0115 12.771C20.0692 12.7567 20.1137 12.7454 20.1444 12.7374C20.1598 12.7335 20.1716 12.7304 20.1799 12.7282C20.1841 12.7271 20.1873 12.7262 20.1897 12.7256C20.1909 12.7253 20.1918 12.7251 20.1926 12.7249C20.1929 12.7248 20.1932 12.7247 20.1935 12.7246C20.1936 12.7246 20.1937 12.7245 20.1938 12.7245C20.1939 12.7245 20.1941 12.7245 20 12C19.8059 11.2755 19.806 11.2755 19.8061 11.2755C19.8061 11.2755 19.8062 11.2755 19.8062 11.2755C19.8062 11.2755 19.8062 11.2755 19.8061 11.2755C19.8059 11.2756 19.8055 11.2757 19.8049 11.2758C19.8036 11.2762 19.8014 11.2767 19.7984 11.2775C19.7923 11.2791 19.7827 11.2816 19.7696 11.285C19.7436 11.2917 19.7037 11.3019 19.651 11.315C19.5454 11.3411 19.3881 11.3789 19.1854 11.4245C18.7797 11.5158 18.1927 11.6382 17.474 11.7607C16.034 12.0061 14.0783 12.25 12 12.25V13ZM7 19L6.37596 18.584L4.37596 21.584L5 22L5.62404 22.416L7.62404 19.416L7 19ZM17 19L16.376 19.416L18.376 22.416L19 22L19.624 21.584L17.624 18.584L17 19ZM4.5 16V16.75H6.5V16V15.25H4.5V16ZM17.5 16V16.75H19.5V16V15.25H17.5V16ZM5 5V5.75H19V5V4.25H5V5Z" fill="currentColor"/>
</svg>