<svg xmlns="http://www.w3.org/2000/svg" width="24" height="24" fill="none" viewBox="0 0 24 24">
  <path stroke="#1B1C1B" stroke-width="1.5" d="M19 14h1.239c1.11 0 1.944 1.08 1.726 2.239l-.265 1.408C21.443 19.015 20.313 20 19 20M5 14H3.761c-1.11 0-1.944 1.08-1.726 2.239l.265 1.408C2.557 19.015 3.687 20 5 20"/>
  <path stroke="#1B1C1B" stroke-linejoin="round" stroke-width="1.5" d="m18.27 10.5.521 4.697c.28 3.182.42 4.773-.521 5.788C17.328 22 15.713 22 12.48 22h-.962c-3.232 0-4.847 0-5.789-1.015-.941-1.015-.801-2.606-.521-5.788L5.73 10.5"/>
  <path stroke="#1B1C1B" stroke-width="1.5" d="M15 5a3 3 0 1 0-6 0M5.262 8.87c-.25-1.416-.376-2.124-.126-2.666a2.03 2.03 0 0 1 .793-.883C6.455 5 7.216 5 8.738 5h6.524c1.522 0 2.283 0 2.809.32.351.215.627.522.793.884.25.542.124 1.25-.126 2.666l-.05.289c-.098.549-.146.823-.242 1.076-.165.436-.436.83-.79 1.151-.204.186-.45.34-.94.65-.462.29-.693.435-.937.549a4.433 4.433 0 0 1-1.34.382c-.27.033-.547.033-1.102.033h-2.674c-.555 0-.832 0-1.102-.033a4.432 4.432 0 0 1-1.34-.383c-.244-.113-.475-.258-.936-.549-.491-.308-.737-.463-.942-.649a2.988 2.988 0 0 1-.789-1.151c-.096-.253-.144-.527-.241-1.076l-.051-.29Z"/>
  <path stroke="#1B1C1B" stroke-linecap="round" stroke-linejoin="round" stroke-width="2" d="m12 10.002.009-.002"/>
</svg>
