<svg xmlns="http://www.w3.org/2000/svg" width="24" height="24" fill="none" viewBox="0 0 24 24">
  <path stroke="#1B1C1B" stroke-linecap="round" stroke-linejoin="round" stroke-width="1.5" d="M4.498 5c-1.303-.022-1.928.234-2.275 1.142C2.013 6.693 2 7.296 2 7.886V18c.108.634.288 1.055.742 1.4.741.56 1.725.637 2.64.803 2.004.363 3.747.978 6.612 1.797m0 0c2.652-.821 4.55-1.39 6.327-1.718 1.422-.263 3.23-.44 3.55-1.85.085-.37.123-.835.116-1.432V9.266c0-1.504.228-3.521-1.144-4.136-.343-.153-.777-.18-1.354-.13m-7.495 17v-7m-.001-3a4.998 4.998 0 0 0 4.997-5c0-2.762-2.237-5-4.997-5m0 10a4.998 4.998 0 0 1-4.997-5c0-2.762 2.237-5 4.997-5m0 10c1.104 0 1.999-2.24 1.999-5 0-2.762-.895-5-2-5m0 10c-1.103 0-1.998-2.24-1.998-5 0-2.762.895-5 1.999-5"/>
</svg>
