<svg xmlns="http://www.w3.org/2000/svg" width="24" height="24" fill="none" viewBox="0 0 24 24">
  <path stroke="#1B1C1B" stroke-width="1.5" d="M22 14v-4c0-3.771 0-5.657-1.172-6.828C19.657 2 17.771 2 14 2h-2C8.229 2 6.343 2 5.172 3.172 4 4.343 4 6.229 4 10v4c0 3.771 0 5.657 1.172 6.828C6.343 22 8.229 22 12 22h2c3.771 0 5.657 0 6.828-1.172C22 19.657 22 17.771 22 14Z"/>
  <path stroke="#1B1C1B" stroke-linecap="round" stroke-linejoin="round" stroke-width="1.5" d="M5 6H2m3 6H2m3 6H2M17.5 7h-4m2 4h-2M9 22V2"/>
</svg>
