<svg xmlns="http://www.w3.org/2000/svg" width="24" height="24" fill="none" viewBox="0 0 24 24">
  <path stroke="#1B1C1B" stroke-linecap="round" stroke-linejoin="round" stroke-width="1.5" d="M14.825 5.376c2.8-1.995 5.088-2.882 5.884-2.085.797.796-.09 3.083-2.085 5.884m0 0c-1.132 1.59-2.621 3.344-4.363 5.086-1.742 1.742-3.497 3.231-5.086 4.363m9.45-9.45A7.19 7.19 0 0 1 19.2 12a7.2 7.2 0 0 1-10.025 6.624m-3.8-3.798c-1.994 2.8-2.88 5.087-2.084 5.883.796.797 3.083-.09 5.884-2.085M17.09 6.91A7.2 7.2 0 1 0 6.91 17.09"/>
</svg>
