<svg xmlns="http://www.w3.org/2000/svg" width="24" height="24" fill="none" viewBox="0 0 24 24">
  <path stroke="#1B1C1B" stroke-width="1.5" d="M3 11c0-3.75 0-5.625.955-6.939A5 5 0 0 1 5.06 2.955C6.375 2 8.251 2 12 2c3.75 0 5.625 0 6.939.955a5 5 0 0 1 1.106 1.106C21 5.375 21 7.251 21 11v2c0 3.75 0 5.625-.955 6.939a5 5 0 0 1-1.106 1.106C17.625 22 15.749 22 12 22c-3.75 0-5.625 0-6.939-.955a5 5 0 0 1-1.106-1.106C3 18.625 3 16.749 3 13v-2Z"/>
  <path stroke="#1B1C1B" stroke-linecap="round" stroke-linejoin="round" stroke-width="1.5" d="m15 13-.857-2m0 0-1.55-3.618A.642.642 0 0 0 12 7a.64.64 0 0 0-.592.382L9.858 11m4.285 0H9.857M9 13l.857-2M8 17h8"/>
</svg>
