<svg xmlns="http://www.w3.org/2000/svg" width="24" height="24" fill="none" viewBox="0 0 24 24">
  <path stroke="#1B1C1B" stroke-linecap="round" stroke-width="1.5" d="M18 7a8.045 8.045 0 0 0-7.458-5C6.101 2 2.5 5.582 2.5 10s3.6 8 8.042 8c1.678 0 3.235-.51 4.524-1.385"/>
  <path stroke="#1B1C1B" stroke-linecap="round" stroke-linejoin="round" stroke-width="1.5" d="M21.5 13c0 5.1-4.393 8.595-10 8.967-.456.03-.683.045-.842-.103-.158-.148-.158-.387-.158-.864v-3"/>
  <path stroke="#1B1C1B" stroke-width="1.5" d="M19 15a2.5 2.5 0 1 0 0-5 2.5 2.5 0 0 0 0 5Z"/>
  <path stroke="#1B1C1B" stroke-linecap="round" stroke-width="1.5" d="M10.5 12a2 2 0 1 0 0-4 2 2 0 0 0 0 4Z"/>
</svg>
