<svg xmlns="http://www.w3.org/2000/svg" width="24" height="24" fill="none" viewBox="0 0 24 24">
  <path stroke="#1B1C1B" stroke-linecap="round" stroke-linejoin="round" stroke-width="1.5" d="M19.5 13v-3c0-3.3 0-4.95-1.025-5.975C17.45 3 15.8 3 12.5 3h-3C6.2 3 4.55 3 3.525 4.025 2.5 5.05 2.5 6.7 2.5 10v5c0 3.3 0 4.95 1.025 5.975C4.55 22 6.2 22 9.5 22H11m5-20v2m-5-2v2M6 2v2m7.5 16s1 0 2 2c0 0 3.177-5 6-6"/>
  <path stroke="#1B1C1B" stroke-linecap="round" stroke-width="1.5" d="M7 15h4m-4-5h8"/>
</svg>
