<svg xmlns="http://www.w3.org/2000/svg" width="24" height="24" fill="none" viewBox="0 0 24 24">
  <path stroke="#1B1C1B" stroke-linecap="round" stroke-width="1.5" d="M9 14.5h4m-4-5h8"/>
  <path stroke="#1B1C1B" stroke-width="1.5" d="M4 10c0-3.771 0-5.657 1.172-6.828C6.343 2 8.229 2 12 2h1.5c3.771 0 5.657 0 6.828 1.172C21.5 4.343 21.5 6.229 21.5 10v4c0 3.771 0 5.657-1.172 6.828C19.157 22 17.271 22 13.5 22H12c-3.771 0-5.657 0-6.828-1.172C4 19.657 4 17.771 4 14v-4Z"/>
  <path stroke="#1B1C1B" stroke-linecap="round" stroke-linejoin="round" stroke-width="1.5" d="M5 6H2.5M5 12H2.5M5 18H2.5"/>
</svg>
