<svg xmlns="http://www.w3.org/2000/svg" width="24" height="24" fill="none" viewBox="0 0 24 24">
  <path stroke="#1B1C1B" stroke-linecap="round" stroke-linejoin="round" stroke-width="1.5" d="M3.5 9.368c0-3.473 0-5.21 1.025-6.289C5.55 2 7.2 2 10.5 2h3c3.3 0 4.95 0 5.975 1.08C20.5 4.157 20.5 5.894 20.5 9.367v5.264c0 3.473 0 5.21-1.025 6.289C18.45 22 16.8 22 13.5 22h-3c-3.3 0-4.95 0-5.975-1.08C3.5 19.843 3.5 18.106 3.5 14.633V9.368Z"/>
  <path stroke="#1B1C1B" stroke-linecap="round" stroke-linejoin="round" stroke-width="1.5" d="m8 2 .082.493c.2 1.197.3 1.796.72 2.152C9.22 5 9.827 5 11.041 5h1.917c1.213 0 1.82 0 2.24-.355.42-.356.52-.955.719-2.152L16 2"/>
  <path stroke="#1B1C1B" stroke-linecap="round" stroke-width="1.5" d="M8 16h4m-4-5h8"/>
</svg>
