<svg xmlns="http://www.w3.org/2000/svg" width="24" height="24" fill="none" viewBox="0 0 24 24">
  <path stroke="#1B1C1B" stroke-linecap="round" stroke-width="1.5" d="M7.014 16.003h4m-4-4.997h8m-5 10.994h1M7.51 22c-1.17-.025-1.97-.1-2.746-.325-1.05-.275-1.815-1.2-2.04-2.499-.285-1.224-.185-4.247-.21-7.846.002-2.791-.125-5.472.325-6.996.275-.5.5-2.324 4.225-2.3.625-.024 7.25-.074 8.3.026 3.5.075 3.85 1.874 4.05 3.573.127 1.25.1 3.248.1 5.372M7.014 2.01c.3 1.624.275 2.674 1.375 2.923.475.075 1.56.073 2.725.075 1.04.002 2.1.012 2.575-.1 1.175-.274 1.05-1.724 1.35-2.898m3.24 12.368c-1.375 1.4-4.023 3.898-4.023 4.073-.213.297-.4.9-.524 1.75-.157.787-.345 1.473-.125 1.673.22.2 1.048.032 1.923-.15.7-.075 1.35-.325 1.674-.574.475-.42 3.698-3.673 4.073-4.098.274-.375.3-1.075.06-1.5-.135-.3-.985-1.1-1.26-1.324-.5-.3-1.199-.35-1.798.15Z"/>
</svg>
