<svg xmlns="http://www.w3.org/2000/svg" width="24" height="24" fill="none" viewBox="0 0 24 24">
  <path stroke="#1B1C1B" stroke-linecap="round" stroke-linejoin="round" stroke-width="1.5" d="M20.198 2.5H3.802c-.75 0-1.126 0-1.386.177a1.005 1.005 0 0 0-.31.34c-.153.272-.116.64-.041 1.378.125 1.231.187 1.847.513 2.287.163.219.369.403.606.541.476.277 1.102.277 2.355.277h12.922c1.253 0 1.879 0 2.355-.277.237-.138.443-.322.606-.541.326-.44.388-1.056.513-2.287.075-.737.112-1.106-.04-1.379a1.004 1.004 0 0 0-.311-.339c-.26-.177-.636-.177-1.386-.177ZM3 7.5v5.04c0 3.753 0 5.629 1.172 6.794C5.235 20.392 6.886 20.49 10 20.5m11-8v-5"/>
  <path stroke="#1B1C1B" stroke-linecap="round" stroke-linejoin="round" stroke-width="2" d="M17 18h.009"/>
  <path stroke="#1B1C1B" stroke-width="1.5" d="M21.772 17.523c.152.213.228.32.228.477 0 .158-.076.264-.228.477-.683.958-2.427 3.023-4.772 3.023s-4.089-2.065-4.772-3.023c-.152-.213-.228-.32-.228-.477 0-.158.076-.264.228-.477.683-.958 2.427-3.023 4.772-3.023s4.089 2.065 4.772 3.023Z"/>
  <path stroke="#1B1C1B" stroke-linecap="round" stroke-width="1.5" d="M10 10.5h4"/>
</svg>
