<svg xmlns="http://www.w3.org/2000/svg" width="24" height="24" fill="none" viewBox="0 0 24 24">
  <path stroke="#1B1C1B" stroke-linecap="round" stroke-linejoin="round" stroke-width="1.5" d="M20.198 2.5H3.802c-.75 0-1.126 0-1.386.177a1.005 1.005 0 0 0-.31.339c-.153.273-.116.641-.041 1.379.125 1.23.187 1.846.513 2.286.163.22.369.404.606.542.476.277 1.102.277 2.355.277h12.922c1.253 0 1.879 0 2.355-.277.237-.138.443-.323.606-.542.326-.44.388-1.055.513-2.286.075-.738.112-1.106-.04-1.38a1.004 1.004 0 0 0-.311-.338c-.26-.177-.636-.177-1.386-.177ZM3 7.5v5.04c0 3.752 0 5.628 1.172 6.794C5.343 20.5 7.229 20.5 11 20.5h1M21 10V7.5"/>
  <path stroke="#1B1C1B" stroke-linecap="round" stroke-width="1.5" d="M10 10.5h4"/>
  <path stroke="#1B1C1B" stroke-linecap="round" stroke-linejoin="round" stroke-width="1.5" d="M16.736 15.675v-1.39c0-.206.01-.414.083-.606.196-.511.715-1.18 1.66-1.18.946 0 1.486.669 1.682 1.18.074.192.082.4.082.605v1.391M16.806 21.5h3.388c.997 0 1.806-.806 1.806-1.802v-2.002c0-.995-.809-1.802-1.806-1.802h-3.388c-.997 0-1.806.807-1.806 1.802v2.002c0 .996.809 1.802 1.806 1.802Z"/>
</svg>
