<svg xmlns="http://www.w3.org/2000/svg" width="24" height="24" fill="none" viewBox="0 0 24 24">
  <path stroke="#1B1C1B" stroke-width="1.5" d="M19.5 17.5a2.5 2.5 0 1 1-5 0 2.5 2.5 0 0 1 5 0Zm-10 0a2.5 2.5 0 1 1-5 0 2.5 2.5 0 0 1 5 0Z"/>
  <path stroke="#1B1C1B" stroke-linecap="round" stroke-linejoin="round" stroke-width="1.5" d="M14.5 17.5h-5m10 0h.763c.22 0 .33 0 .422-.012a1.5 1.5 0 0 0 1.303-1.302c.012-.093.012-.203.012-.423V13a6.5 6.5 0 0 0-6.5-6.5m-.5 9V7c0-1.414 0-2.121-.44-2.56C14.122 4 13.415 4 12 4H5c-1.414 0-2.121 0-2.56.44C2 4.878 2 5.585 2 7v8c0 .935 0 1.402.201 1.75a1.5 1.5 0 0 0 .549.549c.348.201.815.201 1.75.201"/>
  <path stroke="#1B1C1B" stroke-linecap="round" stroke-linejoin="round" stroke-width="1.5" d="m9.327 12 1.486-1.174C11.604 10.2 12 9.888 12 9.5m0 0c0-.388-.396-.7-1.187-1.326L9.327 7M12 9.5H5"/>
</svg>
