<svg xmlns="http://www.w3.org/2000/svg" width="24" height="24" fill="none" viewBox="0 0 24 24">
  <path stroke="#1B1C1B" stroke-linecap="round" stroke-linejoin="round" stroke-width="1.5" d="M8 22H6c-1.886 0-2.828 0-3.414-.586C2 20.828 2 19.886 2 18v-2c0-1.886 0-2.828.586-3.414C3.172 12 4.114 12 6 12h2c1.886 0 2.828 0 3.414.586C12 13.172 12 14.114 12 16v2c0 1.886 0 2.828-.586 3.414C10.828 22 9.886 22 8 22Zm-2-7h2"/>
  <path stroke="#1B1C1B" stroke-linejoin="round" stroke-width="1.5" d="M18 2c-2.21 0-4 1.809-4 4.04 0 1.276.5 2.268 1.5 3.154.705.625 1.559 1.663 2.071 2.503.246.404.594.404.858 0 .538-.824 1.366-1.878 2.071-2.502 1-.887 1.5-1.879 1.5-3.155C22 3.81 20.21 2 18 2Z"/>
  <path stroke="#1B1C1B" stroke-linecap="round" stroke-linejoin="round" stroke-width="1.5" d="M18 15v3c0 1.886 0 2.828-.469 3.414-.447.56-1.155.585-2.531.586"/>
  <path stroke="#1B1C1B" stroke-linecap="round" stroke-linejoin="round" stroke-width="2" d="M18.008 6h-.01"/>
</svg>
