<svg xmlns="http://www.w3.org/2000/svg" width="24" height="24" fill="none" viewBox="0 0 24 24">
  <path stroke="#1B1C1B" stroke-linecap="round" stroke-linejoin="round" stroke-width="1.5" d="M4.58 8.607 2 8.454C3.849 3.704 9.158 1 14.333 2.344c5.513 1.433 8.787 6.918 7.314 12.25-1.219 4.411-5.304 7.337-9.8 7.406"/>
  <path stroke="#1B1C1B" stroke-dasharray=".5 3" stroke-linecap="round" stroke-linejoin="round" stroke-width="1.5" d="M12 22C6.5 22 2 17 2 11"/>
  <path stroke="#1B1C1B" stroke-linecap="round" stroke-linejoin="round" stroke-width="1.5" d="M13.604 9.722c-.352-.37-1.213-1.237-2.575-.62-1.361.615-1.577 2.596.482 2.806.93.096 1.537-.11 2.093.471.556.582.659 2.198-.761 2.634-1.42.436-2.341-.284-2.588-.509m1.653-6.484v.79m0 6.337v.873"/>
</svg>
