<svg xmlns="http://www.w3.org/2000/svg" width="24" height="24" fill="none" viewBox="0 0 24 24">
  <path stroke="#1B1C1B" stroke-linecap="round" stroke-width="1.5" d="M2 2h1.301c1.186 0 1.779 0 2.18.371.402.372.48.992.637 2.233l1.128 8.925c.209 1.654.313 2.48.849 2.976.536.495 1.326.495 2.907.495H21"/>
  <path stroke="#1B1C1B" stroke-width="1.5" d="M10.5 21a1.5 1.5 0 1 0 0-3 1.5 1.5 0 0 0 0 3Zm7 0a1.5 1.5 0 1 0 0-3 1.5 1.5 0 0 0 0 3Z"/>
  <path stroke="#1B1C1B" stroke-linecap="round" stroke-linejoin="round" stroke-width="1.5" d="M20 14h-6c-.943 0-1.414 0-1.707-.366C12 13.268 12 12.678 12 11.5s0-1.768.293-2.134C12.586 9 13.057 9 14 9h6c.943 0 1.414 0 1.707.366.293.366.293.956.293 2.134s0 1.768-.293 2.134C21.414 14 20.943 14 20 14Zm-2-5h-6c-.943 0-1.414 0-1.707-.366C10 8.268 10 7.679 10 6.5c0-1.179 0-1.768.293-2.134C10.586 4 11.057 4 12 4h6c.943 0 1.414 0 1.707.366C20 4.732 20 5.321 20 6.5c0 1.179 0 1.768-.293 2.134C19.414 9 18.943 9 18 9Z"/>
</svg>
