<svg xmlns="http://www.w3.org/2000/svg" width="24" height="24" fill="none" viewBox="0 0 24 24">
  <path stroke="#1B1C1B" stroke-width="1.5" d="M2 6c0-.943 0-1.414.293-1.707C2.586 4 3.057 4 4 4c.943 0 1.414 0 1.707.293C6 4.586 6 5.057 6 6v2c0 .943 0 1.414-.293 1.707C5.414 10 4.943 10 4 10c-.943 0-1.414 0-1.707-.293C2 9.414 2 8.943 2 8V6Zm4.5 10c0-.943 0-1.414.293-1.707C7.086 14 7.557 14 8.5 14c.943 0 1.414 0 1.707.293.293.293.293.764.293 1.707v2c0 .943 0 1.414-.293 1.707C9.914 20 9.443 20 8.5 20c-.943 0-1.414 0-1.707-.293C6.5 19.414 6.5 18.943 6.5 18v-2Zm7-10c0-.943 0-1.414.293-1.707C14.086 4 14.557 4 15.5 4c.943 0 1.414 0 1.707.293.293.293.293.764.293 1.707v2c0 .943 0 1.414-.293 1.707-.293.293-.764.293-1.707.293-.943 0-1.414 0-1.707-.293C13.5 9.414 13.5 8.943 13.5 8V6Zm0 10c0-.943 0-1.414.293-1.707C14.086 14 14.557 14 15.5 14c.943 0 1.414 0 1.707.293.293.293.293.764.293 1.707v2c0 .943 0 1.414-.293 1.707-.293.293-.764.293-1.707.293-.943 0-1.414 0-1.707-.293-.293-.293-.293-.764-.293-1.707v-2Z"/>
  <path stroke="#1B1C1B" stroke-linecap="round" stroke-linejoin="round" stroke-width="1.5" d="m9 5 1.5-1v6M2 15l1.5-1v6m17-15L22 4v6m-1.5 5 1.5-1v6"/>
</svg>
