<svg xmlns="http://www.w3.org/2000/svg" width="24" height="24" fill="none" viewBox="0 0 24 24">
  <path stroke="#1B1C1B" stroke-width="1.5" d="M11 8c4.418 0 8-1.343 8-3s-3.582-3-8-3-8 1.343-8 3 3.582 3 8 3Z"/>
  <path stroke="#1B1C1B" stroke-linecap="round" stroke-width="1.5" d="M6 10.842c.602.18 1.274.33 2 .44m-2 6.56c.602.18 1.274.33 2 .44"/>
  <path stroke="#1B1C1B" stroke-linecap="round" stroke-linejoin="round" stroke-width="1.5" d="m19.842 13 .57 2.345-.947-.583a4.035 4.035 0 0 0-2.425-.804c-2.231 0-4.04 1.8-4.04 4.02C13 20.2 14.809 22 17.04 22A4.037 4.037 0 0 0 21 18.783M19 5v5M3 5v14c0 1.657 3.582 3 8 3 .085 0 .17 0 .254-.002"/>
  <path stroke="#1B1C1B" stroke-linecap="round" stroke-width="1.5" d="M3 12c0 1.616 3.407 2.934 7.675 2.998"/>
</svg>
