<svg xmlns="http://www.w3.org/2000/svg" width="24" height="24" fill="none" viewBox="0 0 24 24">
  <path stroke="#1B1C1B" stroke-width="1.5" d="M11 8c4.418 0 8-1.343 8-3s-3.582-3-8-3-8 1.343-8 3 3.582 3 8 3Z"/>
  <path stroke="#1B1C1B" stroke-linecap="round" stroke-width="1.5" d="M6 10.842c.602.18 1.274.33 2 .44M11 15c-4.418 0-8-1.343-8-3m3 5.842c.602.18 1.274.33 2 .44"/>
  <path stroke="#1B1C1B" stroke-linecap="round" stroke-linejoin="round" stroke-width="1.5" d="M11 22c-4.418 0-8-1.343-8-3V5m16 0v7m0 4.674-1.174-1.487C17.2 14.396 16.888 14 16.5 14c-.388 0-.7.396-1.326 1.187L14 16.674m2.5-2.587V22"/>
</svg>
