<svg xmlns="http://www.w3.org/2000/svg" width="24" height="24" fill="none" viewBox="0 0 24 24">
  <path stroke="#1B1C1B" stroke-width="1.5" d="M12 8c4.418 0 8-1.343 8-3s-3.582-3-8-3-8 1.343-8 3 3.582 3 8 3Z"/>
  <path stroke="#1B1C1B" stroke-linecap="round" stroke-width="1.5" d="M7 10.842c.602.18 1.274.33 2 .44"/>
  <path stroke="#1B1C1B" stroke-width="1.5" d="M20 12c0 1.657-3.582 3-8 3s-8-1.343-8-3"/>
  <path stroke="#1B1C1B" stroke-linecap="round" stroke-width="1.5" d="M7 17.842c.602.18 1.274.33 2 .44"/>
  <path stroke="#1B1C1B" stroke-width="1.5" d="M20 5v14c0 1.657-3.582 3-8 3s-8-1.343-8-3V5"/>
</svg>
