<svg xmlns="http://www.w3.org/2000/svg" width="24" height="24" fill="none" viewBox="0 0 24 24">
  <path stroke="#1B1C1B" stroke-linecap="round" stroke-linejoin="round" stroke-width="1.5" d="M6.175 10.334c-1.208.408-1.955.97-1.955 1.593 0 .848 1.389 1.587 3.44 1.97m0 0c-.762.386-1.217.875-1.217 1.408 0 1.243 2.487 2.251 5.555 2.251a12.8 12.8 0 0 0 2.223-.187m-6.56-3.471a17.76 17.76 0 0 0 3.226.28c1.708 0 3.265-.216 4.445-.573m1.11-3.48c-1.411.417-3.379.676-5.555.676-4.295 0-7.778-1.008-7.778-2.252 0-.96 2.077-1.78 5-2.104"/>
  <path stroke="#1B1C1B" stroke-linecap="round" stroke-width="1.5" d="M22 19.07C22 20.69 17.523 22 12 22S2 20.69 2 19.07c0-1.15 1.707-2.145 5-2.625"/>
  <path stroke="#1B1C1B" stroke-linecap="round" stroke-linejoin="round" stroke-width="1.5" d="M18.76 8.788c4.214-1.094 4.816 5.468-1.205 7.656M17.558 2c-.74.123-2.133.815-1.778 2.593.356 1.777-.148 2.716-.444 2.963M13.113 2c-.741.148-2.134.978-1.778 3.111.355 2.133-.148 2.704-.444 3"/>
</svg>
