<svg xmlns="http://www.w3.org/2000/svg" width="24" height="24" fill="none" viewBox="0 0 24 24">
  <path stroke="#1B1C1B" stroke-linecap="round" stroke-linejoin="round" stroke-width="1.5" d="M2 12c0 1.052.18 2.062.512 3m0 0H11m-8.488 0A9.004 9.004 0 0 0 11 21c-1.544 0-2.816-3.5-2.982-8m4.996-4h8.488m0 0a9.004 9.004 0 0 0-8.488-6c1.6 0 2.909 3.762 2.995 8.5M21.501 9c.28.789.451 1.628.499 2.5"/>
  <path stroke="#1B1C1B" stroke-width="1.5" d="M2 5.297C2 4.2 2 3.65 2.187 3.224c.2-.452.542-.815.968-1.025C3.557 2 4.075 2 5.11 2H6c1.886 0 2.828 0 3.414.62C10 3.243 10 4.24 10 6.24v2.259c0 .871 0 1.307-.264 1.457-.264.15-.606-.092-1.29-.576l-.105-.073c-.5-.354-.75-.53-1.034-.621-.283-.091-.584-.091-1.185-.091h-1.01c-1.037 0-1.555 0-1.957-.199a2.064 2.064 0 0 1-.968-1.025C2 6.945 2 6.396 2 5.297Zm20 12c0-1.098 0-1.647-.187-2.073a2.063 2.063 0 0 0-.968-1.025C20.443 14 19.925 14 18.89 14H18c-1.886 0-2.828 0-3.414.62C14 15.243 14 16.24 14 18.24v2.259c0 .871 0 1.307.264 1.457.264.15.606-.092 1.29-.576l.105-.073c.5-.354.75-.53 1.034-.621.283-.091.584-.091 1.185-.091h1.01c1.037 0 1.555 0 1.957-.199.426-.21.769-.573.968-1.025.187-.426.187-.975.187-2.074Z"/>
</svg>
