<svg xmlns="http://www.w3.org/2000/svg" width="24" height="24" fill="none" viewBox="0 0 24 24">
  <path stroke="#1B1C1B" stroke-linecap="round" stroke-width="1.5" d="M20.998 12.503s.002-.47.002-1c0-4.48 0-6.72-1.391-8.111C18.217 2 15.979 2 11.5 2 7.022 2 4.782 2 3.391 3.392 2 4.783 2 7.023 2 11.502c0 4.48 0 6.72 1.391 8.112C4.558 20.781 6.321 20.97 9.5 21"/>
  <path stroke="#1B1C1B" stroke-linejoin="round" stroke-width="1.5" d="M2 7h19"/>
  <path stroke="#1B1C1B" stroke-linecap="round" stroke-linejoin="round" stroke-width="1.5" d="M6 16h1m3-4h5m-9 0h1"/>
  <path stroke="#1B1C1B" stroke-linecap="round" stroke-linejoin="round" stroke-width="2" d="M17 18.5h.009"/>
  <path stroke="#1B1C1B" stroke-width="1.5" d="M21.772 18.023c.152.213.228.32.228.477 0 .158-.076.264-.228.477C21.089 19.935 19.345 22 17 22s-4.089-2.065-4.772-3.023c-.152-.213-.228-.32-.228-.477 0-.158.076-.264.228-.477C12.911 17.065 14.655 15 17 15s4.089 2.065 4.772 3.023Z"/>
</svg>
