<svg xmlns="http://www.w3.org/2000/svg" width="24" height="24" fill="none" viewBox="0 0 24 24">
  <path stroke="#1B1C1B" stroke-width="1.5" d="M2.5 12c0-4.478 0-6.718 1.391-8.109C5.283 2.5 7.521 2.5 12.001 2.5c4.478 0 6.717 0 8.108 1.391C21.5 5.282 21.5 7.521 21.5 12c0 4.478 0 6.718-1.391 8.109S16.479 21.5 12 21.5c-4.478 0-6.717 0-8.109-1.391-1.39-1.392-1.39-3.63-1.39-8.109Z"/>
  <path stroke="#1B1C1B" stroke-linejoin="round" stroke-width="1.5" d="M2.5 8h19"/>
  <path stroke="#1B1C1B" stroke-linecap="round" stroke-linejoin="round" stroke-width="1.5" d="M11 17h6M7 17h1m3-4h6M7 13h1"/>
</svg>
