<svg xmlns="http://www.w3.org/2000/svg" width="24" height="24" fill="none" viewBox="0 0 24 24">
  <path stroke="#1B1C1B" stroke-linecap="round" stroke-linejoin="round" stroke-width="1.5" d="M5 5.828h2.7m0 0h1.8m-1.8 0V5m3.3.828H9.5m0 0c-.316 1.131-.98 2.201-1.736 3.141m0 0A18.913 18.913 0 0 1 5.836 11m1.928-2.03c-.385-.453-.925-1.184-1.08-1.515m1.08 1.514 1.157 1.203M13.5 19l.833-2m0 0L16 13l1.667 4m-3.334 0h3.334m.833 2-.833-2"/>
  <path stroke="#1B1C1B" stroke-linecap="round" stroke-width="1.5" d="M14 10V8c0-2.828 0-4.243-.879-5.121C12.243 2 10.828 2 8 2c-2.828 0-4.243 0-5.121.879C2 3.757 2 5.172 2 8c0 2.828 0 4.243.879 5.121C3.757 14 5.172 14 8 14h2"/>
  <path stroke="#1B1C1B" stroke-width="1.5" d="M10 16c0-2.828 0-4.243.879-5.121C11.757 10 13.172 10 16 10c2.828 0 4.243 0 5.121.879C22 11.757 22 13.172 22 16c0 2.828 0 4.243-.879 5.121C20.243 22 18.828 22 16 22c-2.828 0-4.243 0-5.121-.879C10 20.243 10 18.828 10 16Z"/>
  <path stroke="#1B1C1B" stroke-linecap="round" stroke-linejoin="round" stroke-width="1.5" d="M4 16.5c0 1.404 0 2.107.337 2.611a2 2 0 0 0 .552.552C5.393 20 6.096 20 7.5 20M20 7.5c0-1.404 0-2.107-.337-2.611a2 2 0 0 0-.552-.552C18.607 4 17.904 4 16.5 4"/>
</svg>
