<svg xmlns="http://www.w3.org/2000/svg" width="24" height="24" fill="none" viewBox="0 0 24 24">
  <path stroke="#1B1C1B" stroke-linecap="round" stroke-linejoin="round" stroke-width="1.5" d="M2.5 3.002h19m-17 0V14c0 2.329.43 3.09 2.428 4.287l3.014 1.81c1.003.6 1.504.902 2.058.902.554 0 1.055-.301 2.058-.903l3.015-1.809C19.069 17.089 19.5 16.329 19.5 14V3"/>
  <path stroke="#1B1C1B" stroke-linecap="round" stroke-linejoin="round" stroke-width="1.5" d="m12.605 8.005.616 1.243a.761.761 0 0 0 .496.37l1.117.187c.714.12.882.642.367 1.157l-.867.875a.77.77 0 0 0-.182.64l.248 1.082c.196.858-.255 1.19-1.008.741l-1.046-.624a.751.751 0 0 0-.693 0l-1.047.624c-.749.448-1.203.113-1.008-.74l.249-1.084a.77.77 0 0 0-.182-.639l-.868-.875c-.51-.515-.346-1.037.368-1.157l1.116-.187a.763.763 0 0 0 .493-.37l.616-1.243c.336-.673.882-.673 1.215 0Z"/>
</svg>
