<svg xmlns="http://www.w3.org/2000/svg" width="24" height="24" fill="none" viewBox="0 0 24 24">
  <path stroke="#1B1C1B" stroke-linecap="round" stroke-linejoin="round" stroke-width="1.5" d="M6.333 2.751c-1.048.194-1.82.536-2.43 1.14-.61.605-.954 1.37-1.15 2.409M14 2.505c-.59-.005-1.227-.005-1.917-.005s-1.327 0-1.916.005M2.505 10.1C2.5 10.684 2.5 11.316 2.5 12c0 .684 0 1.316.005 1.9m.249 3.8c.195 1.04.54 1.804 1.15 2.409.61.604 1.381.946 2.43 1.14m7.666.246c-.59.005-1.227.005-1.917.005s-1.327 0-1.916-.005M17.5 2.5c1.094.199 1.899.55 2.535 1.17C21.5 5.1 21.5 7.4 21.5 12s0 6.9-1.465 8.33c-.636.62-1.441.972-2.535 1.17"/>
</svg>
