<svg xmlns="http://www.w3.org/2000/svg" width="24" height="24" fill="none" viewBox="0 0 24 24">
  <path stroke="#1B1C1B" stroke-linecap="round" stroke-linejoin="round" stroke-width="1.5" d="M2.753 17.667c.194 1.048.536 1.82 1.14 2.43.605.61 1.37.954 2.409 1.15M2.507 10c-.005.59-.005 1.227-.005 1.917s0 1.327.005 1.916m7.595 7.662c.584.005 1.216.005 1.9.005.684 0 1.316 0 1.9-.005m3.8-.249c1.04-.195 1.804-.54 2.409-1.15.604-.61.946-1.381 1.14-2.43M21.496 10c.005.59.005 1.227.005 1.917s0 1.327-.005 1.916M2.5 6.5c.199-1.094.55-1.899 1.17-2.536C5.1 2.5 7.4 2.5 12 2.5s6.9 0 8.33 1.464c.62.637.972 1.442 1.17 2.536"/>
</svg>
