<svg xmlns="http://www.w3.org/2000/svg" width="24" height="24" fill="none" viewBox="0 0 24 24">
  <path stroke="#1B1C1B" stroke-linecap="round" stroke-linejoin="round" stroke-width="1.5" d="M21.249 6.333c-.194-1.048-.536-1.82-1.14-2.43-.605-.61-1.37-.954-2.409-1.15M21.495 14c.005-.59.005-1.227.005-1.917s0-1.327-.005-1.916M13.9 2.505C13.316 2.5 12.684 2.5 12 2.5c-.684 0-1.316 0-1.9.005m-3.8.249c-1.04.195-1.804.54-2.409 1.15-.604.61-.946 1.381-1.14 2.43M2.505 14c-.005-.59-.005-1.227-.005-1.917s0-1.327.005-1.916M21.5 17.5c-.198 1.094-.55 1.899-1.17 2.535C18.9 21.5 16.6 21.5 12 21.5s-6.9 0-8.33-1.465c-.62-.635-.97-1.44-1.17-2.535"/>
</svg>
