<svg xmlns="http://www.w3.org/2000/svg" width="24" height="24" fill="none">
  <g class="ArrowSquareOut" clip-path="url(#a)">
    <g class="ArrowSquareOut">
      <path fill="#1B1C1B" d="m14.7731 9.22687.5303-.53032v-.00001l-.5303.53033ZM8.46967 14.4697c-.29289.2929-.29289.7677 0 1.0606.2929.2929.76777.2929 1.06066 0L9 15l-.53033-.5303Zm2.68463-5.99275c-.4142.00588-.7452.3464-.7393.76057.0059.41417.3464.74516.7605.73927l-.0106-.74992-.0106-.74992Zm2.8689 4.34745c-.006.4141.325.7547.7392.7606.4141.006.7547-.325.7606-.7392l-.7499-.0107-.7499-.0107ZM3.89124 3.89124l-.53033-.53033.53033.53033Zm16.21756 0 .5303-.53032V3.3609l-.5303.53034Zm0 16.21756.5303.5304.0001-.0001-.5304-.5303Zm-16.21756 0-.53034.5303h.00002l.53032-.5303ZM14.7731 9.22687l-.5303-.53033-5.77313 5.77316L9 15l.53033.5303 5.77307-5.7731-.5303-.53033Zm0 0 .5303-.53033c-.1839-.1839-.406-.27921-.5835-.33298-.1841-.05572-.3788-.08419-.5627-.09891-.3668-.02938-.7825-.01054-1.1696.02144-.3913.03234-.788.08137-1.1158.12077-.3494.04198-.5867.06823-.7175.07009l.0106.74992.0106.74992c.229-.00325.5595-.04272.8752-.08065.3372-.04051.7029-.08559 1.0605-.11514.3618-.0299.6817-.04073.9263-.02114.1219.00976.2018.02544.2476.03932.0523.01584.0152.0156-.0423-.04199l.5303-.53032Zm0 0-.5303.53032c-.0576-.05757-.0579-.09466-.042-.04235.0139.04585.0296.12577.0393.24768.0196.24458.0088.56448-.0211.92628-.0295.3576-.0746.7233-.1151 1.0605-.038.3157-.0774.6461-.0807.8751l.7499.0107.7499.0107c.0019-.1309.0282-.3682.0701-.7176.0394-.3279.0885-.7245.1208-1.1159.032-.387.0508-.8027.0214-1.16956-.0147-.18383-.0432-.37862-.0989-.56263-.0538-.17756-.1491-.39966-.333-.58356l-.5303.53032ZM2.5 12h.75c0-2.26037.00159-3.8802.16722-5.1121.16272-1.21033.47131-1.93328 1.00435-2.46633l-.53033-.53033-.53033-.53033c-.8582.8582-1.24523 1.95046-1.43032 3.32712C1.74841 8.04311 1.75 9.78203 1.75 12h.75Zm1.39124-8.10876.53033.53033c.53305-.53304 1.256-.84163 2.46633-1.00435C8.1198 3.25159 9.73963 3.25 12 3.25v-1.5c-2.21797 0-3.95689-.00159-5.31197.18059-1.37666.18509-2.46892.57212-3.32712 1.43032l.53033.53033ZM12 2.5v.75c2.2604 0 3.8802.00159 5.1121.16722 1.2103.16272 1.9333.47131 2.4664 1.00436l.5303-.53034.5303-.53034c-.8582-.85819-1.9505-1.24522-3.3271-1.43031C15.9569 1.74841 14.2179 1.75 12 1.75v.75Zm8.1088 1.39124-.5303.53032c.533.53305.8416 1.256 1.0043 2.46633C20.7484 8.1198 20.75 9.73963 20.75 12h1.5c0-2.21797.0016-3.95689-.1806-5.31197-.1851-1.37666-.5721-2.46891-1.4303-3.32711l-.5303.53032ZM21.5 12h-.75c0 2.2604-.0016 3.8802-.1672 5.1121-.1627 1.2103-.4713 1.9333-1.0043 2.4664l.5303.5303.5304.5303c.8581-.8582 1.2451-1.9505 1.4302-3.3271.1822-1.3551.1806-3.0941.1806-5.312h-.75Zm-1.3912 8.1088-.5303-.5303c-.5331.533-1.2561.8416-2.4664 1.0043-1.2319.1656-2.8517.1672-5.1121.1672v1.5c2.2179 0 3.9569.0016 5.312-.1806 1.3766-.1851 2.4689-.5721 3.3271-1.4302l-.5303-.5304ZM12 21.5v-.75c-2.26037 0-3.8802-.0016-5.11211-.1672-1.21033-.1627-1.93328-.4713-2.46633-1.0043l-.53032.5303-.53032.5303c.8582.8582 1.95045 1.2452 3.32711 1.4303 1.35508.1822 3.094.1806 5.31197.1806v-.75Zm-8.10876-1.3912.53034-.5303c-.53305-.5331-.84164-1.2561-1.00436-2.4664C3.25159 15.8802 3.25 14.2604 3.25 12h-1.5c0 2.2179-.00159 3.9569.18059 5.312.18509 1.3766.57212 2.4689 1.43031 3.3271l.53034-.5303Z" class="Vector"/>
    </g>
  </g>
  <defs>
    <clipPath id="a" class="a">
      <path fill="#fff" d="M0 0h24v24H0z"/>
    </clipPath>
  </defs>
</svg>
