<svg xmlns="http://www.w3.org/2000/svg" width="24" height="24" fill="none">
  <g class="bitcoin" clip-path="url(#a)">
    <g class="bitcoin">
      <path fill="#1B1C1B" d="M9.6875 14.6667c0 .4142.3358.75.75.75s.75-.3358.75-.75h-1.5Zm1.5-5.33337c0-.41421-.3358-.75-.75-.75s-.75.33579-.75.75h1.5Zm.0625 0c0 .41421.3358.74997.75.74997s.75-.33576.75-.74997h-1.5ZM12.75 8c0-.41421-.3358-.75-.75-.75s-.75.33579-.75.75h1.5Zm-1.5 8c0 .4142.3358.75.75.75s.75-.3358.75-.75h-1.5Zm1.5-1.3333c0-.4142-.3358-.75-.75-.75s-.75.3358-.75.75h1.5ZM10.4375 11.25c-.4142 0-.75.3358-.75.75s.3358.75.75.75v-1.5ZM9.5 13.9167c-.41421 0-.75.3358-.75.75s.33579.75.75.75v-1.5Zm0-5.33337c-.41421 0-.75.33579-.75.75s.33579.74997.75.74997V8.58333Zm9.3925 3.30047c.4099.0593.7904-.2248.8498-.6348.0593-.4099-.2248-.7904-.6348-.8497L19 11.1415l-.1075.7423Zm-.8401-1.5973c-.4132-.0289-.7716.2826-.8006.6958-.0289.4132.2826.7716.6958.8006L18 11.0347l.0524-.7482Zm-12.10461 3.427c.4132.0288.77155-.2828.80039-.696.02884-.4132-.28276-.7715-.69597-.8004L6 12.9653l-.05221.7482Zm-.84026-1.5973c-.40993-.0593-.79039.2248-.84978.6348-.05939.4099.22478.7904.63472.8498L5 12.8585l.10753-.7423ZM4 20.1726l.16748-.7311h-.00002L4 20.1726Zm0-15 .16745-.73107h-.00001L4 5.1726Zm16-1.3452.1674-.73107L20 3.8274Zm0 15-.1675.7311.1675-.7311Zm-9.5625-4.1607h.75V9.33333h-1.5v5.33337h.75ZM12 9.33333h.75V8h-1.5v1.33333H12ZM12 16h.75v-1.3333h-1.5V16H12Zm-1.5625-4v.75h3.125v-1.5h-3.125V12Zm3.125 0v.75c.0587 0 .1875.0656.1875.25h1.5c0-.9202-.7106-1.75-1.6875-1.75V12Zm.9375 1h-.75v.6667h1.5V13h-.75Zm0 .6667h-.75c0 .1844-.1288.25-.1875.25v1.5c.9769 0 1.6875-.8298 1.6875-1.75h-.75Zm-.9375 1v-.75H9.5v1.5h4.0625v-.75Zm0-2.6667v.75c.9769 0 1.6875-.8298 1.6875-1.75h-1.5c0 .1844-.1288.25-.1875.25V12Zm.9375-1h.75v-.6667h-1.5V11h.75Zm0-.6667h.75c0-.92013-.7106-1.74997-1.6875-1.74997v1.49997c.0587 0 .1875.0656.1875.25h.75Zm-.9375-.99997v-.75H9.5v1.49997h4.0625v-.74997ZM19 11.1415l.1075-.7422c-.3438-.0499-.6961-.0876-1.0551-.1128L18 11.0347l-.0524.7482c.323.0226.6385.0565.9449.1009L19 11.1415ZM6 12.9653l.05221-.7482c-.32272-.0225-.63812-.0564-.94468-.1009L5 12.8585l-.10753.7423c.34366.0497.69598.0876 1.05532.1127L6 12.9653ZM12 19.5l-.3174-.6795c-1.2178.5688-2.85694.9295-4.6826.9295v1.5c2.00848 0 3.8702-.3945 5.3174-1.0705L12 19.5Zm-5 1v-.75c-1.01203 0-1.97012-.1109-2.83252-.3085L4 20.1726l-.16749.7311C4.8095 21.1275 5.88019 21.25 7 21.25v-.75Zm-3-.3274.16746-.7311c-.62478-.1431-.93313-.3742-1.10922-.6341-.19087-.2817-.30824-.7166-.30824-1.4214h-1.5c0 .8356.13242 1.6222.56644 2.2628.4488.6623 1.14045 1.0543 2.0161 1.2549L4 20.1726ZM2 17.386h.75V6.61397h-1.5V17.386H2ZM2 6.61397h.75c0-.40247.48906-.84623 1.08256-.7103L4 5.1726l.16744-.73107C2.841 4.13772 1.25 5.04678 1.25 6.61397H2ZM4 5.1726l-.16745.73107C4.80949 6.12743 5.88016 6.25 7 6.25v-1.5c-1.012 0-1.97011-.11093-2.83255-.30847L4 5.1726ZM7 5.5v.75c2.00849 0 3.8702-.39454 5.3174-1.07047L12 4.5l-.3174-.67953C10.4648 4.38926 8.82565 4.75 7 4.75v.75Zm5-1 .3174.67953C13.5352 4.61074 15.1743 4.25 17 4.25v-1.5c-2.0085 0-3.8702.39454-5.3174 1.07047L12 4.5Zm5-1v.75c1.012 0 1.9701.11093 2.8326.30847L20 3.8274l.1674-.73107C19.1905 2.87257 18.1198 2.75 17 2.75v.75Zm3 .3274-.1674.73107c.6646.15223.9666.39292 1.1319.64696.1836.28223.2855.71179.2855 1.40854h1.5c0-.79686-.1072-1.57945-.5282-2.22652-.4393-.67528-1.1373-1.08107-2.0544-1.29112L20 3.8274Zm2 2.78657h-.75V17.386h1.5V6.61397H22ZM22 17.386h-.75c0 .4026-.489.8463-1.0825.7103L20 18.8274l-.1675.7311c1.3265.3038 2.9175-.6053 2.9175-2.1725H22Zm-2 1.4414.1675-.7311c-.977-.2238-2.0477-.3463-3.1675-.3463v1.5c1.012 0 1.9701.1109 2.8325.3085L20 18.8274ZM17 18.5v-.75c-2.0085 0-3.8702.3945-5.3174 1.0705L12 19.5l.3174.6795c1.2178-.5688 2.8569-.9295 4.6826-.9295v-.75Z" class="Vector"/>
    </g>
  </g>
  <defs>
    <clipPath id="a" class="a">
      <path fill="#fff" d="M0 0h24v24H0z"/>
    </clipPath>
  </defs>
</svg>
