<svg xmlns="http://www.w3.org/2000/svg" width="24" height="24" fill="none">
  <g class="camera">
    <g class="camera">
      <path fill="#1B1C1B" d="M7.003 7.00049c.55228-.00166.99865-.45072.99699-1.003-.00165-.55228-.45071-.99865-1.00299-.997l.003 1 .003 1Zm-2.45427-.73415-.38702-.92207.38702.92207ZM2.76811 7.96158l.90051.43483V8.3964l-.90051-.43482Zm-.45015 3.02862.9981.0616-.9981-.0616Zm-.15484 2.5107.9981.0616-.9981-.0616Zm.80057 7.2379-.73339.6798h.00003l.73336-.6798Zm18.07261 0-.7334-.6798.7334.6798Zm.8006-7.2379.9981-.0615v-.0001l-.9981.0616Zm-.1549-2.5107-.9981.0615v.0001l.9981-.0616Zm-.4501-3.02862.9005-.43479v-.00003l-.9005.43482Zm-1.7806-1.69524.387-.92207-.387.92207ZM17.003 5.00049c-.5523-.00165-1.0013.44472-1.003.997-.0017.55228.4447 1.00134.997 1.003l.003-1 .003-1Zm-.9315 2.37089c.2051.51279.7871.76221 1.2999.5571.5128-.20511.7622-.78707.5571-1.29986L17 7l-.9285.37138Zm.0427-2.58595.9285-.37138v-.00002l-.9285.3714Zm-1.6976-2.52588-.4437.89616v.00003l.4437-.89619Zm-4.83325 0-.44369-.89618.44369.89618ZM7.88583 4.78543l.92847.37139.00001-.00001-.92848-.37138ZM6.07152 6.62861c-.20511.51278.0443 1.09475.55708 1.29987.51279.20511 1.09476-.04431 1.29987-.55709L7 7l-.92848-.37139ZM11.9998 5c-.5523 0-1 .44772-1 1s.4477 1 1 1V5Zm.009 2c.5523 0 1-.44772 1-1s-.4477-1-1-1v2ZM7 6.00049l-.003-1c-1.17025.00351-2.06108.01882-2.83529.34378l.38702.92207.38701.92207c.336-.14102.79622-.18411 2.06726-.18792l-.003-1Zm-2.45127.26585-.38702-.92207c-1.00456.42164-1.81922 1.19898-2.29412 2.18249l.90052.43482.90051.43482c.2649-.54861.71663-.97693 1.26712-1.20799l-.38701-.92207ZM2.76811 7.96158l-.90052-.43483c-.21657.44852-.32319.92345-.39233 1.45345-.06788.52038-.10684 1.1609-.15541 1.9484l.99811.0616.9981.0616c.05024-.8147.08539-1.37585.1424-1.81291.05576-.42744.12481-.66571.21016-.84248l-.90051-.43483Zm-.45015 3.02862-.99811-.0616-.15484 2.5107.99811.0616.9981.0616.15484-2.5107-.9981-.0616Zm-.15484 2.5107-.99811-.0616c-.12109 1.9635-.220352 3.5377-.12951 4.7749.09286 1.2647.39238 2.3388 1.1948 3.2044l.73339-.6798.73338-.6798c-.36675-.3957-.59037-.9484-.66694-1.9912-.07858-1.0703.00645-2.4844.13109-4.5053l-.9981-.0616Zm.80057 7.2379-.73336.6798c.8044.8678 1.84928 1.2405 3.09557 1.4142 1.2161.1695 2.77586.1672 4.716.1672v-2c-1.99925 0-3.39401-.0023-4.43988-.1481-1.01568-.1416-1.54022-.3995-1.90497-.7929l-.73336.6798ZM10.0419 22v1h3.9162v-2h-3.9162v1Zm3.9162 0v1c1.9401 0 3.4999.0023 4.716-.1672 1.2463-.1737 2.2912-.5464 3.0956-1.4142l-.7334-.6798-.7334-.6798c-.3647.3934-.8892.6513-1.9049.7929-1.0459.1458-2.4406.1481-4.4399.1481v1Zm7.0782-1.2612.7334.6798c.8024-.8656 1.1019-1.9397 1.1948-3.2044.0908-1.2372-.0084-2.8114-.1295-4.7748l-.9981.0615-.9981.0615c.1246 2.021.2097 3.4351.1311 4.5054-.0766 1.0428-.3002 1.5955-.667 1.9912l.7334.6798Zm.8006-7.2379.9981-.0616-.1549-2.5107-.9981.0616-.9981.0616.1549 2.5107.9981-.0616Zm-.1549-2.5107.9981-.0615c-.0486-.7876-.0875-1.42811-.1554-1.94849-.0691-.52999-.1757-1.00491-.3923-1.45342l-.9005.43479-.9005.43479c.0853.17678.1544.41506.2101.84251.057.43706.0922.99812.1424 1.81282l.9981-.0615Zm-.4501-3.02862.9005-.43482c-.4749-.98352-1.2896-1.76085-2.2941-2.18249l-.387.92207-.387.92207c.5504.23106 1.0022.65939 1.2671 1.20799l.9005-.43482Zm-1.7806-1.69524.387-.92207c-.7742-.32496-1.6651-.34027-2.8353-.34378l-.003 1-.003 1c1.271.00381 1.7313.0469 2.0673.18792l.387-.92207ZM17 7l.9285-.37138-.8858-2.21457-.9285.37138-.9285.37138.8858 2.21457L17 7Zm-.8858-2.21457.9285-.3714c-.168-.41996-.3841-1.03057-.6805-1.5576-.313-.55658-.7698-1.13061-1.5019-1.49307l-.4437.89619-.4437.89619c.2507.12409.4516.33526.6461.68112.2112.3754.3525.78446.5667 1.31997l.9285-.3714Zm-1.6976-2.52588.4437-.89616c-.4155-.20574-.8406-.28901-1.2906-.32734C13.1366.999164 12.614 1 12 1v2c.6476 0 1.0712.00084 1.4.02884.3118.02656.4642.07306.5729.12687l.4437-.89616ZM12 2V1c-.614 0-1.1366-.000836-1.5697.03605-.45001.03833-.87513.1216-1.29064.32732l.44369.89618.44365.89618c.1088-.05383.2612-.10033.573-.12689C10.9288 3.00084 11.3524 3 12 3V2Zm-2.41665.25955-.44369-.89618c-.73212.36246-1.18888.93651-1.5019 1.49308-.2964.52703-.51243 1.13763-.68041 1.5576l.92848.37138.92848.37138c.21419-.5355.35555-.94457.56668-1.31997.19451-.34586.39541-.55702.64601-.68111l-.44365-.89618ZM7.88583 4.78543l-.92848-.37139-.88583 2.21457L7 7l.92847.37139.88583-2.21457-.92847-.37139ZM15.5 14h-1c0 1.3807-1.1193 2.5-2.5 2.5v2c2.4853 0 4.5-2.0147 4.5-4.5h-1ZM12 17.5v-1c-1.3807 0-2.5-1.1193-2.5-2.5h-2c0 2.4853 2.01471 4.5 4.5 4.5v-1ZM8.5 14h1c0-1.3807 1.1193-2.5 2.5-2.5v-2c-2.48529 0-4.5 2.0147-4.5 4.5h1Zm3.5-3.5v1c1.3807 0 2.5 1.1193 2.5 2.5h2c0-2.4853-2.0147-4.5-4.5-4.5v1ZM11.9998 6v1h.009V5h-.009v1Z" class="Vector"/>
    </g>
  </g>
</svg>
