<svg xmlns="http://www.w3.org/2000/svg" width="24" height="24" fill="none">
  <g class="chat_bubble">
    <g class="chat_bubble">
      <path stroke="currentColor" stroke-linecap="round" stroke-linejoin="round" stroke-width="2" d="M11.9955 12h.009m3.9865 0H16m-8 0h.00897M22 11.5667c0 5.2832-4.4778 9.5667-10 9.5667-.6493.0009-1.2968-.0592-1.9346-.1789-.45907-.0863-.68862-.1294-.84887-.1049-.16026.0245-.38735.1452-.84154.3868-1.28485.6833-2.78304.9246-4.22388.6566.54763-.6736.92164-1.4818 1.08667-2.3482.1-.53-.14778-1.0448-.51889-1.4217C3.03333 16.4115 2 14.1051 2 11.5667 2 6.28357 6.47778 2 12 2c5.5222 0 10 4.28357 10 9.5667Z" class="Vector"/>
    </g>
  </g>
</svg>
