<svg xmlns="http://www.w3.org/2000/svg" width="24" height="24" fill="none">
  <g class="checkboxfilled">
    <g class="checkboxfilled">
      <path fill="#1B1C1B" d="M12.0572 1.75c2.1907-.00001 3.9114-.00002 5.2548.18059 1.3766.18509 2.4689.57213 3.3271 1.43032.8582.8582 1.2452 1.95046 1.4303 3.32711.1806 1.34342.1806 3.06412.1806 5.25478v.1144c0 2.1907 0 3.9114-.1806 5.2548-.1851 1.3766-.5721 2.4689-1.4303 3.3271-.8582.8582-1.9505 1.2452-3.3271 1.4303-1.3434.1806-3.0641.1806-5.2548.1806h-.1144c-2.1907 0-3.91136 0-5.25478-.1806-1.37665-.1851-2.46891-.5721-3.32711-1.4303-.85819-.8582-1.24523-1.9505-1.43032-3.3271-.18061-1.3434-.1806-3.0641-.18059-5.2548v-.1144c-.00001-2.19069-.00002-3.91136.18059-5.25478.18509-1.37665.57213-2.46891 1.43032-3.32711.8582-.85819 1.95046-1.24523 3.32711-1.43032 1.34342-.18061 3.0641-.1806 5.25478-.18059h.1144Zm4.6185 6.51285c.4071.37319.4346 1.00576.0615 1.41288l-5.5 5.99997c-.1844.2011-.4428.3181-.7155.3241-.2727.0059-.53594-.0998-.72881-.2927l-2.5-2.5c-.39052-.3905-.39052-1.0237 0-1.4142.39053-.3905 1.02369-.3905 1.41422 0l1.76149 1.7615 4.7942-5.23012c.3732-.40712 1.0058-.43462 1.4129-.06143Z" class="Vector" clip-rule="evenodd"/>
    </g>
  </g>
</svg>
