<svg xmlns="http://www.w3.org/2000/svg" width="24" height="24" fill="none">
  <g class="checkbox">
    <g class="checkbox">
      <path fill="#1B1C1B" d="m3.89124 3.89124-.53033-.53033.53033.53033Zm16.21756 0 .5303-.53032V3.3609l-.5303.53034Zm0 16.21756.5303.5304.0001-.0001-.5304-.5303Zm-16.21756 0-.53034.5303h.00002l.53032-.5303Zm4.63909-8.1391c-.29289-.2929-.76777-.2929-1.06066 0s-.29289.7677 0 1.0606L8 12.5l.53033-.5303ZM10.5 15l-.53033.5303c.14463.1447.34213.224.54663.2195.2045-.0044.3983-.0922.5366-.243L10.5 15Zm6.0529-5.49321c.2799-.30534.2592-.77976-.0461-1.05966-.3053-.27989-.7798-.25926-1.0597.04608L16 9l.5529.50679ZM2.5 12h.75c0-2.26037.00159-3.8802.16722-5.1121.16272-1.21033.47131-1.93328 1.00435-2.46633l-.53033-.53033-.53033-.53033c-.8582.8582-1.24523 1.95046-1.43032 3.32712C1.74841 8.04311 1.75 9.78203 1.75 12h.75Zm1.39124-8.10876.53033.53033c.53305-.53304 1.256-.84163 2.46633-1.00435C8.1198 3.25159 9.73963 3.25 12 3.25v-1.5c-2.21797 0-3.95689-.00159-5.31197.18059-1.37666.18509-2.46892.57212-3.32712 1.43032l.53033.53033ZM12 2.5v.75c2.2604 0 3.8802.00159 5.1121.16722 1.2103.16272 1.9333.47131 2.4664 1.00436l.5303-.53034.5303-.53034c-.8582-.85819-1.9505-1.24522-3.3271-1.43031C15.9569 1.74841 14.2179 1.75 12 1.75v.75Zm8.1088 1.39124-.5303.53032c.533.53305.8416 1.256 1.0043 2.46633C20.7484 8.1198 20.75 9.73963 20.75 12h1.5c0-2.21797.0016-3.95689-.1806-5.31197-.1851-1.37666-.5721-2.46891-1.4303-3.32711l-.5303.53032ZM21.5 12h-.75c0 2.2604-.0016 3.8802-.1672 5.1121-.1627 1.2103-.4713 1.9333-1.0043 2.4664l.5303.5303.5304.5303c.8581-.8582 1.2451-1.9505 1.4302-3.3271.1822-1.3551.1806-3.0941.1806-5.312h-.75Zm-1.3912 8.1088-.5303-.5303c-.5331.533-1.2561.8416-2.4664 1.0043-1.2319.1656-2.8517.1672-5.1121.1672v1.5c2.2179 0 3.9569.0016 5.312-.1806 1.3766-.1851 2.4689-.5721 3.3271-1.4302l-.5303-.5304ZM12 21.5v-.75c-2.26037 0-3.8802-.0016-5.11211-.1672-1.21033-.1627-1.93328-.4713-2.46633-1.0043l-.53032.5303-.53032.5303c.8582.8582 1.95045 1.2452 3.32711 1.4303 1.35508.1822 3.094.1806 5.31197.1806v-.75Zm-8.10876-1.3912.53034-.5303c-.53305-.5331-.84164-1.2561-1.00436-2.4664C3.25159 15.8802 3.25 14.2604 3.25 12h-1.5c0 2.2179-.00159 3.9569.18059 5.312.18509 1.3766.57212 2.4689 1.43031 3.3271l.53034-.5303ZM8 12.5l-.53033.5303 2.5 2.5L10.5 15l.5303-.5303-2.49997-2.5L8 12.5Zm2.5 2.5.5529.5068 5.5-6.00001L16 9l-.5529-.50679-5.49997 5.99999L10.5 15Z" class="Vector"/>
    </g>
  </g>
</svg>
