<svg xmlns="http://www.w3.org/2000/svg" width="24" height="24" fill="none">
  <g class="check-circle-green">
    <g class="check-circle-green">
      <path fill="#389E0D" d="M8.53033 11.9697c-.29289-.2929-.76777-.2929-1.06066 0s-.29289.7677 0 1.0606L8 12.5l.53033-.5303ZM10.5 15l-.53033.5303c.14463.1447.34213.224.54663.2195.2045-.0044.3983-.0922.5366-.243L10.5 15Zm6.0529-5.49321c.2799-.30534.2592-.77976-.0461-1.05966-.3053-.27989-.7798-.25926-1.0597.04608L16 9l.5529.50679ZM22 12h.75c0-5.93707-4.813-10.75-10.75-10.75v1.5c5.1086 0 9.25 4.14137 9.25 9.25H22ZM12 2v-.75C6.06294 1.25 1.25 6.06294 1.25 12h1.5c0-5.10864 4.14136-9.25 9.25-9.25V2ZM2 12h-.75c0 5.937 4.81293 10.75 10.75 10.75v-1.5c-5.10863 0-9.25-4.1414-9.25-9.25H2Zm10 10v.75c5.937 0 10.75-4.813 10.75-10.75h-1.5c0 5.1086-4.1414 9.25-9.25 9.25V22Zm-4-9.5-.53033.5303 2.5 2.5L10.5 15l.5303-.5303-2.49997-2.5L8 12.5Zm2.5 2.5.5529.5068 5.5-6.00001L16 9l-.5529-.50679-5.49997 5.99999L10.5 15Z" class="Vector"/>
    </g>
  </g>
</svg>
