<svg xmlns="http://www.w3.org/2000/svg" width="24" height="24" fill="none">
  <g class="Copy">
    <g class="Copy">
      <path stroke="currentColor" stroke-linecap="round" stroke-linejoin="round" stroke-width="1.5" d="M16.9999 9c-.0024-2.95709-.0471-4.48879-.9079-5.53757-.1662-.20254-.3519-.38825-.5544-.55447C14.4312 2 12.7875 2 9.5 2c-3.28748 0-4.93122 0-6.03757.90796-.20254.16621-.38825.35193-.55447.55447C2 4.56878 2 6.21252 2 9.5c0 3.2875 0 4.9312.90796 6.0376.16621.2025.35193.3882.55447.5544 1.04878.8608 2.58048.9055 5.53757.9079M9 15c0-2.8284 0-4.2426.87868-5.12132C10.7574 9 12.1716 9 15 9h1c2.8284 0 4.2426 0 5.1213.87868C22 10.7574 22 12.1716 22 15v1c0 2.8284 0 4.2426-.8787 5.1213C20.2426 22 18.8284 22 16 22h-1c-2.8284 0-4.2426 0-5.12132-.8787C9 20.2426 9 18.8284 9 16v-1Z" class="Vector"/>
    </g>
  </g>
</svg>
