<svg xmlns="http://www.w3.org/2000/svg" width="24" height="24" fill="none">
  <g class="darkmode" clip-path="url(#a)">
    <g class="darkmode">
      <path fill="#1B1C1B" d="M19.7442 12c0 2.0539-.8159 4.0236-2.2682 5.476-1.4524 1.4523-3.4221 2.2682-5.476 2.2682V21c4.9705 0 9-4.0295 9-9h-1.2558ZM12 19.7442c-2.05389 0-4.02365-.8159-5.47597-2.2682C5.07172 16.0236 4.25581 14.0539 4.25581 12H3c0 4.9705 4.02949 9 9 9v-1.2558ZM4.25581 12c0-2.05389.81591-4.02365 2.26822-5.47597C7.97635 5.07172 9.94611 4.25581 12 4.25581V3c-4.97051 0-9 4.02949-9 9h1.25581Zm10.67439 1.8837c-1.2767 0-2.5012-.5072-3.4039-1.41-.9028-.9027-1.41-2.1272-1.41-3.40393H8.86047c0 1.60983.63949 3.15363 1.77783 4.29193 1.1383 1.1383 2.6821 1.7778 4.2919 1.7778v-1.2558Zm4.1233-2.3283c-.4284.7105-1.0331 1.2983-1.7556 1.7062-.7224.4079-1.538.6222-2.3677.6221v1.2558c1.046.0003 2.0744-.2697 2.9853-.7838.9109-.5141 1.6735-1.2549 2.2138-2.1506l-1.0758-.6497Zm-8.9372-2.48563c-.0001-.82966.2142-1.64526.6221-2.36769.4079-.72244.9957-1.32718 1.7062-1.75557l-.6497-1.07498c-.8955.54024-1.6363 1.30271-2.1504 2.21347-.51413.91076-.7842 1.93891-.78403 2.98477h1.25583ZM12 4.25581c-.0421-.0008-.0836-.00995-.1221-.02691-.0385-.01696-.0733-.04139-.1023-.07188-.0353-.03545-.0592-.08064-.0686-.12976-.0034-.02596-.0017-.10131.0879-.15573l.6497 1.07498c.4211-.25451.5567-.72084.5073-1.08753C12.9 3.47805 12.6003 3 12 3v1.25581Zm8.1293 7.94929c-.0553.0896-.1306.0913-.1566.0879-.0491-.0094-.0943-.0333-.1297-.0686-.0305-.029-.0549-.0638-.0719-.1023-.017-.0385-.0261-.08-.0269-.1221H21c0-.6003-.478-.9-.859-.9519-.3667-.0494-.833.0862-1.0875.5073l1.0758.6497Z" class="Vector"/>
    </g>
  </g>
  <defs>
    <clipPath id="a" class="a">
      <path fill="#fff" d="M0 0h24v24H0z"/>
    </clipPath>
  </defs>
</svg>
