<svg xmlns="http://www.w3.org/2000/svg" width="24" height="24" fill="none">
  <g class="fastbackrewindfilled">
    <g class="fastbackrewind">
      <path fill="#1B1C1B" d="M2.55591 9.38142c.48853-.42774 1.1521-.90698 1.97883-1.50406 1.13476-.81957 2.09636-1.51407 2.83067-1.9447.73292-.42981 1.43111-.7235 2.15069-.67802.9475.05987 1.8295.50525 2.4373 1.23308.4624.55383.6342 1.29047.7154 2.13247.0187.19503.0332.40382.0443.6268.4703-.39369 1.0804-.8343 1.8216-1.36963 1.1347-.81956 2.0964-1.51408 2.8307-1.9447.7329-.42981 1.4311-.7235 2.1507-.67802.9475.05987 1.8295.50525 2.4373 1.23308.4624.55383.6342 1.29047.7154 2.13247.0812.84355.0812 1.94451.0812 3.33741v.0847c0 1.3929 0 2.4939-.0812 3.3375-.0812.842-.253 1.5786-.7154 2.1325-.6078.7278-1.4898 1.1732-2.4373 1.2331-.7196.0454-1.4178-.2483-2.1507-.6781-.7343-.4306-1.6959-1.1251-2.8306-1.9446-.7412-.5353-1.3514-.976-1.8217-1.3697-.0111.223-.0256.4318-.0443.6268-.0812.842-.253 1.5786-.7154 2.1325-.6078.7278-1.4898 1.1732-2.4373 1.2331-.71958.0454-1.41777-.2483-2.15069-.6781-.7343-.4306-1.69589-1.1251-2.83062-1.9446-.82672-.5971-1.49035-1.0764-1.97888-1.5041-.49789-.436-.89212-.8831-1.09719-1.4427-.27829-.7595-.27829-1.5923 0-2.3518.20507-.5596.5993-1.00674 1.09719-1.44268Z" class="Vector" clip-rule="evenodd"/>
    </g>
  </g>
</svg>
