<svg xmlns="http://www.w3.org/2000/svg" width="24" height="24" fill="none">
  <g class="fastbackrewind">
    <g class="fastbackrewind">
      <g class="Vector">
        <path stroke="currentColor" stroke-linejoin="round" stroke-width="1.5" d="M2.16293 12.9178c.28237.7706 1.13566 1.3869 2.84225 2.6194 2.32713 1.6808 3.49069 2.5211 4.46362 2.4597.743-.047 1.4336-.3962 1.9089-.9654C12 16.2863 12 14.8575 12 12c0-2.85754 0-4.28631-.6223-5.03154-.4753-.56913-1.1659-.91836-1.9089-.96531-.97293-.06148-2.13649.77888-4.46362 2.4596C3.29859 9.6953 2.4453 10.3116 2.16293 11.0822c-.21724.5928-.21724 1.2428 0 1.8356Z"/>
        <path stroke="currentColor" stroke-linejoin="round" stroke-width="1.5" d="M12.1629 12.9178c.2824.7706 1.1357 1.3869 2.8423 2.6194 2.3271 1.6808 3.4907 2.5211 4.4636 2.4597.743-.047 1.4336-.3962 1.9089-.9654C22 16.2863 22 14.8575 22 12c0-2.85754 0-4.28631-.6223-5.03154-.4753-.56913-1.1659-.91836-1.9089-.96531-.9729-.06148-2.1365.77888-4.4636 2.4596-1.7066 1.23255-2.5599 1.84885-2.8423 2.61945-.2172.5928-.2172 1.2428 0 1.8356Z"/>
      </g>
    </g>
  </g>
</svg>
