<svg xmlns="http://www.w3.org/2000/svg" width="24" height="24" fill="none">
  <g class="GIF">
    <g class="GIF">
      <path fill="#1B1C1B" d="M5.56452 16.7525c-.50716 0-.81442.0015-1.0358.0304-.18911.0158-.24415.1569-.24804.2255-.02898.2088-.03067.5009-.03067.9941v2c0 .4933.00169.7854.03067.9942.01335.0691.08164.2108.24804.2255.22138.0288.52864.0303 1.0358.0303.50717 0 .81443-.0015 1.03581-.0303.18876-.0601.24401-.1754.24804-.2255.02382-.1717.0292-.3997.03037-.7495-.09712-.011-.37314-.0267-.70028-.0011-.00027.0001.00027 0 0 0-.41024.0534-.78744-.2355-.8414-.6458-.05402-.4106.23511-.7873.64579-.8414.19334-.0249.6527-.0631.94344-.0168.22961.0219.54374.0751.82232.2283.31286.1721.63043.5094.63043 1.0321.00006.432.00011.876-.04491 1.2004-.04995.3599-.16769.7375-.48558 1.0454-.31457.3048-.69448.4145-1.05449.4613-.33002.043-.73679.043-1.18538.0429-.44859.0001-.94367.0001-1.27369-.0429-.36001-.0468-.73992-.1565-1.05449-.4613-.31789-.3079-.43563-.6855-.48558-1.0454-.04502-.3244-.04497-.7227-.04492-1.1546v-2.0915c-.00005-.4319-.0001-.8302.04492-1.1546.04995-.36.16769-.7375.48558-1.0455.31457-.3047.69448-.4144 1.05449-.4613.33002-.043.94173-.044 1.39032-.044.37515-.0038.91058-.0093 1.36051.1238.28568.0844.59289.2366.8392.5166.24989.2841.38382.6393.42399 1.035.04184.4121-.2583.7801-.6704.8219-.41209.0418-.78008-.2583-.82192-.6704-.03482-.1496-.14526-.2388-.19612-.2647-.10565-.0312-.25113-.0507-.44998-.0584-.14353-.0056-.49088-.0037-.64607-.0027ZM9.96094 16c0-.4142.33576-.75.74996-.75h3.0968c.4142 0 .75.3358.75.75s-.3358.75-.75.75h-.7984v4.5h.7984c.4142 0 .75.3358.75.75s-.3358.75-.75.75h-3.0968c-.4142 0-.74996-.3358-.74996-.75s.33576-.75.74996-.75h.7984v-4.5h-.7984c-.4142 0-.74996-.3358-.74996-.75Zm10.53866-.75c.4142 0 .75.3358.75.75s-.3358.75-.75.75h-1.5484c-.5071 0-.8144.0015-1.0358.0303-.1546.014-.2298.1562-.248.2255-.029.2088-.0307.7509-.0307 1.2442h1.8307c.4142 0 .75.3358.75.75s-.3358.75-.75.75h-1.8307V22c0 .4142-.3358.75-.75.75s-.75-.3358-.75-.75v-4.0457c0-.432-.0001-.8303.0449-1.1547.05-.3599.1677-.7374.4856-1.0454.3146-.3047.6945-.4144 1.0545-.4613.33-.043.7368-.0429 1.1854-.0429h1.5925Zm-16.77592-1.5c.53776 0 .97369-.4305.97369-.9615l.00001-1.0233c-.00001-.267.00016-.9056.28078-1.3777.17293-.291.39435-.53413.6218-.65795.36651-.19952.7867-.31288 1.23337-.31288.14713 0 .30531.00647.48291.01471l.06582.00308c.15491.00728.3235.0152.49164.01869.38009.0079.82363-.00411 1.25178-.11883.83397-.22346 1.48542-.87487 1.70882-1.70884.1147-.42815.1267-.87169.1189-1.25178-.0035-.16808-.0115-.33678-.0187-.49164l-.0031-.06582c-.0083-.1776-.0147-.33578-.0147-.48291 0-.46769.1242-.90635.3416-1.28476.1267-.22059.3474-.42248.6522-.59979.4621-.26891 1.0155-.2714 1.3537-.27293.3381-.00152.6949-.00269.993-.00269 1.8342 0 2.501.01376 3.0042.18842.8723.30283 1.5383.93501 1.8486 1.70945.0778.19408.1327.44899.1621.8905.03.45006.0305 1.02454.0305 1.85241v4.97456c0 .531.436.9615.9737.9615.5378 0 .9737-.4305.9737-.9615V7.78121c0-.78747 0-1.42535-.0347-1.94607-.0358-.53647-.1114-1.01471-.2945-1.47173-.5286-1.31898-1.6367-2.33808-3.0136-2.81606-.859-.2982-1.8917-.29784-3.4465-.2973l-.9473.00007L13.5 1.25l-.0351.00015c-2.5084.0017-4.06316.03153-5.3531.47934-2.2203.77078-3.99374 2.4091-4.83689 4.51312-.28098.70117-.40549 1.45434-.46573 2.35756C2.74999 9.48756 2.75 10.5838 2.75 11.9814v.8071c0 .531.43593.9615.97368.9615Z" class="Vector"/>
    </g>
  </g>
</svg>
