<svg xmlns="http://www.w3.org/2000/svg" width="24" height="24" fill="none">
  <g class="groups" clip-path="url(#a)">
    <g class="groups">
      <path fill="#1B1C1B" d="M20.774 17.25c-.4142 0-.75.3358-.75.75s.3358.75.75.75v-1.5Zm1.8805-.3809.5823.4726-.5823-.4726Zm-1.3891-2.9565.4576-.5942-.4576.5942Zm-2.1978-1.6596c-.4126-.0373-.7772.2669-.8146.6794-.0373.4126.2669.7772.6794.8146L19 13l.0676-.747ZM18 10.25c-.4142 0-.75.3358-.75.75s.3358.75.75.75v-1.5Zm0-5c-.4142 0-.75.33579-.75.75s.3358.75.75.75v-1.5ZM3.22596 18.75c.41421 0 .75-.3358.75-.75s-.33579-.75-.75-.75v1.5Zm-1.88041-1.8809.58236-.4726h-.00003l-.58233.4726Zm1.3891-2.9565.45757.5942h.00003l-.4576-.5942Zm2.33291-.1656c.41253-.0374.7167-.402.67939-.8146-.03731-.4125-.40198-.7167-.81451-.6794L5 13l.06756.747ZM5.5 11.75c.41421 0 .75-.3358.75-.75s-.33579-.75-.75-.75v1.5Zm0-5c.41421 0 .75-.33579.75-.75s-.33579-.75-.75-.75v1.5Zm2.5838 8.3612-.39444-.6379.39444.6379Zm-2.0691 3.5362.52748-.5332-.52748.5332Zm11.9706 0-.5275-.5332.5275.5332Zm-2.0691-3.5362-.3944.6379.3944-.6379ZM20.774 18v.75c1.0991 0 1.8879-.6999 2.4628-1.4083l-.5823-.4726-.5823-.4726c-.4955.6104-.8987.8535-1.2982.8535V18Zm1.8805-1.1309.5823.4726c.3756-.4627.5507-.9703.5066-1.4929-.0422-.4989-.2765-.9139-.527-1.2309-.4745-.6008-1.227-1.0944-1.4934-1.2995l-.4576.5942-.4576.5942c.4195.3231.9093.6329 1.2316 1.0409.148.1873.2009.3281.2093.4275.0064.0758-.0044.2092-.1765.4213l.5823.4726Zm-1.3891-2.9565.4576-.5942c-.8044-.6194-1.7169-.9805-2.6554-1.0654L19 13l-.0676.747c.6403.0579 1.285.3052 1.8754.7598l.4576-.5942ZM18 11v.75c1.7949 0 3.25-1.4551 3.25-3.25h-1.5c0 .96649-.7835 1.75-1.75 1.75V11Zm2.5-2.5h.75c0-1.79493-1.4551-3.25-3.25-3.25v1.5c.9665 0 1.75.78351 1.75 1.75h.75ZM3.22596 18v-.75c-.39951 0-.80269-.2431-1.29805-.8535l-.58236.4726-.582365.4726C1.33807 18.0501 2.12687 18.75 3.22596 18.75V18Zm-1.88041-1.1309.58233-.4726c-.17217-.2122-.18297-.3455-.17656-.4213.0084-.0994.06128-.2402.20925-.4275.32232-.408.81213-.7178 1.23165-1.0409l-.45757-.5942-.45757-.5942c-.26646.2051-1.01893.6987-1.493538 1.2995-.250484.317-.484724.732-.526896 1.231-.044166.5225.131012 1.0301.506569 1.4928l.582335-.4726Zm1.3891-2.9565.4576.5942c.59035-.4546 1.23501-.7019 1.87531-.7598L5 13l-.06756-.747c-.93854.0849-1.85111.446-2.6554 1.0654l.45761.5942ZM5.5 11v-.75c-.9665 0-1.75-.7835-1.75-1.75h-1.5c0 1.7949 1.45507 3.25 3.25 3.25V11ZM3 8.5h.75c0-.9665.7835-1.75 1.75-1.75v-1.5c-1.79493 0-3.25 1.45508-3.25 3.25H3Zm5.0838 6.6112-.39444-.6379c-.42977.2657-1.4923.8229-2.16981 1.5116-.34852.3542-.69612.8372-.7595 1.4393-.0678.6441.2056 1.2404.72717 1.7564l.52748-.5332.52748-.5332c-.29429-.2911-.2979-.4615-.29037-.533.01195-.1136.09203-.2953.33702-.5444.50953-.5179 1.29741-.9216 1.88941-1.2877l-.39444-.6379Zm-2.0691 3.5362-.52749.5332c.86162.8524 1.92895 1.5694 3.32842 1.5694v-1.5c-.83275 0-1.5409-.411-2.27345-1.1358l-.52748.5332ZM8.81563 20v.75h6.36877v-1.5H8.81563V20Zm6.36877 0v.75c1.3995 0 2.4668-.717 3.3284-1.5694l-.5275-.5332-.5275-.5332c-.7326.7248-1.4407 1.1358-2.2734 1.1358V20Zm2.8009-1.3526.5275.5332c.5215-.516.7949-1.1123.7271-1.7564-.0633-.6021-.4109-1.0851-.7594-1.4393-.6776-.6887-1.7401-1.2459-2.1699-1.5116l-.3944.6379-.3944.6379c.592.3661 1.3798.7698 1.8894 1.2877.245.2491.325.4308.337.5444.0075.0715.0039.2419-.2904.533l.5275.5332Zm-2.0691-3.5362.3944-.6379c-2.6378-1.6311-5.9834-1.6311-8.62124 0l.39444.6379.39444.6379c2.15436-1.3321 4.88916-1.3321 7.04356 0l.3944-.6379ZM15.5 7.5h-.75c0 1.51879-1.2312 2.75-2.75 2.75v1.5c2.3472 0 4.25-1.90279 4.25-4.25h-.75ZM12 11v-.75c-1.5188 0-2.75-1.23121-2.75-2.75h-1.5c0 2.34721 1.90278 4.25 4.25 4.25V11ZM8.5 7.5h.75c0-1.51879 1.2312-2.75 2.75-2.75v-1.5c-2.34722 0-4.25 1.90279-4.25 4.25h.75ZM12 4v.75c1.5188 0 2.75 1.23121 2.75 2.75h1.5c0-2.34721-1.9028-4.25-4.25-4.25V4Z" class="Vector"/>
    </g>
  </g>
  <defs>
    <clipPath id="a" class="a">
      <path fill="#fff" d="M0 0h24v24H0z"/>
    </clipPath>
  </defs>
</svg>
