<svg xmlns="http://www.w3.org/2000/svg" width="24" height="24" fill="none">
  <g class="inbox-download" clip-path="url(#a)">
    <g class="inbox-download">
      <path fill="#1B1C1B" d="M7.08752 3.24488c.41139-.04834.70569-.42102.65736-.8324-.04834-.41139-.42102-.70569-.8324-.65736L7 2.5l.08752.74488Zm-3.19628.50875-.53239-.52827v.00001l.53239.52826Zm0 16.34427-.53239.5283.53239-.5283Zm16.21756 0 .5324.5283-.5324-.5283Zm0-16.34427.5324-.52825v-.00004l-.5324.52829Zm-3.0213-1.99851c-.4114-.04833-.784.24597-.8324.65736-.0483.41138.246.78406.6574.8324L17 2.5l.0875-.74488Zm-7.0497 5.72214c-.28869-.29703-.76352-.30377-1.06054-.01507-.29703.2887-.30377.76353-.01507 1.06055L9.5 8l.5378-.52274Zm5 1.04547c.2887-.29704.282-.77186-.0151-1.06056-.297-.28869-.7718-.28193-1.0605.0151L14.5 8l.5378.52273ZM12.75 2.5c0-.41421-.3358-.75-.75-.75s-.75.33579-.75.75h1.5Zm1.9495 12.4472.6711.3349-.6711-.3349Zm-5.39896 0 .67107-.3349-.67107.3349ZM7 2.5l-.08752-.74488c-1.48407.17438-2.64915.55871-3.55363 1.47024l.53239.52827.53239.52826c.56158-.56596 1.33334-.88067 2.66389-1.03701L7 2.5ZM3.89124 3.75363l-.53239-.52826c-.85716.86386-1.2435 1.96274-1.42836 3.34845C1.74843 7.93855 1.75 9.69015 1.75 11.9258h1.5c0-2.27773.00157-3.91116.16732-5.15363.16295-1.2215.47223-1.95202 1.00631-2.49028l-.53239-.52826ZM2.5 11.9258h-.75c0 2.2356-.00157 3.9872.18049 5.3519.18486 1.3857.5712 2.4846 1.42836 3.3485l.53239-.5283.53239-.5283c-.53408-.5382-.84336-1.2687-1.00631-2.4902-.16575-1.2425-.16732-2.8759-.16732-5.1536H2.5Zm1.39124 8.1721-.53239.5283c.85797.8646 1.95068 1.2551 3.32841 1.4417 1.35555.1837 3.09493.1821 5.31274.1821v-1.5c-2.26053 0-3.8799-.0016-5.11134-.1685-1.20925-.1638-1.93175-.4744-2.46503-1.0119l-.53239.5283ZM12 21.5v.75c2.2178 0 3.9572.0016 5.3127-.1821 1.3778-.1866 2.4705-.5771 3.3285-1.4417l-.5324-.5283-.5324-.5283c-.5333.5375-1.2558.8481-2.4651 1.0119-1.2314.1669-2.8508.1685-5.1113.1685v.75Zm8.1088-1.4021.5324.5283c.8571-.8639 1.2435-1.9628 1.4283-3.3485.1821-1.3647.1805-3.1163.1805-5.3519h-1.5c0 2.2777-.0016 3.9111-.1673 5.1536-.163 1.2215-.4722 1.952-1.0063 2.4902l.5324.5283ZM21.5 11.9258h.75c0-2.23565.0016-3.98725-.1805-5.35198-.1848-1.38571-.5712-2.48458-1.4283-3.34844l-.5324.52825-.5324.52825c.5341.53826.8433 1.26878 1.0063 2.49028.1657 1.24248.1673 2.87591.1673 5.15364h.75Zm-1.3912-8.17217.5324-.52829c-.9046-.9115-2.0696-1.29583-3.5537-1.47022L17 2.5l-.0875.74488c1.3305.15633 2.1023.47104 2.6639 1.03704l.5324-.52829ZM9.5 8l-.53781.52274c.0887.09126.23433.27308.44752.5445.19982.2544.44086.56343.68979.85725.2463.29061.5218.59231.7973.82701.138.1175.2936.2335.461.3231.1615.0864.3839.1754.6422.1754v-1.5c.0832 0 .1116.0267.0656.00206-.0401-.02146-.1054-.06525-.1962-.14254-.1821-.15512-.3956-.38351-.6255-.65474-.227-.26796-.449-.55233-.6546-.81409-.1922-.24473-.3944-.50184-.5515-.66343L9.5 8Zm5 0-.5378-.52273c-.1571.16159-.3593.41869-.5515.66342-.2056.26176-.4276.54613-.6546.81409-.2299.27123-.4434.49962-.6255.65473-.0907.0773-.1561.12108-.1962.14254-.046.02465-.0176-.00205.0656-.00205v1.5c.2583 0 .4807-.089.6422-.1754.1674-.0896.323-.2056.461-.3231.2755-.2347.5511-.5364.7973-.827.2489-.29383.49-.60286.6898-.85726.2132-.27143.3588-.45325.4475-.54451L14.5 8ZM12 10.5h.75v-8h-1.5v8H12Zm9.5 3v-.75h-4.9257v1.5H21.5v-.75Zm-4.9257 0v-.75c-1.2802 0-2.1354 1.0398-2.5459 1.8623l.6711.3349.6711.3349c.3317-.6647.7997-1.0321 1.2037-1.0321v-.75Zm-1.8748 1.4472-.6711-.3349c-.2902.5815-.8538 1.1377-2.0284 1.1377v1.5c1.8032 0 2.8544-.9336 3.3706-1.9679l-.6711-.3349ZM12 16.5v-.75c-1.1746 0-1.7382-.5562-2.02839-1.1377l-.67107.3349-.67107.3349C9.14562 16.3164 10.1968 17.25 12 17.25v-.75Zm-2.69946-1.5528.67107-.3349c-.41049-.8225-1.26577-1.8623-2.54595-1.8623v1.5c.40404 0 .87206.3674 1.20381 1.0321l.67107-.3349ZM7.42566 13.5v-.75H2.5v1.5h4.92566v-.75Z" class="Vector"/>
    </g>
  </g>
  <defs>
    <clipPath id="a" class="a">
      <path fill="#fff" d="M0 0h24v24H0z"/>
    </clipPath>
  </defs>
</svg>
