<svg xmlns="http://www.w3.org/2000/svg" width="24" height="24" fill="none">
  <g class="keyboard">
    <g class="keyboard">
      <path fill="#1B1C1B" d="m3.46243 7.90796.47579.57976h.00001l-.4758-.57976Zm-.55447.55447.57976.4758v-.00001l-.57976-.47579Zm0 12.07517-.57977.4758.00006.0001.57971-.4759Zm.55447.5544.47581-.5797-.00005-.0001-.47576.5798Zm17.07517 0 .4758.5798v-.0001l-.4758-.5797Zm.5544-.5544.5797.4758h.0001l-.5798-.4758Zm0-12.07517-.5798.47576.0001.00005.5797-.47581Zm-.5544-.55447.4759-.57971-.0001-.00006-.4758.57977ZM11.25 7c0 .41421.3358.75.75.75s.75-.33579.75-.75h-1.5Zm3.5-5c0-.41421-.3358-.75-.75-.75s-.75.33579-.75.75h1.5ZM7 11.25c-.41421 0-.75.3358-.75.75s.33579.75.75.75v-1.5Zm1 1.5c.41421 0 .75-.3358.75-.75s-.33579-.75-.75-.75v1.5Zm3.5-1.5c-.4142 0-.75.3358-.75.75s.3358.75.75.75v-1.5Zm1 1.5c.4142 0 .75-.3358.75-.75s-.3358-.75-.75-.75v1.5Zm3.5-1.5c-.4142 0-.75.3358-.75.75s.3358.75.75.75v-1.5Zm1 1.5c.4142 0 .75-.3358.75-.75s-.3358-.75-.75-.75v1.5Zm-10 3.5c-.41421 0-.75.3358-.75.75s.33579.75.75.75v-1.5Zm10 1.5c.4142 0 .75-.3358.75-.75s-.3358-.75-.75-.75v1.5ZM14.5 7v-.75h-5v1.5h5V7Zm-5 0v-.75c-1.62537 0-2.91033-.00123-3.92475.11868-1.03097.12186-1.87967.3777-2.58862.95952l.4758.57976.4758.57976c.3974-.32614.92374-.52428 1.8131-.62941C6.65724 7.75123 7.83789 7.75 9.5 7.75V7Zm-6.03757.90796-.47579-.57976c-.24052.19739-.46105.41792-.65844.65844l.57976.47579.57976.47579c.13505-.16456.28594-.31545.4505-.4505l-.47579-.57976Zm-.55447.55447-.57976-.4758c-.58182.70895-.83765 1.55764-.95952 2.58857C1.24877 11.5897 1.25 12.8746 1.25 14.5h1.5c0-1.6621.00123-2.8428.10831-3.7487.10512-.88933.30327-1.41567.62941-1.81307l-.57976-.4758ZM2 14.5h-.75c0 1.6254-.00123 2.9103.11868 3.9248.12187 1.0309.3777 1.8796.95951 2.5886l.57977-.4758.57977-.4758c-.32615-.3974-.5243-.9238-.62942-1.8131C2.75123 17.3428 2.75 16.1621 2.75 14.5H2Zm.90796 6.0376-.57971.4759c.19737.2404.41789.4609.65842.6583l.47576-.5798.47576-.5798c-.16455-.135-.31545-.2859-.45052-.4505l-.57971.4759Zm.55447.5544-.47581.5797c.70895.5819 1.55765.8377 2.58863.9596 1.01441.1199 2.29938.1187 3.92475.1187v-1.5c-1.66211 0-2.84275-.0012-3.74866-.1083-.88936-.1051-1.4157-.3033-1.8131-.6294l-.47581.5797ZM9.5 22v.75h5v-1.5h-5V22Zm5 0v.75c1.6254 0 2.9103.0012 3.9248-.1187 1.0309-.1219 1.8796-.3777 2.5886-.9595l-.4758-.5798-.4758-.5798c-.3974.3262-.9238.5244-1.8131.6295-.9059.1071-2.0866.1083-3.7487.1083V22Zm6.0376-.908.4758.5797c.2405-.1973.461-.4178.6583-.6583l-.5797-.4758-.5797-.4758c-.1351.1645-.286.3154-.4505.4505l.4758.5797Zm.5544-.5544.5798.4758c.5818-.709.8376-1.5577.9595-2.5886.1199-1.0145.1187-2.2994.1187-3.9248h-1.5c0 1.6621-.0012 2.8428-.1083 3.7487-.1051.8893-.3033 1.4157-.6295 1.8131l.5798.4758ZM22 14.5h.75c0-1.6254.0012-2.9103-.1187-3.9248-.1219-1.03093-.3777-1.87963-.9596-2.58858l-.5797.47581-.5797.47581c.3261.3974.5243.92374.6294 1.81306.1071.9059.1083 2.0866.1083 3.7487H22Zm-.908-6.03757.5798-.47576c-.1974-.24053-.4179-.46105-.6583-.65842l-.4759.57971-.4759.57971c.1646.13507.3155.28597.4505.45052l.5798-.47576Zm-.5544-.55447.4758-.57977c-.709-.58181-1.5577-.83764-2.5886-.95951C17.4103 6.24877 16.1254 6.25 14.5 6.25v1.5c1.6621 0 2.8428.00123 3.7487.10831.8893.10512 1.4157.30327 1.8131.62942l.4758-.57977ZM12 7h.75V5h-1.5v2H12Zm0-2h.75c0-.13808.1119-.25.25-.25v-1.5c-.9665 0-1.75.78352-1.75 1.75H12Zm1-1v.75c.9665 0 1.75-.78352 1.75-1.75h-1.5c0 .13808-.1119.25-.25.25V4Zm1-1h.75V2h-1.5v1H14Zm-7 9v.75h1v-1.5H7V12Zm4.5 0v.75h1v-1.5h-1V12Zm4.5 0v.75h1v-1.5h-1V12Zm-9 5v.75h10v-1.5H7V17Z" class="Vector"/>
    </g>
  </g>
</svg>
