<svg xmlns="http://www.w3.org/2000/svg" width="24" height="24" fill="none">
  <g class="notifications" clip-path="url(#a)">
    <g class="notifications">
      <path fill="#1B1C1B" d="m5.15837 11.491.74896.0394-.74896-.0394Zm-1.23624 3.8174-.44999-.6h-.00003l.45002.6Zm16.15577 0 .45-.6-.45.6Zm-1.2363-3.8174-.749.0394.749-.0394ZM15.75 19c0-.4142-.3358-.75-.75-.75s-.75.3358-.75.75h1.5Zm-6 0c0-.4142-.33579-.75-.75-.75s-.75.3358-.75.75h1.5Zm-4.59163-7.509-.74896-.0394c-.03999.7596-.03497 1.3771-.16192 1.9617-.11725.5398-.3342.9642-.77535 1.2951l.44999.6.44999.6c.80608-.6045 1.17051-1.3908 1.3412-2.1768.16099-.7413.16052-1.5648.19401-2.2012l-.74896-.0394Zm-1.23624 3.8174-.45002-.6C2.7028 15.2854 2.25 16.1909 2.25 17.1527h1.5c0-.4896.23048-.9505.62215-1.2443l-.45002-.6ZM3 17.1527h-.75c0 1.3813 1.0872 2.5973 2.55 2.5973v-1.5c-.5736 0-1.05-.4824-1.05-1.0973H3ZM4.8 19v.75h14.4v-1.5H4.8V19Zm14.4 0v.75c1.4628 0 2.55-1.216 2.55-2.5973h-1.5c0 .6149-.4764 1.0973-1.05 1.0973V19Zm1.8-1.8473h.75c0-.9618-.4527-1.8672-1.2221-2.4443l-.45.6-.45.6c.3916.2937.6221.7547.6221 1.2443H21Zm-.9221-1.8443.45-.6c-.4412-.3309-.6582-.7553-.7754-1.2952-.127-.5845-.1219-1.202-.1619-1.9616l-.749.0394-.749.0394c.0335.6364.0331 1.4599.1941 2.2012.1707.786.5351 1.5723 1.3412 2.1768l.45-.6Zm-1.2363-3.8174.749-.0394C19.3781 7.41447 16.0427 4.25 12 4.25v1.5c3.2449 0 5.9221 2.53999 6.0926 5.7804l.749-.0394ZM12 5v-.75c-4.04272 0-7.37812 3.16446-7.59059 7.2016l.74896.0394.74896.0394C6.07788 8.28998 8.75506 5.75 12 5.75V5Zm-1.5-1.875h-.75c0 .59617.23301 1.21876.5874 1.69558.3489.4693.9211.92942 1.6626.92942v-1.5c-.0869 0-.2647-.06317-.4587-.32425-.1885-.25358-.2913-.56849-.2913-.80075h-.75ZM12 5v.75c.7415 0 1.3137-.46012 1.6626-.92942.3544-.47682.5874-1.09941.5874-1.69558h-1.5c0 .23226-.1028.54717-.2913.80075-.194.26108-.3718.32425-.4587.32425V5Zm1.5-1.875h.75c0-.65418-.2848-1.17742-.7786-1.50067C13.0263 1.33296 12.483 1.25 12 1.25v1.5c.3454 0 .5521.06533.6499.12934.0403.02641.0578.0493.0685.06954.0112.02138.0316.07218.0316.17612h.75ZM12 2v-.75c-.483 0-1.0263.08296-1.4714.37433-.4938.32325-.7786.84649-.7786 1.50067h1.5c0-.10394.0204-.15474.0316-.17612.0107-.02024.0282-.04313.0685-.06954.0978-.06401.3045-.12934.6499-.12934V2Zm3 17h-.75c0 1.2427-1.0073 2.25-2.25 2.25v1.5c2.0711 0 3.75-1.6789 3.75-3.75H15Zm-3 3v-.75c-1.2427 0-2.25-1.0073-2.25-2.25h-1.5c0 2.0711 1.67889 3.75 3.75 3.75V22Z" class="Vector"/>
    </g>
  </g>
  <defs>
    <clipPath id="a" class="a">
      <path fill="#fff" d="M0 0h24v24H0z"/>
    </clipPath>
  </defs>
</svg>
