<svg xmlns="http://www.w3.org/2000/svg" width="24" height="24" fill="none">
  <g class="radio_button_checked">
    <path fill="#1B1C1B" d="M12 17c1.3833 0 2.5625-.4875 3.5375-1.4625C16.5125 14.5625 17 13.3833 17 12c0-1.3833-.4875-2.5625-1.4625-3.5375C14.5625 7.4875 13.3833 7 12 7c-1.3833 0-2.5625.4875-3.5375 1.4625C7.4875 9.4375 7 10.6167 7 12c0 1.3833.4875 2.5625 1.4625 3.5375C9.4375 16.5125 10.6167 17 12 17Zm0 5c-1.3833 0-2.68333-.2625-3.9-.7875-1.21667-.525-2.275-1.2375-3.175-2.1375-.9-.9-1.6125-1.9583-2.1375-3.175C2.2625 14.6833 2 13.3833 2 12c0-1.3833.2625-2.68333.7875-3.9.525-1.21667 1.2375-2.275 2.1375-3.175.9-.9 1.95833-1.6125 3.175-2.1375C9.31667 2.2625 10.6167 2 12 2c1.3833 0 2.6833.2625 3.9.7875 1.2167.525 2.275 1.2375 3.175 2.1375.9.9 1.6125 1.95833 2.1375 3.175.525 1.21667.7875 2.5167.7875 3.9 0 1.3833-.2625 2.6833-.7875 3.9-.525 1.2167-1.2375 2.275-2.1375 3.175-.9.9-1.9583 1.6125-3.175 2.1375-1.2167.525-2.5167.7875-3.9.7875Zm0-2c2.2333 0 4.125-.775 5.675-2.325C19.225 16.125 20 14.2333 20 12c0-2.23333-.775-4.125-2.325-5.675C16.125 4.775 14.2333 4 12 4c-2.23333 0-4.125.775-5.675 2.325C4.775 7.875 4 9.76667 4 12c0 2.2333.775 4.125 2.325 5.675C7.875 19.225 9.76667 20 12 20Z" class="radio_button_checked"/>
  </g>
</svg>
