<svg xmlns="http://www.w3.org/2000/svg" width="24" height="24" fill="none">
  <g class="seal">
    <g class="seal">
      <path stroke="currentColor" stroke-width="1.5" d="M9.77907 3.35212c.56373-.60314.84553-.90471 1.14663-1.07271.6678-.37255 1.4808-.37255 2.1486 0 .3011.168.5829.46957 1.1466 1.07271.6787.72616 1.3625.99495 2.3236.96247.8251-.02789 1.2377-.04183 1.5694.0523.7356.20872 1.3105.78365 1.5192 1.51923.0941.33172.0802.74426.0523 1.56934-.0336.99337.2599 1.66696.9625 2.32361.6031.56373.9047.84553 1.0727 1.14663.3725.6678.3725 1.4808 0 2.1486-.168.3011-.4696.5829-1.0727 1.1466-.7262.6787-.995 1.3625-.9625 2.3236.0279.8251.0418 1.2377-.0523 1.5694-.2087.7356-.7836 1.3105-1.5192 1.5192-.3317.0941-.7443.0802-1.5694.0523-.9611-.0325-1.6449.2363-2.3236.9625-.5637.6031-.8455.9047-1.1466 1.0727-.6678.3725-1.4808.3725-2.1486 0-.3011-.168-.5829-.4696-1.14663-1.0727-.65665-.7026-1.33024-.9961-2.32361-.9625-.82508.0279-1.23762.0418-1.56934-.0523-.73558-.2087-1.31051-.7836-1.51923-1.5192-.09413-.3317-.08019-.7443-.0523-1.5694.03248-.9611-.23631-1.6449-.96247-2.3236-.60314-.5637-.90471-.8455-1.07271-1.1466-.37255-.6678-.37255-1.4808 0-2.1486.168-.3011.46957-.5829 1.07271-1.14663.72616-.67869.99495-1.36249.96247-2.32361-.02789-.82508-.04183-1.23762.0523-1.56934.20872-.73558.78365-1.31051 1.51923-1.51923 1.44226-.40925 2.69286.26926 3.89295-1.01477Z" class="Vector"/>
    </g>
  </g>
</svg>
