<svg xmlns="http://www.w3.org/2000/svg" width="25" height="24" fill="none">
  <g class="share">
    <g class="share">
      <path stroke="currentColor" stroke-linejoin="round" stroke-width="1.5" d="m8.72852 10.7497 6.49998-2.99946M8.72852 13.2502l6.49998 2.9995M21 6.5c0 1.65685-1.3431 3-3 3s-3-1.34315-3-3 1.3431-3 3-3 3 1.34315 3 3ZM9 12c0 1.6569-1.34315 3-3 3s-3-1.3431-3-3 1.34315-3 3-3 3 1.3431 3 3Zm12 5.5c0 1.6569-1.3431 3-3 3s-3-1.3431-3-3 1.3431-3 3-3 3 1.3431 3 3Z" class="Vector"/>
    </g>
  </g>
</svg>
