<svg xmlns="http://www.w3.org/2000/svg" width="24" height="24" fill="none">
  <g class="skipfilled">
    <g class="skipfilled">
      <path fill="#1B1C1B" d="m11.8547 6.89181.0893.05742c1.3166.8464 2.363 1.51907 3.1065 2.13454.7564.62609 1.3144 1.28333 1.4936 2.13653.1079.5139.1079 1.0458 0 1.5597-.1792.8533-.7372 1.5105-1.4936 2.1366-.7435.6154-1.7899 1.2881-3.1064 2.1345l-.0894.0574c-1.4336.9216-2.5689 1.6516-3.49528 2.0991-.93214.4504-1.81819.7003-2.69321.4327-.51611-.1578-.98872-.4345-1.38356-.8069-.66077-.6232-.91703-1.5186-1.03754-2.5763-.12013-1.0542-.12012-2.4432-.12011-4.2061v-.1017c-.00001-1.7628-.00002-3.15191.12011-4.2061.12051-1.05764.37677-1.95303 1.03754-2.57628.39484-.37242.86745-.64909 1.38356-.80691.87502-.26756 1.76106-.01764 2.69321.4327.92638.44756 2.06168 1.17747 3.49528 2.0991ZM19.875 3c-.5523 0-1 .44772-1 1v16c0 .5523.4477 1 1 1s1-.4477 1-1V4c0-.55228-.4477-1-1-1Z" class="Vector" clip-rule="evenodd"/>
    </g>
  </g>
</svg>
