<svg xmlns="http://www.w3.org/2000/svg" width="24" height="24" fill="none">
  <g class="taxi">
    <g class="taxi">
      <path fill="#1B1C1B" d="M2.83541 12.3292c-.37048-.1853-.82099-.0351-1.00623.3354-.18524.3705-.03507.821.33541 1.0062L2.5 13l.33541-.6708Zm1.32918 2.3416c.37048.1853.82099.0351 1.00623-.3354.18524-.3705.03507-.821-.33541-1.0062L4.5 14l-.33541.6708Zm17.51731-.4432c.4018-.1005.6462-.5077.5457-.9095-.1005-.4018-.5077-.6462-.9095-.5457L21.5 13.5l.1819.7276Zm-2.3638-.9552c-.4018.1005-.6462.5077-.5457.9095.1005.4018.5077.6462.9095.5457L19.5 14l-.1819-.7276ZM7.30364 18.2215c-.15383.3846.03324.821.41783.9749.38459.1538.82106-.0333.97489-.4179L8 18.5l-.69636-.2785Zm.94203-.3357-.69635-.2786-.00001.0001.69636.2785Zm.92894-1.6279.42047.6211.00001-.0001-.42048-.621Zm6.57969 1.6279-.6964.2785.0001.0001.6963-.2786Zm-.4507.8928c.1539.3845.5904.5716.975.4178.3845-.1539.5716-.5904.4178-.975L16 18.5l-.6964.2786ZM2.75 18c0-.4142-.33579-.75-.75-.75s-.75.3358-.75.75h1.5Zm-.12812 3.7764-.30462.6854h.00004l.30458-.6854Zm3.25624 0 .30458.6854h.00004l-.30462-.6854ZM7.25 19c0-.4142-.33579-.75-.75-.75s-.75.3358-.75.75h1.5Zm11 0c0-.4142-.3358-.75-.75-.75s-.75.3358-.75.75h1.5Zm-.1281 2.7764-.3046.6853v.0001l.3046-.6854Zm3.2562 0 .3046.6854v-.0001l-.3046-.6853ZM22.75 18c0-.4142-.3358-.75-.75-.75s-.75.3358-.75.75h1.5Zm-3.0854-9.17082c-.3705.18524-.5207.63575-.3354 1.00623.1852.37049.6357.52069 1.0062.33539L20 9.5l-.3354-.67082Zm1.6708.84164c.3705-.18524.5207-.63575.3354-1.00623-.1852-.37048-.6357-.52065-1.0062-.33541L21 9l.3354.67082Zm-17.67081.49998c.37048.1853.82099.0351 1.00623-.33539.18524-.37048.03507-.82099-.33541-1.00623L4 9.5l-.33541.6708Zm-.32918-1.84162c-.37048-.18524-.82099-.03507-1.00623.33541-.18524.37048-.03507.82099.33541 1.00623L3 9l.33541-.67082ZM5.5883 7.23509l-.71151-.23717.71151.23717Zm1.1838-2.35757.43853.60844.00001-.00001-.43854-.60843Zm10.4558 0-.4385.60844.4385-.60844Zm1.1838 2.35757-.7115.23716v.00001l.7115-.23717Zm-3.5579-4.89002-.5775.4785v.00001l.5775-.47851Zm-5.70759 0 .57751.47853.00001-.00002-.57752-.47851ZM21.1168 18.6104l.093.7442h.0001l-.0931-.7442ZM18 19v.75c.0311 0 .0622-.0019.093-.0058L18 19ZM6 19l-.09302.7442c.03085.0039.06192.0058.09302.0058V19Zm-3.11684-.3896-.0931.7442h.00008l.09302-.7442ZM2.5 13l-.33541.6708 2 1L4.5 14l.33541-.6708-2-1L2.5 13Zm19 .5-.1819-.7276-2 .5L19.5 14l.1819.7276 2-.5L21.5 13.5ZM8 18.5l.69636.2785.24567-.6142-.69636-.2785-.69636-.2785-.24567.6142L8 18.5Zm.24567-.6142.69635.2786c.1888-.472.30894-.7695.42406-.9854.10641-.1996.1758-.264.229-.3l-.42047-.6211-.42047-.6211c-.32773.2219-.54014.5148-.71163.8364-.16278.3052-.31665.6927-.49319 1.134l.69635.2786Zm.92894-1.6279.42048.621c.05319-.036.13881-.0765.3636-.1011.24321-.0268.56401-.0278 1.07241-.0278v-1.5c-.4753 0-.8923-.001-1.23616.0367-.36231.0398-.71308.1283-1.04081.3502l.42048.621ZM11.0311 16v.75h1.9378v-1.5h-1.9378V16Zm1.9378 0v.75c.5084 0 .8292.001 1.0724.0278.2248.0246.3104.0651.3636.1011l.4205-.621.4205-.621c-.3277-.2219-.6785-.3104-1.0408-.3502-.3439-.0377-.7609-.0367-1.2362-.0367V16Zm1.8565.2579-.4205.621c.0532.0361.1226.1005.229.3001.1151.2159.2353.5134.424.9853l.6964-.2785.6964-.2785c-.1766-.4414-.3304-.8289-.4932-1.1341-.1715-.3216-.3839-.6145-.7116-.8363l-.4205.621Zm.9289 1.6279-.6963.2786.2456.6142L16 18.5l.6964-.2786-.2457-.6142-.6964.2786ZM2 18h-.75v2.882h1.5V18H2Zm0 2.882h-.75c0 .7115.45019 1.3055 1.06726 1.5798l.30462-.6854.30462-.6854c-.14519-.0645-.1765-.1631-.1765-.209H2Zm.62188.8944-.30458.6854c.20728.0921.59779.2882 1.07328.2882v-1.5c-.09491 0-.1768-.0313-.46412-.159l-.30458.6854Zm.7687.2236v.75h1.71884v-1.5H3.39058V22Zm1.71884 0v.75c.47549 0 .866-.1961 1.07328-.2882l-.30458-.6854-.30458-.6854c-.28732.1277-.36921.159-.46412.159V22Zm.7687-.2236.30462.6854C6.79981 22.1875 7.25 21.5935 7.25 20.882h-1.5c0 .0459-.03131.1445-.1765.209l.30462.6854ZM6.5 20.882h.75V19h-1.5v1.882h.75ZM17.5 19h-.75v1.882h1.5V19h-.75Zm0 1.882h-.75c0 .7115.4503 1.3055 1.0673 1.5797l.3046-.6853.3046-.6853c-.1452-.0646-.1765-.1632-.1765-.2091h-.75Zm.6219.8944-.3046.6854c.2073.0921.5978.2882 1.0733.2882v-1.5c-.0949 0-.1768-.0313-.4641-.159l-.3046.6854Zm.7687.2236v.75h1.7188v-1.5h-1.7188V22Zm1.7188 0v.75c.4755 0 .866-.1961 1.0733-.2882l-.3046-.6854-.3046-.6854c-.2873.1277-.3692.159-.4641.159V22Zm.7687-.2236.3046.6853c.617-.2742 1.0673-.8682 1.0673-1.5797h-1.5c0 .0459-.0313.1445-.1765.2091l.3046.6853ZM22 20.882h.75V18h-1.5v2.882H22ZM20 9.5l.3354.6708 1-.49998L21 9l-.3354-.67082-1 .5L20 9.5Zm-16 0 .33541-.67082-1-.5L3 9l-.33541.67082 1 .49998L4 9.5Zm.5 1 .71151.2372 1.0883-3.26494-.71151-.23717-.71151-.23717-1.0883 3.26488L4.5 10.5Zm1.0883-3.26491.71151.23717c.22548-.67641.37574-1.12361.529-1.45306.14512-.31196.26192-.44683.38182-.53324l-.43853-.60844-.43853-.60844c-.40388.2911-.65897.67499-.8648 1.11743-.19769.42495-.37743.96778-.59198 1.61141l.71151.23717Zm1.1838-2.35757.43854.60843c.1199-.08642.28478-.15457.62662-.1936.36101-.04122.83278-.04235 1.54578-.04235v-1.5c-.67845 0-1.25027-.00113-1.71592.05203-.48482.05535-.92969.17596-1.33356.46706l.43854.60843ZM9.38304 4.5v.75H14.617v-1.5H9.38304v.75Zm5.23396 0v.75c.713 0 1.1847.00113 1.5457.04235.3419.03903.5068.10718.6267.19361l.4385-.60844.4385-.60844c-.4039-.29109-.8487-.4117-1.3335-.46705-.4657-.05316-1.0375-.05203-1.7159-.05203v.75Zm2.6109.37752-.4385.60844c.1199.08642.2367.22129.3818.53324.1533.32945.3035.77665.529 1.45305l.7115-.23716.7115-.23716c-.2145-.64364-.3943-1.18647-.592-1.61142-.2058-.44244-.4609-.82634-.8648-1.11743l-.4385.60844Zm1.1838 2.35757-.7115.23717 1.0883 3.26494L19.5 10.5l.7115-.2372-1.0883-3.26488-.7115.23717ZM15.5 4.5l.7356-.14643c-.1178-.59172-.2139-1.07674-.3189-1.45486-.1046-.37624-.2403-.7364-.4854-1.03215l-.5775.47851-.5775.47851c.0408.04931.1081.16333.1951.47665.0865.31144.1706.73135.293 1.3462L15.5 4.5Zm-.6462-2.15493.5775-.4785c-.2726-.32903-.6057-.49014-.9717-.5601-.3116-.05957-.6797-.05647-1.0311-.05647v1.5c.4082 0 .6098.0031.7495.02979.0555.01061.0741.02085.0761.02199.0014.00076.0025.00147.0045.00316.0022.00187.0082.00716.0177.01863l.5775-.4785ZM13.4285 2v-.75h-2.857v1.5h2.857V2Zm-2.857 0v-.75c-.3514 0-.71947-.0031-1.0311.05647-.36596.06996-.6991.23108-.97171.56009l.57752.47851.57752.47851c.0095-.01147.01543-.01677.01765-.01864.00201-.00169.00313-.0024.0045-.00316.00206-.00114.02067-.01138.07617-.02199.13963-.02669.34125-.02979.74945-.02979V2Zm-1.42529.34507-.57751-.47853c-.24505.29575-.38084.65592-.48537 1.03216-.10506.37812-.20111.86316-.3189 1.45487L8.5 4.5l.73557.14643c.1224-.61487.20649-1.03477.29302-1.3462.08704-.31331.15426-.42732.19513-.47663l-.57751-.47853ZM4.5 10.5v.75h15v-1.5h-15v.75Zm15 0-.5303.5303c.5109.511 1.0815 1.0315 1.5511 1.625.4707.595.7292 1.1335.7292 1.6221h1.5c0-.9986-.5129-1.8702-1.0529-2.5528-.5411-.6841-1.2205-1.3087-1.6668-1.75493L19.5 10.5Zm2.5 3.7774h-.75v3.2778h1.5v-3.2778H22Zm0 3.2778h-.75c0 .1962-.1321.2992-.2263.311l.0931.7442.0931.7442c.9132-.1142 1.5401-.918 1.5401-1.7994H22Zm-.8832 1.0552-.093-.7442-3.1168.3896L18 19l.093.7442 3.1168-.3896-.093-.7442ZM18 19v-.75H6v1.5h12V19ZM6 19l.09303-.7442-3.11684-.3896-.09303.7442-.09302.7442 3.11684.3896L6 19Zm-3.11684-.3896.0931-.7442c-.09408-.0118-.22626-.1149-.22626-.311h-1.5c0 .8815.62692 1.6852 1.54006 1.7994l.0931-.7442ZM2 17.5552h.75v-3.2778h-1.5v3.2778H2Zm0-3.2778h.75c0-.4886.25854-1.0271.72925-1.6221.4695-.5935 1.04011-1.114 1.55108-1.625L4.5 10.5l-.53033-.53033c-.44624.44623-1.12563 1.07083-1.66682 1.75493-.53999.6826-1.05285 1.5542-1.05285 2.5528H2Z" class="Vector"/>
    </g>
  </g>
</svg>
