<svg xmlns="http://www.w3.org/2000/svg" width="24" height="24" fill="none">
  <g class="Ticket" clip-path="url(#a)">
    <g class="Ticket">
      <path stroke="currentColor" stroke-linecap="round" stroke-linejoin="round" stroke-width="1.5" d="M19 15 9 5m10.7085 2.65038c.1572-.15715.428-.17317.5872.00055.9327 1.01731 1.4489 1.77058 1.6189 2.60477.0978.48.1117.9685.0411 1.4437-.1908 1.2842-1.2313 2.3247-3.3123 4.4057l-2.5383 2.5383c-2.081 2.081-3.1215 3.1215-4.4057 3.3123-.4752.0706-.9637.0567-1.4437-.0411-.8341-.17-1.58729-.6861-2.60443-1.6186-.17393-.1594-.15785-.4305-.00053-.5878.87619-.8762.83455-2.3384-.09298-3.266-.92754-.9275-2.38974-.9691-3.26593-.0929-.15732.1573-.42842.1734-.58788-.0006-.93249-1.0171-1.44859-1.7703-1.61856-2.6044-.0978-.48-.11171-.9685-.0411-1.4437.19084-1.2842 1.23132-2.32472 3.31228-4.40568l2.53835-2.53835c2.08096-2.08096 3.12148-3.12144 4.40568-3.31229.4752-.0706.9637-.05669 1.4437.04111.8342.16999 1.5875.68618 2.6048 1.61888.1737.15928.1577.43005.0005.5872-.8762.87618-.8345 2.33838.093 3.26592s2.3898.96917 3.2659.09299Z" class="Vector"/>
    </g>
  </g>
  <defs>
    <clipPath id="a" class="a">
      <path fill="#fff" d="M0 0h24v24H0z"/>
    </clipPath>
  </defs>
</svg>
