<svg xmlns="http://www.w3.org/2000/svg" width="24" height="24" fill="none" viewBox="0 0 24 24">
  <path stroke="#1B1C1B" stroke-linecap="round" stroke-linejoin="round" stroke-width="1.5" d="M17.478 8.898h.022c2.485 0 4.5 1.98 4.5 4.423A4.4 4.4 0 0 1 20 17m-2.522-8.102a5.71 5.71 0 0 0 .022-.492C17.5 5.421 15.038 3 12 3 9.123 3 6.762 5.171 6.52 7.937m10.958.961a5.334 5.334 0 0 1-1.235 2.949M6.52 7.937C3.984 8.175 2 10.274 2 12.83a4.88 4.88 0 0 0 2 3.932m2.52-8.825a5.035 5.035 0 0 1 3.48.96"/>
  <path stroke="#1B1C1B" stroke-width="1.5" d="M9 3.655A3.836 3.836 0 0 0 5.844 2 3.85 3.85 0 0 0 2 5.857C2 7.154 2.638 8.3 3.616 9"/>
  <path stroke="#1B1C1B" stroke-linecap="round" stroke-linejoin="round" stroke-width="1.5" d="m8 17.658.327-.258c.675-.533 1.47-.533 2.146 0l.254.2c.675.533 1.47.533 2.146 0l.254-.2c.675-.533 1.47-.533 2.146 0l.254.2c.152.12.31.214.473.28m-2 3.72.27-.2c.718-.533 1.563-.533 2.28 0l.27.2c.718.533 1.564.533 2.282 0l.27-.2c.717-.533 1.563-.533 2.28 0l.348.258M10 21.6l-.27-.2c-.717-.533-1.563-.533-2.28 0l-.27.2c-.718.533-1.564.533-2.282 0l-.27-.2c-.717-.533-1.563-.533-2.28 0L2 21.658"/>
</svg>
