<svg xmlns="http://www.w3.org/2000/svg" width="24" height="24" fill="none" viewBox="0 0 24 24">
  <path stroke="#1B1C1B" stroke-linecap="round" stroke-linejoin="round" stroke-width="1.5" d="M17 13a5 5 0 0 0-10 0"/>
  <path stroke="#1B1C1B" stroke-linecap="round" stroke-linejoin="round" stroke-width="2" d="M12 4h.009m6.358 2.633.006.006M5.637 6.64l.006-.007m15.361 6.363v.01m-18-.01v.01"/>
  <path stroke="#1B1C1B" stroke-linecap="round" stroke-width="1.5" d="M6.5 16v3c0 .943 0 1.414.293 1.707C7.086 21 7.557 21 8.5 21c.943 0 1.414 0 1.707-.293.293-.293.293-.764.293-1.707v-3"/>
  <path stroke="#1B1C1B" stroke-linecap="round" stroke-linejoin="round" stroke-width="1.5" d="m13.5 16 2 5 2-5"/>
</svg>
