<svg xmlns="http://www.w3.org/2000/svg" width="24" height="24" fill="none" viewBox="0 0 24 24">
  <path stroke="#1B1C1B" stroke-width="1.5" d="M13.5 11a1.5 1.5 0 1 1-3 0 1.5 1.5 0 0 1 3 0Z"/>
  <path stroke="#1B1C1B" stroke-linecap="round" stroke-width="1.5" d="M21 10.5a9.176 9.176 0 0 0-3.928-7m-10.144 0A9.176 9.176 0 0 0 3 10.5m9-1V7m-1.5 4.5-2 1.5m4.998-1.5 2 1.5M12 12.5V22m6 0H6m4.08-18.01.162 1.517c.058.542.086 1.111.628 1.378C11.103 7 11.402 7 12 7c.598 0 .897 0 1.13-.115.542-.267.57-.836.628-1.378l.162-1.517c.062-.585.245-1.36-.299-1.77C13.33 2 12.886 2 12 2s-1.329 0-1.621.22c-.544.41-.361 1.185-.299 1.77Zm9.011 8.944-1.414-.625c-.505-.223-1.02-.486-1.529-.146-.219.146-.37.407-.673.93-.304.524-.455.786-.473 1.048-.04.61.446.922.892 1.246l1.25.908c.483.35 1.07.902 1.706.634.342-.145.566-.533 1.016-1.308.449-.776.674-1.164.628-1.53-.084-.684-.857-.915-1.403-1.156Zm-14.182 0 1.414-.625c.505-.223 1.02-.486 1.529-.146.219.146.37.407.673.93.304.524.455.786.473 1.048.04.61-.446.922-.892 1.246l-1.25.908c-.483.35-1.07.902-1.706.634-.342-.145-.566-.533-1.016-1.308-.449-.776-.673-1.164-.628-1.53.084-.684.857-.915 1.403-1.156Z"/>
</svg>
