<svg xmlns="http://www.w3.org/2000/svg" width="24" height="24" fill="none" viewBox="0 0 24 24">
  <path stroke="#1B1C1B" stroke-linecap="round" stroke-width="1.5" d="M12 3v1.5m5 8.5a5 5 0 0 0-10 0M5.988 6.988l-1.06-1.06M22 13h-1.5m-17 0H2m17.07-7.072-1.06 1.06M6.5 16v3c0 .943 0 1.414.293 1.707C7.086 21 7.557 21 8.5 21c.943 0 1.414 0 1.707-.293.293-.293.293-.764.293-1.707v-3"/>
  <path stroke="#1B1C1B" stroke-linecap="round" stroke-linejoin="round" stroke-width="1.5" d="m13.5 16 2 5 2-5"/>
</svg>
