<svg xmlns="http://www.w3.org/2000/svg" width="24" height="24" fill="none" viewBox="0 0 24 24">
  <path stroke="#1B1C1B" stroke-linecap="round" stroke-linejoin="round" stroke-width="1.5" d="M4.5 13a5 5 0 0 1 10 0v5c0 1.886 0 2.828-.586 3.414C13.328 22 12.386 22 10.5 22h-2c-1.886 0-2.828 0-3.414-.586C4.5 20.828 4.5 19.886 4.5 18v-5Z"/>
  <path stroke="#1B1C1B" stroke-linecap="round" stroke-width="1.5" d="M14.5 13.112c-3.64-3.273-5.61 1.829-10 .73"/>
  <path stroke="#1B1C1B" stroke-linecap="round" stroke-linejoin="round" stroke-width="1.5" d="M7.5 8V7c0-.943 0-1.414.293-1.707C8.086 5 8.557 5 9.5 5c.943 0 1.414 0 1.707.293.293.293.293.764.293 1.707v1m-2-3V2m0 0h-2m2 0h3.423c.989 0 1.826.39 2.577 1m3.941 5.973c.23.873-.235 1.758-1.038 1.977-.804.22-1.64-.31-1.87-1.183-.23-.872.83-2.767.83-2.767s1.849 1.1 2.078 1.973Z"/>
</svg>
