<svg xmlns="http://www.w3.org/2000/svg" width="24" height="24" fill="none" viewBox="0 0 24 24">
  <path stroke="#1B1C1B" stroke-linecap="round" stroke-linejoin="round" stroke-width="1.5" d="M10 9.502c-1-1-3.979-3.723-5.34-3.488-3.547.613-3.547 11.363 0 11.976 1.361.235 4.34-2.487 5.34-3.488m4-5c1-1 3.979-3.723 5.34-3.488 3.547.613 3.547 11.363 0 11.976-1.361.235-4.34-2.487-5.34-3.488"/>
  <path stroke="#1B1C1B" stroke-linecap="round" stroke-linejoin="round" stroke-width="1.5" d="M9.5 12.002c0-2.099.622-3 2.5-3 1.749 0 2.5.746 2.5 3 0 2.099-.622 3-2.5 3-1.878 0-2.5-.901-2.5-3Zm-.5 0H8m8 0h-1"/>
</svg>
