<svg xmlns="http://www.w3.org/2000/svg" width="24" height="24" fill="none" viewBox="0 0 24 24">
  <path stroke="#1B1C1B" stroke-linecap="round" stroke-linejoin="round" stroke-width="1.5" d="M5.18 15.296c-1.258.738-4.555 2.243-2.547 4.126.982.92 2.074 1.578 3.448 1.578h7.838c1.374 0 2.466-.658 3.447-1.578 2.009-1.883-1.288-3.389-2.546-4.126a9.611 9.611 0 0 0-9.64 0Z"/>
  <path stroke="#1B1C1B" stroke-width="1.5" d="M14 7a4 4 0 1 1-8 0 4 4 0 0 1 8 0Z"/>
  <path stroke="#1B1C1B" stroke-linejoin="round" stroke-width="1.5" d="M19.622 4.566c.224-.243.335-.364.454-.434a.932.932 0 0 1 .931-.014c.12.067.236.184.466.42.23.235.346.353.412.476a.988.988 0 0 1-.014.951c-.07.122-.188.236-.425.464l-2.82 2.717c-.45.433-.675.65-.956.76-.28.109-.589.1-1.206.085l-.084-.003c-.188-.005-.282-.007-.337-.069-.054-.062-.047-.158-.032-.35l.008-.103c.042-.539.063-.808.168-1.05.105-.243.287-.44.65-.833l2.785-3.017Z"/>
</svg>
