<svg xmlns="http://www.w3.org/2000/svg" width="24" height="24" fill="none" viewBox="0 0 24 24">
  <path stroke="#1B1C1B" stroke-linecap="round" stroke-linejoin="round" stroke-width="1.5" d="M12 2c5.524 0 10 4.478 10 10s-4.476 10-10 10m-3-.5a11.064 11.064 0 0 1-3.277-1.754m0-15.492A11.329 11.329 0 0 1 9 2.5m-7 7.746a9.624 9.624 0 0 1 1.296-3.305M2 13.754a9.624 9.624 0 0 0 1.296 3.305"/>
  <path stroke="#1B1C1B" stroke-linecap="round" stroke-width="1.5" d="M8 16.5c2.073-2.198 5.905-2.301 8 0m-1.782-6.75c0 1.243-.996 2.25-2.226 2.25-1.229 0-2.225-1.007-2.225-2.25s.996-2.25 2.226-2.25c1.229 0 2.225 1.007 2.225 2.25Z"/>
</svg>
