<svg xmlns="http://www.w3.org/2000/svg" width="24" height="24" fill="none" viewBox="0 0 24 24">
  <path stroke="#1B1C1B" stroke-width="1.5" d="M2.5 12c0-4.478 0-6.718 1.391-8.109S7.521 2.5 12 2.5c4.478 0 6.718 0 8.109 1.391S21.5 7.521 21.5 12c0 4.478 0 6.718-1.391 8.109C18.717 21.5 16.479 21.5 12 21.5c-4.478 0-6.718 0-8.109-1.391C2.5 18.717 2.5 16.479 2.5 12Z"/>
  <path stroke="#1B1C1B" stroke-linecap="round" stroke-width="1.5" d="M7.5 17c2.332-2.442 6.643-2.557 9 0m-2.005-7.5c0 1.38-1.12 2.5-2.503 2.5a2.502 2.502 0 0 1-2.504-2.5c0-1.38 1.12-2.5 2.504-2.5a2.502 2.502 0 0 1 2.503 2.5Z"/>
</svg>
