<svg xmlns="http://www.w3.org/2000/svg" width="24" height="24" fill="none" viewBox="0 0 24 24">
  <path stroke="#1B1C1B" stroke-linecap="round" stroke-linejoin="round" stroke-width="1.5" d="M13 22H6.59c-1.545 0-2.774-.752-3.877-1.803-2.26-2.153 1.45-3.873 2.865-4.715A10.634 10.634 0 0 1 12 14.047"/>
  <path stroke="#1B1C1B" stroke-width="1.5" d="M15.5 6.5a4.5 4.5 0 1 1-9 0 4.5 4.5 0 0 1 9 0Z"/>
  <path stroke="#1B1C1B" stroke-linecap="round" stroke-width="1.5" d="M15.015 15.387c1.073-.64 2.009-.382 2.571.028.23.169.346.253.414.253s.183-.084.414-.253c.562-.41 1.498-.668 2.571-.028 1.408.84 1.726 3.609-1.52 5.945-.62.445-.928.668-1.465.668s-.846-.223-1.464-.668c-3.247-2.336-2.929-5.106-1.521-5.945Z"/>
</svg>
