<svg xmlns="http://www.w3.org/2000/svg" width="24" height="24" fill="none" viewBox="0 0 24 24">
  <path stroke="#1B1C1B" stroke-linecap="round" stroke-linejoin="round" stroke-width="1.5" d="M13 22H6.59c-1.545 0-2.774-.752-3.877-1.803-2.26-2.153 1.45-3.873 2.865-4.715A10.634 10.634 0 0 1 12 14.047"/>
  <path stroke="#1B1C1B" stroke-width="1.5" d="M15.5 6.5a4.5 4.5 0 1 1-9 0 4.5 4.5 0 0 1 9 0Z"/>
  <path stroke="#1B1C1B" stroke-linecap="round" stroke-linejoin="round" stroke-width="1.5" d="M20.4 20.4 22 22m-.8-4.4a3.6 3.6 0 1 0-7.2 0 3.6 3.6 0 0 0 7.2 0Z"/>
</svg>
