<svg xmlns="http://www.w3.org/2000/svg" width="24" height="24" fill="none" viewBox="0 0 24 24">
  <path stroke="#1B1C1B" stroke-linecap="round" stroke-width="1.5" d="M14 9h4m-4 3.5h3"/>
  <path stroke="#1B1C1B" stroke-linejoin="round" stroke-width="1.5" d="M17 3H7a5 5 0 0 0-5 5v8a5 5 0 0 0 5 5h10a5 5 0 0 0 5-5V8a5 5 0 0 0-5-5Z"/>
  <path stroke="#1B1C1B" stroke-linecap="round" stroke-linejoin="round" stroke-width="1.5" d="M5 16c1.208-2.581 5.712-2.75 7 0"/>
  <path stroke="#1B1C1B" stroke-width="1.5" d="M10.5 9a2 2 0 1 1-4 0 2 2 0 0 1 4 0Z"/>
</svg>
