<svg xmlns="http://www.w3.org/2000/svg" width="24" height="24" fill="none" viewBox="0 0 24 24">
  <path stroke="#1B1C1B" stroke-linecap="round" stroke-linejoin="round" stroke-width="1.5" d="M12 14.047a10.634 10.634 0 0 0-6.422 1.435c-1.415.842-5.125 2.562-2.865 4.715C3.816 21.248 5.045 22 6.59 22H13"/>
  <path stroke="#1B1C1B" stroke-width="1.5" d="M15.5 6.5a4.5 4.5 0 1 1-9 0 4.5 4.5 0 0 1 9 0Z"/>
  <path stroke="#1B1C1B" stroke-linecap="round" stroke-linejoin="round" stroke-width="1.5" d="M18 14c-1.267 0-2.088.808-3.06 1.102-.394.12-.592.18-.672.264-.08.084-.103.207-.15.454-.5 2.638.594 5.078 3.204 6.027.28.102.42.153.679.153.257 0 .398-.051.678-.153 2.61-.95 3.704-3.389 3.203-6.027-.047-.247-.07-.37-.15-.454-.08-.085-.278-.144-.673-.264C20.088 14.808 19.266 14 18 14Z"/>
</svg>
