<svg xmlns="http://www.w3.org/2000/svg" width="24" height="24" fill="none" viewBox="0 0 24 24">
  <path fill="#1B1C1B" d="M10.656 16.879a.75.75 0 0 0-.646 1.354l.646-1.354Zm.788 1.788-.646.38a.75.75 0 0 0 1.323-.056l-.677-.324Zm2.578-2.118a.75.75 0 0 0-.71-1.32l.71 1.32ZM16.25 17A4.25 4.25 0 0 1 12 21.25v1.5A5.75 5.75 0 0 0 17.75 17h-1.5ZM12 21.25A4.25 4.25 0 0 1 7.75 17h-1.5A5.75 5.75 0 0 0 12 22.75v-1.5ZM7.75 17A4.25 4.25 0 0 1 12 12.75v-1.5A5.75 5.75 0 0 0 6.25 17h1.5ZM12 12.75A4.25 4.25 0 0 1 16.25 17h1.5A5.75 5.75 0 0 0 12 11.25v1.5Zm-1.667 4.806-.323.677v-.001l-.003-.001-.003-.002h-.002l.004.001a1.82 1.82 0 0 1 .233.16c.161.132.375.344.56.657l1.292-.761a3.933 3.933 0 0 0-.909-1.06 3.29 3.29 0 0 0-.502-.336l-.014-.007-.005-.002a.048.048 0 0 1-.004-.002l-.324.677Zm1.111 1.11.677.325.001-.003a10.495 10.495 0 0 1 .609-1.054c.399-.604.868-1.157 1.291-1.385l-.71-1.32c-.779.418-1.42 1.254-1.833 1.878a12.036 12.036 0 0 0-.696 1.204l-.01.022-.003.006-.001.002v.001l.675.325ZM17.5 8v-.75h-.002L17.5 8Zm-7.95.6a.75.75 0 1 0 .901-1.2L9.55 8.6Zm10.005 7.037a.75.75 0 1 0 .823 1.254l-.823-1.254Zm-15.94 1.011a.75.75 0 1 0 .884-1.212l-.884 1.212Zm12.618-6.99a.75.75 0 1 0 1.335.683l-1.335-.682ZM12 2.75a4.75 4.75 0 0 1 4.75 4.75h1.5A6.25 6.25 0 0 0 12 1.25v1.5Zm5.5 6a3.75 3.75 0 0 1 3.75 3.75h1.5c0-2.9-2.35-5.25-5.25-5.25v1.5Zm-.02 0h.022l-.004-1.5h-.022l.003 1.5Zm-.73-1.25c0 .146-.007.29-.02.433l1.494.134a6.26 6.26 0 0 0 .026-.567h-1.5Zm-14 4.5a4.25 4.25 0 0 1 3.841-4.23L6.45 6.275A5.75 5.75 0 0 0 1.25 12h1.5Zm3.841-4.23c.135-.013.271-.02.409-.02v-1.5c-.186 0-.37.009-.55.026l.14 1.494Zm.677-.683A4.75 4.75 0 0 1 12 2.75v-1.5a6.25 6.25 0 0 0-6.227 5.708l1.495.129ZM7 7.75c.958 0 1.84.316 2.55.85l.901-1.2A5.728 5.728 0 0 0 7 6.25v1.5Zm14.25 4.75a3.746 3.746 0 0 1-1.695 3.137l.823 1.254A5.246 5.246 0 0 0 22.75 12.5h-1.5ZM4.499 15.436A4.243 4.243 0 0 1 2.75 12h-1.5c0 1.91.933 3.604 2.365 4.648l.884-1.212ZM16.73 7.933c-.056.617-.23 1.2-.498 1.726l1.335.682a6.215 6.215 0 0 0 .656-2.274l-1.493-.134Z"/>
</svg>
