<svg xmlns="http://www.w3.org/2000/svg" width="24" height="24" fill="none" viewBox="0 0 24 24">
  <path stroke="#1B1C1B" stroke-linecap="round" stroke-linejoin="round" stroke-width="1.5" d="M15 8c.65.065 1.088.211 1.414.542C17 9.135 17 10.09 17 12c0 1.91 0 2.865-.586 3.458-.326.33-.764.477-1.414.542m-6 0c-.65-.065-1.088-.211-1.414-.542C7 14.865 7 13.91 7 12c0-1.91 0-2.865.586-3.458C7.912 8.212 8.35 8.065 9 8"/>
  <path stroke="#1B1C1B" stroke-linejoin="round" stroke-width="1.5" d="M2.5 12c0-4.478 0-6.718 1.391-8.109S7.521 2.5 12 2.5c4.478 0 6.718 0 8.109 1.391S21.5 7.521 21.5 12c0 4.478 0 6.718-1.391 8.109C18.717 21.5 16.479 21.5 12 21.5c-4.478 0-6.718 0-8.109-1.391C2.5 18.717 2.5 16.479 2.5 12Z"/>
</svg>
