<svg xmlns="http://www.w3.org/2000/svg" width="24" height="24" fill="none" viewBox="0 0 24 24">
  <path stroke="#1B1C1B" stroke-linecap="round" stroke-linejoin="round" stroke-width="1.5" d="M14 16c.924 0 1.673-.512 1.673-1.143 0-1.22.014-1.723 1.082-2.453.327-.223.327-.585 0-.808-1.068-.73-1.082-1.232-1.082-2.453C15.673 8.512 14.924 8 14 8m-4 8c-.924 0-1.673-.512-1.673-1.143 0-1.22-.014-1.723-1.082-2.453-.327-.223-.327-.585 0-.808 1.068-.73 1.082-1.232 1.082-2.453C8.327 8.512 9.076 8 10 8"/>
  <path stroke="#1B1C1B" stroke-width="1.5" d="M12 22c5.523 0 10-4.477 10-10S17.523 2 12 2 2 6.477 2 12s4.477 10 10 10Z"/>
</svg>
