<svg xmlns="http://www.w3.org/2000/svg" width="24" height="24" fill="none" viewBox="0 0 24 24">
  <path stroke="#1B1C1B" stroke-linecap="round" stroke-linejoin="round" stroke-width="1.5" d="M2.793 21.207c.293.293.764.293 1.707.293h10c.943 0 1.414 0 1.707-.293m-13.414 0C2.5 20.914 2.5 20.443 2.5 19.5v-10c0-.943 0-1.414.293-1.707m0 13.414 6-6m7.414 6c.293-.293.293-.764.293-1.707v-10c0-.943 0-1.414-.293-1.707m0 13.414 5-5c.293-.293.293-.764.293-1.707v-10c0-.943 0-1.414-.293-1.707m-18.414 5C3.086 7.5 3.557 7.5 4.5 7.5h10c.943 0 1.414 0 1.707.293m-13.414 0 5-5C8.086 2.5 8.557 2.5 9.5 2.5h10c.943 0 1.414 0 1.707.293M8.793 15.207c.293.293.764.293 1.707.293H14m-5.207-.293C8.5 14.914 8.5 14.443 8.5 13.5v-3m7.707-2.707 5-5"/>
</svg>
