<svg xmlns="http://www.w3.org/2000/svg" width="24" height="24" fill="none" viewBox="0 0 24 24">
  <path stroke="#1B1C1B" stroke-width="1.5" d="M8.882 3.33C10.404 2.443 11.165 2 12 2s1.596.443 3.118 1.33l2.764 1.61c1.522.887 2.283 1.33 2.7 2.06.418.73.418 1.616.418 3.39v3.22c0 1.774 0 2.66-.418 3.39-.417.73-1.178 1.173-2.7 2.06l-2.764 1.61C13.596 21.557 12.835 22 12 22s-1.596-.443-3.118-1.33l-2.764-1.61c-1.522-.887-2.283-1.33-2.7-2.06C3 16.27 3 15.383 3 13.61v-3.22C3 8.615 3 7.73 3.418 7c.417-.73 1.178-1.173 2.7-2.06l2.764-1.61Z"/>
</svg>
