<svg xmlns="http://www.w3.org/2000/svg" width="24" height="24" fill="none" viewBox="0 0 24 24">
  <path stroke="#1B1C1B" stroke-linejoin="round" stroke-width="1.5" d="M2.5 12c0-4.478 0-6.718 1.391-8.109S7.521 2.5 12 2.5c4.478 0 6.718 0 8.109 1.391S21.5 7.521 21.5 12c0 4.478 0 6.718-1.391 8.109C18.717 21.5 16.479 21.5 12 21.5c-4.478 0-6.718 0-8.109-1.391C2.5 18.717 2.5 16.479 2.5 12Z"/>
  <path stroke="#1B1C1B" stroke-linecap="round" stroke-linejoin="round" stroke-width="1.5" d="M17 7 7 17m8 0v-2m0 0v-2m0 2h-2m2 0h2M7 9h4"/>
</svg>
