<svg xmlns="http://www.w3.org/2000/svg" width="24" height="24" fill="none" viewBox="0 0 24 24">
  <path stroke="#1B1C1B" stroke-linecap="round" stroke-linejoin="round" stroke-width="1.5" d="M7 10.519V8.554m0 0C7.061 7.73 7.676 7 8.51 7c.984 0 1.429.931 1.496 1.554v1.965M7 8.554V7"/>
  <path stroke="#1B1C1B" stroke-linecap="round" stroke-width="1.5" d="M6.99 14.514c.464-.255.87-.347 1.071-.174.2.173.628.966.803 1.272.268.468.576 1.405 1.111 1.405.361 0 .652-.978 1.124-2.141.72-1.772 1.525-4.014 1.647-4.216.2-.335.401-.67.936-.67h3.347"/>
  <path stroke="#1B1C1B" stroke-linejoin="round" stroke-width="1.5" d="M2.5 12c0-4.478 0-6.718 1.391-8.109S7.521 2.5 12 2.5c4.478 0 6.718 0 8.109 1.391S21.5 7.521 21.5 12c0 4.478 0 6.718-1.391 8.109C18.717 21.5 16.479 21.5 12 21.5c-4.478 0-6.718 0-8.109-1.391C2.5 18.717 2.5 16.479 2.5 12Z"/>
</svg>
