<svg xmlns="http://www.w3.org/2000/svg" width="24" height="24" fill="none" viewBox="0 0 24 24">
  <path stroke="#1B1C1B" stroke-width="1.5" d="M8.438 3.932C10.156 2.644 11.015 2 12 2c.985 0 1.844.644 3.562 1.932l3.442 2.58c1.718 1.289 2.577 1.933 2.882 2.9.304.965-.024 2.007-.68 4.092l-1.316 4.175c-.656 2.085-.984 3.127-1.78 3.724-.797.597-1.859.597-3.983.597H9.873c-2.124 0-3.186 0-3.983-.597-.796-.597-1.124-1.64-1.78-3.724l-1.315-4.175c-.657-2.085-.985-3.127-.68-4.093.304-.966 1.163-1.61 2.881-2.898l3.442-2.58Z"/>
</svg>
