<svg xmlns="http://www.w3.org/2000/svg" width="24" height="24" fill="none" viewBox="0 0 24 24">
  <path fill="#1B1C1B" d="M17.5 9.25a.75.75 0 0 0 0-1.5v1.5ZM6.094 12.37a.75.75 0 0 0 .812 1.26l-.812-1.26Zm6.71 1.38a.75.75 0 0 0 0 1.5v-1.5Zm3.529-1.5a.75.75 0 0 0 0-1.5v1.5Zm-.208 3a.75.75 0 0 0 0-1.5v1.5Zm-3.114-4.5a.75.75 0 0 0 0 1.5v-1.5Zm-5.687 2.968.288.586 1.346-.66-.287-.587-1.347.66Zm3.603.286 1.17-4.639L10.643 9l-1.17 4.638 1.454.367Zm1.428-4.754H17.5v-1.5h-5.145v1.5Zm-4.743 5.054c.243.496.461.943.67 1.253.191.28.566.74 1.194.69l-.12-1.496c.26-.02.325.194.168-.036-.136-.201-.3-.531-.566-1.072l-1.346.661Zm1.86-.667c-.144.576-.233.922-.323 1.137-.043.104-.06.113-.038.089a.395.395 0 0 1 .246-.112l.12 1.495c.645-.051.93-.586 1.058-.898.142-.342.26-.82.392-1.344l-1.454-.367Zm-.801-.58c-.1-.202-.21-.43-.331-.606a1.235 1.235 0 0 0-.696-.517L7.25 13.38a.353.353 0 0 1-.127-.065c-.027-.022-.032-.034-.017-.011.017.023.042.064.08.138.04.073.082.16.138.275l1.347-.661Zm3.426-3.692a.89.89 0 0 1 .061-.186c.001-.001-.02.035-.071.067-.043.027-.065.023-.017.016a2.14 2.14 0 0 1 .285-.012v-1.5c-.28 0-.708 0-1.067.227-.409.257-.559.678-.646 1.022l1.455.366Zm-5.191 4.266.106-.07.096-.062c.063-.04.113-.067.155-.087.099-.046.072-.008-.013-.031l.394-1.447c-.419-.115-.79.013-1.018.12-.222.104-.442.258-.532.315l.812 1.262Zm5.897 1.619c.638 0 1.126-.344 1.472-.683.345-.338.65-.773.905-1.133l-1.224-.867c-.276.39-.502.704-.731.929-.228.223-.357.254-.422.254v1.5Zm2.377-1.816c.276-.39.502-.705.731-.93.228-.223.357-.254.422-.254v-1.5c-.638 0-1.126.344-1.472.683-.344.338-.65.773-.905 1.133l1.224.867Zm-1.623-.882.323.746 1.376-.596-.322-.746-1.377.596Zm.323.746.322.746 1.377-.596-.323-.746-1.376.596Zm.322.746c.102.234.231.575.503.816l.994-1.123c.03.027.035.045.013.004a1.745 1.745 0 0 1-.051-.106l-.082-.187-1.377.596Zm1.923-.294c-.19 0-.295 0-.372-.006-.068-.005-.066-.01-.042-.001l-.555 1.394c.318.126.675.113.969.113v-1.5Zm-1.42 1.11c.134.119.288.212.451.277l.555-1.394-.012-.006-.994 1.123Zm-1.694-2.61c.19 0 .295 0 .372.006.068.005.066.01.042.001l.554-1.394c-.317-.126-.674-.113-.968-.113v1.5Zm1.923-.294c-.102-.234-.231-.575-.503-.816l-.994 1.123c-.03-.027-.035-.045-.013-.004l.051.106.082.187 1.377-.596Zm-1.509.301.012.006.994-1.123a1.538 1.538 0 0 0-.451-.277l-.555 1.394Z"/>
  <path stroke="#1B1C1B" stroke-width="1.5" d="M12 22c5.523 0 10-4.477 10-10S17.523 2 12 2 2 6.477 2 12s4.477 10 10 10Z"/>
</svg>
