<svg xmlns="http://www.w3.org/2000/svg" width="24" height="24" fill="none" viewBox="0 0 24 24">
  <path stroke="#1B1C1B" stroke-linecap="round" stroke-width="1.5" d="M12 10.5a1.5 1.5 0 1 0 0 3 1.5 1.5 0 0 0 0-3Zm0 0V2"/>
  <path stroke="#1B1C1B" stroke-width="1.5" d="M12 22c5.523 0 10-4.477 10-10S17.523 2 12 2 2 6.477 2 12s4.477 10 10 10Z"/>
  <path stroke="#1B1C1B" stroke-linecap="round" stroke-width="1.5" d="M15 8c4.057.522 7 2.073 7 3.906C22 14.167 17.523 16 12 16S2 14.167 2 11.906C2 10.073 4.943 8.522 9 8"/>
</svg>
