<svg xmlns="http://www.w3.org/2000/svg" width="24" height="24" fill="none" viewBox="0 0 24 24">
  <path stroke="#1B1C1B" stroke-linecap="round" stroke-linejoin="round" stroke-width="1.5" d="M16 8.99c-3.184 0-4.816 6.021-8 6.021"/>
  <path stroke="#1B1C1B" stroke-linecap="round" stroke-linejoin="round" stroke-width="1.5" d="M15.54 15.011c-.809 0-1.253 0-1.594-.12a1.82 1.82 0 0 1-.52-.285c-.265-.209-.41-.508-.7-1.108l-1.451-2.995c-.29-.6-.436-.899-.7-1.108a1.823 1.823 0 0 0-.52-.284c-.342-.12-.786-.12-1.595-.12"/>
  <path stroke="#1B1C1B" stroke-width="1.5" d="M12 22c5.523 0 10-4.477 10-10S17.523 2 12 2 2 6.477 2 12s4.477 10 10 10Z"/>
</svg>
