<svg xmlns="http://www.w3.org/2000/svg" width="24" height="24" fill="none" viewBox="0 0 24 24">
  <path stroke="#1B1C1B" stroke-linecap="round" stroke-linejoin="round" stroke-width="1.5" d="M13.953 4.84C15.18 3.615 15.793 3 16.556 3c.762 0 1.376.614 2.603 1.84C20.386 6.069 21 6.683 21 7.445c0 .763-.614 1.376-1.84 2.603m-9.113 9.112C8.82 20.386 8.207 21 7.444 21c-.762 0-1.376-.614-2.603-1.84C3.614 17.931 3 17.317 3 16.555c0-.763.614-1.376 1.84-2.604M6.793 12l-1.952-1.953C3.614 8.82 3 8.207 3 7.444c0-.762.614-1.376 1.84-2.603C6.069 3.614 6.683 3 7.445 3c.763 0 1.376.614 2.603 1.84L12 6.794M6.793 12 12 6.793M6.793 12 12 17.207m0-10.414L17.207 12M12 17.207l1.953 1.952C15.18 20.386 15.793 21 16.556 21c.762 0 1.376-.614 2.603-1.84C20.386 17.931 21 17.317 21 16.555c0-.763-.614-1.376-1.84-2.604L17.206 12M12 17.207 17.207 12"/>
</svg>
