<svg xmlns="http://www.w3.org/2000/svg" width="24" height="24" fill="none" viewBox="0 0 24 24">
  <path stroke="#1B1C1B" stroke-linecap="round" stroke-linejoin="round" stroke-width="1.5" d="M4.222 21.995v-3.55c0-1.271-.333-1.932-.987-3.037A8.888 8.888 0 0 1 10.889 2a8.888 8.888 0 0 1 8.889 8.887c0 .58 0 .87.024 1.032.058.388.24.722.417 1.068L22 16.441l-1.4.7c-.405.202-.608.303-.749.49-.141.187-.181.399-.26.82l-.008.042c-.183.968-.384 2.036-.95 2.71-.2.237-.448.43-.727.567-.461.225-1.028.225-2.162.225-.525 0-1.051.012-1.576 0-1.243-.031-2.168-1.077-2.168-2.29"/>
  <path stroke="#1B1C1B" stroke-linecap="round" stroke-linejoin="round" stroke-width="1.5" d="M14.388 10.531a1.65 1.65 0 0 1-1.11-.426m1.11.426c0 1.146-.664 2.235-1.942 2.235S10.504 13.854 10.504 15m3.884-4.469c2.15 0 2.15-3.35 0-3.35-.195 0-.383.033-.557.095.105-2.498-3.496-3.176-4.312-.836m0 0c.594.401.985 1.083.985 1.857M9.52 6.44c-1.852-1.25-4.32.993-3.146 2.993-1.97.295-1.76 3.333.247 3.333a1.66 1.66 0 0 0 1.362-.712"/>
</svg>
