<svg xmlns="http://www.w3.org/2000/svg" width="24" height="24" fill="none" viewBox="0 0 24 24">
  <path stroke="#1B1C1B" stroke-linecap="round" stroke-linejoin="round" stroke-width="1.5" d="M14 5c-.5.5-1.503.412-3-.824m0 0c.221-.182.451-.39.689-.626 2.306-2.284 5.446-1.837 6.917 0 .626.782 1.853 2.281 1.215 5.95M11 4.176c-.221-.182-.451-.39-.689-.626-2.306-2.284-5.446-1.837-6.917 0C2.378 4.82-.222 7.98 6.142 19.24c.264.466.789.76 1.354.76.902 0 1.607-.72 1.636-1.56.046-1.303.298-2.755 1.001-3.44M16 17l.684.684c.147.147.221.221.31.216.09-.005.155-.086.285-.249L19 15.5m-6-.046v.386c0 1.202 0 1.803.148 2.353a4.36 4.36 0 0 0 1.014 1.827c.39.422.906.75 1.937 1.407.461.294.692.441.938.51.303.084.623.084.927 0 .245-.069.476-.216.937-.51 1.031-.657 1.547-.985 1.937-1.407a4.36 4.36 0 0 0 1.014-1.827c.148-.55.148-1.15.148-2.353v-.386c0-.748 0-1.122-.142-1.438a1.647 1.647 0 0 0-.369-.52c-.253-.24-.612-.372-1.33-.635l-1.474-.54c-.586-.214-.879-.321-1.185-.321-.306 0-.599.107-1.185.322l-1.474.54c-.718.262-1.077.393-1.33.634a1.647 1.647 0 0 0-.37.52c-.141.316-.141.69-.141 1.438Z"/>
</svg>
