<svg xmlns="http://www.w3.org/2000/svg" width="24" height="24" fill="none" viewBox="0 0 24 24">
  <path stroke="#1B1C1B" stroke-width="1.5" d="M21 7v10a5 5 0 0 1-5 5H8a5 5 0 0 1-5-5V7a5 5 0 0 1 5-5h8a5 5 0 0 1 5 5Z"/>
  <path stroke="#1B1C1B" stroke-linecap="round" stroke-linejoin="round" stroke-width="1.5" d="M12 5v9"/>
  <path stroke="#1B1C1B" stroke-linecap="round" stroke-width="1.5" d="M12 14.332c-.953 0-1.857-.105-2.671-.294-.875-.204-1.829.437-1.829 1.367 0 .485.266.935.707 1.099.323.12.67.226 1.036.314.592.143 1.112.53 1.37 1.1l.106.236c.232.516.732.846 1.281.846.55 0 1.049-.33 1.281-.846l.107-.236c.257-.57.777-.957 1.37-1.1a9.139 9.139 0 0 0 1.035-.314c.44-.164.707-.614.707-1.1 0-.929-.954-1.57-1.829-1.366-.813.189-1.718.294-2.671.294Z"/>
  <path stroke="#1B1C1B" stroke-linecap="round" stroke-linejoin="round" stroke-width="1.5" d="M15 7c-.387.619-.916 1-1.5 1s-1.113-.381-1.5-1c-.387.619-.916 1-1.5 1S9.387 7.619 9 7m-2 3c.644.619 1.527 1 2.5 1 .973 0 1.856-.381 2.5-1 .644.619 1.527 1 2.5 1 .973 0 1.856-.381 2.5-1"/>
</svg>
