<svg width="24" height="24" viewBox="0 0 24 24" fill="none" xmlns="http://www.w3.org/2000/svg">
<g id="configuration-02">
<path id="Vector" d="M8.73047 21.4996C10.0226 19.2766 12.9819 19.0144 14.6673 20.7132C15.0441 21.0929 15.2325 21.2829 15.3996 21.3057C15.5667 21.3284 16.6152 20.727 16.9874 20.5136C17.3668 20.2962 18.4187 19.6928 18.4848 19.5349C18.5509 19.3771 18.4817 19.108 18.3433 18.5697C17.8399 16.6126 19.0606 14.553 21.011 14.0217C21.5329 13.8796 21.7938 13.8085 21.8969 13.6725C22 13.5367 22 12.3414 22 11.9042C22 11.4669 22 10.2717 21.8969 10.1357C21.7938 9.99983 21.5329 9.92873 21.011 9.78661C19.0603 9.25535 17.8386 7.19571 18.3418 5.23851C18.4801 4.70022 18.5493 4.43107 18.4832 4.27325C18.4171 4.11543 17.3652 3.51213 16.9859 3.2946C16.6136 3.08113 15.5651 2.47985 15.3981 2.50258C15.231 2.52532 15.0426 2.71521 14.6657 3.095C13.2064 4.56543 10.792 4.56549 9.33276 3.09509C8.95585 2.71531 8.76739 2.52541 8.60035 2.50268C8.4333 2.47996 7.38483 3.08125 7.0126 3.29471C6.63327 3.51226 5.58126 4.11555 5.51516 4.27339C5.44907 4.43123 5.51829 4.70034 5.65672 5.23858C6.16008 7.19571 4.9394 9.25531 2.98902 9.78659C2.46711 9.92873 2.20615 9.99983 2.10308 10.1358C2 10.2717 2 11.4669 2 11.9042C2 12.3414 2 13.5367 2.10308 13.6726C2.20617 13.8086 2.467 13.8796 2.98866 14.0216C2.99478 14.0233 3.00089 14.025 3.007 14.0267" stroke="#1B1C1B" stroke-width="1.5" stroke-linecap="round"/>
<path id="Vector_2" d="M2.48891 18.1836C3.56891 17.104 7.24091 13.4695 7.60091 13.0497C7.98148 12.6059 7.67291 12.0061 7.85651 10.1469C7.94535 9.24725 8.13895 8.57328 8.69291 8.07173C9.35291 7.44799 9.89291 7.44799 11.7529 7.40601C13.3729 7.44799 13.5649 7.26807 13.7329 7.6879C13.8529 7.98778 13.4929 8.1677 13.0609 8.6475C12.1009 9.60711 11.5369 10.0869 11.4829 10.3868C11.0929 11.7063 12.6289 12.4859 13.4689 11.6463C13.7866 11.3288 15.2569 9.84701 15.4009 9.72706C15.5089 9.63109 15.7674 9.63573 15.8929 9.78703C16.0009 9.89309 16.0129 9.90698 16.0009 10.3868C15.9898 10.8309 15.9948 11.4685 15.9961 12.1261C15.9979 12.9781 15.9529 13.9253 15.5929 14.4051C14.8729 15.4847 13.6729 15.5447 12.5929 15.5927C11.5729 15.6526 10.7329 15.5447 10.4689 15.7366C10.2529 15.8446 9.11291 17.0441 7.73291 18.4235L5.27291 20.8825C3.23291 22.5018 0.98891 19.9829 2.48891 18.1836Z" stroke="#1B1C1B" stroke-width="1.5" stroke-linecap="round"/>
</g>
</svg>
