<svg width="24" height="24" viewBox="0 0 24 24" fill="none" xmlns="http://www.w3.org/2000/svg">
<g id="setup-02">
<path id="Vector" d="M17.0298 13.3484C17.5713 13.0993 17.842 12.9748 17.921 12.8515C18 12.7282 18 12.5318 18 12.1389V11.8615C18 11.4687 18 11.2722 17.921 11.1489C17.842 11.0256 17.5712 10.9011 17.0298 10.6521C16.2269 10.2829 15.7113 9.475 15.7389 8.62957C15.76 7.98358 15.7706 7.66058 15.7005 7.53778C15.6304 7.41498 15.4608 7.32203 15.1215 7.13614L14.7988 6.95939C14.4699 6.77918 14.3054 6.68907 14.1649 6.69571C14.0244 6.70235 13.7855 6.86428 13.3077 7.18814C12.5306 7.71481 11.4704 7.71479 10.6933 7.18809C10.2154 6.86423 9.97652 6.70229 9.83603 6.69565C9.69554 6.68901 9.53106 6.77912 9.20212 6.95933L8.87949 7.13608C8.54023 7.32194 8.3706 7.41487 8.30054 7.53764C8.23048 7.66041 8.24097 7.98345 8.26193 8.62954C8.28937 9.47501 7.77333 10.2829 6.97024 10.6521C6.4288 10.901 6.15807 11.0255 6.07904 11.1488C6 11.2721 6 11.4686 6 11.8615V12.1389C6 12.5318 6 12.7283 6.07902 12.8516C6.15804 12.9749 6.42877 13.0994 6.97023 13.3484C7.77308 13.7176 8.28871 14.5255 8.26109 15.3709C8.23999 16.0169 8.22944 16.3399 8.2995 16.4627C8.36956 16.5855 8.53922 16.6784 8.87854 16.8643L9.20117 17.0411C9.53017 17.2213 9.69466 17.3114 9.83518 17.3048C9.9757 17.2981 10.2145 17.1362 10.6922 16.8122C11.4699 16.2849 12.5311 16.2849 13.3087 16.8122C13.7864 17.1361 14.0253 17.2981 14.1658 17.3047C14.3063 17.3114 14.4708 17.2213 14.7998 17.041L15.1224 16.8643C15.4618 16.6783 15.6315 16.5854 15.7015 16.4625C15.7716 16.3397 15.761 16.0168 15.7397 15.3709C15.7119 14.5255 16.2272 13.7176 17.0298 13.3484Z" stroke="#1B1C1B" stroke-width="1.5" stroke-linecap="round"/>
<path id="Vector_2" d="M12 13.75C12.9665 13.75 13.75 12.9665 13.75 12C13.75 11.0335 12.9665 10.25 12 10.25C11.0335 10.25 10.25 11.0335 10.25 12C10.25 12.9665 11.0335 13.75 12 13.75Z" stroke="#1B1C1B" stroke-width="1.5"/>
<path id="Vector_3" d="M19 2V4.85857C17.1962 3.09032 14.7255 2 12 2C6.47715 2 2 6.47715 2 12C2 13.4222 2.29689 14.7751 2.83209 16M5 22V19.1414C6.80375 20.9097 9.27455 22 12 22C17.5228 22 22 17.5228 22 12C22 10.5778 21.7031 9.22492 21.1679 8" stroke="#1B1C1B" stroke-width="1.5" stroke-linecap="round" stroke-linejoin="round"/>
</g>
</svg>
