<svg xmlns="http://www.w3.org/2000/svg" width="24" height="24" fill="none" viewBox="0 0 24 24">
  <path stroke="#1B1C1B" stroke-linecap="round" stroke-linejoin="round" stroke-width="1.5" d="M10.945 22C6.557 22 3 18.418 3 14c0-2.084.958-4.168 2.21-6 .256 1.5 1.365 4.4 3.749 4-2.624-5.5 1.986-10 1.986-10s.497 3.5 4.966 7c.414.324.775.658 1.089 1"/>
  <path stroke="#1B1C1B" stroke-linecap="round" stroke-width="1.5" d="M15.535 16.203c0-.694-.107-1.656.3-2.282.903-1.38 2.766-1.14 3.427.18.301.661.19 1.438.205 2.093m-3.932.009c-.849.088-1.215.64-1.358 1.08-.144.541-.265 1.862-.072 3.303.168.9.802 1.319 1.367 1.369.541.048 2.826.036 3.487.036 1.025 0 1.626-.264 1.927-1.345.144-.84.18-2.402-.06-3.362-.266-.802-.902-1.035-1.36-1.09m-3.93.009c1.28-.133 2.649-.164 3.93-.01"/>
</svg>
