<svg xmlns="http://www.w3.org/2000/svg" width="24" height="24" fill="none" viewBox="0 0 24 24">
  <path stroke="#1B1C1B" stroke-linecap="round" stroke-width="1.5" d="M16.177 18.457c.3.144.673.517.854.818.06.42.36-1.203 1.828-2.165m2.641.892a4 4 0 1 1-8 0 4 4 0 0 1 8 0Z"/>
  <path stroke="#1B1C1B" stroke-width="1.5" d="M11.008 14.002a2 2 0 1 0 0-4 2 2 0 0 0 0 4Z"/>
  <path stroke="#1B1C1B" stroke-linecap="round" stroke-width="1.5" d="M7.508 18.002c.95-.9 1.75-1.4 3.525-1.5m8.475-5c0-.8.025-3.25-.1-4.25-.075-.825-.3-1.95-1.325-2.6-.625-.325-1.225-.625-4.1-.65m-6.025 0c-2.15 0-3.825.175-4.65 1.2-.7.957-.659 2.05-.725 2.4-.15 1.875-.05 8.425-.05 9.525 0 1.15-.075 3.488 1.5 4.275 1.35.675 2.75.575 7.5.6m-.675-20.001c-.6 0-1.1 0-1.6.525-.425.4-.36.753-.525 1.375-.234.875-.35 1.337-.025 1.7.298.39.799.392 1.242.393h.008c.425.03 1.853.016 2.275 0 .452-.018.817-.043 1.125-.443.275-.357.112-.952-.05-1.575-.16-.614-.1-.925-.525-1.45-.6-.6-1.325-.525-1.925-.525Z"/>
</svg>
