<svg xmlns="http://www.w3.org/2000/svg" width="24" height="24" fill="none" viewBox="0 0 24 24">
  <path stroke="#1B1C1B" stroke-linecap="round" stroke-linejoin="round" stroke-width="1.5" d="M2.5 8.187c.104-2.1.415-3.41 1.347-4.34.93-.932 2.24-1.243 4.34-1.347M21.5 8.187c-.104-2.1-.415-3.41-1.347-4.34-.93-.932-2.24-1.243-4.34-1.347m0 19c2.1-.104 3.41-.415 4.34-1.347.932-.93 1.243-2.24 1.347-4.34M8.187 21.5c-2.1-.104-3.41-.415-4.34-1.347-.932-.93-1.243-2.24-1.347-4.34"/>
  <path stroke="#1B1C1B" stroke-linecap="round" stroke-width="1.5" d="M9.5 10.554c0-.841-.132-2.14.376-2.898 1.123-1.674 3.504-1.452 4.344.182.412.802.257 1.922.276 2.716m-4.996 0c-1.297 0-1.562.743-1.76 1.326-.183.655-.37 2.22-.084 3.934.214 1.092 1.049 1.573 1.767 1.634.687.058 3.587.036 4.426.036 1.301 0 2.113-.286 2.495-1.597.183-1.02.233-2.842-.072-4.007-.404-1.166-1.22-1.326-1.776-1.326m-4.996 0c1.374-.054 4.21-.043 4.996 0"/>
</svg>
