<svg xmlns="http://www.w3.org/2000/svg" width="24" height="24" fill="none" viewBox="0 0 24 24">
  <path stroke="#1B1C1B" stroke-linecap="round" stroke-linejoin="round" stroke-width="1.5" d="M2.5 9c.03-.805.12-1.623.27-2.45.11-.616.166-.924.356-1.135.19-.211.66-.36 1.599-.66C7.035 4.019 8.987 2 11.998 2c3.012 0 4.967 2.02 7.277 2.755.939.3 1.408.449 1.598.66.19.21.246.519.357 1.135.15.827.24 1.645.27 2.45m-2.055 8c-1.32 2.023-3.268 3.637-5.83 4.617-.667.255-1 .383-1.614.383-.612 0-.946-.128-1.613-.383-2.562-.98-4.51-2.594-5.831-4.617"/>
  <path stroke="#1B1C1B" stroke-linecap="round" stroke-width="1.5" d="m8.5 12 1 1m0 0 1 1m-1-1 1-1m-1 1-1 1m-5-2 1 1m0 0 1 1m-1-1 1-1m-1 1-1 1m10-2 1 1m0 0 1 1m-1-1 1-1m-1 1-1 1m5-2 1 1m0 0 1 1m-1-1 1-1m-1 1-1 1"/>
</svg>
