<svg xmlns="http://www.w3.org/2000/svg" width="24" height="24" fill="none" viewBox="0 0 24 24">
  <path stroke="#1B1C1B" stroke-linecap="round" stroke-width="1.5" d="M13 17h8m-10 5a91.23 91.23 0 0 1-4.374-.1 3.558 3.558 0 0 1-3.353-3.055C3.123 17.755 3 16.638 3 15.5c0-1.138.123-2.255.273-3.345A3.558 3.558 0 0 1 6.626 9.1a97.73 97.73 0 0 1 4.523-.1c1.614 0 3.08.034 4.523.1A3.56 3.56 0 0 1 19 12"/>
  <path stroke="#1B1C1B" stroke-linecap="round" stroke-linejoin="round" stroke-width="1.5" d="M6.5 9V6.5a4.5 4.5 0 0 1 9 0V9"/>
</svg>
