<svg xmlns="http://www.w3.org/2000/svg" width="24" height="24" fill="none" viewBox="0 0 24 24">
  <path stroke="#1B1C1B" stroke-linejoin="round" stroke-width="1.5" d="M4 12c0-3.771 0-5.657 1.172-6.828C6.343 4 8.229 4 12 4c3.771 0 5.657 0 6.828 1.172C20 6.343 20 8.229 20 12c0 3.771 0 5.657-1.172 6.828C17.657 20 15.771 20 12 20c-3.771 0-5.657 0-6.828-1.172C4 17.657 4 15.771 4 12Z"/>
  <path stroke="#1B1C1B" stroke-linecap="round" stroke-linejoin="round" stroke-width="1.5" d="M10.125 15V9M12 9V7.5m0 9V15m-1.875-3h3.75m0 0c.621 0 1.125.504 1.125 1.125v.75c0 .621-.504 1.125-1.125 1.125H9m4.875-3c.621 0 1.125-.504 1.125-1.125v-.75C15 9.504 14.496 9 13.875 9H9M8 2v2m8-2v2m-4-2v2M8 20v2m4-2v2m4-2v2m6-6h-2M4 8H2m2 8H2m2-4H2m20-4h-2m2 4h-2"/>
</svg>
