<svg xmlns="http://www.w3.org/2000/svg" width="24" height="24" fill="none" viewBox="0 0 24 24">
  <path stroke="#1B1C1B" stroke-linecap="round" stroke-linejoin="round" stroke-width="1.5" d="M17.5 17.5a4.5 4.5 0 1 0-.022-9m0 0A5.5 5.5 0 1 0 6.52 7.523m10.957.977a5.475 5.475 0 0 1-1.235 3M6.52 7.523a5 5 0 0 0 0 9.954m0-9.954A4.978 4.978 0 0 1 10 8.5m.125 11.5v-6M12 14v-1.5m0 9V20m-1.875-3h3.75m0 0c.621 0 1.125.504 1.125 1.125v.75c0 .621-.504 1.125-1.125 1.125H9m4.875-3c.621 0 1.125-.504 1.125-1.125v-.75c0-.621-.504-1.125-1.125-1.125H9"/>
</svg>
