<svg xmlns="http://www.w3.org/2000/svg" width="24" height="24" fill="none" viewBox="0 0 24 24">
  <path stroke="#1B1C1B" stroke-linecap="round" stroke-linejoin="round" stroke-width="1.5" d="M13.5 19.5v-8c0-.943 0-1.414-.293-1.707-.293-.293-.764-.293-1.707-.293-.943 0-1.414 0-1.707.293-.293.293-.293.764-.293 1.707v8c0 .943 0 1.414.293 1.707.293.293.764.293 1.707.293.943 0 1.414 0 1.707-.293.293-.293.293-.764.293-1.707Zm7-7v7c0 .943 0 1.414-.293 1.707-.293.293-.764.293-1.707.293-.943 0-1.414 0-1.707-.293-.293-.293-.293-.764-.293-1.707v-7m.938-3.333V3.833m1.562 0V2.5m0 8V9.167M17.437 6.5h3.125m0 0c.518 0 .938.448.938 1v.667c0 .552-.42 1-.938 1H16.5M20.563 6.5c.517 0 .937-.448.937-1v-.667c0-.552-.42-1-.938-1H16.5M6.5 19.5v-5c0-.943 0-1.414-.293-1.707-.293-.293-.764-.293-1.707-.293-.943 0-1.414 0-1.707.293-.293.293-.293.764-.293 1.707v5c0 .943 0 1.414.293 1.707.293.293.764.293 1.707.293.943 0 1.414 0 1.707-.293.293-.293.293-.764.293-1.707Z"/>
</svg>
