<svg xmlns="http://www.w3.org/2000/svg" width="24" height="24" fill="none" viewBox="0 0 24 24">
  <path stroke="#1B1C1B" stroke-linecap="round" stroke-linejoin="round" stroke-width="1.5" d="M12 2a6.5 6.5 0 1 0 0 13 6.5 6.5 0 0 0 0-13ZM9.5 19.5c.492.506 1.8 2.5 2.5 2.5m0 0c.7 0 2.008-1.994 2.5-2.5M12 22v-4.5"/>
  <path stroke="#1B1C1B" stroke-linecap="round" stroke-linejoin="round" stroke-width="1.5" d="M10.438 11.167V5.833m1.562 0V4.5m0 8v-1.333M10.437 8.5h3.126m0 0c.517 0 .937.448.937 1v.667c0 .552-.42 1-.938 1H9.5M13.563 8.5c.517 0 .937-.448.937-1v-.667c0-.552-.42-1-.938-1H9.5"/>
</svg>
