<svg xmlns="http://www.w3.org/2000/svg" width="24" height="24" fill="none" viewBox="0 0 24 24">
  <path stroke="#1B1C1B" stroke-linecap="round" stroke-width="1.5" d="M6 8h1c1.414 0 2.121 0 2.56-.44C10 7.122 10 6.415 10 5c0-1.414 0-2.121-.44-2.56C9.122 2 8.415 2 7 2H5c-1.414 0-2.121 0-2.56.44C2 2.878 2 3.585 2 5c0 1.414 0 2.121.44 2.56C2.878 8 3.585 8 5 8h1Zm0 0v2.5m0 0h1.5m-1.5 0H4.5"/>
  <path stroke="#1B1C1B" stroke-linecap="round" stroke-linejoin="round" stroke-width="1.5" d="M13 5c2.828 0 4.243 0 5.121.879C19 6.757 19 8.172 19 11l-2-1m-6 9c-2.828 0-4.243 0-5.121-.879C5 17.243 5 15.828 5 13l2 1"/>
  <path stroke="#1B1C1B" stroke-linecap="round" stroke-width="1.5" d="M18 19.5h1c1.414 0 2.121 0 2.56-.44.44-.439.44-1.146.44-2.56 0-1.414 0-2.121-.44-2.56-.439-.44-1.146-.44-2.56-.44h-2c-1.414 0-2.121 0-2.56.44-.44.439-.44 1.146-.44 2.56 0 1.414 0 2.121.44 2.56.439.44 1.146.44 2.56.44h1Zm0 0V22m0 0h1.5M18 22h-1.5"/>
</svg>
