<svg xmlns="http://www.w3.org/2000/svg" width="24" height="24" fill="none" viewBox="0 0 24 24">
  <path stroke="#1B1C1B" stroke-linecap="round" stroke-linejoin="round" stroke-width="1.5" d="M11.998 2c-2.85 0-4.697 2.019-6.882 2.755-.888.3-1.333.449-1.512.66-.18.21-.233.519-.338 1.135-1.127 6.596 1.336 12.694 7.209 15.068.631.255.947.382 1.526.382.58 0 .896-.128 1.527-.383 5.873-2.373 8.333-8.471 7.206-15.067-.106-.616-.158-.925-.338-1.136-.18-.21-.624-.36-1.512-.659C16.698 4.019 14.848 2 11.998 2Z"/>
  <path stroke="#1B1C1B" stroke-linecap="round" stroke-linejoin="round" stroke-width="1.5" d="m8.129 11.131 3.999-4.94c.313-.387.899-.146.899.368v3.824c0 .309.23.559.514.559h1.944c.442 0 .678.566.386.927l-3.999 4.94c-.313.387-.899.146-.899-.368v-3.824c0-.309-.23-.559-.514-.559H8.514c-.441 0-.677-.566-.385-.927Z"/>
</svg>
